<svg width="180" height="20" viewBox="0 0 180 20" fill="none" xmlns="http://www.w3.org/2000/svg">
<path d="M10.6162 13.9219C10.6162 15.0898 10.3877 16.0716 9.93066 16.8672C9.4821 17.6543 8.85579 18.251 8.05176 18.6572C7.25618 19.055 6.35059 19.2539 5.33496 19.2539C4.31934 19.2539 3.40951 19.055 2.60547 18.6572C1.80143 18.251 1.16667 17.6543 0.701172 16.8672C0.235677 16.0716 0.00292969 15.0898 0.00292969 13.9219C0.00292969 13.1432 0.134115 12.4365 0.396484 11.8018C0.658854 11.167 1.02702 10.6253 1.50098 10.1768C1.9834 9.71973 2.54622 9.37272 3.18945 9.13574C3.84115 8.8903 4.54785 8.76758 5.30957 8.76758C6.33366 8.76758 7.24349 8.9834 8.03906 9.41504C8.8431 9.83822 9.47363 10.4349 9.93066 11.2051C10.3877 11.9753 10.6162 12.8809 10.6162 13.9219ZM7.04883 13.668C7.04883 13.1178 6.97689 12.6439 6.83301 12.2461C6.69759 11.8483 6.4987 11.5436 6.23633 11.332C5.98242 11.112 5.6735 11.002 5.30957 11.002C4.9541 11.002 4.64518 11.112 4.38281 11.332C4.12044 11.5436 3.91732 11.8483 3.77344 12.2461C3.63802 12.6439 3.57031 13.1178 3.57031 13.668C3.57031 14.2096 3.63802 14.6751 3.77344 15.0645C3.91732 15.4538 4.12044 15.7585 4.38281 15.9785C4.64518 16.1901 4.96257 16.2959 5.33496 16.2959C5.69889 16.2959 6.00781 16.1901 6.26172 15.9785C6.52409 15.7585 6.71875 15.4538 6.8457 15.0645C6.98112 14.6751 7.04883 14.2096 7.04883 13.668ZM10.3115 5.42871C10.3115 6.37663 10.0999 7.21029 9.67676 7.92969C9.25358 8.64909 8.66536 9.21191 7.91211 9.61816C7.16732 10.0244 6.30827 10.2275 5.33496 10.2275C4.35319 10.2275 3.48568 10.0244 2.73242 9.61816C1.97917 9.21191 1.38672 8.64909 0.955078 7.92969C0.531901 7.20182 0.320312 6.36816 0.320312 5.42871C0.320312 4.31152 0.531901 3.36784 0.955078 2.59766C1.38672 1.82747 1.97917 1.24349 2.73242 0.845703C3.48568 0.447917 4.34896 0.249023 5.32227 0.249023C6.30404 0.249023 7.16732 0.447917 7.91211 0.845703C8.66536 1.24349 9.25358 1.82747 9.67676 2.59766C10.0999 3.36784 10.3115 4.31152 10.3115 5.42871ZM6.75684 5.60645C6.75684 5.12402 6.70182 4.70508 6.5918 4.34961C6.49023 3.99414 6.33366 3.71484 6.12207 3.51172C5.91048 3.30859 5.64388 3.20703 5.32227 3.20703C5.01758 3.20703 4.75521 3.30436 4.53516 3.49902C4.32357 3.69368 4.16276 3.96875 4.05273 4.32422C3.94271 4.67969 3.8877 5.1071 3.8877 5.60645C3.8877 6.09733 3.93848 6.52474 4.04004 6.88867C4.15007 7.2526 4.3151 7.53613 4.53516 7.73926C4.75521 7.94238 5.02181 8.04395 5.33496 8.04395C5.65658 8.04395 5.91895 7.94238 6.12207 7.73926C6.33366 7.52767 6.49023 7.23991 6.5918 6.87598C6.70182 6.51204 6.75684 6.08887 6.75684 5.60645ZM19.6172 9.59277V12.5508H13.4346V9.59277H19.6172ZM33.1631 13.9219C33.1631 15.0898 32.9346 16.0716 32.4775 16.8672C32.029 17.6543 31.4027 18.251 30.5986 18.6572C29.8031 19.055 28.8975 19.2539 27.8818 19.2539C26.8662 19.2539 25.9564 19.055 25.1523 18.6572C24.3483 18.251 23.7135 17.6543 23.248 16.8672C22.7826 16.0716 22.5498 15.0898 22.5498 13.9219C22.5498 13.1432 22.681 12.4365 22.9434 11.8018C23.2057 11.167 23.5739 10.6253 24.0479 10.1768C24.5303 9.71973 25.0931 9.37272 25.7363 9.13574C26.388 8.8903 27.0947 8.76758 27.8564 8.76758C28.8805 8.76758 29.7904 8.9834 30.5859 9.41504C31.39 9.83822 32.0205 10.4349 32.4775 11.2051C32.9346 11.9753 33.1631 12.8809 33.1631 13.9219ZM29.5957 13.668C29.5957 13.1178 29.5238 12.6439 29.3799 12.2461C29.2445 11.8483 29.0456 11.5436 28.7832 11.332C28.5293 11.112 28.2204 11.002 27.8564 11.002C27.501 11.002 27.1921 11.112 26.9297 11.332C26.6673 11.5436 26.4642 11.8483 26.3203 12.2461C26.1849 12.6439 26.1172 13.1178 26.1172 13.668C26.1172 14.2096 26.1849 14.6751 26.3203 15.0645C26.4642 15.4538 26.6673 15.7585 26.9297 15.9785C27.1921 16.1901 27.5094 16.2959 27.8818 16.2959C28.2458 16.2959 28.5547 16.1901 28.8086 15.9785C29.071 15.7585 29.2656 15.4538 29.3926 15.0645C29.528 14.6751 29.5957 14.2096 29.5957 13.668ZM32.8584 5.42871C32.8584 6.37663 32.6468 7.21029 32.2236 7.92969C31.8005 8.64909 31.2122 9.21191 30.459 9.61816C29.7142 10.0244 28.8551 10.2275 27.8818 10.2275C26.9001 10.2275 26.0326 10.0244 25.2793 9.61816C24.526 9.21191 23.9336 8.64909 23.502 7.92969C23.0788 7.20182 22.8672 6.36816 22.8672 5.42871C22.8672 4.31152 23.0788 3.36784 23.502 2.59766C23.9336 1.82747 24.526 1.24349 25.2793 0.845703C26.0326 0.447917 26.8958 0.249023 27.8691 0.249023C28.8509 0.249023 29.7142 0.447917 30.459 0.845703C31.2122 1.24349 31.8005 1.82747 32.2236 2.59766C32.6468 3.36784 32.8584 4.31152 32.8584 5.42871ZM29.3037 5.60645C29.3037 5.12402 29.2487 4.70508 29.1387 4.34961C29.0371 3.99414 28.8805 3.71484 28.6689 3.51172C28.4574 3.30859 28.1908 3.20703 27.8691 3.20703C27.5645 3.20703 27.3021 3.30436 27.082 3.49902C26.8704 3.69368 26.7096 3.96875 26.5996 4.32422C26.4896 4.67969 26.4346 5.1071 26.4346 5.60645C26.4346 6.09733 26.4854 6.52474 26.5869 6.88867C26.6969 7.2526 26.862 7.53613 27.082 7.73926C27.3021 7.94238 27.5687 8.04395 27.8818 8.04395C28.2035 8.04395 28.4658 7.94238 28.6689 7.73926C28.8805 7.52767 29.0371 7.23991 29.1387 6.87598C29.2487 6.51204 29.3037 6.08887 29.3037 5.60645ZM46.3789 8.13281V11.3447C46.3789 12.7327 46.2477 13.9261 45.9854 14.9248C45.723 15.9235 45.3548 16.7445 44.8809 17.3877C44.4069 18.0225 43.8441 18.4922 43.1924 18.7969C42.5407 19.1016 41.8213 19.2539 41.0342 19.2539C40.4079 19.2539 39.8197 19.1566 39.2695 18.9619C38.7194 18.7673 38.2201 18.471 37.7715 18.0732C37.3314 17.667 36.9505 17.1549 36.6289 16.5371C36.3158 15.9108 36.0745 15.1702 35.9053 14.3154C35.736 13.4521 35.6514 12.4619 35.6514 11.3447V8.13281C35.6514 6.74479 35.7826 5.55566 36.0449 4.56543C36.3158 3.56673 36.6882 2.75 37.1621 2.11523C37.6361 1.48047 38.1989 1.01497 38.8506 0.71875C39.5107 0.414062 40.2344 0.261719 41.0215 0.261719C41.6393 0.261719 42.2233 0.359049 42.7734 0.553711C43.332 0.739909 43.8271 1.0319 44.2588 1.42969C44.6989 1.82747 45.0755 2.33952 45.3887 2.96582C45.7103 3.58366 45.9557 4.32422 46.125 5.1875C46.2943 6.04232 46.3789 7.02409 46.3789 8.13281ZM42.8115 11.8398V7.6123C42.8115 6.96061 42.7819 6.38932 42.7227 5.89844C42.6719 5.40755 42.5999 4.99284 42.5068 4.6543C42.4137 4.31576 42.291 4.04069 42.1387 3.8291C41.9863 3.61751 41.8171 3.46517 41.6309 3.37207C41.4447 3.27051 41.2373 3.21973 41.0088 3.21973C40.738 3.21973 40.4925 3.2959 40.2725 3.44824C40.0524 3.60059 39.862 3.85026 39.7012 4.19727C39.5404 4.53581 39.4176 4.98861 39.333 5.55566C39.2568 6.11426 39.2188 6.7998 39.2188 7.6123V11.8398C39.2188 12.4915 39.2441 13.0671 39.2949 13.5664C39.3542 14.0658 39.4346 14.4932 39.5361 14.8486C39.6462 15.1956 39.7689 15.4749 39.9043 15.6865C40.0482 15.8981 40.2132 16.0547 40.3994 16.1562C40.5941 16.2493 40.8057 16.2959 41.0342 16.2959C41.305 16.2959 41.5505 16.2197 41.7705 16.0674C41.999 15.9066 42.1895 15.6527 42.3418 15.3057C42.4941 14.9587 42.6084 14.5016 42.6846 13.9346C42.7692 13.359 42.8115 12.6608 42.8115 11.8398ZM59.5312 8.13281V11.3447C59.5312 12.7327 59.4001 13.9261 59.1377 14.9248C58.8753 15.9235 58.5072 16.7445 58.0332 17.3877C57.5592 18.0225 56.9964 18.4922 56.3447 18.7969C55.693 19.1016 54.9736 19.2539 54.1865 19.2539C53.5602 19.2539 52.972 19.1566 52.4219 18.9619C51.8717 18.7673 51.3724 18.471 50.9238 18.0732C50.4837 17.667 50.1029 17.1549 49.7812 16.5371C49.4681 15.9108 49.2269 15.1702 49.0576 14.3154C48.8883 13.4521 48.8037 12.4619 48.8037 11.3447V8.13281C48.8037 6.74479 48.9349 5.55566 49.1973 4.56543C49.4681 3.56673 49.8405 2.75 50.3145 2.11523C50.7884 1.48047 51.3512 1.01497 52.0029 0.71875C52.6631 0.414062 53.3867 0.261719 54.1738 0.261719C54.7917 0.261719 55.3757 0.359049 55.9258 0.553711C56.4844 0.739909 56.9795 1.0319 57.4111 1.42969C57.8512 1.82747 58.2279 2.33952 58.541 2.96582C58.8626 3.58366 59.1081 4.32422 59.2773 5.1875C59.4466 6.04232 59.5312 7.02409 59.5312 8.13281ZM55.9639 11.8398V7.6123C55.9639 6.96061 55.9342 6.38932 55.875 5.89844C55.8242 5.40755 55.7523 4.99284 55.6592 4.6543C55.5661 4.31576 55.4434 4.04069 55.291 3.8291C55.1387 3.61751 54.9694 3.46517 54.7832 3.37207C54.597 3.27051 54.3896 3.21973 54.1611 3.21973C53.8903 3.21973 53.6449 3.2959 53.4248 3.44824C53.2048 3.60059 53.0143 3.85026 52.8535 4.19727C52.6927 4.53581 52.57 4.98861 52.4854 5.55566C52.4092 6.11426 52.3711 6.7998 52.3711 7.6123V11.8398C52.3711 12.4915 52.3965 13.0671 52.4473 13.5664C52.5065 14.0658 52.5869 14.4932 52.6885 14.8486C52.7985 15.1956 52.9212 15.4749 53.0566 15.6865C53.2005 15.8981 53.3656 16.0547 53.5518 16.1562C53.7464 16.2493 53.958 16.2959 54.1865 16.2959C54.4574 16.2959 54.7028 16.2197 54.9229 16.0674C55.1514 15.9066 55.3418 15.6527 55.4941 15.3057C55.6465 14.9587 55.7607 14.5016 55.8369 13.9346C55.9215 13.359 55.9639 12.6608 55.9639 11.8398ZM68.4688 9.59277V12.5508H62.2861V9.59277H68.4688ZM74.5752 10.6211L71.7314 9.91016L72.6582 0.515625H81.583V3.5625H75.5781L75.2354 7.53613C75.43 7.40072 75.7178 7.2526 76.0986 7.0918C76.488 6.93099 76.9196 6.85059 77.3936 6.85059C78.1553 6.85059 78.8324 6.99023 79.4248 7.26953C80.0173 7.54883 80.5166 7.95508 80.9229 8.48828C81.3291 9.02148 81.638 9.67318 81.8496 10.4434C82.0612 11.2135 82.167 12.0853 82.167 13.0586C82.167 13.8796 82.0527 14.6624 81.8242 15.4072C81.6042 16.152 81.2699 16.8122 80.8213 17.3877C80.3727 17.9632 79.8099 18.4202 79.1328 18.7588C78.4557 19.0889 77.6644 19.2539 76.7588 19.2539C76.0732 19.2539 75.4089 19.1354 74.7656 18.8984C74.1309 18.6615 73.5596 18.3102 73.0518 17.8447C72.5439 17.3708 72.1377 16.8037 71.833 16.1436C71.5283 15.4749 71.376 14.7132 71.376 13.8584H74.8926C74.9264 14.3577 75.0238 14.7936 75.1846 15.166C75.3538 15.5299 75.5654 15.8092 75.8193 16.0039C76.0817 16.1986 76.3864 16.2959 76.7334 16.2959C77.0719 16.2959 77.3639 16.2113 77.6094 16.042C77.8548 15.8643 78.0495 15.6188 78.1934 15.3057C78.3372 14.9925 78.443 14.6286 78.5107 14.2139C78.5785 13.7907 78.6123 13.3379 78.6123 12.8555C78.6123 12.3646 78.5658 11.9202 78.4727 11.5225C78.388 11.1247 78.2526 10.7861 78.0664 10.5068C77.8887 10.2191 77.6602 9.99902 77.3809 9.84668C77.1016 9.68587 76.7715 9.60547 76.3906 9.60547C75.8743 9.60547 75.485 9.71549 75.2227 9.93555C74.9688 10.1471 74.7529 10.3757 74.5752 10.6211ZM87.7275 10.6211L84.8838 9.91016L85.8105 0.515625H94.7354V3.5625H88.7305L88.3877 7.53613C88.5824 7.40072 88.8701 7.2526 89.251 7.0918C89.6403 6.93099 90.0719 6.85059 90.5459 6.85059C91.3076 6.85059 91.9847 6.99023 92.5771 7.26953C93.1696 7.54883 93.6689 7.95508 94.0752 8.48828C94.4814 9.02148 94.7904 9.67318 95.002 10.4434C95.2135 11.2135 95.3193 12.0853 95.3193 13.0586C95.3193 13.8796 95.2051 14.6624 94.9766 15.4072C94.7565 16.152 94.4222 16.8122 93.9736 17.3877C93.5251 17.9632 92.9622 18.4202 92.2852 18.7588C91.6081 19.0889 90.8167 19.2539 89.9111 19.2539C89.2256 19.2539 88.5612 19.1354 87.918 18.8984C87.2832 18.6615 86.7119 18.3102 86.2041 17.8447C85.6963 17.3708 85.29 16.8037 84.9854 16.1436C84.6807 15.4749 84.5283 14.7132 84.5283 13.8584H88.0449C88.0788 14.3577 88.1761 14.7936 88.3369 15.166C88.5062 15.5299 88.7178 15.8092 88.9717 16.0039C89.234 16.1986 89.5387 16.2959 89.8857 16.2959C90.2243 16.2959 90.5163 16.2113 90.7617 16.042C91.0072 15.8643 91.2018 15.6188 91.3457 15.3057C91.4896 14.9925 91.5954 14.6286 91.6631 14.2139C91.7308 13.7907 91.7646 13.3379 91.7646 12.8555C91.7646 12.3646 91.7181 11.9202 91.625 11.5225C91.5404 11.1247 91.4049 10.7861 91.2188 10.5068C91.041 10.2191 90.8125 9.99902 90.5332 9.84668C90.2539 9.68587 89.9238 9.60547 89.543 9.60547C89.0267 9.60547 88.6374 9.71549 88.375 9.93555C88.1211 10.1471 87.9053 10.3757 87.7275 10.6211ZM100.88 10.6211L98.0361 9.91016L98.9629 0.515625H107.888V3.5625H101.883L101.54 7.53613C101.735 7.40072 102.022 7.2526 102.403 7.0918C102.793 6.93099 103.224 6.85059 103.698 6.85059C104.46 6.85059 105.137 6.99023 105.729 7.26953C106.322 7.54883 106.821 7.95508 107.228 8.48828C107.634 9.02148 107.943 9.67318 108.154 10.4434C108.366 11.2135 108.472 12.0853 108.472 13.0586C108.472 13.8796 108.357 14.6624 108.129 15.4072C107.909 16.152 107.575 16.8122 107.126 17.3877C106.677 17.9632 106.115 18.4202 105.438 18.7588C104.76 19.0889 103.969 19.2539 103.063 19.2539C102.378 19.2539 101.714 19.1354 101.07 18.8984C100.436 18.6615 99.8643 18.3102 99.3564 17.8447C98.8486 17.3708 98.4424 16.8037 98.1377 16.1436C97.833 15.4749 97.6807 14.7132 97.6807 13.8584H101.197C101.231 14.3577 101.328 14.7936 101.489 15.166C101.659 15.5299 101.87 15.8092 102.124 16.0039C102.386 16.1986 102.691 16.2959 103.038 16.2959C103.377 16.2959 103.669 16.2113 103.914 16.042C104.16 15.8643 104.354 15.6188 104.498 15.3057C104.642 14.9925 104.748 14.6286 104.815 14.2139C104.883 13.7907 104.917 13.3379 104.917 12.8555C104.917 12.3646 104.87 11.9202 104.777 11.5225C104.693 11.1247 104.557 10.7861 104.371 10.5068C104.193 10.2191 103.965 9.99902 103.686 9.84668C103.406 9.68587 103.076 9.60547 102.695 9.60547C102.179 9.60547 101.79 9.71549 101.527 9.93555C101.273 10.1471 101.058 10.3757 100.88 10.6211ZM117.32 9.59277V12.5508H111.138V9.59277H117.32ZM123.427 10.6211L120.583 9.91016L121.51 0.515625H130.435V3.5625H124.43L124.087 7.53613C124.282 7.40072 124.569 7.2526 124.95 7.0918C125.34 6.93099 125.771 6.85059 126.245 6.85059C127.007 6.85059 127.684 6.99023 128.276 7.26953C128.869 7.54883 129.368 7.95508 129.774 8.48828C130.181 9.02148 130.49 9.67318 130.701 10.4434C130.913 11.2135 131.019 12.0853 131.019 13.0586C131.019 13.8796 130.904 14.6624 130.676 15.4072C130.456 16.152 130.121 16.8122 129.673 17.3877C129.224 17.9632 128.661 18.4202 127.984 18.7588C127.307 19.0889 126.516 19.2539 125.61 19.2539C124.925 19.2539 124.26 19.1354 123.617 18.8984C122.982 18.6615 122.411 18.3102 121.903 17.8447C121.396 17.3708 120.989 16.8037 120.685 16.1436C120.38 15.4749 120.228 14.7132 120.228 13.8584H123.744C123.778 14.3577 123.875 14.7936 124.036 15.166C124.205 15.5299 124.417 15.8092 124.671 16.0039C124.933 16.1986 125.238 16.2959 125.585 16.2959C125.924 16.2959 126.215 16.2113 126.461 16.042C126.706 15.8643 126.901 15.6188 127.045 15.3057C127.189 14.9925 127.295 14.6286 127.362 14.2139C127.43 13.7907 127.464 13.3379 127.464 12.8555C127.464 12.3646 127.417 11.9202 127.324 11.5225C127.24 11.1247 127.104 10.7861 126.918 10.5068C126.74 10.2191 126.512 9.99902 126.232 9.84668C125.953 9.68587 125.623 9.60547 125.242 9.60547C124.726 9.60547 124.337 9.71549 124.074 9.93555C123.82 10.1471 123.604 10.3757 123.427 10.6211ZM136.579 10.6211L133.735 9.91016L134.662 0.515625H143.587V3.5625H137.582L137.239 7.53613C137.434 7.40072 137.722 7.2526 138.103 7.0918C138.492 6.93099 138.924 6.85059 139.397 6.85059C140.159 6.85059 140.836 6.99023 141.429 7.26953C142.021 7.54883 142.521 7.95508 142.927 8.48828C143.333 9.02148 143.642 9.67318 143.854 10.4434C144.065 11.2135 144.171 12.0853 144.171 13.0586C144.171 13.8796 144.057 14.6624 143.828 15.4072C143.608 16.152 143.274 16.8122 142.825 17.3877C142.377 17.9632 141.814 18.4202 141.137 18.7588C140.46 19.0889 139.668 19.2539 138.763 19.2539C138.077 19.2539 137.413 19.1354 136.77 18.8984C136.135 18.6615 135.563 18.3102 135.056 17.8447C134.548 17.3708 134.142 16.8037 133.837 16.1436C133.532 15.4749 133.38 14.7132 133.38 13.8584H136.896C136.93 14.3577 137.028 14.7936 137.188 15.166C137.358 15.5299 137.569 15.8092 137.823 16.0039C138.086 16.1986 138.39 16.2959 138.737 16.2959C139.076 16.2959 139.368 16.2113 139.613 16.042C139.859 15.8643 140.053 15.6188 140.197 15.3057C140.341 14.9925 140.447 14.6286 140.515 14.2139C140.582 13.7907 140.616 13.3379 140.616 12.8555C140.616 12.3646 140.57 11.9202 140.477 11.5225C140.392 11.1247 140.257 10.7861 140.07 10.5068C139.893 10.2191 139.664 9.99902 139.385 9.84668C139.105 9.68587 138.775 9.60547 138.395 9.60547C137.878 9.60547 137.489 9.71549 137.227 9.93555C136.973 10.1471 136.757 10.3757 136.579 10.6211ZM153.02 9.59277V12.5508H146.837V9.59277H153.02ZM159.126 10.6211L156.282 9.91016L157.209 0.515625H166.134V3.5625H160.129L159.786 7.53613C159.981 7.40072 160.269 7.2526 160.649 7.0918C161.039 6.93099 161.47 6.85059 161.944 6.85059C162.706 6.85059 163.383 6.99023 163.976 7.26953C164.568 7.54883 165.067 7.95508 165.474 8.48828C165.88 9.02148 166.189 9.67318 166.4 10.4434C166.612 11.2135 166.718 12.0853 166.718 13.0586C166.718 13.8796 166.604 14.6624 166.375 15.4072C166.155 16.152 165.821 16.8122 165.372 17.3877C164.924 17.9632 164.361 18.4202 163.684 18.7588C163.007 19.0889 162.215 19.2539 161.31 19.2539C160.624 19.2539 159.96 19.1354 159.316 18.8984C158.682 18.6615 158.11 18.3102 157.603 17.8447C157.095 17.3708 156.688 16.8037 156.384 16.1436C156.079 15.4749 155.927 14.7132 155.927 13.8584H159.443C159.477 14.3577 159.575 14.7936 159.735 15.166C159.905 15.5299 160.116 15.8092 160.37 16.0039C160.632 16.1986 160.937 16.2959 161.284 16.2959C161.623 16.2959 161.915 16.2113 162.16 16.042C162.406 15.8643 162.6 15.6188 162.744 15.3057C162.888 14.9925 162.994 14.6286 163.062 14.2139C163.129 13.7907 163.163 13.3379 163.163 12.8555C163.163 12.3646 163.117 11.9202 163.023 11.5225C162.939 11.1247 162.803 10.7861 162.617 10.5068C162.439 10.2191 162.211 9.99902 161.932 9.84668C161.652 9.68587 161.322 9.60547 160.941 9.60547C160.425 9.60547 160.036 9.71549 159.773 9.93555C159.52 10.1471 159.304 10.3757 159.126 10.6211ZM172.278 10.6211L169.435 9.91016L170.361 0.515625H179.286V3.5625H173.281L172.938 7.53613C173.133 7.40072 173.421 7.2526 173.802 7.0918C174.191 6.93099 174.623 6.85059 175.097 6.85059C175.858 6.85059 176.535 6.99023 177.128 7.26953C177.72 7.54883 178.22 7.95508 178.626 8.48828C179.032 9.02148 179.341 9.67318 179.553 10.4434C179.764 11.2135 179.87 12.0853 179.87 13.0586C179.87 13.8796 179.756 14.6624 179.527 15.4072C179.307 16.152 178.973 16.8122 178.524 17.3877C178.076 17.9632 177.513 18.4202 176.836 18.7588C176.159 19.0889 175.368 19.2539 174.462 19.2539C173.776 19.2539 173.112 19.1354 172.469 18.8984C171.834 18.6615 171.263 18.3102 170.755 17.8447C170.247 17.3708 169.841 16.8037 169.536 16.1436C169.231 15.4749 169.079 14.7132 169.079 13.8584H172.596C172.63 14.3577 172.727 14.7936 172.888 15.166C173.057 15.5299 173.269 15.8092 173.522 16.0039C173.785 16.1986 174.09 16.2959 174.437 16.2959C174.775 16.2959 175.067 16.2113 175.312 16.042C175.558 15.8643 175.753 15.6188 175.896 15.3057C176.04 14.9925 176.146 14.6286 176.214 14.2139C176.282 13.7907 176.315 13.3379 176.315 12.8555C176.315 12.3646 176.269 11.9202 176.176 11.5225C176.091 11.1247 175.956 10.7861 175.77 10.5068C175.592 10.2191 175.363 9.99902 175.084 9.84668C174.805 9.68587 174.475 9.60547 174.094 9.60547C173.577 9.60547 173.188 9.71549 172.926 9.93555C172.672 10.1471 172.456 10.3757 172.278 10.6211Z" fill="white"/>
</svg>
