<svg width="21" height="20" viewBox="0 0 21 20" fill="none" xmlns="http://www.w3.org/2000/svg">
<path d="M10.7357 0C13.3839 0 13.7144 0.00999994 14.7534 0.0599999C15.7915 0.11 16.4982 0.277 17.12 0.525C17.7633 0.779 18.3053 1.123 18.8472 1.678C19.3428 2.1779 19.7264 2.78259 19.9711 3.45C20.2118 4.087 20.3756 4.813 20.4243 5.878C20.4701 6.944 20.4828 7.283 20.4828 10C20.4828 12.717 20.473 13.056 20.4243 14.122C20.3756 15.187 20.2118 15.912 19.9711 16.55C19.7271 17.2178 19.3435 17.8226 18.8472 18.322C18.3598 18.8303 17.7705 19.2238 17.12 19.475C16.4991 19.722 15.7915 19.89 14.7534 19.94C13.7144 19.987 13.3839 20 10.7357 20C8.08736 20 7.75693 19.99 6.71789 19.94C5.67982 19.89 4.97315 19.722 4.35128 19.475C3.70049 19.2245 3.11099 18.8309 2.62409 18.322C2.12836 17.8222 1.74484 17.2175 1.50025 16.55C1.25852 15.913 1.09574 15.187 1.04701 14.122C1.0012 13.056 0.988525 12.717 0.988525 10C0.988525 7.283 0.998272 6.944 1.04701 5.878C1.09574 4.812 1.25852 4.088 1.50025 3.45C1.74416 2.78218 2.12777 2.17732 2.62409 1.678C3.11113 1.16923 3.70059 0.775729 4.35128 0.525C4.97315 0.277 5.67884 0.11 6.71789 0.0599999C7.75693 0.0129999 8.08736 0 10.7357 0ZM10.7357 5C9.4431 5 8.20349 5.52678 7.28952 6.46447C6.37555 7.40215 5.86209 8.67392 5.86209 10C5.86209 11.3261 6.37555 12.5979 7.28952 13.5355C8.20349 14.4732 9.4431 15 10.7357 15C12.0282 15 13.2678 14.4732 14.1818 13.5355C15.0958 12.5979 15.6092 11.3261 15.6092 10C15.6092 8.67392 15.0958 7.40215 14.1818 6.46447C13.2678 5.52678 12.0282 5 10.7357 5ZM17.0713 4.75C17.0713 4.41848 16.9429 4.10054 16.7144 3.86612C16.4859 3.6317 16.176 3.5 15.8529 3.5C15.5298 3.5 15.2199 3.6317 14.9914 3.86612C14.7629 4.10054 14.6345 4.41848 14.6345 4.75C14.6345 5.08152 14.7629 5.39946 14.9914 5.63388C15.2199 5.8683 15.5298 6 15.8529 6C16.176 6 16.4859 5.8683 16.7144 5.63388C16.9429 5.39946 17.0713 5.08152 17.0713 4.75ZM10.7357 7C11.5112 7 12.2549 7.31607 12.8033 7.87868C13.3517 8.44129 13.6598 9.20435 13.6598 10C13.6598 10.7956 13.3517 11.5587 12.8033 12.1213C12.2549 12.6839 11.5112 13 10.7357 13C9.96012 13 9.21636 12.6839 8.66797 12.1213C8.11959 11.5587 7.81151 10.7956 7.81151 10C7.81151 9.20435 8.11959 8.44129 8.66797 7.87868C9.21636 7.31607 9.96012 7 10.7357 7Z" fill="#F9FBFD"/>
</svg>
