<svg width="67" height="13" viewBox="0 0 67 13" fill="none" xmlns="http://www.w3.org/2000/svg">
<path d="M3.84 12.14C3.13333 12.14 2.52667 12.04 2.02 11.84C1.52667 11.64 1.14667 11.2867 0.88 10.78C0.613333 10.2733 0.48 9.56 0.48 8.64V7.94C0.893333 7.94 1.3 7.94 1.7 7.94C2.1 7.94 2.5 7.94 2.9 7.94V8.84C2.9 9.33333 2.94 9.71333 3.02 9.98C3.1 10.2333 3.21333 10.4133 3.36 10.52C3.50667 10.6133 3.68 10.66 3.88 10.66C4.18667 10.66 4.42667 10.5533 4.6 10.34C4.78667 10.1133 4.88 9.68 4.88 9.04C4.88 8.54667 4.8 8.18 4.64 7.94C4.49333 7.68667 4.25333 7.48667 3.92 7.34C3.58667 7.18 3.16 6.98667 2.64 6.76C2.17333 6.56 1.78667 6.32 1.48 6.04C1.17333 5.76 0.946667 5.40667 0.8 4.98C0.653333 4.55333 0.58 4.03333 0.58 3.42C0.58 2.64667 0.68 2.02 0.88 1.54C1.09333 1.06 1.44 0.713333 1.92 0.499999C2.41333 0.273333 3.07333 0.16 3.9 0.16C4.96667 0.16 5.78 0.393333 6.34 0.859999C6.91333 1.31333 7.2 2 7.2 2.92V4.34C6.81333 4.34 6.42667 4.34 6.04 4.34C5.66667 4.34 5.28 4.34 4.88 4.34V3.62C4.88 3.02 4.80667 2.6 4.66 2.36C4.52667 2.12 4.28 2 3.92 2C3.57333 2 3.32667 2.10667 3.18 2.32C3.03333 2.53333 2.96 2.88 2.96 3.36C2.96 3.8 3.04667 4.14667 3.22 4.4C3.40667 4.64 3.64 4.82667 3.92 4.96C4.2 5.08 4.5 5.2 4.82 5.32C5.40667 5.54667 5.88667 5.78 6.26 6.02C6.63333 6.24667 6.90667 6.56667 7.08 6.98C7.25333 7.38 7.34 7.96 7.34 8.72C7.34 9.57333 7.19333 10.2533 6.9 10.76C6.62 11.2533 6.21333 11.6067 5.68 11.82C5.16 12.0333 4.54667 12.14 3.84 12.14ZM12.2925 12.24C11.8125 12.24 11.3725 12.2067 10.9725 12.14C10.5725 12.0733 10.2258 11.9333 9.9325 11.72C9.63917 11.5067 9.4125 11.1933 9.2525 10.78C9.0925 10.3533 9.0125 9.78 9.0125 9.06V0.18H11.3325V9.72C11.3325 10 11.3725 10.2267 11.4525 10.4C11.5458 10.56 11.6658 10.6667 11.8125 10.72C11.9592 10.7733 12.1192 10.8 12.2925 10.8C12.4525 10.8 12.6058 10.7733 12.7525 10.72C12.8992 10.6667 13.0125 10.56 13.0925 10.4C13.1858 10.2267 13.2325 10 13.2325 9.72V0.18H15.5525V9.06C15.5525 9.76667 15.4725 10.3333 15.3125 10.76C15.1525 11.1867 14.9258 11.5067 14.6325 11.72C14.3525 11.9333 14.0058 12.0733 13.5925 12.14C13.1925 12.2067 12.7592 12.24 12.2925 12.24ZM17.597 12V0.18H21.797C22.5837 0.18 23.177 0.36 23.577 0.72C23.9904 1.06667 24.197 1.55333 24.197 2.18V4.22C24.197 4.75333 24.1304 5.25333 23.997 5.72C23.8637 6.17333 23.6237 6.54 23.277 6.82C22.9304 7.1 22.4304 7.24 21.777 7.24H20.017V12H17.597ZM20.017 5.96H20.917C21.237 5.96 21.477 5.80667 21.637 5.5C21.797 5.19333 21.877 4.68667 21.877 3.98V3.18C21.877 2.55333 21.8104 2.10667 21.677 1.84C21.5437 1.57333 21.3504 1.44 21.097 1.44H20.017V5.96ZM25.8486 12V0.18H31.2886V1.82H28.2686V4.98H30.8286V6.8H28.2686V10.4H31.2886V12H25.8486ZM32.9283 12V0.18H37.2483C38.0349 0.18 38.6283 0.36 39.0283 0.72C39.4283 1.06667 39.6283 1.55333 39.6283 2.18V4.02C39.6283 4.64667 39.4616 5.17333 39.1283 5.6C38.7949 6.02667 38.2749 6.27333 37.5683 6.34C38.0216 6.40667 38.3416 6.56 38.5283 6.8C38.7283 7.02667 38.9016 7.4 39.0483 7.92L40.1683 12H37.5883L36.7283 8.08C36.6483 7.76 36.5549 7.49333 36.4483 7.28C36.3549 7.05333 36.2149 6.94 36.0283 6.94H35.3483V12H32.9283ZM35.3483 5.32H36.3083C36.6816 5.32 36.9483 5.22 37.1083 5.02C37.2683 4.80667 37.3483 4.47333 37.3483 4.02V2.6C37.3483 2.17333 37.2749 1.87333 37.1283 1.7C36.9816 1.52667 36.7549 1.44 36.4483 1.44H35.3483V5.32ZM44.2067 12.22C43.7534 12.22 43.3267 12.1467 42.9267 12C42.5401 11.8533 42.2201 11.5667 41.9667 11.14C41.7134 10.7 41.5867 10.0467 41.5867 9.18V2.7C41.5867 2.00667 41.7201 1.46667 41.9867 1.08C42.2667 0.693333 42.6534 0.426666 43.1467 0.279999C43.6401 0.119999 44.2134 0.039999 44.8667 0.039999C45.5201 0.039999 46.0934 0.119999 46.5867 0.279999C47.0934 0.426666 47.4867 0.693333 47.7667 1.08C48.0601 1.46667 48.2067 2.00667 48.2067 2.7V4.36H45.9467V2.58C45.9467 2.26 45.9001 2.02 45.8067 1.86C45.7267 1.68667 45.6134 1.57333 45.4667 1.52C45.3201 1.46667 45.1401 1.44 44.9267 1.44C44.7267 1.44 44.5467 1.46667 44.3867 1.52C44.2401 1.57333 44.1201 1.68667 44.0267 1.86C43.9467 2.02 43.9067 2.26 43.9067 2.58V9.74C43.9067 10.0467 43.9467 10.2867 44.0267 10.46C44.1201 10.62 44.2401 10.7333 44.3867 10.8C44.5467 10.8533 44.7267 10.88 44.9267 10.88C45.2334 10.88 45.4801 10.7867 45.6667 10.6C45.8534 10.4133 45.9467 10.1267 45.9467 9.74V7.38H44.9867V6.06H48.2067V12H46.4667L46.3467 11.08C46.3201 11.12 46.2934 11.16 46.2667 11.2C46.2401 11.24 46.2201 11.2733 46.2067 11.3C46.0734 11.5267 45.8467 11.74 45.5267 11.94C45.2201 12.1267 44.7801 12.22 44.2067 12.22ZM51.6555 12V6.98L49.4355 0.18H51.7555L52.7755 3.72L52.9155 4.48L53.0555 3.72L54.1555 0.18H56.2755L53.9755 7.1V12H51.6555ZM57.722 12V0.18H60.622L62.242 7.82L63.882 0.18H66.762V12H64.722V3.16L63.022 12H61.442L59.762 3.16V12H57.722Z" fill="white"/>
</svg>
