<svg width="81" height="16" viewBox="0 0 81 16" fill="none" xmlns="http://www.w3.org/2000/svg">
<path d="M4.608 15.168C3.76 15.168 3.032 15.048 2.424 14.808C1.832 14.568 1.376 14.144 1.056 13.536C0.736 12.928 0.576 12.072 0.576 10.968V10.128C1.072 10.128 1.56 10.128 2.04 10.128C2.52 10.128 3 10.128 3.48 10.128V11.208C3.48 11.8 3.528 12.256 3.624 12.576C3.72 12.88 3.856 13.096 4.032 13.224C4.208 13.336 4.416 13.392 4.656 13.392C5.024 13.392 5.312 13.264 5.52 13.008C5.744 12.736 5.856 12.216 5.856 11.448C5.856 10.856 5.76 10.416 5.568 10.128C5.392 9.824 5.104 9.584 4.704 9.408C4.304 9.216 3.792 8.984 3.168 8.712C2.608 8.472 2.144 8.184 1.776 7.848C1.408 7.512 1.136 7.088 0.96 6.576C0.784 6.064 0.696 5.44 0.696 4.704C0.696 3.776 0.816 3.024 1.056 2.448C1.312 1.872 1.728 1.456 2.304 1.2C2.896 0.927999 3.688 0.792 4.68 0.792C5.96 0.792 6.936 1.072 7.608 1.632C8.296 2.176 8.64 3 8.64 4.104V5.808C8.176 5.808 7.712 5.808 7.248 5.808C6.8 5.808 6.336 5.808 5.856 5.808V4.944C5.856 4.224 5.768 3.72 5.592 3.432C5.432 3.144 5.136 3 4.704 3C4.288 3 3.992 3.128 3.816 3.384C3.64 3.64 3.552 4.056 3.552 4.632C3.552 5.16 3.656 5.576 3.864 5.88C4.088 6.168 4.368 6.392 4.704 6.552C5.04 6.696 5.4 6.84 5.784 6.984C6.488 7.256 7.064 7.536 7.512 7.824C7.96 8.096 8.288 8.48 8.496 8.976C8.704 9.456 8.808 10.152 8.808 11.064C8.808 12.088 8.632 12.904 8.28 13.512C7.944 14.104 7.456 14.528 6.816 14.784C6.192 15.04 5.456 15.168 4.608 15.168ZM14.751 15.288C14.175 15.288 13.647 15.248 13.167 15.168C12.687 15.088 12.271 14.92 11.919 14.664C11.567 14.408 11.295 14.032 11.103 13.536C10.911 13.024 10.815 12.336 10.815 11.472V0.816H13.599V12.264C13.599 12.6 13.647 12.872 13.743 13.08C13.855 13.272 13.999 13.4 14.175 13.464C14.351 13.528 14.543 13.56 14.751 13.56C14.943 13.56 15.127 13.528 15.303 13.464C15.479 13.4 15.615 13.272 15.711 13.08C15.823 12.872 15.879 12.6 15.879 12.264V0.816H18.663V11.472C18.663 12.32 18.567 13 18.375 13.512C18.183 14.024 17.911 14.408 17.559 14.664C17.223 14.92 16.807 15.088 16.311 15.168C15.831 15.248 15.311 15.288 14.751 15.288ZM21.1164 15V0.816H26.1564C27.1004 0.816 27.8124 1.032 28.2924 1.464C28.7884 1.88 29.0364 2.464 29.0364 3.216V5.664C29.0364 6.304 28.9564 6.904 28.7964 7.464C28.6364 8.008 28.3484 8.448 27.9324 8.784C27.5164 9.12 26.9164 9.288 26.1324 9.288H24.0204V15H21.1164ZM24.0204 7.752H25.1004C25.4844 7.752 25.7724 7.568 25.9644 7.2C26.1564 6.832 26.2524 6.224 26.2524 5.376V4.416C26.2524 3.664 26.1724 3.128 26.0124 2.808C25.8524 2.488 25.6204 2.328 25.3164 2.328H24.0204V7.752ZM31.0183 15V0.816H37.5463V2.784H33.9223V6.576H36.9943V8.76H33.9223V13.08H37.5463V15H31.0183ZM39.5139 15V0.816H44.6979C45.6419 0.816 46.3539 1.032 46.8339 1.464C47.3139 1.88 47.5539 2.464 47.5539 3.216V5.424C47.5539 6.176 47.3539 6.808 46.9539 7.32C46.5539 7.832 45.9299 8.128 45.0819 8.208C45.6259 8.288 46.0099 8.472 46.2339 8.76C46.4739 9.032 46.6819 9.48 46.8579 10.104L48.2019 15H45.1059L44.0739 10.296C43.9779 9.912 43.8659 9.592 43.7379 9.336C43.6259 9.064 43.4579 8.928 43.2339 8.928H42.4179V15H39.5139ZM42.4179 6.984H43.5699C44.0179 6.984 44.3379 6.864 44.5299 6.624C44.7219 6.368 44.8179 5.968 44.8179 5.424V3.72C44.8179 3.208 44.7299 2.848 44.5539 2.64C44.3779 2.432 44.1059 2.328 43.7379 2.328H42.4179V6.984ZM53.0481 15.264C52.5041 15.264 51.9921 15.176 51.5121 15C51.0481 14.824 50.6641 14.48 50.3601 13.968C50.0561 13.44 49.9041 12.656 49.9041 11.616V3.84C49.9041 3.008 50.0641 2.36 50.3841 1.896C50.7201 1.432 51.1841 1.112 51.7761 0.935999C52.3681 0.743999 53.0561 0.647999 53.8401 0.647999C54.6241 0.647999 55.3121 0.743999 55.9041 0.935999C56.5121 1.112 56.9841 1.432 57.3201 1.896C57.6721 2.36 57.8481 3.008 57.8481 3.84V5.832H55.1361V3.696C55.1361 3.312 55.0801 3.024 54.9681 2.832C54.8721 2.624 54.7361 2.488 54.5601 2.424C54.3841 2.36 54.1681 2.328 53.9121 2.328C53.6721 2.328 53.4561 2.36 53.2641 2.424C53.0881 2.488 52.9441 2.624 52.8321 2.832C52.7361 3.024 52.6881 3.312 52.6881 3.696V12.288C52.6881 12.656 52.7361 12.944 52.8321 13.152C52.9441 13.344 53.0881 13.48 53.2641 13.56C53.4561 13.624 53.6721 13.656 53.9121 13.656C54.2801 13.656 54.5761 13.544 54.8001 13.32C55.0241 13.096 55.1361 12.752 55.1361 12.288V9.456H53.9841V7.872H57.8481V15H55.7601L55.6161 13.896C55.5841 13.944 55.5521 13.992 55.5201 14.04C55.4881 14.088 55.4641 14.128 55.4481 14.16C55.2881 14.432 55.0161 14.688 54.6321 14.928C54.2641 15.152 53.7361 15.264 53.0481 15.264ZM61.9866 15V8.976L59.3226 0.816H62.1066L63.3306 5.064L63.4986 5.976L63.6666 5.064L64.9866 0.816H67.5306L64.7706 9.12V15H61.9866ZM69.2664 15V0.816H72.7464L74.6904 9.984L76.6584 0.816H80.1144V15H77.6664V4.392L75.6264 15H73.7304L71.7144 4.392V15H69.2664Z" fill="white"/>
</svg>
