<svg width="38" height="20" viewBox="0 0 38 20" fill="none" xmlns="http://www.w3.org/2000/svg"><path fill-rule="evenodd" clip-rule="evenodd" d="M.49 16.38 7.97 6.6 10 7.66 14.88 0l3.03 3.5 1.13-.9L23.4 8l3.1-3.59 8.67 11.98L26.83 6.2l-1.27 4.28 1.16 3.39-7.47-9.99-.08 3.4 4.24 9.11-7.94-14.1 2.3 7.62-3.21-7.41-1.76 4.93.35-3.22-4.4 11.61.52-4.89-1.83-1.95-6.95 7.41Z" fill="#F9FBFD"/><path fill-rule="evenodd" clip-rule="evenodd" d="M37.7 17.91C25.86 8.65 7.44 21.38 0 16.47c8.18 6.96 27.3-4.8 37.7 1.44Z" fill="#F9FBFD"/><path fill-rule="evenodd" clip-rule="evenodd" d="M38 18.64c-9.29-5.74-23.1 2.25-30.17.4 7.67 3.6 21.94-4.39 30.17-.4Z" fill="#F9FBFD"/></svg>