<svg width="32" height="32" viewBox="0 0 32 32" fill="none" xmlns="http://www.w3.org/2000/svg">
  <path d="M9.86668 4.2666C10.2139 4.2666 10.5072 4.49033 10.6176 4.79992H13.3824C13.4928 4.49033 13.7861 4.2666 14.1333 4.2666C14.5744 4.2666 14.9333 4.62553 14.9333 5.06658C14.9333 5.50764 14.5744 5.86657 14.1333 5.86657C13.7861 5.86657 13.4928 5.64284 13.3824 5.33325H10.6173C10.5069 5.64284 10.2136 5.86657 9.86641 5.86657C9.42534 5.86657 9.06641 5.50764 9.06641 5.06658C9.06641 4.62553 9.42561 4.2666 9.86668 4.2666ZM14.1333 5.33325C14.2803 5.33325 14.4 5.21378 14.4 5.06658C14.4 4.91939 14.2803 4.79992 14.1333 4.79992C13.9864 4.79992 13.8667 4.91939 13.8667 5.06658C13.8667 5.21378 13.9864 5.33325 14.1333 5.33325ZM9.86668 5.33325C10.0136 5.33325 10.1333 5.21378 10.1333 5.06658C10.1333 4.91939 10.0136 4.79992 9.86668 4.79992C9.71974 4.79992 9.60001 4.91939 9.60001 5.06658C9.60001 5.21378 9.71974 5.33325 9.86668 5.33325Z" fill="#00B2FF"/>
  <path d="M7.73334 5.9156V4.26656C7.73334 4.19563 7.76134 4.1279 7.81147 4.07803L8.87814 3.01139C8.92801 2.96125 8.99601 2.93325 9.06667 2.93325H9.91574C10.0261 2.62366 10.3195 2.39993 10.6667 2.39993C11.1077 2.39993 11.4667 2.75886 11.4667 3.19992C11.4667 3.64097 11.1077 3.9999 10.6667 3.9999C10.3195 3.9999 10.0261 3.77617 9.91574 3.46658H9.17707L8.26667 4.37696V5.9156C8.57627 6.026 8.80001 6.31933 8.80001 6.66652C8.80001 7.10758 8.44107 7.46651 8.00001 7.46651C7.55894 7.46651 7.20001 7.10758 7.20001 6.66652C7.20001 6.31933 7.42374 6.026 7.73334 5.9156ZM10.6667 3.46658C10.8136 3.46658 10.9333 3.34711 10.9333 3.19992C10.9333 3.05272 10.8136 2.93325 10.6667 2.93325C10.5197 2.93325 10.4 3.05272 10.4 3.19992C10.4 3.34711 10.5197 3.46658 10.6667 3.46658ZM8.00001 6.93319C8.14694 6.93319 8.26667 6.81372 8.26667 6.66652C8.26667 6.51933 8.14694 6.39986 8.00001 6.39986C7.85307 6.39986 7.73334 6.51933 7.73334 6.66652C7.73334 6.81372 7.85307 6.93319 8.00001 6.93319Z" fill="#00B2FF"/>
  <path d="M2.93334 6.93322C3.05654 6.93322 3.17174 6.96335 3.276 7.01348L3.73334 6.55616V3.99993C3.73334 3.929 3.76134 3.86127 3.81147 3.8114L6.48027 1.14265C6.43014 1.03838 6.4 0.923185 6.4 0.799987C6.4 0.358927 6.75894 0 7.2 0C7.64107 0 8 0.358927 8 0.799987C8 1.24105 7.64107 1.59997 7.2 1.59997C7.0768 1.59997 6.9616 1.56984 6.85734 1.51971L4.26667 4.11033V6.66656C4.26667 6.73749 4.23867 6.80522 4.18854 6.85509L3.65307 7.39054C3.7032 7.49481 3.73334 7.61001 3.73334 7.7332C3.73334 8.17426 3.3744 8.53319 2.93334 8.53319C2.49227 8.53319 2.13334 8.17426 2.13334 7.7332C2.13334 7.29215 2.49227 6.93322 2.93334 6.93322ZM7.2 1.06665C7.34694 1.06665 7.46667 0.947184 7.46667 0.799987C7.46667 0.652789 7.34694 0.533324 7.2 0.533324C7.05307 0.533324 6.93334 0.652789 6.93334 0.799987C6.93334 0.947184 7.05307 1.06665 7.2 1.06665ZM2.93334 7.99987C3.08027 7.99987 3.2 7.8804 3.2 7.7332C3.2 7.58601 3.08027 7.46654 2.93334 7.46654C2.7864 7.46654 2.66667 7.58601 2.66667 7.7332C2.66667 7.8804 2.7864 7.99987 2.93334 7.99987Z" fill="#00B2FF"/>
  <path d="M0.533344 3.78234V2.66662C0.533344 2.59569 0.561343 2.52796 0.611477 2.47809L2.47814 0.611457C2.52801 0.561324 2.59601 0.533324 2.66668 0.533324H4.04908C4.15948 0.22373 4.45281 0 4.80001 0C5.24108 0 5.60001 0.358927 5.60001 0.799987C5.60001 1.24105 5.24108 1.59997 4.80001 1.59997C4.45281 1.59997 4.15948 1.37624 4.04908 1.06665H2.77708L1.06668 2.77702V3.78234C1.37628 3.89274 1.60001 4.18606 1.60001 4.53326C1.60001 4.97432 1.24108 5.33324 0.80001 5.33324C0.358944 5.33324 1.0252e-05 4.97432 1.0252e-05 4.53326C1.0252e-05 4.18606 0.223744 3.89274 0.533344 3.78234ZM4.80001 1.06665C4.94694 1.06665 5.06668 0.947184 5.06668 0.799987C5.06668 0.652789 4.94694 0.533324 4.80001 0.533324C4.65308 0.533324 4.53334 0.652789 4.53334 0.799987C4.53334 0.947184 4.65308 1.06665 4.80001 1.06665ZM0.80001 4.79992C0.946944 4.79992 1.06668 4.68046 1.06668 4.53326C1.06668 4.38606 0.946944 4.2666 0.80001 4.2666C0.653077 4.2666 0.533344 4.38606 0.533344 4.53326C0.533344 4.68046 0.653077 4.79992 0.80001 4.79992Z" fill="#00B2FF"/>
  <path d="M4.26641 14.4491V10.6174C3.95707 10.507 3.73334 10.2137 3.73334 9.86651C3.73334 9.42545 4.09227 9.06652 4.53334 9.06652C4.88054 9.06652 5.17387 9.29025 5.28427 9.59985H8.04907C8.15947 9.29025 8.45281 9.06652 8.80001 9.06652C9.14721 9.06652 9.44054 9.29025 9.55094 9.59985H11.0896L12.0803 8.6092C12.0301 8.50493 12 8.38973 12 8.26654C12 7.82548 12.3589 7.46655 12.8 7.46655C13.2411 7.46655 13.6 7.82548 13.6 8.26654C13.6 8.70759 13.2411 9.06652 12.8 9.06652C12.6768 9.06652 12.5616 9.03639 12.4573 8.98626L11.3885 10.055C11.3387 10.1052 11.2707 10.1332 11.2 10.1332H9.55094C9.44054 10.4428 9.14721 10.6665 8.80001 10.6665C8.45281 10.6665 8.15947 10.4428 8.04907 10.1332H5.28401C5.20347 10.359 5.02561 10.5369 4.79974 10.6174V14.4491C5.10934 14.5595 5.33307 14.8528 5.33307 15.2C5.33307 15.6411 4.97414 16 4.53307 16C4.09201 16 3.73307 15.6411 3.73307 15.2C3.73307 14.8528 3.95681 14.5595 4.26641 14.4491ZM12.8 8.5332C12.9469 8.5332 13.0667 8.41373 13.0667 8.26654C13.0667 8.11934 12.9469 7.99987 12.8 7.99987C12.6531 7.99987 12.5333 8.11934 12.5333 8.26654C12.5333 8.41373 12.6531 8.5332 12.8 8.5332ZM8.80001 10.1332C8.94694 10.1332 9.06667 10.0137 9.06667 9.86651C9.06667 9.71931 8.94694 9.59985 8.80001 9.59985C8.65307 9.59985 8.53334 9.71931 8.53334 9.86651C8.53334 10.0137 8.65307 10.1332 8.80001 10.1332ZM4.53334 15.4664C4.68027 15.4664 4.80001 15.347 4.80001 15.1998C4.80001 15.0526 4.68027 14.9331 4.53334 14.9331C4.38641 14.9331 4.26667 15.0526 4.26667 15.1998C4.26667 15.347 4.38641 15.4664 4.53334 15.4664ZM4.53334 10.1332C4.68027 10.1332 4.80001 10.0137 4.80001 9.86651C4.80001 9.71931 4.68027 9.59985 4.53334 9.59985C4.38641 9.59985 4.26667 9.71931 4.26667 9.86651C4.26667 10.0137 4.38641 10.1332 4.53334 10.1332Z" fill="#00B2FF"/>
  <path d="M5.6 5.38231V4.53326C5.6 4.46233 5.628 4.39459 5.67813 4.34473L8.88027 1.14265C8.83013 1.03838 8.8 0.923185 8.8 0.799987C8.8 0.358927 9.15893 0 9.6 0C9.9472 0 10.2405 0.22373 10.3509 0.533324H11.4667C11.6139 0.533324 11.7333 0.652522 11.7333 0.799987V1.48958L12.724 2.48023C12.8283 2.43009 12.9435 2.39996 13.0667 2.39996C13.5077 2.39996 13.8667 2.75889 13.8667 3.19995C13.8667 3.64101 13.5077 3.99993 13.0667 3.99993C12.6256 3.99993 12.2667 3.64101 12.2667 3.19995C12.2667 3.07675 12.2968 2.96155 12.3469 2.85729L11.2781 1.7885C11.228 1.73864 11.2 1.67091 11.2 1.59997V1.06665H10.3509C10.2405 1.37624 9.9472 1.59997 9.6 1.59997C9.4768 1.59997 9.3616 1.56984 9.25733 1.51971L6.13333 4.64366V5.38231C6.44293 5.49271 6.66667 5.78604 6.66667 6.13323C6.66667 6.57429 6.30773 6.93322 5.86667 6.93322C5.4256 6.93322 5.06667 6.57429 5.06667 6.13323C5.06667 5.78604 5.2904 5.49271 5.6 5.38231ZM13.0667 3.46661C13.2136 3.46661 13.3333 3.34714 13.3333 3.19995C13.3333 3.05275 13.2136 2.93328 13.0667 2.93328C12.9197 2.93328 12.8 3.05275 12.8 3.19995C12.8 3.34714 12.9197 3.46661 13.0667 3.46661ZM9.6 1.06665C9.74693 1.06665 9.86667 0.947184 9.86667 0.799987C9.86667 0.652789 9.74693 0.533324 9.6 0.533324C9.45307 0.533324 9.33333 0.652789 9.33333 0.799987C9.33333 0.947184 9.45307 1.06665 9.6 1.06665ZM5.86667 6.39989C6.0136 6.39989 6.13333 6.28043 6.13333 6.13323C6.13333 5.98603 6.0136 5.86657 5.86667 5.86657C5.71973 5.86657 5.6 5.98603 5.6 6.13323C5.6 6.28043 5.71973 6.39989 5.86667 6.39989Z" fill="#00B2FF"/>
  <path d="M6.4 7.46654C6.7472 7.46654 7.04053 7.69027 7.15093 7.99987H10.2896L11.8115 6.47803C11.8613 6.42789 11.9293 6.39989 12 6.39989H14.8229L15.4667 5.75617V3.57701L13.4093 1.51971C13.3051 1.56984 13.1899 1.59997 13.0667 1.59997C12.6256 1.59997 12.2667 1.24105 12.2667 0.799987C12.2667 0.358927 12.6256 0 13.0667 0C13.5077 0 13.8667 0.358927 13.8667 0.799987C13.8667 0.923185 13.8365 1.03838 13.7864 1.14265L15.9219 3.27808C15.972 3.32794 16 3.39568 16 3.46661V5.86657C16 5.9375 15.972 6.00523 15.9219 6.0551L15.1219 6.85509C15.072 6.90522 15.004 6.93322 14.9333 6.93322H12.1104L10.5885 8.45506C10.5387 8.50519 10.4707 8.53319 10.4 8.53319H7.15093C7.04053 8.84279 6.7472 9.06652 6.4 9.06652C5.95893 9.06652 5.6 8.70759 5.6 8.26653C5.6 7.82547 5.95893 7.46654 6.4 7.46654ZM13.0667 0.533324C12.9197 0.533324 12.8 0.652789 12.8 0.799987C12.8 0.947184 12.9197 1.06665 13.0667 1.06665C13.2136 1.06665 13.3333 0.947184 13.3333 0.799987C13.3333 0.652789 13.2136 0.533324 13.0667 0.533324ZM6.4 8.53319C6.54693 8.53319 6.66666 8.41373 6.66666 8.26653C6.66666 8.11933 6.54693 7.99987 6.4 7.99987C6.25306 7.99987 6.13333 8.11933 6.13333 8.26653C6.13333 8.41373 6.25306 8.53319 6.4 8.53319Z" fill="#00B2FF"/>
  <path d="M0.800005 6.39989C0.923205 6.39989 1.0384 6.43003 1.14267 6.48016L2.13334 5.48951V3.95087C1.82374 3.84047 1.6 3.54714 1.6 3.19995C1.6 2.75889 1.95894 2.39996 2.4 2.39996C2.84107 2.39996 3.2 2.75889 3.2 3.19995C3.2 3.54714 2.97627 3.84047 2.66667 3.95087V5.59991C2.66667 5.67084 2.63867 5.73857 2.58854 5.78844L1.51974 6.85722C1.56987 6.96148 1.6 7.07668 1.6 7.19988C1.6 7.54707 1.37627 7.8404 1.06667 7.9508V8.15613L3.12187 10.2113C3.172 10.2612 3.2 10.3289 3.2 10.3998V10.7156C3.5096 10.826 3.73334 11.1193 3.73334 11.4665C3.73334 11.8137 3.5096 12.107 3.2 12.2174V12.8491C3.5096 12.9595 3.73334 13.2528 3.73334 13.6C3.73334 14.0411 3.3744 14.4 2.93334 14.4C2.49227 14.4 2.13334 14.0411 2.13334 13.6C2.13334 13.2528 2.35707 12.9595 2.66667 12.8491V12.2174C2.35707 12.107 2.13334 11.8137 2.13334 11.4665C2.13334 11.1193 2.35707 10.826 2.66667 10.7156V10.5102L0.611471 8.45506C0.561338 8.40519 0.533338 8.33746 0.533338 8.26653V7.9508C0.223738 7.8404 4.70877e-06 7.54707 4.70877e-06 7.19988C4.70877e-06 6.75882 0.358938 6.39989 0.800005 6.39989ZM2.4 3.46661C2.54694 3.46661 2.66667 3.34714 2.66667 3.19995C2.66667 3.05275 2.54694 2.93328 2.4 2.93328C2.25307 2.93328 2.13334 3.05275 2.13334 3.19995C2.13334 3.34714 2.25307 3.46661 2.4 3.46661ZM2.93334 13.8664C3.08027 13.8664 3.2 13.747 3.2 13.5998C3.2 13.4526 3.08027 13.3331 2.93334 13.3331C2.7864 13.3331 2.66667 13.4526 2.66667 13.5998C2.66667 13.747 2.7864 13.8664 2.93334 13.8664ZM2.93334 11.7331C3.08027 11.7331 3.2 11.6137 3.2 11.4665C3.2 11.3193 3.08027 11.1998 2.93334 11.1998C2.7864 11.1998 2.66667 11.3193 2.66667 11.4665C2.66667 11.6137 2.7864 11.7331 2.93334 11.7331ZM0.800005 7.46654C0.946938 7.46654 1.06667 7.34708 1.06667 7.19988C1.06667 7.05268 0.946938 6.93322 0.800005 6.93322C0.653071 6.93322 0.533338 7.05268 0.533338 7.19988C0.533338 7.34708 0.653071 7.46654 0.800005 7.46654Z" fill="#00B2FF"/>
</svg>
