<svg width="120" height="120" viewBox="0 0 120 120" fill="none" xmlns="http://www.w3.org/2000/svg">
<rect width="120" height="120" fill="url(#paint0_linear_82_506)"/>
<path d="M59.4462 97C55.4256 97 51.9385 96.3823 48.9846 95.1469C46.0308 93.9115 43.7744 91.729 42.2154 88.5993C40.7385 85.4697 40 81.0634 40 75.3806V71.1803C41.9692 71.1803 43.9795 71.1803 46.0308 71.1803C48.0821 71.1803 50.0923 71.1803 52.0615 71.1803V76.369C52.0615 79.8281 52.3897 82.5047 53.0462 84.399C53.7026 86.2933 54.6051 87.611 55.7538 88.3523C56.9026 89.0111 58.2154 89.3406 59.6923 89.3406C62.0718 89.3406 63.959 88.5582 65.3538 86.9933C66.8308 85.3461 67.5692 82.2988 67.5692 77.8514C67.5692 74.557 67.0769 72.0863 66.0923 70.4391C65.1077 68.7919 63.5487 67.4741 61.4154 66.4858C59.3641 65.4151 56.6974 64.2209 53.4154 62.9032C50.7077 61.6678 48.3692 60.2265 46.4 58.5793C44.4308 56.9321 42.9538 54.8319 41.9692 52.2788C40.9846 49.7257 40.4923 46.5548 40.4923 42.7663C40.4923 38.1541 41.0667 34.4068 42.2154 31.5242C43.4462 28.5593 45.4974 26.4179 48.3692 25.1002C51.241 23.7001 55.0974 23 59.9385 23C66.1744 23 70.9333 24.4413 74.2154 27.3239C77.4974 30.1241 79.1385 34.2421 79.1385 39.6778V48.202C77.2513 48.202 75.3231 48.202 73.3538 48.202C71.4667 48.202 69.5385 48.202 67.5692 48.202V43.1369C67.5692 39.3484 66.9538 36.6305 65.7231 34.9833C64.5744 33.2538 62.6872 32.389 60.0615 32.389C57.3538 32.389 55.3846 33.2126 54.1538 34.8598C53.0051 36.4246 52.4308 38.9366 52.4308 42.3957C52.4308 45.3606 53.0051 47.6667 54.1538 49.3139C55.3026 50.8787 56.7795 52.1141 58.5846 53.02C60.4718 53.926 62.4 54.7496 64.3692 55.4908C68.0615 56.8909 71.0564 58.3322 73.3538 59.8147C75.6513 61.2972 77.3333 63.2738 78.4 65.7446C79.4667 68.2154 80 71.7156 80 76.2454C80 81.4341 79.1385 85.552 77.4154 88.5993C75.7744 91.5643 73.3949 93.7056 70.2769 95.0234C67.241 96.3411 63.6308 97 59.4462 97Z" fill="white"/>
<defs>
<linearGradient id="paint0_linear_82_506" x1="23.7288" y1="3.60806e-05" x2="126.942" y2="12.7733" gradientUnits="userSpaceOnUse">
<stop stop-color="#ED0233"/>
<stop offset="1" stop-color="#003EB7"/>
</linearGradient>
</defs>
</svg>
