<svg width="70" height="38" viewBox="0 0 70 38" fill="none" xmlns="http://www.w3.org/2000/svg"><path fill-rule="evenodd" clip-rule="evenodd" d="m.9 31.13 13.77-18.59 3.77 2.02L27.4 0 33 6.66l2.08-1.7 8.05 10.22 5.72-6.82L64.8 31.13 49.42 11.77l-2.34 8.13 2.15 6.42L35.45 7.36l-.15 6.47 7.81 17.3-14.61-26.8 4.22 14.48-5.91-14.09-3.25 9.37.65-6.12-8.12 22.07.98-9.29-3.38-3.72L.9 31.13Z" fill="#F9FBFD"/><path fill-rule="evenodd" clip-rule="evenodd" d="M69.44 34.03C47.64 16.43 13.71 40.63 0 31.3c15.07 13.22 50.3-9.14 69.44 2.73Z" fill="#F9FBFD"/><path fill-rule="evenodd" clip-rule="evenodd" d="M70 35.42c-17.1-10.9-42.54 4.26-55.58.75 14.13 6.86 40.43-8.33 55.58-.75Z" fill="#F9FBFD"/></svg>