<svg width="42" height="22" viewBox="0 0 42 22" fill="none" xmlns="http://www.w3.org/2000/svg"><path fill-rule="evenodd" clip-rule="evenodd" d="M.54 18.02 8.8 7.26l2.26 1.17L16.44 0l3.35 3.86 1.25-1 4.83 5.93 3.43-3.95 9.59 13.18-9.24-11.2-1.4 4.7 1.29 3.72-8.27-10.98L21.18 8l4.7 10.01L17.1 2.51l2.54 8.38-3.55-8.16-1.95 5.43.4-3.54-4.88 12.77.59-5.38-2.03-2.15-7.68 8.16Z" fill="#F9FBFD"/><path fill-rule="evenodd" clip-rule="evenodd" d="M41.66 19.7C28.58 9.51 8.23 23.52 0 18.12c9.04 7.66 30.18-5.29 41.66 1.58Z" fill="#F9FBFD"/><path fill-rule="evenodd" clip-rule="evenodd" d="M42 20.5c-10.26-6.3-25.53 2.47-33.35.44 8.48 3.97 24.26-4.82 33.35-.44Z" fill="#F9FBFD"/></svg>