<svg xmlns="http://www.w3.org/2000/svg" xmlns:xlink="http://www.w3.org/1999/xlink"><symbol id="email" viewBox="0 0 21 20"><path d="M18.06 0H2.95C1.6 0 .5 1.44.5 3.21V16.8C.5 18.56 1.6 20 2.95 20h15.1c1.35 0 2.45-1.44 2.45-3.21V3.22C20.5 1.45 19.4 0 18.06 0Zm1.33 16.79c0 .96-.6 1.74-1.33 1.74H2.95c-.74 0-1.33-.78-1.33-1.74V3.22c0-.96.6-1.75 1.33-1.75h15.1c.74 0 1.33.79 1.33 1.75v13.57Z"/><path d="m13.11 9.83 4.9-5.76a.9.9 0 0 0 .04-1.04c-.21-.3-.56-.33-.8-.06l-6.74 7.96-1.32-1.54v-.02a.95.95 0 0 0-.1-.1l-5.35-6.3c-.23-.27-.58-.25-.79.06A.9.9 0 0 0 3 4.07l4.94 5.81-4.92 6.06a.9.9 0 0 0-.03 1.04c.11.15.26.24.41.24a.5.5 0 0 0 .38-.2l5-6.15 1.36 1.6c.11.12.24.18.37.18.14 0 .27-.07.38-.2l1.4-1.63 4.97 6.2c.1.14.24.2.38.2a.5.5 0 0 0 .4-.22.9.9 0 0 0-.01-1.04L13.1 9.83Z"/></symbol><symbol id="icon-close" viewBox="0 0 20 20"><path d="M.293 18.291a1 1 0 101.414 1.414L10 11.413l8.292 8.292a1 1 0 101.414-1.414l-8.292-8.292 8.292-8.292A1 1 0 1018.291.293L9.999 8.585 1.707.293A1 1 0 10.293 1.707L8.585 10 .293 18.291z"/></symbol><symbol id="logo-mob" viewBox="0 0 35 35"><g fill="none">
<path d="M21.5837 9.33319C22.3432 9.33319 22.9848 9.8226 23.2263 10.4998H29.2743C29.5158 9.8226 30.1575 9.33319 30.917 9.33319C31.8818 9.33319 32.667 10.1183 32.667 11.0832C32.667 12.048 31.8818 12.8331 30.917 12.8331C30.1575 12.8331 29.5158 12.3437 29.2743 11.6665H23.2257C22.9842 12.3437 22.3426 12.8331 21.5831 12.8331C20.6182 12.8331 19.8331 12.048 19.8331 11.0832C19.8331 10.1183 20.6188 9.33319 21.5837 9.33319ZM30.917 11.6665C31.2384 11.6665 31.5003 11.4052 31.5003 11.0832C31.5003 10.7612 31.2384 10.4998 30.917 10.4998C30.5956 10.4998 30.3337 10.7612 30.3337 11.0832C30.3337 11.4052 30.5956 11.6665 30.917 11.6665ZM21.5837 11.6665C21.9051 11.6665 22.167 11.4052 22.167 11.0832C22.167 10.7612 21.9051 10.4998 21.5837 10.4998C21.2622 10.4998 21.0003 10.7612 21.0003 11.0832C21.0003 11.4052 21.2622 11.6665 21.5837 11.6665Z" fill="#00B2FF"/>
<path d="M16.9173 12.9405V9.33319C16.9173 9.17802 16.9786 9.02986 17.0882 8.92078L19.4216 6.58748C19.5307 6.47782 19.6794 6.41657 19.834 6.41657H21.6913C21.9328 5.73933 22.5745 5.24992 23.334 5.24992C24.2988 5.24992 25.084 6.03508 25.084 6.99989C25.084 7.96471 24.2988 8.74987 23.334 8.74987C22.5745 8.74987 21.9328 8.26046 21.6913 7.58322H20.0755L18.084 9.57468V12.9405C18.7612 13.182 19.2507 13.8236 19.2507 14.5831C19.2507 15.5479 18.4655 16.3331 17.5007 16.3331C16.5358 16.3331 15.7507 15.5479 15.7507 14.5831C15.7507 13.8236 16.2401 13.182 16.9173 12.9405ZM23.334 7.58322C23.6554 7.58322 23.9173 7.32189 23.9173 6.99989C23.9173 6.6779 23.6554 6.41657 23.334 6.41657C23.0126 6.41657 22.7507 6.6779 22.7507 6.99989C22.7507 7.32189 23.0126 7.58322 23.334 7.58322ZM17.5007 15.1664C17.8221 15.1664 18.084 14.9051 18.084 14.5831C18.084 14.2611 17.8221 13.9998 17.5007 13.9998C17.1792 13.9998 16.9173 14.2611 16.9173 14.5831C16.9173 14.9051 17.1792 15.1664 17.5007 15.1664Z" fill="#00B2FF"/>
<path d="M6.41716 15.1664C6.68666 15.1664 6.93865 15.2323 7.16674 15.342L8.16716 14.3416V8.74986C8.16716 8.59469 8.2284 8.44653 8.33807 8.33745L14.1761 2.49954C14.0664 2.27146 14.0005 2.01947 14.0005 1.74997C14.0005 0.785154 14.7857 0 15.7505 0C16.7153 0 17.5005 0.785154 17.5005 1.74997C17.5005 2.71479 16.7153 3.49994 15.7505 3.49994C15.481 3.49994 15.229 3.43403 15.0009 3.32436L9.33382 8.99135V14.5831C9.33382 14.7383 9.27257 14.8864 9.16291 14.9955L7.99157 16.1668C8.10124 16.3949 8.16716 16.6469 8.16716 16.9164C8.16716 17.8812 7.38199 18.6664 6.41716 18.6664C5.45232 18.6664 4.66716 17.8812 4.66716 16.9164C4.66716 15.9516 5.45232 15.1664 6.41716 15.1664ZM15.7505 2.33329C16.0719 2.33329 16.3338 2.07197 16.3338 1.74997C16.3338 1.42798 16.0719 1.16665 15.7505 1.16665C15.4291 1.16665 15.1672 1.42798 15.1672 1.74997C15.1672 2.07197 15.4291 2.33329 15.7505 2.33329ZM6.41716 17.4997C6.73857 17.4997 7.00049 17.2384 7.00049 16.9164C7.00049 16.5944 6.73857 16.3331 6.41716 16.3331C6.09574 16.3331 5.83382 16.5944 5.83382 16.9164C5.83382 17.2384 6.09574 17.4997 6.41716 17.4997Z" fill="#00B2FF"/>
<path d="M1.16716 8.27386V5.83324C1.16716 5.67807 1.2284 5.52991 1.33807 5.42083L5.4214 1.33756C5.53049 1.2279 5.67924 1.16665 5.83382 1.16665H8.85782C9.09932 0.489408 9.74099 0 10.5005 0C11.4653 0 12.2505 0.785154 12.2505 1.74997C12.2505 2.71479 11.4653 3.49994 10.5005 3.49994C9.74099 3.49994 9.09932 3.01053 8.85782 2.33329H6.07532L2.33382 6.07473V8.27386C3.01107 8.51536 3.50049 9.15701 3.50049 9.9165C3.50049 10.8813 2.71532 11.6665 1.75049 11.6665C0.785655 11.6665 0.000488281 10.8813 0.000488281 9.9165C0.000488281 9.15701 0.489905 8.51536 1.16716 8.27386ZM10.5005 2.33329C10.8219 2.33329 11.0838 2.07197 11.0838 1.74997C11.0838 1.42798 10.8219 1.16665 10.5005 1.16665C10.1791 1.16665 9.91716 1.42798 9.91716 1.74997C9.91716 2.07197 10.1791 2.33329 10.5005 2.33329ZM1.75049 10.4998C2.07191 10.4998 2.33382 10.2385 2.33382 9.9165C2.33382 9.59451 2.07191 9.33318 1.75049 9.33318C1.42907 9.33318 1.16716 9.59451 1.16716 9.9165C1.16716 10.2385 1.42907 10.4998 1.75049 10.4998Z" fill="#00B2FF"/>
<path d="M9.33324 31.6074V23.2256C8.65657 22.9841 8.16716 22.3425 8.16716 21.583C8.16716 20.6182 8.95232 19.833 9.91716 19.833C10.6767 19.833 11.3183 20.3224 11.5598 20.9997H17.6078C17.8493 20.3224 18.491 19.833 19.2505 19.833C20.01 19.833 20.6517 20.3224 20.8932 20.9997H24.259L26.4261 18.8326C26.3164 18.6045 26.2505 18.3525 26.2505 18.083C26.2505 17.1182 27.0357 16.3331 28.0005 16.3331C28.9653 16.3331 29.7505 17.1182 29.7505 18.083C29.7505 19.0479 28.9653 19.833 28.0005 19.833C27.731 19.833 27.479 19.7671 27.2509 19.6574L24.9129 21.9954C24.8038 22.1051 24.6551 22.1663 24.5005 22.1663H20.8932C20.6517 22.8435 20.01 23.333 19.2505 23.333C18.491 23.333 17.8493 22.8435 17.6078 22.1663H11.5592C11.3831 22.6604 10.994 23.0495 10.4999 23.2256V31.6074C11.1772 31.8489 11.6666 32.4905 11.6666 33.25C11.6666 34.2149 10.8814 35 9.91657 35C8.95174 35 8.16657 34.2149 8.16657 33.25C8.16657 32.4905 8.65599 31.8489 9.33324 31.6074ZM28.0005 18.6664C28.3219 18.6664 28.5838 18.405 28.5838 18.083C28.5838 17.761 28.3219 17.4997 28.0005 17.4997C27.6791 17.4997 27.4172 17.761 27.4172 18.083C27.4172 18.405 27.6791 18.6664 28.0005 18.6664ZM19.2505 22.1663C19.5719 22.1663 19.8338 21.905 19.8338 21.583C19.8338 21.261 19.5719 20.9997 19.2505 20.9997C18.9291 20.9997 18.6672 21.261 18.6672 21.583C18.6672 21.905 18.9291 22.1663 19.2505 22.1663ZM9.91716 33.8328C10.2386 33.8328 10.5005 33.5714 10.5005 33.2495C10.5005 32.9275 10.2386 32.6661 9.91716 32.6661C9.59574 32.6661 9.33382 32.9275 9.33382 33.2495C9.33382 33.5714 9.59574 33.8328 9.91716 33.8328ZM9.91716 22.1663C10.2386 22.1663 10.5005 21.905 10.5005 21.583C10.5005 21.261 10.2386 20.9997 9.91716 20.9997C9.59574 20.9997 9.33382 21.261 9.33382 21.583C9.33382 21.905 9.59574 22.1663 9.91716 22.1663Z" fill="#00B2FF"/>
<path d="M12.2507 11.7738V9.9165C12.2507 9.76134 12.3119 9.61317 12.4216 9.50409L19.4262 2.49954C19.3166 2.27146 19.2507 2.01947 19.2507 1.74997C19.2507 0.785154 20.0358 0 21.0007 0C21.7602 0 22.4018 0.489408 22.6433 1.16665H25.084C25.406 1.16665 25.6673 1.42739 25.6673 1.74997V3.25845L27.8344 5.42549C28.0625 5.31583 28.3145 5.24991 28.584 5.24991C29.5488 5.24991 30.334 6.03507 30.334 6.99988C30.334 7.9647 29.5488 8.74985 28.584 8.74985C27.6192 8.74985 26.834 7.9647 26.834 6.99988C26.834 6.73039 26.8999 6.47839 27.0096 6.25031L24.6716 3.91235C24.5619 3.80327 24.5007 3.65511 24.5007 3.49994V2.33329H22.6433C22.4018 3.01053 21.7602 3.49994 21.0007 3.49994C20.7312 3.49994 20.4792 3.43403 20.2511 3.32436L13.4173 10.158V11.7738C14.0946 12.0153 14.584 12.657 14.584 13.4164C14.584 14.3813 13.7988 15.1664 12.834 15.1664C11.8692 15.1664 11.084 14.3813 11.084 13.4164C11.084 12.657 11.5734 12.0153 12.2507 11.7738ZM28.584 7.58321C28.9054 7.58321 29.1673 7.32188 29.1673 6.99988C29.1673 6.67789 28.9054 6.41656 28.584 6.41656C28.2626 6.41656 28.0007 6.67789 28.0007 6.99988C28.0007 7.32188 28.2626 7.58321 28.584 7.58321ZM21.0007 2.33329C21.3221 2.33329 21.584 2.07197 21.584 1.74997C21.584 1.42798 21.3221 1.16665 21.0007 1.16665C20.6792 1.16665 20.4173 1.42798 20.4173 1.74997C20.4173 2.07197 20.6792 2.33329 21.0007 2.33329ZM12.834 13.9998C13.1554 13.9998 13.4173 13.7384 13.4173 13.4164C13.4173 13.0944 13.1554 12.8331 12.834 12.8331C12.5126 12.8331 12.2507 13.0944 12.2507 13.4164C12.2507 13.7384 12.5126 13.9998 12.834 13.9998Z" fill="#00B2FF"/>
<path d="M14.0005 16.3331C14.76 16.3331 15.4016 16.8225 15.6431 17.4997H22.509L25.8381 14.1707C25.9472 14.061 26.0959 13.9998 26.2505 13.9998H32.4257L33.8338 12.5916V7.8247L29.3334 3.32436C29.1053 3.43403 28.8533 3.49994 28.5838 3.49994C27.619 3.49994 26.8338 2.71479 26.8338 1.74997C26.8338 0.785154 27.619 0 28.5838 0C29.5487 0 30.3338 0.785154 30.3338 1.74997C30.3338 2.01947 30.2679 2.27146 30.1582 2.49954L34.8296 7.1708C34.9392 7.27988 35.0005 7.42804 35.0005 7.58321V12.8331C35.0005 12.9883 34.9392 13.1364 34.8296 13.2455L33.0796 14.9955C32.9705 15.1052 32.8217 15.1664 32.6672 15.1664H26.492L23.1629 18.4954C23.0538 18.6051 22.9051 18.6664 22.7505 18.6664H15.6431C15.4016 19.3436 14.76 19.833 14.0005 19.833C13.0356 19.833 12.2505 19.0478 12.2505 18.083C12.2505 17.1182 13.0356 16.3331 14.0005 16.3331ZM28.5838 1.16665C28.2624 1.16665 28.0005 1.42798 28.0005 1.74997C28.0005 2.07197 28.2624 2.33329 28.5838 2.33329C28.9052 2.33329 29.1672 2.07197 29.1672 1.74997C29.1672 1.42798 28.9052 1.16665 28.5838 1.16665ZM14.0005 18.6664C14.3219 18.6664 14.5838 18.405 14.5838 18.083C14.5838 17.761 14.3219 17.4997 14.0005 17.4997C13.6791 17.4997 13.4171 17.761 13.4171 18.083C13.4171 18.405 13.6791 18.6664 14.0005 18.6664Z" fill="#00B2FF"/>
<path d="M1.75033 13.9998C2.01983 13.9998 2.27183 14.0657 2.49991 14.1754L4.66699 12.0083V8.64253C3.98974 8.40104 3.50033 7.75938 3.50033 6.99989C3.50033 6.03508 4.28549 5.24992 5.25033 5.24992C6.21516 5.24992 7.00033 6.03508 7.00033 6.99989C7.00033 7.75938 6.51091 8.40104 5.83366 8.64253V12.2498C5.83366 12.405 5.77241 12.5531 5.66274 12.6622L3.32474 15.0002C3.43441 15.2283 3.50033 15.4803 3.50033 15.7497C3.50033 16.5092 3.01091 17.1509 2.33366 17.3924V17.8415L6.82941 22.3372C6.93908 22.4463 7.00033 22.5945 7.00033 22.7496V23.4403C7.67758 23.6818 8.16699 24.3234 8.16699 25.0829C8.16699 25.8424 7.67758 26.4841 7.00033 26.7256V28.1075C7.67758 28.349 8.16699 28.9906 8.16699 29.7501C8.16699 30.7149 7.38183 31.5001 6.41699 31.5001C5.45216 31.5001 4.66699 30.7149 4.66699 29.7501C4.66699 28.9906 5.15641 28.349 5.83366 28.1075V26.7256C5.15641 26.4841 4.66699 25.8424 4.66699 25.0829C4.66699 24.3234 5.15641 23.6818 5.83366 23.4403V22.9911L1.33791 18.4955C1.22824 18.3864 1.16699 18.2382 1.16699 18.083V17.3924C0.489742 17.1509 0.000326157 16.5092 0.000326157 15.7497C0.000326157 14.7849 0.785492 13.9998 1.75033 13.9998ZM5.25033 7.58322C5.57174 7.58322 5.83366 7.32189 5.83366 6.99989C5.83366 6.6779 5.57174 6.41657 5.25033 6.41657C4.92891 6.41657 4.66699 6.6779 4.66699 6.99989C4.66699 7.32189 4.92891 7.58322 5.25033 7.58322ZM6.41699 30.3328C6.73841 30.3328 7.00033 30.0715 7.00033 29.7495C7.00033 29.4275 6.73841 29.1662 6.41699 29.1662C6.09558 29.1662 5.83366 29.4275 5.83366 29.7495C5.83366 30.0715 6.09558 30.3328 6.41699 30.3328ZM6.41699 25.6663C6.73841 25.6663 7.00033 25.4049 7.00033 25.0829C7.00033 24.7609 6.73841 24.4996 6.41699 24.4996C6.09558 24.4996 5.83366 24.7609 5.83366 25.0829C5.83366 25.4049 6.09558 25.6663 6.41699 25.6663ZM1.75033 16.3331C2.07174 16.3331 2.33366 16.0717 2.33366 15.7497C2.33366 15.4278 2.07174 15.1664 1.75033 15.1664C1.42891 15.1664 1.16699 15.4278 1.16699 15.7497C1.16699 16.0717 1.42891 16.3331 1.75033 16.3331Z" fill="#00B2FF"/>
</g></symbol><symbol id="logo" viewBox="0 0 215 55"><g fill="none">
<path d="M78.96 23.32c0-.31-.03-.6-.09-.86-.05-.26-.17-.5-.36-.72a3.24 3.24 0 0 0-.8-.66 9.21 9.21 0 0 0-1.34-.68 31.8 31.8 0 0 1-1.91-.88 9 9 0 0 1-1.68-1.1c-.5-.42-.89-.9-1.18-1.47a4.42 4.42 0 0 1-.43-2 4.44 4.44 0 0 1 1.57-3.6c.51-.44 1.1-.78 1.78-1.01a6.96 6.96 0 0 1 2.28-.36c1.14 0 2.12.24 2.95.71a4.95 4.95 0 0 1 1.94 1.94c.47.82.7 1.77.7 2.83h-3.56c0-.5-.08-.94-.22-1.33-.14-.39-.37-.7-.68-.91-.3-.22-.7-.33-1.2-.33-.45 0-.83.1-1.13.28-.29.18-.51.43-.66.74-.13.31-.2.66-.2 1.05 0 .3.07.56.2.8.15.22.35.43.6.62.25.18.55.35.9.52.34.17.73.34 1.14.5.8.32 1.52.67 2.14 1.05.62.38 1.13.8 1.55 1.27.41.47.73 1 .94 1.58a5.87 5.87 0 0 1-.08 4.03c-.25.6-.62 1.12-1.1 1.56-.5.43-1.09.76-1.78 1a7.8 7.8 0 0 1-4.63.01 5 5 0 0 1-3.25-2.88 6.63 6.63 0 0 1-.47-2.62h3.58c0 .53.05 1 .16 1.38.1.37.27.67.49.9.22.22.49.39.8.5.33.1.7.16 1.11.16.48 0 .85-.1 1.13-.27.28-.18.48-.42.6-.72.13-.3.19-.64.19-1.03Zm9.25-5.8V28h-3.43V14.8h3.23l.2 2.73Zm-.49 3.42-.94.03c-.01-.93.07-1.78.25-2.56.18-.79.45-1.47.8-2.04.37-.58.83-1.03 1.38-1.35a3.83 3.83 0 0 1 3.28-.2c.4.17.76.44 1.06.81.3.37.53.85.7 1.44.16.6.24 1.3.24 2.12V28h-3.42v-8.4c0-.58-.06-1.03-.17-1.34a1.18 1.18 0 0 0-.49-.66c-.21-.13-.47-.2-.78-.2-.33 0-.61.1-.86.27-.24.18-.44.43-.6.76-.14.32-.25.7-.34 1.12-.07.43-.1.9-.1 1.4Zm6.44-.34-1.24.16c-.01-.87.07-1.68.24-2.43.17-.75.43-1.41.79-1.98.36-.57.8-1 1.34-1.33a3.7 3.7 0 0 1 1.9-.47c.53 0 1.02.09 1.46.27.44.18.81.46 1.12.86.32.4.56.91.72 1.55.17.65.26 1.43.26 2.35V28h-3.43v-8.41c0-.6-.06-1.05-.17-1.37-.12-.32-.28-.53-.49-.64a1.58 1.58 0 0 0-.76-.18c-.29 0-.55.09-.77.25-.2.16-.39.39-.53.68a3.7 3.7 0 0 0-.33 1.02c-.08.38-.11.8-.11 1.25Zm14.99 4.36v-6.1c0-.4-.05-.72-.15-.96a.94.94 0 0 0-.41-.5 1.2 1.2 0 0 0-.66-.18c-.3 0-.54.06-.74.18-.19.13-.34.3-.44.53-.08.23-.13.5-.13.82h-3.43a3.99 3.99 0 0 1 1.3-2.96c.43-.39.94-.7 1.53-.91.6-.22 1.26-.33 2-.33.88 0 1.67.15 2.35.45.68.3 1.22.76 1.62 1.4.4.65.6 1.48.6 2.5v5.89c0 .74.04 1.34.11 1.8.08.47.2.87.35 1.2V28h-3.44a5.69 5.69 0 0 1-.35-1.37c-.08-.55-.11-1.1-.11-1.67Zm.41-5.03.02 2.05h-1.26c-.33 0-.61.05-.86.16a1.85 1.85 0 0 0-.96 1.11 2.88 2.88 0 0 0 .02 1.61 1.04 1.04 0 0 0 1.04.67c.38 0 .7-.07.98-.23.27-.15.48-.34.6-.56.15-.22.2-.42.14-.61l.78 1.33a5.96 5.96 0 0 1-1.02 1.84c-.25.28-.57.5-.94.69a3.93 3.93 0 0 1-3.25-.23 3.62 3.62 0 0 1-1.4-1.37 4.9 4.9 0 0 1-.18-3.9c.23-.54.55-1 .98-1.37.43-.39.98-.68 1.64-.88a7.9 7.9 0 0 1 2.32-.3h1.35Zm8.97-2.2V28h-3.41V14.8h3.22l.2 2.93Zm3.12-3.04-.05 3.41a2.35 2.35 0 0 0-2.1.09c-.27.1-.5.28-.67.52-.17.23-.3.51-.4.85-.08.35-.14.73-.15 1.16l-.65-.24c0-.86.07-1.65.2-2.37.14-.72.34-1.35.6-1.88.28-.53.6-.95.97-1.24.38-.3.82-.44 1.3-.44.16 0 .33.01.5.05.2.02.34.05.45.1Zm8.12.1v2.58h-6.74v-2.58h6.74Zm-5.2-3.26h3.41v12.44c0 .37.04.65.11.84.08.2.19.34.33.42.16.07.36.1.61.1.17 0 .33 0 .48-.02.15-.02.26-.04.33-.07v2.67a4.75 4.75 0 0 1-1.9.33c-.69 0-1.28-.13-1.79-.39-.5-.26-.88-.67-1.16-1.24a5.28 5.28 0 0 1-.41-2.27v-12.8ZM142.25 28h-3.14l.03-2.95h3.11a3.7 3.7 0 0 0 2.01-.47c.49-.3.82-.8 1.02-1.46.2-.67.3-1.55.3-2.63v-2.77c0-.82-.05-1.52-.16-2.09a3.42 3.42 0 0 0-.53-1.39 2.23 2.23 0 0 0-1.01-.8 4.22 4.22 0 0 0-1.58-.25h-3.25v-2.96h3.25a7.5 7.5 0 0 1 2.8.5c.83.33 1.55.82 2.16 1.46.6.64 1.06 1.42 1.39 2.36.32.93.49 2 .49 3.2v2.74c0 1.2-.17 2.27-.5 3.2a6.6 6.6 0 0 1-1.38 2.36 5.85 5.85 0 0 1-2.16 1.45c-.85.33-1.8.5-2.85.5Zm-1.06-17.77V28h-3.58V10.23h3.58Zm15.71 18.01c-.9 0-1.7-.13-2.4-.41a4.75 4.75 0 0 1-2.86-3.11 8.02 8.02 0 0 1-.38-2.57v-1.08c0-1.08.12-2.02.37-2.82.24-.82.59-1.5 1.03-2.05.45-.56 1-.97 1.65-1.24.66-.27 1.4-.41 2.24-.41.83 0 1.55.14 2.18.41.63.27 1.16.68 1.57 1.22.42.54.73 1.2.95 2 .2.8.31 1.73.31 2.79v1.56h-8.85v-2.4h5.5v-.3c0-.55-.06-1-.17-1.35-.12-.37-.3-.64-.54-.82a1.62 1.62 0 0 0-.98-.27c-.34 0-.63.07-.86.21-.24.14-.43.35-.57.65-.14.29-.24.67-.3 1.14-.07.47-.1 1.03-.1 1.68v1.08c0 .61.05 1.13.16 1.54.1.4.26.74.46 1 .21.25.47.44.77.55a3.98 3.98 0 0 0 2.67-.16c.5-.22.9-.51 1.25-.89l1.37 2.08a5.34 5.34 0 0 1-2.47 1.68c-.58.2-1.24.3-2 .3Zm10.36-2.88 2.13-10.57h3.56L169.32 28h-2.14l.07-2.64ZM166 14.8l2.16 10.59.03 2.62h-2.15l-3.62-13.2H166Zm12.18 0V28h-3.43V14.8h3.43Zm-3.59-3.42c0-.52.17-.96.5-1.3.34-.35.8-.53 1.37-.53.57 0 1.03.18 1.36.53.34.34.5.78.5 1.3s-.17.96-.5 1.31c-.34.34-.79.51-1.35.51-.58 0-1.04-.17-1.38-.51-.33-.35-.5-.79-.5-1.3Zm11.07 14.03c.32 0 .6-.07.82-.2.24-.13.42-.34.54-.63.12-.3.18-.67.2-1.14h3.2c0 1-.2 1.86-.63 2.58a4.34 4.34 0 0 1-1.69 1.66 5.82 5.82 0 0 1-4.7.15c-.66-.29-1.2-.7-1.63-1.25a5.73 5.73 0 0 1-.97-1.99c-.2-.79-.31-1.7-.31-2.7v-.97c0-1 .1-1.9.31-2.69.22-.79.54-1.45.97-2 .43-.54.97-.96 1.62-1.24a5.81 5.81 0 0 1 2.32-.43c.95 0 1.78.2 2.48.6.7.39 1.24.96 1.63 1.73.4.76.6 1.7.6 2.83h-3.2c-.02-.5-.08-.92-.2-1.26-.1-.34-.26-.6-.5-.78a1.3 1.3 0 0 0-.87-.28c-.38 0-.7.08-.93.25-.23.15-.4.38-.52.68-.12.3-.2.66-.23 1.1-.05.44-.07.93-.07 1.49v.96c0 .6.02 1.11.05 1.55.04.43.12.8.24 1.1.12.3.3.51.52.66.23.15.55.22.95.22Zm12.05 2.84c-.9 0-1.7-.13-2.4-.41a4.76 4.76 0 0 1-2.86-3.11 8 8 0 0 1-.38-2.57v-1.08c0-1.08.12-2.02.37-2.82.24-.82.59-1.5 1.03-2.05.45-.56 1-.97 1.65-1.24.66-.27 1.4-.41 2.24-.41.83 0 1.55.14 2.18.41.64.27 1.16.68 1.58 1.22.41.54.72 1.2.94 2 .2.8.31 1.73.31 2.79v1.56h-8.85v-2.4h5.5v-.3c0-.55-.06-1-.18-1.35-.1-.37-.29-.64-.53-.82a1.62 1.62 0 0 0-.98-.27c-.34 0-.63.07-.87.21-.23.14-.42.35-.56.65-.14.29-.24.67-.3 1.14-.07.47-.1 1.03-.1 1.68v1.08c0 .61.05 1.13.16 1.54.1.4.26.74.46 1 .22.25.47.44.77.55a3.98 3.98 0 0 0 2.67-.16c.5-.22.9-.51 1.25-.89l1.37 2.08a5.32 5.32 0 0 1-2.47 1.68c-.58.2-1.24.3-2 .3Z" fill="#F2F5F7"/>
<path d="m72.57 45.3 1.72-5.64h1.51l-2.54 7.3-.23.52c-.1.18-.22.35-.37.52-.15.17-.33.3-.56.4-.22.1-.49.16-.8.16a5.79 5.79 0 0 1-.69-.1v-1.08a5.13 5.13 0 0 0 .27.02c.24 0 .43-.03.6-.09a.81.81 0 0 0 .37-.27c.1-.12.19-.29.26-.5l.46-1.23Zm-.98-5.64 1.51 4.75.25 1.48-.98.26-2.3-6.49h1.52Zm8.79 4.63 1.88-4.63h1.23L80.86 46h-.96l-2.63-6.34h1.23l1.88 4.63Zm-2.25-4.63V46h-1.4v-6.34h1.4Zm4.5 6.34v-6.34h1.4V46h-1.4Zm7.32-3.7v1.12h-3.28v-1.11h3.28Zm-2.87-2.64V46h-1.41v-6.34h1.41Zm3.9 0V46h-1.42v-6.34h1.41Zm2.55 2.02h1.86c.55 0 1.02.09 1.4.27a2 2 0 0 1 1.18 1.88c0 .31-.06.6-.17.86-.12.27-.28.5-.5.69-.23.2-.5.35-.82.46-.31.1-.68.16-1.09.16h-2.8v-6.34H94v5.22h1.38c.29 0 .51-.05.68-.15.17-.1.29-.22.36-.38a1.15 1.15 0 0 0 0-1 .9.9 0 0 0-.36-.4 1.3 1.3 0 0 0-.68-.15h-1.86v-1.12Zm6.93-2.02V46h-1.4v-6.34h1.4Zm4.47 6.46c-.47 0-.9-.08-1.27-.23a2.81 2.81 0 0 1-1.57-1.63 3.42 3.42 0 0 1-.2-1.21v-.24c0-.5.06-.94.2-1.35.15-.4.35-.74.61-1.03.26-.29.56-.5.91-.66.36-.15.74-.23 1.15-.23.45 0 .85.08 1.19.23.34.15.62.37.84.65.23.27.4.6.5.97.12.38.17.8.17 1.26v.6h-4.9v-1.01h3.51v-.11c0-.26-.06-.5-.15-.72-.1-.22-.23-.4-.42-.54-.19-.13-.44-.2-.75-.2a1.24 1.24 0 0 0-1.08.58c-.12.19-.21.41-.28.68-.06.26-.1.55-.1.88v.24c0 .27.05.53.12.77.08.23.2.44.34.62.15.17.33.31.54.41a1.96 1.96 0 0 0 2.32-.64l.74.72a2.66 2.66 0 0 1-1.34 1.01 3.2 3.2 0 0 1-1.08.18Zm9.57-6.46V46h-1.42v-6.34h1.42Zm2.08 0v1.11h-5.55v-1.11h5.55Zm3.3 6.46c-.47 0-.9-.08-1.27-.23a2.81 2.81 0 0 1-1.56-1.63 3.42 3.42 0 0 1-.22-1.21v-.24c0-.5.08-.94.22-1.35.14-.4.35-.74.6-1.03.26-.29.57-.5.92-.66.35-.15.73-.23 1.14-.23.45 0 .85.08 1.19.23.34.15.62.37.84.65.23.27.4.6.5.97.12.38.18.8.18 1.26v.6h-4.9v-1.01h3.5v-.11c0-.26-.05-.5-.15-.72-.09-.22-.23-.4-.42-.54-.18-.13-.43-.2-.75-.2a1.24 1.24 0 0 0-1.08.58c-.11.19-.2.41-.27.68-.07.26-.1.55-.1.88v.24c0 .27.04.53.11.77.08.23.2.44.34.62.15.17.33.31.54.41a1.96 1.96 0 0 0 2.32-.64l.75.72a2.66 2.66 0 0 1-1.34 1.01 3.2 3.2 0 0 1-1.09.18Zm4.72-6.46 1.2 2.1 1.23-2.1h1.56l-1.92 3.11 2 3.23h-1.56l-1.29-2.2-1.29 2.2h-1.56l2-3.23-1.92-3.11h1.55Zm9.28 2.65v1.11h-3.28v-1.11h3.28Zm-2.87-2.65V46h-1.4v-6.34h1.4Zm3.9 0V46h-1.42v-6.34h1.41Zm1.23 3.24v-.13c0-.46.07-.89.2-1.28s.32-.73.57-1.02c.26-.3.57-.52.93-.68.37-.16.78-.25 1.24-.25.47 0 .88.09 1.24.25.37.16.68.39.94.68.25.29.44.63.58 1.02.13.4.2.82.2 1.28v.13c0 .46-.07.88-.2 1.27a2.7 2.7 0 0 1-2.74 1.95 3.1 3.1 0 0 1-1.25-.24c-.37-.17-.68-.4-.93-.68-.25-.3-.45-.64-.58-1.03-.13-.39-.2-.81-.2-1.27Zm1.41-.13v.13c0 .29.03.56.1.8.05.26.14.49.27.68.12.19.28.34.48.45.2.1.42.16.7.16a1.35 1.35 0 0 0 1.15-.61c.13-.2.22-.42.28-.67.06-.25.1-.52.1-.81v-.13c0-.29-.04-.55-.1-.8a2.03 2.03 0 0 0-.28-.68 1.35 1.35 0 0 0-1.17-.62c-.26 0-.5.05-.69.17-.2.1-.35.26-.47.45-.13.2-.22.42-.28.68-.06.25-.09.51-.09.8Zm9.83-3.11v1.13h-3.09v-1.13h3.1Zm1.11 0V46h-1.41v-6.34h1.41Zm-4.55 0h1.4l-.17 3.13c-.02.47-.07.88-.14 1.24a4.1 4.1 0 0 1-.27.9c-.11.25-.25.46-.42.61-.16.16-.35.27-.57.35a2.3 2.3 0 0 1-.74.11h-.44v-1.16l.22-.02a.87.87 0 0 0 .37-.1c.1-.08.2-.17.27-.29.08-.12.14-.28.2-.47a12.96 12.96 0 0 0 .19-1.6l.1-2.7Zm5.78 3.24v-.13c0-.46.07-.89.2-1.28.14-.39.33-.73.58-1.02.25-.3.56-.52.92-.68.37-.16.78-.25 1.24-.25.47 0 .88.09 1.25.25.36.16.67.39.93.68.25.29.44.63.58 1.02.13.4.2.82.2 1.28v.13c0 .46-.07.88-.2 1.27a2.7 2.7 0 0 1-2.74 1.95 3.1 3.1 0 0 1-1.25-.24c-.37-.17-.67-.4-.93-.68-.25-.3-.44-.64-.58-1.03-.13-.39-.2-.81-.2-1.27Zm1.41-.13v.13c0 .29.03.56.1.8.05.26.14.49.27.68.12.19.28.34.48.45.2.1.43.16.7.16a1.34 1.34 0 0 0 1.16-.61c.12-.2.21-.42.27-.67.06-.25.1-.52.1-.81v-.13c0-.29-.04-.55-.1-.8a2.03 2.03 0 0 0-.28-.68 1.35 1.35 0 0 0-1.17-.62c-.26 0-.5.05-.69.17-.19.1-.35.26-.47.45-.13.2-.22.42-.28.68-.06.25-.09.51-.09.8Zm9.89-3.11v1.13h-2.77V46h-1.4v-6.34h4.17Zm2.28 4.28 2.49-4.28h1.41V46h-1.41v-4.28l-2.5 4.28h-1.4v-6.34h1.4v4.28Zm6.85 0 2.5-4.28h1.4V46h-1.4v-4.28l-2.5 4.28h-1.4v-6.34h1.4v4.28Z" fill="#fff" fill-opacity=".7"/>
<path d="M33.92 14.67c1.19 0 2.2.77 2.58 1.83H46a2.75 2.75 0 1 1 0 1.83h-9.5a2.75 2.75 0 1 1-2.58-3.66Zm14.66 3.66a.92.92 0 1 0 0-1.83.92.92 0 0 0 0 1.83Zm-14.66 0a.92.92 0 1 0 0-1.83.92.92 0 0 0 0 1.83Z" fill="#00B2FF"/><path d="M26.58 20.34v-5.67c0-.25.1-.48.27-.65l3.67-3.67c.17-.17.4-.27.65-.27h2.92a2.75 2.75 0 1 1 0 1.84h-2.54l-3.13 3.13v5.29a2.75 2.75 0 1 1-1.84 0Zm10.09-8.42a.92.92 0 1 0 0-1.84.92.92 0 0 0 0 1.84ZM27.5 23.83a.92.92 0 1 0 0-1.83.92.92 0 0 0 0 1.83ZM10.08 23.83c.43 0 .82.1 1.18.28l1.57-1.57v-8.79c0-.24.1-.48.27-.65l9.18-9.17a2.75 2.75 0 1 1 2.47 1.57c-.42 0-.82-.1-1.18-.28l-8.9 8.9v8.8c0 .24-.1.47-.27.64l-1.84 1.85a2.75 2.75 0 1 1-2.47-1.57ZM24.75 3.67a.92.92 0 1 0 0-1.84.92.92 0 0 0 0 1.84ZM10.08 27.5a.92.92 0 1 0 0-1.84.92.92 0 0 0 0 1.84ZM1.83 13V9.17c0-.25.1-.48.27-.65L8.52 2.1c.17-.17.4-.27.65-.27h4.75a2.75 2.75 0 1 1 0 1.84H9.55L3.67 9.55V13a2.75 2.75 0 1 1-1.84 0ZM16.5 3.67a.92.92 0 1 0 0-1.84.92.92 0 0 0 0 1.84ZM2.75 16.5a.92.92 0 1 0 0-1.84.92.92 0 0 0 0 1.84ZM14.67 49.67V36.5a2.75 2.75 0 1 1 3.5-3.5h9.5a2.75 2.75 0 0 1 2.58-1.83c1.2 0 2.2.77 2.58 1.83h5.3l3.4-3.4A2.75 2.75 0 1 1 44 31.16c-.42 0-.82-.1-1.18-.28l-3.67 3.67a.91.91 0 0 1-.65.27h-5.67a2.75 2.75 0 0 1-2.58 1.84c-1.2 0-2.2-.77-2.58-1.84h-9.5a2.75 2.75 0 0 1-1.67 1.67v13.17a2.75 2.75 0 1 1-1.83 0ZM44 29.33a.92.92 0 1 0 0-1.83.92.92 0 0 0 0 1.83Zm-13.75 5.5a.92.92 0 1 0 0-1.83.92.92 0 0 0 0 1.83ZM15.58 53.17a.92.92 0 1 0 0-1.84.92.92 0 0 0 0 1.84Zm0-18.34a.92.92 0 1 0 0-1.83.92.92 0 0 0 0 1.83Z" fill="#00B2FF"/><path d="M19.25 18.5v-2.92c0-.24.1-.47.27-.64l11-11.01A2.75 2.75 0 0 1 33 0c1.2 0 2.21.77 2.6 1.83h3.83c.5 0 .91.41.91.92v2.37l3.4 3.4A2.75 2.75 0 1 1 42.17 11c0-.41.11-.81.28-1.17l-3.67-3.67a.91.91 0 0 1-.27-.65V3.67h-2.92a2.75 2.75 0 0 1-3.76 1.55L21.08 15.96v2.54a2.75 2.75 0 1 1-1.83 0Zm25.67-6.58a.92.92 0 1 0 0-1.84.92.92 0 0 0 0 1.84ZM33 3.67a.92.92 0 1 0 0-1.84.92.92 0 0 0 0 1.84ZM20.17 22a.92.92 0 1 0 0-1.84.92.92 0 0 0 0 1.84Z" fill="#00B2FF"/><path d="M22 25.67c1.2 0 2.2.77 2.58 1.83h10.8l5.22-5.23c.17-.17.4-.27.65-.27h9.7l2.22-2.21v-7.5l-7.08-7.07a2.75 2.75 0 1 1 1.57-2.47c0 .42-.1.82-.27 1.18l7.34 7.34c.17.17.27.4.27.65v8.25c0 .24-.1.47-.27.64l-2.75 2.75a.91.91 0 0 1-.65.27h-9.7l-5.23 5.23a.91.91 0 0 1-.65.27H24.58A2.75 2.75 0 1 1 22 25.67ZM44.92 1.83a.92.92 0 1 0 0 1.84.92.92 0 0 0 0-1.84ZM22 29.33a.92.92 0 1 0 0-1.83.92.92 0 0 0 0 1.83ZM2.75 22c.42 0 .82.1 1.18.28l3.4-3.41v-5.29a2.75 2.75 0 1 1 1.84 0v5.67c0 .24-.1.48-.27.65l-3.68 3.67a2.7 2.7 0 0 1-1.55 3.76v.7l7.06 7.07c.17.17.27.4.27.65v1.08a2.75 2.75 0 0 1 1.83 2.59c0 1.19-.77 2.2-1.83 2.58v2.17a2.75 2.75 0 1 1-1.83 0V42a2.75 2.75 0 0 1-1.84-2.58c0-1.2.77-2.2 1.84-2.59v-.7L2.1 29.06a.91.91 0 0 1-.27-.64v-1.09A2.75 2.75 0 0 1 2.75 22Zm5.5-10.08a.92.92 0 1 0 0-1.84.92.92 0 0 0 0 1.84Zm1.83 35.75a.92.92 0 1 0 0-1.84.92.92 0 0 0 0 1.84Zm0-7.34a.92.92 0 1 0 0-1.83.92.92 0 0 0 0 1.83ZM2.75 25.67a.92.92 0 1 0 0-1.84.92.92 0 0 0 0 1.84Z" fill="#00B2FF"/></g></symbol><symbol id="ok" viewBox="0 0 30 30"><path d="M15.17 12.64a2.03 2.03 0 0 0 .02-4.05 2.03 2.03 0 0 0-.02 4.05Z"/><path d="M15 0a15 15 0 1 0 0 30 15 15 0 0 0 0-30Zm.21 5.68a4.93 4.93 0 1 1-.04 9.86 4.93 4.93 0 0 1 .04-9.86Zm5.51 11.57-.02.1a1.4 1.4 0 0 1-.64 1.01 9.66 9.66 0 0 1-2.79 1.18c-.08.02-.08.02-.02.09l1.18 1.18 1.5 1.5c.7.7.51 1.88-.39 2.31-.15.09-.32.1-.49.15h-.28c-.02 0-.04 0-.04-.02a1.58 1.58 0 0 1-.88-.45l-2.6-2.6c-.06-.06-.06-.06-.12 0l-2.62 2.62c-.15.15-.3.26-.49.34-.13.07-.28.09-.4.11h-.28l-.11-.02c-.58-.1-.97-.43-1.14-.99a1.37 1.37 0 0 1 .37-1.45l1.07-1.07 1.58-1.59c.07-.06.07-.06-.02-.09l-.08-.02a9.26 9.26 0 0 1-2.68-1.13c-.5-.32-.73-.8-.67-1.37a1.44 1.44 0 0 1 2.21-1.08 6.1 6.1 0 0 0 5.25.62c.52-.17.97-.4 1.44-.66a1.45 1.45 0 0 1 2.16 1.12v.21Z"/></symbol><symbol id="phone-call" viewBox="0 0 21 20"><path d="M16.31 12.39c-.4-.43-.9-.66-1.42-.66-.52 0-1.02.23-1.45.66L12.1 13.7l-.32-.16a5.4 5.4 0 0 1-.42-.23 14.51 14.51 0 0 1-3.48-3.16 8.55 8.55 0 0 1-1.14-1.8c.35-.32.67-.65.98-.96l.36-.36c.88-.89.88-2.04 0-2.92L6.92 2.96l-.4-.4c-.25-.26-.51-.53-.79-.78a2 2 0 0 0-1.41-.62c-.52 0-1.02.21-1.44.62L1.42 3.24C.9 3.77.6 4.43.52 5.2c-.1 1.23.26 2.38.54 3.13.68 1.84 1.7 3.55 3.23 5.38a19.89 19.89 0 0 0 6.63 5.18A10.33 10.33 0 0 0 14.9 20c.98 0 1.8-.35 2.44-1.05l.02-.02c.22-.26.47-.5.74-.76l.55-.55c.42-.43.64-.94.64-1.46s-.23-1.02-.65-1.44l-2.33-2.33Zm1.52 4.44-.52.52c-.27.26-.55.54-.81.84-.43.46-.93.67-1.6.67h-.19a9.18 9.18 0 0 1-3.3-.99c-2.39-1.15-4.49-2.8-6.23-4.88a17.13 17.13 0 0 1-3.05-5.06 6.02 6.02 0 0 1-.47-2.64c.04-.5.23-.9.58-1.25L3.68 2.6c.21-.2.43-.3.65-.3a.9.9 0 0 1 .61.3h.02l.76.76.4.41 1.15 1.15c.45.45.45.86 0 1.31l-.36.36c-.36.37-.7.7-1.06 1.03l-.02.02c-.37.37-.3.72-.22.96l.01.04c.3.73.72 1.41 1.37 2.23a15.5 15.5 0 0 0 3.75 3.41c.18.11.35.2.52.28.16.08.3.15.42.23.02 0 .04.02.05.03.15.07.28.1.42.1a.9.9 0 0 0 .64-.29l1.45-1.44c.14-.15.37-.32.64-.32.26 0 .48.17.6.3l.01.02 2.33 2.32c.44.43.44.88 0 1.32ZM11.3 4.76a5.38 5.38 0 0 1 4.43 4.42c.06.28.3.47.57.47h.1a.57.57 0 0 0 .47-.66 6.5 6.5 0 0 0-5.36-5.36.57.57 0 0 0-.66.47c-.06.3.15.6.46.66Z"/><path d="M20.5 8.82a10.7 10.7 0 0 0-3.02-5.8c-1.6-1.6-3.6-2.64-5.82-3.01a.57.57 0 1 0-.18 1.12 9.6 9.6 0 0 1 7.89 7.88c.04.28.28.47.56.47h.1c.3-.05.52-.35.46-.66Z"/></symbol><symbol id="pinterest" viewBox="0 0 30 30">
<path d="M14.9999 0C23.2847 0 30 6.71625 30 15.0001C30 23.2848 23.2847 30 14.9999 30C6.71522 30 0 23.2847 0 15.0001C0 6.71625 6.71532 0 14.9999 0Z"/>
<path d="M15 5C9.4823 5 5 9.4823 5 15C5 20.5177 9.4823 25 15 25C20.5177 25 25 20.5177 25 15C25 9.4823 20.5177 5 15 5ZM15 5.86957C20.0477 5.86957 24.1304 9.95225 24.1304 15C24.1304 20.0477 20.0477 24.1304 15 24.1304C14.0767 24.1304 13.186 23.9922 12.3463 23.7381C12.7203 23.1128 13.2032 22.219 13.395 21.481C13.509 21.0434 13.9776 19.2587 13.9776 19.2587C14.2821 19.84 15.1719 20.332 16.1192 20.332C18.9383 20.332 20.9706 17.7394 20.9706 14.5177C20.9706 11.4289 18.4502 9.11855 15.2072 9.11855C11.1725 9.11855 9.03108 11.8264 9.03108 14.775C9.03108 16.1462 9.7604 17.8531 10.9282 18.3967C11.105 18.4791 11.2 18.4434 11.2407 18.2719C11.2719 18.1418 11.4297 17.5073 11.5005 17.2121C11.5232 17.1179 11.5122 17.0365 11.436 16.9438C11.0495 16.475 10.7396 15.6138 10.7396 14.8106C10.7396 12.7487 12.3006 10.7532 14.9601 10.7532C17.2564 10.7532 18.8646 12.3186 18.8646 14.5567C18.8646 17.0853 17.5879 18.8375 15.9265 18.8375C15.0089 18.8375 14.3219 18.0784 14.5423 17.1476C14.8065 16.0366 15.3167 14.8378 15.3167 14.0353C15.3167 13.3177 14.9316 12.7191 14.1338 12.7191C13.1958 12.7191 12.4423 13.6889 12.4423 14.989C12.4423 15.8162 12.7225 16.3765 12.7225 16.3765C12.7225 16.3765 11.7959 20.2941 11.6262 21.0233C11.4561 21.7519 11.5017 22.7332 11.5718 23.4638C8.22658 22.1098 5.86957 18.8345 5.86957 15C5.86957 9.95225 9.95225 5.86957 15 5.86957Z" fill="#041827"/>
</symbol><symbol id="price" viewBox="0 0 35 35"><path d="M11.07 8.58a.69.69 0 0 0-.97 0 .69.69 0 0 0 0 .97.69.69 0 0 0 .97 0 .69.69 0 0 0 0-.97Z"/><path d="M34.8 2.86 33.95 2l.85-.84a.68.68 0 0 0-.97-.97l-.84.84-.83-.83a.68.68 0 0 0-.49-.2H20.1a3.4 3.4 0 0 0-2.42 1l-5.77 5.77a.68.68 0 0 0 .96.97l5.78-5.78c.39-.39.9-.6 1.45-.6H31.4l.63.64-2.53 2.54a2.8 2.8 0 1 0 .96.97L33 2.98l.64.64V14.9c0 .55-.22 1.06-.6 1.45L16.33 33.03a2.04 2.04 0 0 1-2.9 0L1.97 21.56a2.04 2.04 0 0 1 0-2.9l7.37-7.37a.68.68 0 0 0-.97-.97L1 17.69a3.4 3.4 0 0 0 0 4.84L12.47 34a3.41 3.41 0 0 0 4.84 0L34 17.32c.65-.65 1-1.5 1-2.42L35 3.34a.68.68 0 0 0-.2-.48Zm-5.74 5.1a1.42 1.42 0 0 1-2.03 0 1.43 1.43 0 0 1 1.43-2.38l-.8.79a.68.68 0 0 0 .97.96l.8-.78c.13.48.01 1.03-.37 1.41Z"/><path d="M29.2 13.76 21.23 5.8a2.71 2.71 0 0 0-3.82 0L4.8 18.4a2.69 2.69 0 0 0 0 3.83l7.97 7.97a2.69 2.69 0 0 0 3.82 0L29.2 17.6a2.69 2.69 0 0 0 0-3.84Zm-.97 2.87-12.6 12.6a1.33 1.33 0 0 1-1.9 0l-7.96-7.96a1.33 1.33 0 0 1 0-1.9l12.6-12.6a1.34 1.34 0 0 1 1.9 0l7.96 7.96a1.33 1.33 0 0 1 0 1.9Z"/><path d="M22.29 13.68a.68.68 0 0 0-.97-.97l-.39.4a2.63 2.63 0 0 0-3.25.28c-.5.5-.75 1.18-.72 1.9a2.88 2.88 0 0 0 .85 1.9c.55.55.62 1.38.14 1.85-.47.48-1.3.42-1.86-.13-.55-.55-.6-1.39-.13-1.86a.68.68 0 0 0-.97-.97c-.85.85-.94 2.2-.29 3.25l-.47.47a.68.68 0 0 0 .97.97l.47-.47c.46.29.97.43 1.48.43.65 0 1.29-.24 1.77-.72 1-1 .94-2.7-.14-3.79a1.51 1.51 0 0 1-.45-1c-.02-.33.1-.64.31-.86.48-.47 1.31-.41 1.86.14s.61 1.38.14 1.86a.68.68 0 0 0 .97.96c.85-.85.94-2.2.29-3.25l.39-.4ZM15.37 25.01l-3.5-3.51a.68.68 0 0 0-.98.97l3.51 3.5a.68.68 0 0 0 .97 0 .68.68 0 0 0 0-.96ZM9.99 19.63a.69.69 0 0 0-.97 0 .69.69 0 0 0 0 .96.69.69 0 0 0 .97 0 .69.69 0 0 0 0-.96Z"/></symbol><symbol id="privacy" viewBox="0 0 35 35"><path d="M17.5 11.02c-.38 0-.68.36-.68.8 0 .44.3.8.68.8.38 0 .68-.36.68-.8 0-.44-.3-.8-.68-.8Z"/><path d="M32.95 15.81h-2.66C28.89 11.13 26.85 2.92 23.17.6c-1.85-1.16-3.59-.35-4.24 1.3-.28.7-.84 1.06-1.43 1.06-.6 0-1.15-.37-1.43-1.06-.63-1.6-2.33-2.48-4.1-1.47C8.21 2.56 6.11 11.1 4.7 15.8H2.05C.92 15.81 0 16.9 0 18.21c0 1.32.92 2.4 2.05 2.4h30.9c1.13 0 2.05-1.07 2.05-2.4 0-1.32-.92-2.4-2.05-2.4ZM7.1 12.61h7.66c.37 0 .68-.35.68-.8 0-.43-.3-.8-.68-.8H7.59c2.06-6.65 3.99-8.58 4.97-9.14 1.07-.61 1.96-.1 2.27.7.5 1.26 1.54 2 2.67 2s2.17-.74 2.67-2c.32-.82 1.21-1.28 2.35-.56.99.62 2.9 2.62 4.89 9h-7.18c-.37 0-.68.37-.68.8 0 .45.3.8.68.8h7.66l.95 3.2H6.16l.95-3.2Zm25.84 6.4H2.05c-.38 0-.68-.36-.68-.8 0-.44.3-.8.68-.8h30.9c.38 0 .68.36.68.8 0 .44-.3.8-.68.8ZM16.13 23.8H5.2c-.38 0-.69.37-.69.8v3.2c0 3.97 2.76 7.2 6.15 7.2 2.57 0 4.85-1.85 5.75-4.63a2.28 2.28 0 0 1 2.18 0c.9 2.78 3.18 4.63 5.75 4.63 3.39 0 6.15-3.23 6.15-7.2v-3.2c0-.43-.3-.8-.69-.8H18.87c-.38 0-.69.37-.69.8v.8h-1.36v-.8c0-.43-.31-.8-.69-.8Zm-5.47 9.6c-2.63 0-4.78-2.5-4.78-5.6v-2.4h9.57v2.4c0 3.1-2.14 5.6-4.79 5.6Zm8.9-8h9.56v2.4c0 3.1-2.15 5.6-4.78 5.6-2.66 0-4.79-2.5-4.79-5.6v-2.4ZM18.17 27v.8c0 .26.02.52.04.77-.48-.1-.96-.1-1.44 0 .02-.25.04-.5.04-.76V27h1.36Z"/><path d="M10.66 30.2c-1.13 0-2.05-1.07-2.05-2.4 0-.44-.3-.8-.68-.8-.38 0-.68.36-.68.8 0 2.2 1.53 4 3.41 4 .38 0 .69-.36.69-.8 0-.44-.3-.8-.69-.8ZM24.34 31.8c1.88 0 3.41-1.8 3.41-4 0-.44-.3-.8-.68-.8-.38 0-.68.36-.68.8 0 1.33-.92 2.4-2.05 2.4-.38 0-.69.36-.69.8 0 .44.3.8.69.8Z"/></symbol><symbol id="suppliers" viewBox="0 0 35 35">
<path d="M31.2638 27.8931C31.639 27.3746 31.8609 26.7384 31.8609 26.0511V21.9434C31.8609 21.5658 31.5548 21.2598 31.1773 21.2598H28.1222C26.7099 21.2598 25.5609 22.4087 25.5609 23.8211V26.0511C25.5609 26.738 25.7826 27.3738 26.1573 27.8921C25.69 27.9679 25.2404 28.1176 24.8211 28.3367C23.8713 26.9195 22.3152 25.9421 20.5271 25.7772C20.5201 25.7752 20.513 25.7738 20.506 25.7721C21.1457 25.0577 21.5357 24.1151 21.5357 23.0829V17.5C21.5357 17.1225 21.2296 16.8164 20.8521 16.8164H16.6999C14.9157 16.8164 13.4643 18.2679 13.4643 20.052V23.0828C13.4643 24.1151 13.8543 25.0576 14.494 25.772C14.487 25.7737 14.4799 25.7752 14.4729 25.7772C12.6846 25.942 11.1284 26.9196 10.1787 28.337C9.75926 28.1179 9.30959 27.9681 8.84249 27.8923C9.21724 27.374 9.43906 26.7381 9.43906 26.0511V21.9434C9.43906 21.5658 9.13295 21.2598 8.75547 21.2598H5.70035C4.28805 21.2598 3.13906 22.4087 3.13906 23.8211V26.0511C3.13906 26.7385 3.36103 27.3746 3.73618 27.8931C1.62025 28.2389 0 30.0791 0 32.2913V34.3164C0 34.694 0.306113 35 0.683594 35H34.3164C34.6939 35 35 34.694 35 34.3164V32.2913C35 30.0791 33.3797 28.2389 31.2638 27.8931ZM4.50625 23.8211C4.50625 23.1626 5.04191 22.627 5.70035 22.627H8.07188V23.4595C8.07188 23.8677 7.73979 24.1998 7.33161 24.1998H4.50625V23.8211ZM4.50625 25.567H7.33161C7.59206 25.567 7.84144 25.5192 8.07188 25.4324V26.0511C8.07188 27.0341 7.27214 27.8339 6.28906 27.8339C5.30599 27.8339 4.50625 27.0341 4.50625 26.0511V25.567ZM6.72978 29.2011L6.28906 29.6418L5.84835 29.2011H6.72978ZM9.19789 31.564V33.6328H1.36719V32.2913C1.36719 30.758 2.48985 29.4826 3.95616 29.2424L5.80569 31.0919C5.93394 31.2201 6.10777 31.2921 6.28906 31.2921C6.47035 31.2921 6.64419 31.2201 6.77243 31.0919L8.62251 29.2417C8.94927 29.2949 9.26352 29.4003 9.55637 29.5544C9.32477 30.1809 9.19789 30.8579 9.19789 31.564ZM17.5001 25.7515C16.0286 25.7515 14.8315 24.5543 14.8315 23.0829V22.1794H18.917C19.37 22.1794 19.7965 22.0637 20.1686 21.8604V23.0829C20.1686 24.5543 18.9715 25.7515 17.5001 25.7515ZM18.6916 27.1186L17.5 28.3102L16.3084 27.1186H18.6916ZM14.8314 20.052H14.8315C14.8315 19.0217 15.6696 18.1836 16.6999 18.1836H20.1685V19.5606C20.1685 20.2508 19.607 20.8123 18.9169 20.8123H14.8314V20.052ZM24.4349 33.6328H23.1055H11.8945H10.5651V32.2656H15.0163C15.3938 32.2656 15.6999 31.9596 15.6999 31.582C15.6999 31.2045 15.3938 30.8984 15.0163 30.8984H10.6151C10.9081 28.9556 12.4633 27.422 14.4158 27.1595L17.0166 29.7603C17.1501 29.8938 17.3251 29.9605 17.5 29.9605C17.6749 29.9605 17.8499 29.8938 17.9834 29.7603L20.5842 27.1595C22.755 27.4513 24.4349 29.3145 24.4349 31.564V33.6328ZM26.9281 23.8211C26.9281 23.1626 27.4638 22.627 28.1222 22.627H30.4937V23.4595C30.4937 23.8677 30.1617 24.1998 29.7535 24.1998H26.9281V23.8211ZM26.9281 25.567H29.7535C30.0139 25.567 30.2633 25.5192 30.4937 25.4324V26.0511C30.4937 27.0341 29.694 27.8339 28.7109 27.8339C27.7279 27.8339 26.9281 27.0341 26.9281 26.0511V25.567ZM29.1516 29.2011L28.7109 29.6418L28.2702 29.2011H29.1516ZM25.802 33.6328V31.564C25.802 30.8578 25.6752 30.1809 25.4435 29.5542C25.7362 29.4 26.0504 29.2947 26.3772 29.2416L28.2275 31.0919C28.3557 31.2201 28.5296 31.2921 28.7109 31.2921C28.8922 31.2921 29.066 31.2201 29.1942 31.0919L31.0438 29.2424C32.5101 29.4826 33.6327 30.758 33.6327 32.2913V33.6328H25.802Z"/>
<path d="M20.869 4.4665C20.602 4.19956 20.1693 4.19956 19.9022 4.4665L16.5478 7.82097L15.0977 6.37086C14.8307 6.10385 14.398 6.10385 14.131 6.37079C13.8641 6.63773 13.8641 7.07059 14.131 7.3376L16.0645 9.27107C16.1927 9.39925 16.3665 9.4713 16.5478 9.4713C16.7291 9.4713 16.903 9.39925 17.0312 9.27107L20.869 5.43324C21.136 5.1663 21.136 4.73345 20.869 4.4665Z"/>
<path d="M20.295 0.592814C19.9503 0.439074 19.5461 0.593908 19.3923 0.938712C19.2385 1.28352 19.3934 1.68773 19.7382 1.84147C21.7205 2.72556 23.0015 4.69889 23.0015 6.86875C23.0015 9.90227 20.5335 12.3702 17.5 12.3702C14.4664 12.3702 11.9985 9.90227 11.9985 6.86875C11.9985 4.7101 13.2702 2.74087 15.2382 1.85199C15.5823 1.69661 15.7353 1.29165 15.5798 0.947599C15.4244 0.603478 15.0193 0.450558 14.6755 0.605939C12.2188 1.71555 10.6313 4.17382 10.6313 6.86868C10.6313 10.6561 13.7126 13.7374 17.5 13.7374C21.2873 13.7374 24.3686 10.6561 24.3686 6.86875C24.3686 4.15987 22.7696 1.69641 20.295 0.592814Z"/>
<path d="M17.5245 0H17.5C17.1225 0 16.8164 0.306045 16.8164 0.683594C16.8164 1.06114 17.1225 1.36719 17.5 1.36719H17.518C17.5191 1.36719 17.5202 1.36719 17.5213 1.36719C17.8974 1.36719 18.2031 1.06326 18.2049 0.686807C18.2066 0.309258 17.902 0.00177734 17.5245 0Z"/>
<path d="M17.9832 31.0987C17.8562 30.9716 17.6798 30.8984 17.5 30.8984C17.3202 30.8984 17.1438 30.9716 17.0167 31.0987C16.8896 31.2259 16.8164 31.4022 16.8164 31.582C16.8164 31.7618 16.8895 31.9382 17.0167 32.0653C17.1439 32.1925 17.3202 32.2656 17.5 32.2656C17.6798 32.2656 17.8562 32.1925 17.9832 32.0653C18.1104 31.9382 18.1836 31.7618 18.1836 31.582C18.1836 31.4022 18.1104 31.2259 17.9832 31.0987Z"/>
</symbol><symbol id="time" viewBox="0 0 35 35"><path d="m3.85 11.66-1.8-1.47a1.8 1.8 0 0 1 0-2.9 2.9 2.9 0 0 1 3.54 0L7.5 8.86c2-1.14 4.28-1.93 6.67-2.3V4.5H12.5c-.46 0-.83-.3-.83-.68V2.05C11.67.92 12.79 0 14.17 0h6.66c1.38 0 2.5.92 2.5 2.05v1.78c0 .38-.37.68-.83.68h-1.67v2.04a19.7 19.7 0 0 1 6.67 2.31L29.4 7.3a2.9 2.9 0 0 1 3.54 0c.97.8.97 2.1 0 2.9l-1.8 1.47A12.84 12.84 0 0 1 35 20.64C35 28.56 27.15 35 17.5 35S0 28.56 0 20.64c0-3.27 1.36-6.44 3.85-8.98Zm.56-3.4a.97.97 0 0 0-1.18 0 .6.6 0 0 0 0 .96l1.72 1.42c.4-.33.8-.64 1.22-.94L4.41 8.26Zm17.26-6.2c0-.39-.38-.7-.84-.7h-6.66c-.46 0-.84.31-.84.7v1.08h8.34V2.05ZM15.83 4.5v1.84c1.1-.08 2.23-.08 3.34 0V4.51h-3.34Zm15.94 3.75a.97.97 0 0 0-1.18 0L28.83 9.7c.42.3.83.6 1.22.94l1.72-1.42a.6.6 0 0 0 0-.96ZM17.5 33.63c8.73 0 15.83-5.82 15.83-12.99 0-3.15-1.4-6.2-3.93-8.57a15.2 15.2 0 0 0-2.32-1.77 17.8 17.8 0 0 0-9.58-2.64 17.8 17.8 0 0 0-9.58 2.64 15.2 15.2 0 0 0-2.32 1.77 11.73 11.73 0 0 0-3.93 8.57c0 7.17 7.1 13 15.83 13Z"/><path d="M17.5 22.7c-1.38 0-2.5-.92-2.5-2.06 0-.89.7-1.65 1.67-1.93v-4.9c0-.38.37-.69.83-.69.46 0 .83.31.83.69v4.9C19.3 19 20 19.75 20 20.64c0 1.14-1.12 2.06-2.5 2.06Zm0-2.74c-.46 0-.83.3-.83.68 0 .38.37.69.83.69.46 0 .83-.3.83-.69 0-.37-.37-.68-.83-.68Z"/><path d="M8.62 13.43a.6.6 0 0 1 .04-.03l.05-.04a13.34 13.34 0 0 1 5.25-2.55c.45-.1.9.1 1.04.46.13.36-.12.74-.56.85-1.46.35-2.82.96-3.98 1.78l.56.46a.6.6 0 0 1 0 .97.93.93 0 0 1-.6.2.93.93 0 0 1-.58-.2l-.56-.46a8.06 8.06 0 0 0-2.58 5.1h.8c.46 0 .83.3.83.67 0 .38-.37.69-.83.69h-.8a8.06 8.06 0 0 0 2.58 5.1l.56-.47a.97.97 0 0 1 1.18 0 .6.6 0 0 1 0 .97l-.56.46a12.07 12.07 0 0 0 6.2 2.12v-.66c0-.38.38-.69.84-.69.46 0 .83.31.83.69v.65c2.3-.14 4.46-.87 6.21-2.11l-.56-.46a.6.6 0 0 1 0-.97.97.97 0 0 1 1.18 0l.56.46a8.06 8.06 0 0 0 2.58-5.1h-.8c-.46 0-.83-.3-.83-.68 0-.37.37-.68.83-.68h.8a8.06 8.06 0 0 0-2.58-5.1l-.56.47a.93.93 0 0 1-.59.2.93.93 0 0 1-.59-.2.6.6 0 0 1 0-.97l.56-.46a11.75 11.75 0 0 0-3.98-1.78c-.44-.1-.69-.49-.56-.85.13-.36.6-.57 1.04-.46a13.34 13.34 0 0 1 5.3 2.59l.04.03A9.35 9.35 0 0 1 30 20.64a9.35 9.35 0 0 1-3.66 7.25l-.05.04a13.92 13.92 0 0 1-8.79 2.97c-3.31 0-6.43-1.06-8.8-2.97l-.04-.04-.04-.03A9.35 9.35 0 0 1 5 20.64a9.35 9.35 0 0 1 3.62-7.2Z"/><path d="M17.5 11.76c-.46 0-.83-.3-.83-.69 0-.37.37-.68.83-.68.46 0 .83.3.83.68 0 .38-.37.69-.83.69Z"/></symbol><symbol id="vk" viewBox="0 0 30 30"><path d="M21.62 17.45c-1.24-1.18-1.33-1.18-.27-2.54 1.33-1.73 3.09-3.91 1.5-3.91h-2.9c-.54 0-.63.36-.8.82-.7 1.73-2.12 4-2.65 3.63-.53-.36-.27-1.72-.27-3.9a.72.72 0 0 0-.17-.73c-.18-.18-.44-.37-.7-.37-.45-.09-.89-.18-1.33-.18-1.68 0-2.82.73-2.2.82 1.14.18 1.05 2.73.79 3.82-.44 1.9-2.2-1.46-3-3.18a.87.87 0 0 0-.88-.73h-2.3c-.35 0-.62.1-.62.36 0 .46 2.2 4.91 4.24 7.19 2.03 2.18 4.06 2 5.47 2 .18 0 .35-.1.44-.19a.7.7 0 0 0 .18-.45c0-1.46.53-2.18 1.5-1.18 1.06 1.09 1.32 1.82 2.64 1.82h2.39c.61 0 .79-.19.79-.46.09-.64-.97-1.82-1.85-2.64ZM15.35 0C23.55.18 30.1 7 30 15.27A14.9 14.9 0 0 1 14.9 30 14.98 14.98 0 0 1 0 15 15.19 15.19 0 0 1 15.35 0Z"/></symbol></svg>