<svg xmlns="http://www.w3.org/2000/svg" xmlns:xlink="http://www.w3.org/1999/xlink"><symbol id="checked" viewBox="0 0 15 15"><g fill="none">
<path d="M2.98853 6.33333L5.7778 9L9.96171 5" stroke="white"/>
<rect x="0.5" y="0.5" width="13.9425" height="14" rx="1.5" stroke="white"/>
</g></symbol><symbol id="detective" viewBox="0 0 35 35">
<path d="M17.5 11.0172C17.1227 11.0172 16.8164 11.3751 16.8164 11.8166C16.8164 12.2579 17.1227 12.6161 17.5 12.6161C17.8773 12.6161 18.1836 12.2579 18.1836 11.8166C18.1836 11.3751 17.8773 11.0172 17.5 11.0172Z"/>
<path d="M32.9492 15.8139H30.2893C28.8872 11.1316 26.8527 2.92165 23.1672 0.598015C21.3239 -0.562708 19.5815 0.247956 18.9262 1.89489C18.6474 2.59501 18.0907 2.96318 17.5 2.96318C16.9013 2.96318 16.3491 2.58689 16.0738 1.89551C15.4417 0.30479 13.741 -0.580195 11.9624 0.429387C8.21781 2.55597 6.12377 11.0964 4.71066 15.8139H2.05078C0.917778 15.8139 0 16.8869 0 18.2121C0 19.5343 0.919914 20.6104 2.05078 20.6104H32.9492C34.0822 20.6104 35 19.5371 35 18.2121C35 16.8897 34.0801 15.8139 32.9492 15.8139ZM7.11205 12.6162H14.7656C15.1432 12.6162 15.4492 12.258 15.4492 11.8168C15.4492 11.3752 15.1432 11.0174 14.7656 11.0174H7.59003C9.65069 4.3606 11.5757 2.42638 12.5594 1.86772C13.6326 1.25879 14.516 1.76842 14.8343 2.56971C15.3357 3.82943 16.3731 4.56202 17.5 4.56202C18.6295 4.56202 19.6656 3.82662 20.1657 2.56971C20.4934 1.74562 21.3813 1.28939 22.5185 2.00543C23.5068 2.62873 25.4259 4.62729 27.4097 11.0174H20.2344C19.8568 11.0174 19.5508 11.3752 19.5508 11.8168C19.5508 12.2583 19.8568 12.6162 20.2344 12.6162H27.8882C28.2338 13.7816 28.5926 14.9842 28.841 15.8139H6.15929C6.40682 14.9864 6.76491 13.7866 7.11205 12.6162ZM32.9492 19.0116H2.05078C1.67374 19.0116 1.36719 18.6528 1.36719 18.2121C1.36719 17.7706 1.6732 17.4127 2.05078 17.4127H32.9492C33.3263 17.4127 33.6328 17.7712 33.6328 18.2121C33.6328 18.6534 33.3265 19.0116 32.9492 19.0116Z"/>
<path d="M16.1328 23.8081H5.19532C4.81774 23.8081 4.51173 24.1659 4.51173 24.6075V27.8052C4.51173 31.7723 7.27174 35 10.6641 35C13.2345 35 15.5096 33.151 16.4145 30.3655C17.1019 29.9989 17.8981 29.9989 18.5855 30.3655C19.4904 33.151 21.7655 34.9996 24.3359 34.9996C27.7283 34.9996 30.4883 31.7723 30.4883 27.8048V24.6072C30.4883 24.1656 30.1823 23.8077 29.8047 23.8077H18.8672C18.4896 23.8077 18.1836 24.1656 18.1836 24.6072V25.4066H16.8164V24.6072C16.8164 24.1659 16.5104 23.8081 16.1328 23.8081ZM10.6641 33.4011C8.02556 33.4011 5.87891 30.8907 5.87891 27.8052V25.4069H15.4492V27.8052C15.4492 30.8989 13.3141 33.4011 10.6641 33.4011ZM19.5508 25.4069H29.1211V27.8052C29.1211 30.8907 26.9745 33.4011 24.3359 33.4011C21.6793 33.4011 19.5508 30.8914 19.5508 27.8052V25.4069ZM18.1836 27.0057V27.8052C18.1836 28.0606 18.1961 28.3151 18.2188 28.5677C17.7438 28.4662 17.2562 28.4662 16.7812 28.5677C16.8039 28.3151 16.8164 28.0606 16.8164 27.8052V27.0057H18.1836Z"/>
<path d="M10.6641 30.2033C9.53321 30.2033 8.6133 29.1272 8.6133 27.805C8.6133 27.3635 8.30728 27.0056 7.9297 27.0056C7.55212 27.0056 7.24611 27.3635 7.24611 27.805C7.24611 30.0088 8.77939 31.8021 10.6641 31.8021C11.0417 31.8021 11.3477 31.444 11.3477 31.0027C11.3477 30.5612 11.0417 30.2033 10.6641 30.2033Z"/>
<path d="M24.336 31.8021C26.2206 31.8021 27.7539 30.0088 27.7539 27.805C27.7539 27.3635 27.4479 27.0056 27.0703 27.0056C26.6927 27.0056 26.3867 27.3635 26.3867 27.805C26.3867 29.1272 25.4668 30.2033 24.336 30.2033C23.9584 30.2033 23.6524 30.5612 23.6524 31.0027C23.6524 31.444 23.9584 31.8021 24.336 31.8021Z"/>
</symbol><symbol id="email" viewBox="0 0 21 20"><g fill="none">
<path d="M18.0584 0H2.94568C1.59663 0 0.5 1.441 0.5 3.2137V16.7863C0.5 18.559 1.59663 20 2.94568 20H18.0543C19.4034 20 20.5 18.559 20.5 16.7863V3.21914C20.5041 1.44644 19.4075 0 18.0584 0ZM19.3868 16.7863C19.3868 17.7488 18.7909 18.5318 18.0584 18.5318H2.94568C2.21322 18.5318 1.61732 17.7488 1.61732 16.7863V3.21914C1.61732 2.25666 2.21322 1.47363 2.94568 1.47363H18.0543C18.7868 1.47363 19.3827 2.25666 19.3827 3.21914V16.7863H19.3868Z" fill="#00B2FF"/>
<path d="M13.1133 9.83144L18.0047 4.06744C18.2323 3.79555 18.253 3.33334 18.0461 3.02883C17.8392 2.72975 17.4874 2.70256 17.2557 2.97445L10.5104 10.9299L9.19446 9.38554C9.19032 9.38011 9.18618 9.37467 9.18618 9.36923C9.15721 9.33117 9.12824 9.29854 9.09514 9.26591L3.74029 2.96901C3.50855 2.69713 3.1568 2.72431 2.94989 3.02883C2.74298 3.33334 2.76367 3.79555 2.99541 4.06744L7.94471 9.88038L3.0161 15.9435C2.79264 16.2208 2.78022 16.683 2.99127 16.9821C3.103 17.1343 3.25198 17.2159 3.40096 17.2159C3.53752 17.2159 3.67408 17.1506 3.78167 17.0201L8.78477 10.87L10.1421 12.4633C10.2497 12.5884 10.3821 12.6482 10.5145 12.6482C10.647 12.6482 10.7835 12.5829 10.887 12.4579L12.2816 10.8157L17.2557 17.0256C17.3633 17.1615 17.504 17.2268 17.6405 17.2268C17.7895 17.2268 17.9344 17.1506 18.0461 16.9984C18.2571 16.7047 18.2489 16.2371 18.0254 15.9598L13.1133 9.83144Z" fill="#00B2FF"/>
</g></symbol><symbol id="goods-arrow" viewBox="0 0 60 60"><g fill="none">
<path d="M0 3C0 1.34315 1.34315 0 3 0H60V60H0V3Z" fill="#00B2FF"/>
<path d="M30.4762 33.8096L34.2857 30L30.4762 26.1905" stroke="white" stroke-linejoin="round"/>
</g></symbol><symbol id="hired" viewBox="0 0 35 35">
<path d="M31.2638 27.8931C31.639 27.3746 31.8609 26.7384 31.8609 26.0511V21.9434C31.8609 21.5658 31.5548 21.2598 31.1773 21.2598H28.1222C26.7099 21.2598 25.5609 22.4087 25.5609 23.8211V26.0511C25.5609 26.738 25.7826 27.3738 26.1573 27.8921C25.69 27.9679 25.2404 28.1176 24.8211 28.3367C23.8713 26.9195 22.3152 25.9421 20.5271 25.7772C20.5201 25.7752 20.513 25.7738 20.506 25.7721C21.1457 25.0577 21.5357 24.1151 21.5357 23.0829V17.5C21.5357 17.1225 21.2296 16.8164 20.8521 16.8164H16.6999C14.9157 16.8164 13.4643 18.2679 13.4643 20.052V23.0828C13.4643 24.1151 13.8543 25.0576 14.494 25.772C14.487 25.7737 14.4799 25.7752 14.4729 25.7772C12.6846 25.942 11.1284 26.9196 10.1787 28.337C9.75926 28.1179 9.30959 27.9681 8.84249 27.8923C9.21724 27.374 9.43906 26.7381 9.43906 26.0511V21.9434C9.43906 21.5658 9.13295 21.2598 8.75547 21.2598H5.70035C4.28805 21.2598 3.13906 22.4087 3.13906 23.8211V26.0511C3.13906 26.7385 3.36103 27.3746 3.73618 27.8931C1.62025 28.2389 0 30.0791 0 32.2913V34.3164C0 34.694 0.306113 35 0.683594 35H34.3164C34.6939 35 35 34.694 35 34.3164V32.2913C35 30.0791 33.3797 28.2389 31.2638 27.8931ZM4.50625 23.8211C4.50625 23.1626 5.04191 22.627 5.70035 22.627H8.07188V23.4595C8.07188 23.8677 7.73979 24.1998 7.33161 24.1998H4.50625V23.8211ZM4.50625 25.567H7.33161C7.59206 25.567 7.84144 25.5192 8.07188 25.4324V26.0511C8.07188 27.0341 7.27214 27.8339 6.28906 27.8339C5.30599 27.8339 4.50625 27.0341 4.50625 26.0511V25.567ZM6.72978 29.2011L6.28906 29.6418L5.84835 29.2011H6.72978ZM9.19789 31.564V33.6328H1.36719V32.2913C1.36719 30.758 2.48985 29.4826 3.95616 29.2424L5.80569 31.0919C5.93394 31.2201 6.10777 31.2921 6.28906 31.2921C6.47035 31.2921 6.64419 31.2201 6.77243 31.0919L8.62251 29.2417C8.94927 29.2949 9.26352 29.4003 9.55637 29.5544C9.32477 30.1809 9.19789 30.8579 9.19789 31.564ZM17.5001 25.7515C16.0286 25.7515 14.8315 24.5543 14.8315 23.0829V22.1794H18.917C19.37 22.1794 19.7965 22.0637 20.1686 21.8604V23.0829C20.1686 24.5543 18.9715 25.7515 17.5001 25.7515ZM18.6916 27.1186L17.5 28.3102L16.3084 27.1186H18.6916ZM14.8314 20.052H14.8315C14.8315 19.0217 15.6696 18.1836 16.6999 18.1836H20.1685V19.5606C20.1685 20.2508 19.607 20.8123 18.9169 20.8123H14.8314V20.052ZM24.4349 33.6328H23.1055H11.8945H10.5651V32.2656H15.0163C15.3938 32.2656 15.6999 31.9596 15.6999 31.582C15.6999 31.2045 15.3938 30.8984 15.0163 30.8984H10.6151C10.9081 28.9556 12.4633 27.422 14.4158 27.1595L17.0166 29.7603C17.1501 29.8938 17.3251 29.9605 17.5 29.9605C17.6749 29.9605 17.8499 29.8938 17.9834 29.7603L20.5842 27.1595C22.755 27.4513 24.4349 29.3145 24.4349 31.564V33.6328ZM26.9281 23.8211C26.9281 23.1626 27.4638 22.627 28.1222 22.627H30.4937V23.4595C30.4937 23.8677 30.1617 24.1998 29.7535 24.1998H26.9281V23.8211ZM26.9281 25.567H29.7535C30.0139 25.567 30.2633 25.5192 30.4937 25.4324V26.0511C30.4937 27.0341 29.694 27.8339 28.7109 27.8339C27.7279 27.8339 26.9281 27.0341 26.9281 26.0511V25.567ZM29.1516 29.2011L28.7109 29.6418L28.2702 29.2011H29.1516ZM25.802 33.6328V31.564C25.802 30.8578 25.6752 30.1809 25.4435 29.5542C25.7362 29.4 26.0504 29.2947 26.3772 29.2416L28.2275 31.0919C28.3557 31.2201 28.5296 31.2921 28.7109 31.2921C28.8922 31.2921 29.066 31.2201 29.1942 31.0919L31.0438 29.2424C32.5101 29.4826 33.6327 30.758 33.6327 32.2913V33.6328H25.802Z"/>
<path d="M20.869 4.4665C20.602 4.19956 20.1693 4.19956 19.9022 4.4665L16.5478 7.82097L15.0977 6.37086C14.8307 6.10385 14.398 6.10385 14.131 6.37079C13.8641 6.63773 13.8641 7.07059 14.131 7.3376L16.0645 9.27107C16.1927 9.39925 16.3665 9.4713 16.5478 9.4713C16.7291 9.4713 16.903 9.39925 17.0312 9.27107L20.869 5.43324C21.136 5.1663 21.136 4.73345 20.869 4.4665Z"/>
<path d="M20.295 0.592814C19.9503 0.439074 19.5461 0.593908 19.3923 0.938712C19.2385 1.28352 19.3934 1.68773 19.7382 1.84147C21.7205 2.72556 23.0015 4.69889 23.0015 6.86875C23.0015 9.90227 20.5335 12.3702 17.5 12.3702C14.4664 12.3702 11.9985 9.90227 11.9985 6.86875C11.9985 4.7101 13.2702 2.74087 15.2382 1.85199C15.5823 1.69661 15.7353 1.29165 15.5798 0.947599C15.4244 0.603478 15.0193 0.450558 14.6755 0.605939C12.2188 1.71555 10.6313 4.17382 10.6313 6.86868C10.6313 10.6561 13.7126 13.7374 17.5 13.7374C21.2873 13.7374 24.3686 10.6561 24.3686 6.86875C24.3686 4.15987 22.7696 1.69641 20.295 0.592814Z"/>
<path d="M17.5245 0H17.5C17.1225 0 16.8164 0.306045 16.8164 0.683594C16.8164 1.06114 17.1225 1.36719 17.5 1.36719H17.518C17.5191 1.36719 17.5202 1.36719 17.5213 1.36719C17.8974 1.36719 18.2031 1.06326 18.2049 0.686807C18.2066 0.309258 17.902 0.00177734 17.5245 0Z"/>
<path d="M17.9832 31.0987C17.8562 30.9716 17.6798 30.8984 17.5 30.8984C17.3202 30.8984 17.1438 30.9716 17.0167 31.0987C16.8896 31.2259 16.8164 31.4022 16.8164 31.582C16.8164 31.7618 16.8895 31.9382 17.0167 32.0653C17.1439 32.1925 17.3202 32.2656 17.5 32.2656C17.6798 32.2656 17.8562 32.1925 17.9832 32.0653C18.1104 31.9382 18.1836 31.7618 18.1836 31.582C18.1836 31.4022 18.1104 31.2259 17.9832 31.0987Z"/>
</symbol><symbol id="icon-close" viewBox="0 0 20 20"><g fill="none"><path d="M.293 18.291a1 1 0 101.414 1.414L10 11.413l8.292 8.292a1 1 0 101.414-1.414l-8.292-8.292 8.292-8.292A1 1 0 1018.291.293L9.999 8.585 1.707.293A1 1 0 10.293 1.707L8.585 10 .293 18.291z"/></g></symbol><symbol id="logo" viewBox="0 0 55 55"><g fill="none">
<path d="M33.9167 14.6664C35.1102 14.6664 36.1185 15.4355 36.498 16.4997H46.002C46.3815 15.4355 47.3899 14.6664 48.5834 14.6664C50.0995 14.6664 51.3334 15.9002 51.3334 17.4164C51.3334 18.9325 50.0995 20.1663 48.5834 20.1663C47.3899 20.1663 46.3815 19.3973 46.002 18.333H36.4971C36.1176 19.3973 35.1093 20.1663 33.9158 20.1663C32.3996 20.1663 31.1658 18.9325 31.1658 17.4164C31.1658 15.9002 32.4005 14.6664 33.9167 14.6664ZM48.5834 18.333C49.0884 18.333 49.5 17.9224 49.5 17.4164C49.5 16.9104 49.0884 16.4997 48.5834 16.4997C48.0783 16.4997 47.6667 16.9104 47.6667 17.4164C47.6667 17.9224 48.0783 18.333 48.5834 18.333ZM33.9167 18.333C34.4218 18.333 34.8334 17.9224 34.8334 17.4164C34.8334 16.9104 34.4218 16.4997 33.9167 16.4997C33.4116 16.4997 33 16.9104 33 17.4164C33 17.9224 33.4116 18.333 33.9167 18.333Z" fill="#00B2FF"/>
<path d="M26.5834 20.335V14.6664C26.5834 14.4226 26.6796 14.1898 26.8519 14.0183L30.5186 10.3517C30.69 10.1794 30.9238 10.0832 31.1667 10.0832H34.0854C34.4649 9.01893 35.4732 8.24986 36.6667 8.24986C38.1829 8.24986 39.4167 9.48368 39.4167 10.9998C39.4167 12.516 38.1829 13.7498 36.6667 13.7498C35.4732 13.7498 34.4649 12.9807 34.0854 11.9165H31.5462L28.4167 15.0459V20.335C29.4809 20.7145 30.25 21.7228 30.25 22.9163C30.25 24.4324 29.0162 25.6662 27.5 25.6662C25.9839 25.6662 24.75 24.4324 24.75 22.9163C24.75 21.7228 25.5191 20.7145 26.5834 20.335ZM36.6667 11.9165C37.1718 11.9165 37.5834 11.5058 37.5834 10.9998C37.5834 10.4938 37.1718 10.0832 36.6667 10.0832C36.1616 10.0832 35.75 10.4938 35.75 10.9998C35.75 11.5058 36.1616 11.9165 36.6667 11.9165ZM27.5 23.8329C28.0051 23.8329 28.4167 23.4223 28.4167 22.9163C28.4167 22.4103 28.0051 21.9996 27.5 21.9996C26.9949 21.9996 26.5834 22.4103 26.5834 22.9163C26.5834 23.4223 26.9949 23.8329 27.5 23.8329Z" fill="#00B2FF"/>
<path d="M10.0833 23.8329C10.5068 23.8329 10.9028 23.9365 11.2613 24.1088L12.8333 22.5368V13.7498C12.8333 13.5059 12.9296 13.2731 13.1019 13.1017L22.2759 3.92785C22.1036 3.56944 22 3.17345 22 2.74995C22 1.23381 23.2338 0 24.75 0C26.2662 0 27.5 1.23381 27.5 2.74995C27.5 4.2661 26.2662 5.49991 24.75 5.49991C24.3265 5.49991 23.9305 5.39633 23.5721 5.224L14.6667 14.1293V22.9163C14.6667 23.1601 14.5704 23.3929 14.3981 23.5644L12.5574 25.405C12.7298 25.7634 12.8333 26.1594 12.8333 26.5829C12.8333 28.099 11.5995 29.3328 10.0833 29.3328C8.56718 29.3328 7.33334 28.099 7.33334 26.5829C7.33334 25.0667 8.56718 23.8329 10.0833 23.8329ZM24.75 3.66661C25.2551 3.66661 25.6667 3.25595 25.6667 2.74995C25.6667 2.24396 25.2551 1.8333 24.75 1.8333C24.2449 1.8333 23.8333 2.24396 23.8333 2.74995C23.8333 3.25595 24.2449 3.66661 24.75 3.66661ZM10.0833 27.4995C10.5884 27.4995 11 27.0889 11 26.5829C11 26.0769 10.5884 25.6662 10.0833 25.6662C9.57826 25.6662 9.16668 26.0769 9.16668 26.5829C9.16668 27.0889 9.57826 27.4995 10.0833 27.4995Z" fill="#00B2FF"/>
<path d="M1.83336 13.0018V9.16651C1.83336 8.92268 1.92961 8.68986 2.10195 8.51844L8.51861 2.10188C8.69003 1.92955 8.92378 1.8333 9.1667 1.8333H13.9187C14.2982 0.769071 15.3065 0 16.5 0C18.0162 0 19.25 1.23381 19.25 2.74995C19.25 4.2661 18.0162 5.49991 16.5 5.49991C15.3065 5.49991 14.2982 4.73084 13.9187 3.66661H9.5462L3.6667 9.54601V13.0018C4.73095 13.3813 5.50003 14.3896 5.50003 15.5831C5.50003 17.0992 4.2662 18.333 2.75003 18.333C1.23386 18.333 3.01003e-05 17.0992 3.01003e-05 15.5831C3.01003e-05 14.3896 0.769113 13.3813 1.83336 13.0018ZM16.5 3.66661C17.0051 3.66661 17.4167 3.25595 17.4167 2.74995C17.4167 2.24396 17.0051 1.8333 16.5 1.8333C15.9949 1.8333 15.5834 2.24396 15.5834 2.74995C15.5834 3.25595 15.9949 3.66661 16.5 3.66661ZM2.75003 16.4997C3.25511 16.4997 3.6667 16.0891 3.6667 15.5831C3.6667 15.0771 3.25511 14.6664 2.75003 14.6664C2.24495 14.6664 1.83336 15.0771 1.83336 15.5831C1.83336 16.0891 2.24495 16.4997 2.75003 16.4997Z" fill="#00B2FF"/>
<path d="M14.6658 49.6688V36.4974C13.6024 36.1179 12.8334 35.1096 12.8334 33.9161C12.8334 32.4 14.0672 31.1662 15.5834 31.1662C16.7769 31.1662 17.7852 31.9352 18.1647 32.9995H27.6687C28.0482 31.9352 29.0565 31.1662 30.25 31.1662C31.4435 31.1662 32.4519 31.9352 32.8314 32.9995H38.1205L41.5259 29.5941C41.3536 29.2357 41.25 28.8397 41.25 28.4162C41.25 26.9001 42.4839 25.6663 44 25.6663C45.5162 25.6663 46.75 26.9001 46.75 28.4162C46.75 29.9324 45.5162 31.1662 44 31.1662C43.5765 31.1662 43.1805 31.0626 42.8221 30.8903L39.1481 34.5642C38.9767 34.7365 38.7429 34.8328 38.5 34.8328H32.8314C32.4519 35.897 31.4435 36.6661 30.25 36.6661C29.0565 36.6661 28.0482 35.897 27.6687 34.8328H18.1638C17.8869 35.6092 17.2755 36.2206 16.4991 36.4974V49.6688C17.5634 50.0483 18.3324 51.0566 18.3324 52.2501C18.3324 53.7662 17.0986 55 15.5824 55C14.0663 55 12.8324 53.7662 12.8324 52.2501C12.8324 51.0566 13.6015 50.0483 14.6658 49.6688ZM44 29.3329C44.5051 29.3329 44.9167 28.9222 44.9167 28.4162C44.9167 27.9102 44.5051 27.4996 44 27.4996C43.4949 27.4996 43.0834 27.9102 43.0834 28.4162C43.0834 28.9222 43.4949 29.3329 44 29.3329ZM30.25 34.8328C30.7551 34.8328 31.1667 34.4221 31.1667 33.9161C31.1667 33.4101 30.7551 32.9995 30.25 32.9995C29.7449 32.9995 29.3334 33.4101 29.3334 33.9161C29.3334 34.4221 29.7449 34.8328 30.25 34.8328ZM15.5834 53.1658C16.0884 53.1658 16.5 52.7551 16.5 52.2492C16.5 51.7432 16.0884 51.3325 15.5834 51.3325C15.0783 51.3325 14.6667 51.7432 14.6667 52.2492C14.6667 52.7551 15.0783 53.1658 15.5834 53.1658ZM15.5834 34.8328C16.0884 34.8328 16.5 34.4221 16.5 33.9161C16.5 33.4101 16.0884 32.9995 15.5834 32.9995C15.0783 32.9995 14.6667 33.4101 14.6667 33.9161C14.6667 34.4221 15.0783 34.8328 15.5834 34.8328Z" fill="#00B2FF"/>
<path d="M19.25 18.5017V15.5831C19.25 15.3392 19.3463 15.1064 19.5186 14.935L30.5259 3.92785C30.3536 3.56944 30.25 3.17345 30.25 2.74995C30.25 1.23381 31.4838 0 33 0C34.1935 0 35.2018 0.76907 35.5813 1.8333H39.4167C39.9227 1.8333 40.3333 2.24305 40.3333 2.74995V5.12041L43.7388 8.52577C44.0972 8.35344 44.4932 8.24986 44.9167 8.24986C46.4328 8.24986 47.6667 9.48368 47.6667 10.9998C47.6667 12.516 46.4328 13.7498 44.9167 13.7498C43.4005 13.7498 42.1667 12.516 42.1667 10.9998C42.1667 10.5763 42.2703 10.1803 42.4426 9.82192L38.7686 6.14798C38.5963 5.97657 38.5 5.74374 38.5 5.49991V3.66661H35.5813C35.2018 4.73084 34.1935 5.49991 33 5.49991C32.5765 5.49991 32.1805 5.39633 31.8221 5.224L21.0833 15.9626V18.5017C22.1476 18.8812 22.9167 19.8895 22.9167 21.083C22.9167 22.5991 21.6828 23.8329 20.1667 23.8329C18.6505 23.8329 17.4167 22.5991 17.4167 21.083C17.4167 19.8895 18.1858 18.8812 19.25 18.5017ZM44.9167 11.9165C45.4218 11.9165 45.8333 11.5058 45.8333 10.9998C45.8333 10.4938 45.4218 10.0832 44.9167 10.0832C44.4116 10.0832 44 10.4938 44 10.9998C44 11.5058 44.4116 11.9165 44.9167 11.9165ZM33 3.66661C33.5051 3.66661 33.9167 3.25595 33.9167 2.74995C33.9167 2.24396 33.5051 1.8333 33 1.8333C32.4949 1.8333 32.0833 2.24396 32.0833 2.74995C32.0833 3.25595 32.4949 3.66661 33 3.66661ZM20.1667 21.9996C20.6718 21.9996 21.0833 21.589 21.0833 21.083C21.0833 20.577 20.6718 20.1663 20.1667 20.1663C19.6616 20.1663 19.25 20.577 19.25 21.083C19.25 21.589 19.6616 21.9996 20.1667 21.9996Z" fill="#00B2FF"/>
<path d="M22 25.6662C23.1935 25.6662 24.2018 26.4353 24.5813 27.4995H35.3705L40.6019 22.2682C40.7733 22.0959 41.0071 21.9996 41.25 21.9996H50.9538L53.1667 19.7868V12.296L46.0946 5.224C45.7362 5.39633 45.3402 5.49991 44.9167 5.49991C43.4005 5.49991 42.1667 4.2661 42.1667 2.74995C42.1667 1.23381 43.4005 0 44.9167 0C46.4328 0 47.6667 1.23381 47.6667 2.74995C47.6667 3.17345 47.5631 3.56944 47.3907 3.92785L54.7314 11.2684C54.9037 11.4398 55 11.6726 55 11.9165V20.1663C55 20.4102 54.9037 20.643 54.7314 20.8144L51.9814 23.5644C51.81 23.7367 51.5762 23.8329 51.3333 23.8329H41.6295L36.3981 29.0643C36.2267 29.2366 35.9929 29.3328 35.75 29.3328H24.5813C24.2018 30.3971 23.1935 31.1661 22 31.1661C20.4838 31.1661 19.25 29.9323 19.25 28.4162C19.25 26.9001 20.4838 25.6662 22 25.6662ZM44.9167 1.8333C44.4116 1.8333 44 2.24396 44 2.74995C44 3.25595 44.4116 3.66661 44.9167 3.66661C45.4217 3.66661 45.8333 3.25595 45.8333 2.74995C45.8333 2.24396 45.4217 1.8333 44.9167 1.8333ZM22 29.3328C22.5051 29.3328 22.9167 28.9222 22.9167 28.4162C22.9167 27.9102 22.5051 27.4995 22 27.4995C21.4949 27.4995 21.0833 27.9102 21.0833 28.4162C21.0833 28.9222 21.4949 29.3328 22 29.3328Z" fill="#00B2FF"/>
<path d="M2.75001 21.9996C3.17351 21.9996 3.56951 22.1032 3.92793 22.2755L7.33334 18.8702V13.5811C6.26909 13.2016 5.50001 12.1933 5.50001 10.9998C5.50001 9.48368 6.73384 8.24986 8.25001 8.24986C9.76618 8.24986 11 9.48368 11 10.9998C11 12.1933 10.2309 13.2016 9.16668 13.5811V19.2497C9.16668 19.4935 9.07043 19.7263 8.89809 19.8978L5.2241 23.5717C5.39643 23.9301 5.50001 24.3261 5.50001 24.7496C5.50001 25.9431 4.73093 26.9514 3.66668 27.3309V28.0367L10.7314 35.1013C10.9038 35.2727 11 35.5056 11 35.7494V36.8347C12.0643 37.2142 12.8333 38.2225 12.8333 39.416C12.8333 40.6095 12.0643 41.6178 11 41.9973V44.1688C12.0643 44.5483 12.8333 45.5567 12.8333 46.7501C12.8333 48.2663 11.5995 49.5001 10.0833 49.5001C8.56718 49.5001 7.33334 48.2663 7.33334 46.7501C7.33334 45.5567 8.10243 44.5483 9.16668 44.1688V41.9973C8.10243 41.6178 7.33334 40.6095 7.33334 39.416C7.33334 38.2225 8.10243 37.2142 9.16668 36.8347V36.1289L2.10193 29.0643C1.92959 28.8929 1.83334 28.66 1.83334 28.4162V27.3309C0.769095 26.9514 1.15633e-05 25.9431 1.15633e-05 24.7496C1.15633e-05 23.2334 1.23384 21.9996 2.75001 21.9996ZM8.25001 11.9165C8.75509 11.9165 9.16668 11.5058 9.16668 10.9998C9.16668 10.4938 8.75509 10.0832 8.25001 10.0832C7.74493 10.0832 7.33334 10.4938 7.33334 10.9998C7.33334 11.5058 7.74493 11.9165 8.25001 11.9165ZM10.0833 47.6659C10.5884 47.6659 11 47.2552 11 46.7492C11 46.2432 10.5884 45.8326 10.0833 45.8326C9.57826 45.8326 9.16668 46.2432 9.16668 46.7492C9.16668 47.2552 9.57826 47.6659 10.0833 47.6659ZM10.0833 40.3327C10.5884 40.3327 11 39.922 11 39.416C11 38.91 10.5884 38.4994 10.0833 38.4994C9.57826 38.4994 9.16668 38.91 9.16668 39.416C9.16668 39.922 9.57826 40.3327 10.0833 40.3327ZM2.75001 25.6662C3.25509 25.6662 3.66668 25.2556 3.66668 24.7496C3.66668 24.2436 3.25509 23.8329 2.75001 23.8329C2.24493 23.8329 1.83334 24.2436 1.83334 24.7496C1.83334 25.2556 2.24493 25.6662 2.75001 25.6662Z" fill="#00B2FF"/>
</g></symbol><symbol id="minus" viewBox="0 0 15 15"><g fill="none">
<path d="M0 7H15V8H0V7Z" fill="#F8FDFF"/>
</g></symbol><symbol id="not-checked" viewBox="0 0 15 15"><g fill="none">
<rect x="0.5" y="0.5" width="13.9425" height="14" rx="1.5" stroke="white"/>
</g></symbol><symbol id="not-needed-in-sprite" viewBox="0 0 16 16"><g fill="none"><circle cx="8" cy="8" r="8" fill="#081597"/></g></symbol><symbol id="ok" viewBox="0 0 40 40"><g fill="none">
<path d="M20.1711 17.6428C21.3282 17.6428 22.2282 16.6785 22.2068 15.6285C22.2282 14.5785 21.3496 13.5928 20.1925 13.5928C19.0782 13.5928 18.1568 14.4928 18.1568 15.6071C18.1568 16.7213 19.0568 17.6428 20.1711 17.6428Z" fill="#F8FDFF"/>
<path d="M20 5C11.7286 5 5 11.7286 5 20C5 28.2929 11.7286 35 20 35C28.2928 35 34.9999 28.2714 34.9999 20C35.0214 11.7286 28.2928 5 20 5ZM20.2143 10.6786C22.9143 10.6786 25.1428 12.9071 25.1214 15.6286C25.1214 18.3714 22.8714 20.5786 20.1285 20.5357C17.4285 20.4929 15.2643 18.2857 15.2643 15.6071C15.2643 12.8857 17.4714 10.6786 20.2143 10.6786ZM25.7214 22.25C25.7214 22.2929 25.7 22.3143 25.7 22.3571C25.6357 22.7857 25.4214 23.1286 25.0571 23.3643C24.8214 23.5143 24.5643 23.6643 24.3071 23.7929C23.6643 24.1143 22.9785 24.3714 22.2714 24.5429C22.1857 24.5643 22.1857 24.5643 22.25 24.6286C22.6357 25.0143 23.0428 25.4214 23.4285 25.8071C23.9214 26.3 24.4357 26.8143 24.9285 27.3071C25.6357 28.0143 25.4428 29.1929 24.5428 29.6214C24.3928 29.7071 24.2214 29.7286 24.05 29.7714C23.9643 29.7714 23.8571 29.7714 23.7714 29.7714C23.75 29.7714 23.7285 29.7714 23.7285 29.75C23.3857 29.7071 23.1071 29.5357 22.85 29.3C21.9928 28.4429 21.1143 27.5643 20.2571 26.7071C20.1928 26.6429 20.1928 26.6429 20.1285 26.7071C19.25 27.5857 18.3928 28.4429 17.5143 29.3214C17.3643 29.4714 17.2143 29.5786 17.0214 29.6643C16.8928 29.7286 16.7428 29.75 16.6143 29.7714C16.5286 29.7714 16.4428 29.7714 16.3357 29.7714C16.2928 29.7714 16.2714 29.75 16.2286 29.75C15.65 29.6429 15.2643 29.3214 15.0928 28.7643C14.9214 28.2071 15.05 27.7143 15.4571 27.3071C15.8214 26.9429 16.1643 26.6 16.5286 26.2357C17.0643 25.7 17.6 25.1643 18.1143 24.65C18.1785 24.5857 18.1785 24.5857 18.0928 24.5643C18.0714 24.5643 18.0285 24.5429 18.0071 24.5429C17.0428 24.3071 16.1643 23.9214 15.3286 23.4071C14.8357 23.0857 14.6 22.6143 14.6643 22.0357C14.7714 20.9643 15.9714 20.3857 16.8714 20.9643C17.0428 21.0714 17.1928 21.1571 17.3857 21.2429C18.3714 21.7357 19.4214 21.95 20.5143 21.8857C21.05 21.8643 21.5857 21.7571 22.1214 21.5857C22.6357 21.4143 23.0857 21.1786 23.5571 20.9214C24.3285 20.4714 25.3357 20.8357 25.6357 21.6714C25.6785 21.8 25.7 21.9071 25.7214 22.0357C25.7214 22.1 25.7214 22.1643 25.7214 22.25Z" fill="#F8FDFF"/>
</g></symbol><symbol id="phone" viewBox="0 0 21 20"><g fill="none">
<path d="M16.3147 12.3893C15.9047 11.9629 15.4101 11.735 14.8859 11.735C14.366 11.735 13.8672 11.9587 13.4402 12.3851L12.1044 13.7147C11.9945 13.6556 11.8846 13.6007 11.7789 13.5459C11.6267 13.4699 11.483 13.3981 11.3604 13.3222C10.1091 12.5286 8.97196 11.4944 7.88132 10.1563C7.35291 9.48936 6.99782 8.92795 6.73995 8.35809C7.08659 8.04151 7.40786 7.71226 7.72068 7.39567C7.83905 7.27748 7.95741 7.15507 8.07578 7.03688C8.9635 6.15044 8.9635 5.00229 8.07578 4.11585L6.92173 2.96348C6.79068 2.83262 6.65541 2.69755 6.52859 2.56247C6.27495 2.30076 6.00863 2.03061 5.73386 1.77734C5.32381 1.37211 4.83345 1.15683 4.31772 1.15683C3.80199 1.15683 3.30317 1.37211 2.88045 1.77734C2.87622 1.78156 2.87622 1.78156 2.87199 1.78578L1.43471 3.23363C0.893623 3.77394 0.585031 4.43243 0.517395 5.19646C0.41594 6.42903 0.779486 7.57718 1.05849 8.32854C1.74331 10.1732 2.76631 11.8827 4.29236 13.7147C6.14391 15.9224 8.37168 17.6657 10.9165 18.8941C11.8888 19.3542 13.1866 19.8987 14.6365 19.9916C14.7253 19.9958 14.8183 20 14.9028 20C15.8793 20 16.6994 19.6496 17.342 18.9532C17.3462 18.9447 17.3547 18.9405 17.3589 18.932C17.5787 18.6661 17.8323 18.4255 18.0987 18.168C18.2804 17.995 18.4664 17.8134 18.6482 17.6235C19.0667 17.1887 19.2865 16.6822 19.2865 16.163C19.2865 15.6396 19.0625 15.1372 18.6355 14.7151L16.3147 12.3893ZM17.8281 16.8341C17.8239 16.8341 17.8239 16.8384 17.8281 16.8341C17.6633 17.0114 17.4942 17.1718 17.3124 17.3491C17.0376 17.6108 16.7586 17.8852 16.4965 18.1933C16.0696 18.6492 15.5665 18.8645 14.9071 18.8645C14.8437 18.8645 14.776 18.8645 14.7126 18.8603C13.4571 18.7801 12.2904 18.2904 11.4153 17.8725C9.02269 16.7159 6.92173 15.0739 5.17586 12.9929C3.73436 11.258 2.77054 9.65398 2.13222 7.93176C1.73908 6.88069 1.59535 6.06179 1.65876 5.28932C1.70103 4.79545 1.89126 4.386 2.24213 4.03565L3.68363 2.59624C3.89077 2.40207 4.11058 2.29654 4.32618 2.29654C4.59249 2.29654 4.80809 2.45694 4.94336 2.59202C4.94759 2.59624 4.95181 2.60046 4.95604 2.60468C5.2139 2.84529 5.45909 3.09433 5.71695 3.36026C5.848 3.49534 5.98327 3.63042 6.11854 3.76971L7.27259 4.92209C7.72068 5.36953 7.72068 5.7832 7.27259 6.23064C7.15 6.35305 7.03164 6.47546 6.90905 6.59366C6.55395 6.95667 6.21577 7.29437 5.848 7.62361C5.83954 7.63206 5.83109 7.63628 5.82686 7.64472C5.46332 8.00774 5.53095 8.36231 5.60704 8.60292C5.61127 8.61558 5.6155 8.62824 5.61972 8.64091C5.91986 9.36694 6.34259 10.0508 6.98514 10.8654L6.98936 10.8697C8.15609 12.3049 9.38623 13.4235 10.7432 14.2803C10.9165 14.3901 11.0941 14.4787 11.2631 14.5632C11.4153 14.6391 11.5591 14.7109 11.6816 14.7869C11.6986 14.7953 11.7155 14.808 11.7324 14.8164C11.8761 14.8882 12.0114 14.922 12.1509 14.922C12.5017 14.922 12.7216 14.7025 12.7934 14.6307L14.2392 13.1871C14.3829 13.0436 14.6112 12.8705 14.8775 12.8705C15.1396 12.8705 15.3552 13.0351 15.4862 13.1786C15.4904 13.1829 15.4904 13.1829 15.4947 13.1871L17.8239 15.5129C18.2593 15.9435 18.2593 16.3867 17.8281 16.8341Z" fill="#00B2FF"/>
<path d="M11.3095 4.75747C12.4171 4.9432 13.4232 5.46662 14.2264 6.26863C15.0295 7.07065 15.5495 8.07528 15.7397 9.18122C15.7862 9.45981 16.0272 9.65399 16.3019 9.65399C16.3358 9.65399 16.3654 9.64977 16.3992 9.64554C16.712 9.59489 16.9191 9.29941 16.8684 8.98705C16.6401 7.64895 16.006 6.42904 15.038 5.4624C14.0699 4.49576 12.8483 3.86258 11.5082 3.63464C11.1954 3.58399 10.9037 3.79083 10.8488 4.09897C10.7938 4.40711 10.9967 4.70681 11.3095 4.75747Z" fill="#00B2FF"/>
<path d="M20.4913 8.82242C20.1151 6.61899 19.0752 4.61395 17.4773 3.01836C15.8794 1.42277 13.8714 0.384369 11.6648 0.00868773C11.3562 -0.0461871 11.0645 0.16487 11.0095 0.473013C10.9588 0.785377 11.1659 1.07664 11.4788 1.13151C13.4487 1.46498 15.2453 2.39785 16.6741 3.82038C18.1029 5.24712 19.0329 7.0411 19.3669 9.00815C19.4134 9.28675 19.6543 9.48092 19.9291 9.48092C19.9629 9.48092 19.9925 9.4767 20.0263 9.47248C20.3349 9.42605 20.5463 9.13057 20.4913 8.82242Z" fill="#00B2FF"/>
</g></symbol><symbol id="pinterest" viewBox="0 0 40 40"><g fill="none">
<path d="M19.9999 5C28.2847 5 35 11.7162 35 20.0001C35 28.2848 28.2847 35 19.9999 35C11.7152 35 5 28.2847 5 20.0001C5 11.7162 11.7153 5 19.9999 5Z" fill="#F8FDFF"/>
<path d="M20 10C14.4823 10 10 14.4823 10 20C10 25.5177 14.4823 30 20 30C25.5177 30 30 25.5177 30 20C30 14.4823 25.5177 10 20 10ZM20 10.8696C25.0477 10.8696 29.1304 14.9523 29.1304 20C29.1304 25.0477 25.0477 29.1304 20 29.1304C19.0767 29.1304 18.186 28.9922 17.3463 28.7381C17.7203 28.1128 18.2032 27.219 18.395 26.481C18.509 26.0434 18.9776 24.2587 18.9776 24.2587C19.2821 24.84 20.1719 25.332 21.1192 25.332C23.9383 25.332 25.9706 22.7394 25.9706 19.5177C25.9706 16.4289 23.4502 14.1185 20.2072 14.1185C16.1725 14.1185 14.0311 16.8264 14.0311 19.775C14.0311 21.1462 14.7604 22.8531 15.9282 23.3967C16.105 23.4791 16.2 23.4434 16.2407 23.2719C16.2719 23.1418 16.4297 22.5073 16.5005 22.2121C16.5232 22.1179 16.5122 22.0365 16.436 21.9438C16.0495 21.475 15.7396 20.6138 15.7396 19.8106C15.7396 17.7487 17.3006 15.7532 19.9601 15.7532C22.2564 15.7532 23.8646 17.3186 23.8646 19.5567C23.8646 22.0853 22.5879 23.8375 20.9265 23.8375C20.0089 23.8375 19.3219 23.0784 19.5423 22.1476C19.8065 21.0366 20.3167 19.8378 20.3167 19.0353C20.3167 18.3177 19.9316 17.7191 19.1338 17.7191C18.1958 17.7191 17.4423 18.6889 17.4423 19.989C17.4423 20.8162 17.7225 21.3765 17.7225 21.3765C17.7225 21.3765 16.7959 25.2941 16.6262 26.0233C16.4561 26.7519 16.5017 27.7332 16.5718 28.4638C13.2266 27.1098 10.8696 23.8345 10.8696 20C10.8696 14.9523 14.9523 10.8696 20 10.8696Z" fill="#041827"/>
</g></symbol><symbol id="plus" viewBox="0 0 15 15"><g fill="none">
<path fill-rule="evenodd" clip-rule="evenodd" d="M7.96875 7.03125V0H7.03125V7.03125H0V7.96875H7.03125V15H7.96875V7.96875H15V7.03125H7.96875Z" fill="#F8FDFF"/>
</g></symbol><symbol id="stopwatch" viewBox="0 0 35 35">
<path d="M3.84798 11.6622L2.05404 10.1904C1.07943 9.39114 1.07943 8.09017 2.05404 7.29042C3.02864 6.49094 4.61458 6.49094 5.58919 7.29042L7.50456 8.86162C9.5026 7.72007 11.7803 6.92993 14.1667 6.55075V4.51172H12.5C12.0397 4.51172 11.6667 4.2057 11.6667 3.82812V2.05078C11.6667 0.919914 12.7881 0 14.1667 0H20.8333C22.2119 0 23.3333 0.919914 23.3333 2.05078V3.82812C23.3333 4.2057 22.9603 4.51172 22.5 4.51172H20.8333V6.55075C23.2194 6.92966 25.4974 7.72007 27.4954 8.86162L29.4108 7.29042C30.3851 6.49094 31.971 6.49094 32.946 7.29042C33.9206 8.0899 33.9206 9.39087 32.946 10.1904L31.152 11.6622C33.6387 14.203 35 17.3678 35 20.6445C35 28.5601 27.1494 35 17.5 35C7.85059 35 0 28.5601 0 20.6445C0 17.3678 1.36133 14.203 3.84798 11.6622ZM4.41081 8.25706C4.08561 7.99057 3.55729 7.99084 3.23242 8.25706C2.90788 8.52356 2.90788 8.95721 3.23242 9.22371L4.95443 10.636C5.34245 10.3092 5.74935 9.99756 6.17253 9.70249L4.41081 8.25706ZM21.6667 2.05078C21.6667 1.67374 21.293 1.36719 20.8333 1.36719H14.1667C13.707 1.36719 13.3333 1.67374 13.3333 2.05078V3.14453H21.6667V2.05078ZM15.8333 4.51172V6.35368C16.9378 6.26877 18.0618 6.26877 19.1667 6.35368V4.51172H15.8333ZM31.7676 8.25706C31.4427 7.99084 30.9141 7.99057 30.5892 8.25706L28.8275 9.70249C29.2507 9.99756 29.6576 10.3092 30.0456 10.636L31.7676 9.22371C32.0921 8.95721 32.0921 8.52356 31.7676 8.25706ZM17.5 33.6328C26.2305 33.6328 33.3333 27.8062 33.3333 20.6445C33.3333 17.4853 31.9352 14.4415 29.3968 12.0732C28.6976 11.4208 27.9173 10.8248 27.0778 10.3009C24.974 8.98766 22.4837 8.12328 19.8763 7.80098C19.096 7.70512 18.2965 7.65625 17.5 7.65625C16.7034 7.65625 15.904 7.70512 15.124 7.80098C12.5163 8.12328 10.026 8.98766 7.92188 10.3009C7.08268 10.8248 6.30241 11.4208 5.60319 12.0732C3.06478 14.4415 1.66666 17.4853 1.66666 20.6445C1.66666 27.8062 8.76953 33.6328 17.5 33.6328Z"/>
<path d="M17.5 22.6953C16.1214 22.6953 15 21.7754 15 20.6445C15 19.7535 15.6966 18.9935 16.6667 18.7112V13.8086C16.6667 13.431 17.0397 13.125 17.5 13.125C17.9603 13.125 18.3334 13.431 18.3334 13.8086V18.7112C19.3034 18.9935 20 19.7535 20 20.6445C20 21.7754 18.8786 22.6953 17.5 22.6953ZM17.5 19.9609C17.0404 19.9609 16.6667 20.2675 16.6667 20.6445C16.6667 21.0216 17.0404 21.3281 17.5 21.3281C17.9597 21.3281 18.3334 21.0216 18.3334 20.6445C18.3334 20.2675 17.9597 19.9609 17.5 19.9609Z"/>
<path d="M8.62274 13.4326C8.63576 13.42 8.64878 13.4075 8.66343 13.3957C8.67905 13.3826 8.69565 13.3709 8.71225 13.3591C10.181 12.1671 11.9955 11.2851 13.9645 10.8082C14.4063 10.7014 14.8695 10.9081 14.9997 11.2702C15.1299 11.6323 14.8779 12.0125 14.4365 12.1193C12.9776 12.4729 11.6166 13.0838 10.4564 13.8996L11.0186 14.3608C11.3438 14.6278 11.3438 15.0607 11.0186 15.3277C10.8558 15.4612 10.6426 15.528 10.4291 15.528C10.2158 15.528 10.0026 15.4612 9.83986 15.3277L9.27638 14.8655C7.76857 16.3037 6.87306 18.0741 6.69858 19.9609H7.50002C7.9603 19.9609 8.33335 20.2672 8.33335 20.6445C8.33335 21.0221 7.9603 21.3281 7.50002 21.3281H6.69858C6.87306 23.2152 7.76857 24.9853 9.27638 26.4235L9.83986 25.9613C10.1654 25.6945 10.693 25.6945 11.0186 25.9613C11.3441 26.2283 11.3441 26.6612 11.0186 26.9282L10.4551 27.3904C12.2083 28.6273 14.3666 29.3619 16.6667 29.5053V28.8476C16.6667 28.47 17.0397 28.164 17.5 28.164C17.9603 28.164 18.3333 28.47 18.3333 28.8476V29.505C20.6335 29.3619 22.7917 28.6273 24.5449 27.3904L23.9815 26.9282C23.6559 26.6612 23.6559 26.2283 23.9815 25.9613C24.307 25.6945 24.8347 25.6945 25.1602 25.9613L25.7236 26.4235C27.2315 24.9853 28.127 23.2149 28.3014 21.3281H27.5C27.0397 21.3281 26.6667 21.0221 26.6667 20.6445C26.6667 20.2669 27.0397 19.9609 27.5 19.9609H28.3014C28.127 18.0741 27.2315 16.3037 25.7236 14.8655L25.1602 15.3277C24.9974 15.4612 24.7842 15.528 24.571 15.528C24.3574 15.528 24.1442 15.4612 23.9815 15.3277C23.6563 15.0607 23.6563 14.6278 23.9815 14.3608L24.5436 13.8996C23.3835 13.0836 22.0225 12.4729 20.5635 12.1193C20.1221 12.0125 19.8701 11.6323 20.0003 11.2702C20.1305 10.9081 20.5934 10.7017 21.0355 10.8082C23.0042 11.2849 24.818 12.1666 26.2865 13.3581C26.3037 13.3701 26.3207 13.3824 26.3366 13.3955C26.3509 13.4072 26.3636 13.4195 26.3766 13.4318C28.7136 15.3667 30 17.9259 30 20.6445C30 23.3628 28.7136 25.9218 26.3773 27.8564C26.3643 27.869 26.3513 27.8815 26.3366 27.8933C26.3223 27.9053 26.3073 27.9157 26.2923 27.9264C23.9336 29.8431 20.8141 30.8984 17.5 30.8984C14.1862 30.8984 11.0667 29.8434 8.70835 27.9269C8.69305 27.916 8.67775 27.9053 8.66343 27.8933C8.6491 27.8818 8.63641 27.8692 8.62339 27.8572C6.28647 25.9223 5.00002 23.3631 5.00002 20.6445C5.00002 17.9261 6.28647 15.3672 8.62274 13.4326Z"/>
<path d="M17.5 11.7578C17.04 11.7578 16.6667 11.4515 16.6667 11.0742C16.6667 10.6969 17.04 10.3906 17.5 10.3906C17.96 10.3906 18.3333 10.6969 18.3333 11.0742C18.3333 11.4515 17.96 11.7578 17.5 11.7578Z"/>
</symbol><symbol id="tag" viewBox="0 0 35 35">
<path d="M11.0709 8.58472C10.9437 8.45756 10.7674 8.3844 10.5876 8.3844C10.4078 8.3844 10.2314 8.45756 10.1043 8.58472C9.9772 8.71189 9.90399 8.88828 9.90399 9.0681C9.90399 9.24791 9.97714 9.4243 10.1043 9.55147C10.2314 9.67871 10.4078 9.75179 10.5876 9.75179C10.7674 9.75179 10.9437 9.67864 11.0709 9.55147C11.198 9.4243 11.2712 9.24791 11.2712 9.0681C11.2712 8.88828 11.198 8.71189 11.0709 8.58472Z"/>
<path d="M34.8 2.85866L33.9548 2.01231L34.7998 1.16719C35.0667 0.900207 35.0667 0.46729 34.7998 0.200238C34.5328 -0.0667459 34.1 -0.0667459 33.833 0.200238L32.9885 1.04481L32.1556 0.210835C32.0275 0.0825735 31.8537 0.0103751 31.6724 0.0103067L20.1023 0.00387998C20.1016 0.00387998 20.101 0.00387998 20.1004 0.00387998C19.1868 0.00387998 18.3278 0.359676 17.6818 1.00584L11.9081 6.78034C11.6412 7.04732 11.6412 7.48024 11.9081 7.74729C12.1751 8.01428 12.6079 8.01428 12.8749 7.74729L18.6486 1.97279C19.0364 1.58486 19.5519 1.37134 20.1004 1.37134C20.1008 1.37134 20.1012 1.37134 20.1016 1.37134L31.3884 1.37763L32.0219 2.01183L29.4854 4.54862C28.4099 3.9043 26.9919 4.0448 26.066 4.97066C25.5371 5.49971 25.2459 6.20303 25.2459 6.95113C25.2459 7.69923 25.5371 8.40255 26.066 8.93159C26.612 9.47759 27.3291 9.75059 28.0463 9.75059C28.7634 9.75059 29.4805 9.47759 30.0264 8.93159C30.9508 8.00703 31.0922 6.59164 30.4514 5.51646L32.9881 2.97933L33.6327 3.62481L33.6265 14.8981C33.6261 15.4461 33.4126 15.9614 33.025 16.349L16.3438 33.0327C15.956 33.4205 15.4403 33.6341 14.892 33.6341C14.3436 33.6341 13.8279 33.4205 13.4401 33.0327L1.96861 21.5593C1.58074 21.1715 1.36719 20.6558 1.36719 20.1073C1.36719 19.5588 1.58074 19.0431 1.96861 18.6553L9.33734 11.2854C9.60429 11.0184 9.60429 10.5855 9.33734 10.3185C9.07033 10.0515 8.63762 10.0515 8.37054 10.3185L1.00181 17.6883C0.355811 18.3344 0 19.1935 0 20.1073C0 21.0211 0.355811 21.8802 1.00181 22.5263L12.4733 33.9996C13.1402 34.6665 14.016 35 14.892 35C15.7679 35 16.6437 34.6665 17.3106 33.9996L33.9918 17.3158C34.6373 16.6702 34.993 15.8118 34.9936 14.8987L35 3.34217C35.0001 3.16085 34.9282 2.98692 34.8 2.85866ZM29.0596 7.96457C28.7889 8.23532 28.429 8.38443 28.0463 8.38443C27.6634 8.38443 27.3036 8.23532 27.0329 7.96457C26.474 7.40572 26.474 6.49633 27.0329 5.93748C27.3123 5.65798 27.6792 5.51831 28.0463 5.51831C28.1845 5.51831 28.3227 5.5382 28.4562 5.57786L27.6672 6.36698C27.4003 6.63396 27.4003 7.06688 27.6672 7.33393C27.8007 7.46746 27.9757 7.53419 28.1506 7.53419C28.3255 7.53419 28.5005 7.46746 28.634 7.33393L29.4208 6.547C29.5629 7.03372 29.4427 7.5815 29.0596 7.96457Z"/>
<path d="M29.2003 13.7645L21.2338 5.79669C20.1785 4.7412 18.4612 4.74134 17.406 5.79669L4.79912 18.4056C4.28786 18.9168 4.00629 19.5966 4.00629 20.3197C4.00629 21.0428 4.28779 21.7227 4.79905 22.2339L12.7657 30.2016C13.2769 30.7129 13.9565 30.9946 14.6795 30.9946C15.4025 30.9946 16.0822 30.713 16.5934 30.2017L29.2003 17.5928C29.7116 17.0815 29.9931 16.4017 29.9931 15.6786C29.9931 14.9556 29.7116 14.2758 29.2003 13.7645ZM28.2335 16.6258L15.6266 29.2349C15.3737 29.4878 15.0373 29.6272 14.6796 29.6272C14.3219 29.6272 13.9855 29.4878 13.7325 29.2348L5.76586 21.267C5.51286 21.014 5.37354 20.6776 5.37354 20.3198C5.37347 19.9619 5.51286 19.6255 5.76586 19.3725L18.3728 6.76365C18.634 6.50247 18.9769 6.37189 19.3199 6.37189C19.6629 6.37189 20.0059 6.50254 20.267 6.76365L28.2335 14.7314C28.4865 14.9844 28.6258 15.3208 28.6258 15.6786C28.6258 16.0364 28.4865 16.3729 28.2335 16.6258Z"/>
<path d="M22.2904 13.677C22.5574 13.41 22.5574 12.9771 22.2904 12.71C22.0234 12.443 21.5907 12.443 21.3236 12.71L20.93 13.1037C19.879 12.4544 18.5304 12.5415 17.6779 13.394C17.1808 13.8912 16.9265 14.5662 16.9618 15.2949C16.9959 15.9985 17.2989 16.6702 17.8148 17.1862C17.8149 17.1863 17.8149 17.1863 17.8149 17.1864C18.3648 17.7365 18.4261 18.5701 17.9517 19.0446C17.4771 19.5191 16.6435 19.4577 16.0935 18.9077C15.5435 18.3575 15.4821 17.5238 15.9566 17.0492C16.2235 16.7822 16.2235 16.3493 15.9566 16.0823C15.6896 15.8153 15.2569 15.8153 14.9898 16.0823C14.1373 16.9348 14.0503 18.2836 14.6995 19.3349L14.2324 19.8019C13.9655 20.0689 13.9655 20.5018 14.2324 20.7689C14.3663 20.9025 14.5412 20.9693 14.7161 20.9693C14.8911 20.9693 15.066 20.9025 15.1995 20.769L15.6668 20.3016C16.1261 20.5853 16.6419 20.729 17.1486 20.729C17.8013 20.7289 18.4387 20.4915 18.9186 20.0115C19.9259 19.004 19.8647 17.3033 18.7822 16.22C18.782 16.2198 18.7819 16.2196 18.7817 16.2194C18.5065 15.9441 18.3451 15.5923 18.3275 15.2287C18.3112 14.8901 18.4238 14.582 18.6448 14.361C19.1192 13.8864 19.9526 13.9478 20.5027 14.4977C20.5028 14.4978 20.5028 14.4979 20.5028 14.4979C20.5029 14.498 20.503 14.498 20.503 14.498C21.0529 15.0482 21.1142 15.8817 20.6397 16.3563C20.3727 16.6233 20.3727 17.0562 20.6397 17.3232C20.7732 17.4568 20.9481 17.5235 21.1231 17.5235C21.298 17.5235 21.4729 17.4568 21.6064 17.3232C22.4589 16.4706 22.546 15.1218 21.8968 14.0706L22.2904 13.677Z"/>
<path d="M15.3717 25.0115L11.8607 21.4999C11.5937 21.2332 11.161 21.233 10.8939 21.4999C10.6269 21.7669 10.6269 22.1998 10.8939 22.4669L14.4049 25.9785C14.5385 26.112 14.7134 26.1788 14.8883 26.1788C15.0632 26.1788 15.2382 26.112 15.3717 25.9785C15.6386 25.7115 15.6386 25.2786 15.3717 25.0115Z"/>
<path d="M9.98793 19.627C9.86085 19.4999 9.6851 19.4266 9.5047 19.4266C9.32491 19.4266 9.14923 19.4998 9.0214 19.627C8.89425 19.7541 8.82111 19.9305 8.82111 20.111C8.82111 20.2908 8.89418 20.4672 9.0214 20.5944C9.14855 20.7216 9.32491 20.7947 9.5047 20.7947C9.68517 20.7947 9.86085 20.7216 9.98793 20.5944C10.1158 20.4665 10.1889 20.2908 10.1889 20.111C10.1889 19.9305 10.1158 19.7548 9.98793 19.627Z"/>
</symbol><symbol id="vk" viewBox="0 0 40 40"><g fill="none">
<path d="M26.617 22.4544C25.3818 21.2726 25.2935 21.2726 26.3523 19.9091C27.6758 18.1819 29.4405 16.0002 27.8523 16.0002H24.9406C24.4112 16.0002 24.323 16.3638 24.1465 16.8184C23.4406 18.5455 22.0289 20.8181 21.4995 20.4545C20.9701 20.0909 21.2348 18.7273 21.2348 16.5457C21.323 16.2729 21.2348 16.0002 21.0583 15.8184C20.8819 15.6366 20.6172 15.4548 20.3525 15.4548C19.9113 15.3639 19.4702 15.273 19.029 15.273C17.3526 15.273 16.2056 16.0002 16.8232 16.0911C17.9702 16.2729 17.882 18.8182 17.6173 19.9091C17.1761 21.8181 15.4115 18.4546 14.6174 16.7275C14.5291 16.2729 14.1762 16.0002 13.735 16.0002H11.441C11.0881 16.0002 10.8234 16.0911 10.8234 16.3638C10.8234 16.8184 13.0292 21.2726 15.0585 23.5452C17.0879 25.7269 19.1172 25.5451 20.529 25.5451C20.7054 25.5451 20.8819 25.4542 20.9701 25.3633C21.0583 25.2724 21.1466 25.0906 21.1466 24.9088C21.1466 23.4543 21.676 22.7271 22.6465 23.727C23.7053 24.8179 23.97 25.5451 25.2935 25.5451H27.6758C28.2934 25.5451 28.4699 25.3633 28.4699 25.0906C28.5581 24.4543 27.4993 23.2725 26.617 22.4544ZM20.3525 5.00091C28.5581 5.18272 35.0873 12.0005 34.9991 20.2727C34.9109 28.5449 28.117 35.09 19.9113 34.9991C11.6175 34.9082 5 28.2722 5 20C5.08823 11.6369 11.9704 4.91001 20.3525 5.00091Z" fill="#F8FDFF"/>
</g></symbol></svg>