<svg xmlns="http://www.w3.org/2000/svg" xmlns:xlink="http://www.w3.org/1999/xlink"><symbol id="icon-close" viewBox="0 0 20 20"><g fill="none"><path d="M.293 18.291a1 1 0 101.414 1.414L10 11.413l8.292 8.292a1 1 0 101.414-1.414l-8.292-8.292 8.292-8.292A1 1 0 1018.291.293L9.999 8.585 1.707.293A1 1 0 10.293 1.707L8.585 10 .293 18.291z"/></g></symbol><symbol id="supergym-logo-mobile" viewBox="0 0 67 13"><g fill="none">
<path d="M3.84 12.14C3.13333 12.14 2.52667 12.04 2.02 11.84C1.52667 11.64 1.14667 11.2867 0.88 10.78C0.613333 10.2733 0.48 9.56 0.48 8.64V7.94C0.893333 7.94 1.3 7.94 1.7 7.94C2.1 7.94 2.5 7.94 2.9 7.94V8.84C2.9 9.33333 2.94 9.71333 3.02 9.98C3.1 10.2333 3.21333 10.4133 3.36 10.52C3.50667 10.6133 3.68 10.66 3.88 10.66C4.18667 10.66 4.42667 10.5533 4.6 10.34C4.78667 10.1133 4.88 9.68 4.88 9.04C4.88 8.54667 4.8 8.18 4.64 7.94C4.49333 7.68667 4.25333 7.48667 3.92 7.34C3.58667 7.18 3.16 6.98667 2.64 6.76C2.17333 6.56 1.78667 6.32 1.48 6.04C1.17333 5.76 0.946667 5.40667 0.8 4.98C0.653333 4.55333 0.58 4.03333 0.58 3.42C0.58 2.64667 0.68 2.02 0.88 1.54C1.09333 1.06 1.44 0.713333 1.92 0.499999C2.41333 0.273333 3.07333 0.16 3.9 0.16C4.96667 0.16 5.78 0.393333 6.34 0.859999C6.91333 1.31333 7.2 2 7.2 2.92V4.34C6.81333 4.34 6.42667 4.34 6.04 4.34C5.66667 4.34 5.28 4.34 4.88 4.34V3.62C4.88 3.02 4.80667 2.6 4.66 2.36C4.52667 2.12 4.28 2 3.92 2C3.57333 2 3.32667 2.10667 3.18 2.32C3.03333 2.53333 2.96 2.88 2.96 3.36C2.96 3.8 3.04667 4.14667 3.22 4.4C3.40667 4.64 3.64 4.82667 3.92 4.96C4.2 5.08 4.5 5.2 4.82 5.32C5.40667 5.54667 5.88667 5.78 6.26 6.02C6.63333 6.24667 6.90667 6.56667 7.08 6.98C7.25333 7.38 7.34 7.96 7.34 8.72C7.34 9.57333 7.19333 10.2533 6.9 10.76C6.62 11.2533 6.21333 11.6067 5.68 11.82C5.16 12.0333 4.54667 12.14 3.84 12.14ZM12.2925 12.24C11.8125 12.24 11.3725 12.2067 10.9725 12.14C10.5725 12.0733 10.2258 11.9333 9.9325 11.72C9.63917 11.5067 9.4125 11.1933 9.2525 10.78C9.0925 10.3533 9.0125 9.78 9.0125 9.06V0.18H11.3325V9.72C11.3325 10 11.3725 10.2267 11.4525 10.4C11.5458 10.56 11.6658 10.6667 11.8125 10.72C11.9592 10.7733 12.1192 10.8 12.2925 10.8C12.4525 10.8 12.6058 10.7733 12.7525 10.72C12.8992 10.6667 13.0125 10.56 13.0925 10.4C13.1858 10.2267 13.2325 10 13.2325 9.72V0.18H15.5525V9.06C15.5525 9.76667 15.4725 10.3333 15.3125 10.76C15.1525 11.1867 14.9258 11.5067 14.6325 11.72C14.3525 11.9333 14.0058 12.0733 13.5925 12.14C13.1925 12.2067 12.7592 12.24 12.2925 12.24ZM17.597 12V0.18H21.797C22.5837 0.18 23.177 0.36 23.577 0.72C23.9904 1.06667 24.197 1.55333 24.197 2.18V4.22C24.197 4.75333 24.1304 5.25333 23.997 5.72C23.8637 6.17333 23.6237 6.54 23.277 6.82C22.9304 7.1 22.4304 7.24 21.777 7.24H20.017V12H17.597ZM20.017 5.96H20.917C21.237 5.96 21.477 5.80667 21.637 5.5C21.797 5.19333 21.877 4.68667 21.877 3.98V3.18C21.877 2.55333 21.8104 2.10667 21.677 1.84C21.5437 1.57333 21.3504 1.44 21.097 1.44H20.017V5.96ZM25.8486 12V0.18H31.2886V1.82H28.2686V4.98H30.8286V6.8H28.2686V10.4H31.2886V12H25.8486ZM32.9283 12V0.18H37.2483C38.0349 0.18 38.6283 0.36 39.0283 0.72C39.4283 1.06667 39.6283 1.55333 39.6283 2.18V4.02C39.6283 4.64667 39.4616 5.17333 39.1283 5.6C38.7949 6.02667 38.2749 6.27333 37.5683 6.34C38.0216 6.40667 38.3416 6.56 38.5283 6.8C38.7283 7.02667 38.9016 7.4 39.0483 7.92L40.1683 12H37.5883L36.7283 8.08C36.6483 7.76 36.5549 7.49333 36.4483 7.28C36.3549 7.05333 36.2149 6.94 36.0283 6.94H35.3483V12H32.9283ZM35.3483 5.32H36.3083C36.6816 5.32 36.9483 5.22 37.1083 5.02C37.2683 4.80667 37.3483 4.47333 37.3483 4.02V2.6C37.3483 2.17333 37.2749 1.87333 37.1283 1.7C36.9816 1.52667 36.7549 1.44 36.4483 1.44H35.3483V5.32ZM44.2067 12.22C43.7534 12.22 43.3267 12.1467 42.9267 12C42.5401 11.8533 42.2201 11.5667 41.9667 11.14C41.7134 10.7 41.5867 10.0467 41.5867 9.18V2.7C41.5867 2.00667 41.7201 1.46667 41.9867 1.08C42.2667 0.693333 42.6534 0.426666 43.1467 0.279999C43.6401 0.119999 44.2134 0.039999 44.8667 0.039999C45.5201 0.039999 46.0934 0.119999 46.5867 0.279999C47.0934 0.426666 47.4867 0.693333 47.7667 1.08C48.0601 1.46667 48.2067 2.00667 48.2067 2.7V4.36H45.9467V2.58C45.9467 2.26 45.9001 2.02 45.8067 1.86C45.7267 1.68667 45.6134 1.57333 45.4667 1.52C45.3201 1.46667 45.1401 1.44 44.9267 1.44C44.7267 1.44 44.5467 1.46667 44.3867 1.52C44.2401 1.57333 44.1201 1.68667 44.0267 1.86C43.9467 2.02 43.9067 2.26 43.9067 2.58V9.74C43.9067 10.0467 43.9467 10.2867 44.0267 10.46C44.1201 10.62 44.2401 10.7333 44.3867 10.8C44.5467 10.8533 44.7267 10.88 44.9267 10.88C45.2334 10.88 45.4801 10.7867 45.6667 10.6C45.8534 10.4133 45.9467 10.1267 45.9467 9.74V7.38H44.9867V6.06H48.2067V12H46.4667L46.3467 11.08C46.3201 11.12 46.2934 11.16 46.2667 11.2C46.2401 11.24 46.2201 11.2733 46.2067 11.3C46.0734 11.5267 45.8467 11.74 45.5267 11.94C45.2201 12.1267 44.7801 12.22 44.2067 12.22ZM51.6555 12V6.98L49.4355 0.18H51.7555L52.7755 3.72L52.9155 4.48L53.0555 3.72L54.1555 0.18H56.2755L53.9755 7.1V12H51.6555ZM57.722 12V0.18H60.622L62.242 7.82L63.882 0.18H66.762V12H64.722V3.16L63.022 12H61.442L59.762 3.16V12H57.722Z" fill="white"/>
</g></symbol><symbol id="supergym-logo-tablet" viewBox="0 0 81 16"><g fill="none">
<path d="M4.608 15.168C3.76 15.168 3.032 15.048 2.424 14.808C1.832 14.568 1.376 14.144 1.056 13.536C0.736 12.928 0.576 12.072 0.576 10.968V10.128C1.072 10.128 1.56 10.128 2.04 10.128C2.52 10.128 3 10.128 3.48 10.128V11.208C3.48 11.8 3.528 12.256 3.624 12.576C3.72 12.88 3.856 13.096 4.032 13.224C4.208 13.336 4.416 13.392 4.656 13.392C5.024 13.392 5.312 13.264 5.52 13.008C5.744 12.736 5.856 12.216 5.856 11.448C5.856 10.856 5.76 10.416 5.568 10.128C5.392 9.824 5.104 9.584 4.704 9.408C4.304 9.216 3.792 8.984 3.168 8.712C2.608 8.472 2.144 8.184 1.776 7.848C1.408 7.512 1.136 7.088 0.96 6.576C0.784 6.064 0.696 5.44 0.696 4.704C0.696 3.776 0.816 3.024 1.056 2.448C1.312 1.872 1.728 1.456 2.304 1.2C2.896 0.927999 3.688 0.792 4.68 0.792C5.96 0.792 6.936 1.072 7.608 1.632C8.296 2.176 8.64 3 8.64 4.104V5.808C8.176 5.808 7.712 5.808 7.248 5.808C6.8 5.808 6.336 5.808 5.856 5.808V4.944C5.856 4.224 5.768 3.72 5.592 3.432C5.432 3.144 5.136 3 4.704 3C4.288 3 3.992 3.128 3.816 3.384C3.64 3.64 3.552 4.056 3.552 4.632C3.552 5.16 3.656 5.576 3.864 5.88C4.088 6.168 4.368 6.392 4.704 6.552C5.04 6.696 5.4 6.84 5.784 6.984C6.488 7.256 7.064 7.536 7.512 7.824C7.96 8.096 8.288 8.48 8.496 8.976C8.704 9.456 8.808 10.152 8.808 11.064C8.808 12.088 8.632 12.904 8.28 13.512C7.944 14.104 7.456 14.528 6.816 14.784C6.192 15.04 5.456 15.168 4.608 15.168ZM14.751 15.288C14.175 15.288 13.647 15.248 13.167 15.168C12.687 15.088 12.271 14.92 11.919 14.664C11.567 14.408 11.295 14.032 11.103 13.536C10.911 13.024 10.815 12.336 10.815 11.472V0.816H13.599V12.264C13.599 12.6 13.647 12.872 13.743 13.08C13.855 13.272 13.999 13.4 14.175 13.464C14.351 13.528 14.543 13.56 14.751 13.56C14.943 13.56 15.127 13.528 15.303 13.464C15.479 13.4 15.615 13.272 15.711 13.08C15.823 12.872 15.879 12.6 15.879 12.264V0.816H18.663V11.472C18.663 12.32 18.567 13 18.375 13.512C18.183 14.024 17.911 14.408 17.559 14.664C17.223 14.92 16.807 15.088 16.311 15.168C15.831 15.248 15.311 15.288 14.751 15.288ZM21.1164 15V0.816H26.1564C27.1004 0.816 27.8124 1.032 28.2924 1.464C28.7884 1.88 29.0364 2.464 29.0364 3.216V5.664C29.0364 6.304 28.9564 6.904 28.7964 7.464C28.6364 8.008 28.3484 8.448 27.9324 8.784C27.5164 9.12 26.9164 9.288 26.1324 9.288H24.0204V15H21.1164ZM24.0204 7.752H25.1004C25.4844 7.752 25.7724 7.568 25.9644 7.2C26.1564 6.832 26.2524 6.224 26.2524 5.376V4.416C26.2524 3.664 26.1724 3.128 26.0124 2.808C25.8524 2.488 25.6204 2.328 25.3164 2.328H24.0204V7.752ZM31.0183 15V0.816H37.5463V2.784H33.9223V6.576H36.9943V8.76H33.9223V13.08H37.5463V15H31.0183ZM39.5139 15V0.816H44.6979C45.6419 0.816 46.3539 1.032 46.8339 1.464C47.3139 1.88 47.5539 2.464 47.5539 3.216V5.424C47.5539 6.176 47.3539 6.808 46.9539 7.32C46.5539 7.832 45.9299 8.128 45.0819 8.208C45.6259 8.288 46.0099 8.472 46.2339 8.76C46.4739 9.032 46.6819 9.48 46.8579 10.104L48.2019 15H45.1059L44.0739 10.296C43.9779 9.912 43.8659 9.592 43.7379 9.336C43.6259 9.064 43.4579 8.928 43.2339 8.928H42.4179V15H39.5139ZM42.4179 6.984H43.5699C44.0179 6.984 44.3379 6.864 44.5299 6.624C44.7219 6.368 44.8179 5.968 44.8179 5.424V3.72C44.8179 3.208 44.7299 2.848 44.5539 2.64C44.3779 2.432 44.1059 2.328 43.7379 2.328H42.4179V6.984ZM53.0481 15.264C52.5041 15.264 51.9921 15.176 51.5121 15C51.0481 14.824 50.6641 14.48 50.3601 13.968C50.0561 13.44 49.9041 12.656 49.9041 11.616V3.84C49.9041 3.008 50.0641 2.36 50.3841 1.896C50.7201 1.432 51.1841 1.112 51.7761 0.935999C52.3681 0.743999 53.0561 0.647999 53.8401 0.647999C54.6241 0.647999 55.3121 0.743999 55.9041 0.935999C56.5121 1.112 56.9841 1.432 57.3201 1.896C57.6721 2.36 57.8481 3.008 57.8481 3.84V5.832H55.1361V3.696C55.1361 3.312 55.0801 3.024 54.9681 2.832C54.8721 2.624 54.7361 2.488 54.5601 2.424C54.3841 2.36 54.1681 2.328 53.9121 2.328C53.6721 2.328 53.4561 2.36 53.2641 2.424C53.0881 2.488 52.9441 2.624 52.8321 2.832C52.7361 3.024 52.6881 3.312 52.6881 3.696V12.288C52.6881 12.656 52.7361 12.944 52.8321 13.152C52.9441 13.344 53.0881 13.48 53.2641 13.56C53.4561 13.624 53.6721 13.656 53.9121 13.656C54.2801 13.656 54.5761 13.544 54.8001 13.32C55.0241 13.096 55.1361 12.752 55.1361 12.288V9.456H53.9841V7.872H57.8481V15H55.7601L55.6161 13.896C55.5841 13.944 55.5521 13.992 55.5201 14.04C55.4881 14.088 55.4641 14.128 55.4481 14.16C55.2881 14.432 55.0161 14.688 54.6321 14.928C54.2641 15.152 53.7361 15.264 53.0481 15.264ZM61.9866 15V8.976L59.3226 0.816H62.1066L63.3306 5.064L63.4986 5.976L63.6666 5.064L64.9866 0.816H67.5306L64.7706 9.12V15H61.9866ZM69.2664 15V0.816H72.7464L74.6904 9.984L76.6584 0.816H80.1144V15H77.6664V4.392L75.6264 15H73.7304L71.7144 4.392V15H69.2664Z" fill="white"/>
</g></symbol><symbol id="supergym-logo" viewBox="0 0 119 23"><g fill="none">
<path d="M5.768 22.252C4.592 22.252 3.572 22.072 2.708 21.712C1.844 21.352 1.184 20.716 0.728 19.804C0.296 18.892 0.08 17.608 0.08 15.952V14.728C0.656 14.728 1.244 14.728 1.844 14.728C2.444 14.728 3.032 14.728 3.608 14.728V16.24C3.608 17.248 3.704 18.028 3.896 18.58C4.088 19.132 4.352 19.516 4.688 19.732C5.024 19.924 5.408 20.02 5.84 20.02C6.536 20.02 7.088 19.792 7.496 19.336C7.928 18.856 8.144 17.968 8.144 16.672C8.144 15.712 8 14.992 7.712 14.512C7.424 14.032 6.968 13.648 6.344 13.36C5.744 13.048 4.964 12.7 4.004 12.316C3.212 11.956 2.528 11.536 1.952 11.056C1.376 10.576 0.944 9.964 0.656 9.22C0.368 8.476 0.224 7.552 0.224 6.448C0.224 5.104 0.392 4.012 0.728 3.172C1.088 2.308 1.688 1.684 2.528 1.3C3.368 0.891999 4.496 0.688 5.912 0.688C7.736 0.688 9.128 1.108 10.088 1.948C11.048 2.764 11.528 3.964 11.528 5.548V8.032C10.976 8.032 10.412 8.032 9.836 8.032C9.284 8.032 8.72 8.032 8.144 8.032V6.556C8.144 5.452 7.964 4.66 7.604 4.18C7.268 3.676 6.716 3.424 5.948 3.424C5.156 3.424 4.58 3.664 4.22 4.144C3.884 4.6 3.716 5.332 3.716 6.34C3.716 7.204 3.884 7.876 4.22 8.356C4.556 8.812 4.988 9.172 5.516 9.436C6.068 9.7 6.632 9.94 7.208 10.156C8.288 10.564 9.164 10.984 9.836 11.416C10.508 11.848 11 12.424 11.312 13.144C11.624 13.864 11.78 14.884 11.78 16.204C11.78 17.716 11.528 18.916 11.024 19.804C10.544 20.668 9.848 21.292 8.936 21.676C8.048 22.06 6.992 22.252 5.768 22.252ZM20.9164 22.432C20.1004 22.432 19.3444 22.372 18.6484 22.252C17.9524 22.132 17.3524 21.892 16.8484 21.532C16.3444 21.172 15.9484 20.632 15.6604 19.912C15.3724 19.192 15.2284 18.22 15.2284 16.996V0.723999H18.6844V17.896C18.6844 18.544 18.7804 19.048 18.9724 19.408C19.1884 19.744 19.4644 19.972 19.8004 20.092C20.1364 20.212 20.5084 20.272 20.9164 20.272C21.3244 20.272 21.6964 20.212 22.0324 20.092C22.3684 19.972 22.6324 19.744 22.8244 19.408C23.0404 19.048 23.1484 18.544 23.1484 17.896V0.723999H26.5684V16.96C26.5684 18.184 26.4244 19.168 26.1364 19.912C25.8724 20.632 25.4884 21.172 24.9844 21.532C24.4804 21.892 23.8804 22.132 23.1844 22.252C22.4884 22.372 21.7324 22.432 20.9164 22.432ZM30.822 22V0.723999H38.022C39.366 0.723999 40.398 1.024 41.118 1.624C41.838 2.224 42.198 3.112 42.198 4.288V8.068C42.198 8.98 42.078 9.832 41.838 10.624C41.622 11.392 41.19 12.016 40.542 12.496C39.918 12.976 39.006 13.216 37.806 13.216H34.422V22H30.822ZM34.422 11.272H36.618C37.338 11.272 37.878 10.996 38.238 10.444C38.598 9.868 38.778 8.944 38.778 7.672V5.764C38.778 4.636 38.622 3.832 38.31 3.352C37.998 2.872 37.566 2.632 37.014 2.632H34.422V11.272ZM45.6045 22V0.723999H55.1805V3.172H49.2045V9.616H54.1365V12.316H49.2045V19.624H55.1805V22H45.6045ZM58.4534 22V0.723999H65.7974C67.1414 0.723999 68.1734 1.024 68.8934 1.624C69.6374 2.224 70.0094 3.112 70.0094 4.288V7.672C70.0094 8.848 69.6854 9.808 69.0374 10.552C68.3894 11.272 67.4294 11.668 66.1574 11.74C66.9734 11.812 67.5494 12.076 67.8854 12.532C68.2454 12.988 68.5694 13.696 68.8574 14.656L70.9094 22H67.0934L65.4014 14.908C65.2334 14.308 65.0414 13.78 64.8254 13.324C64.6094 12.868 64.2614 12.64 63.7814 12.64H62.0174V22H58.4534ZM62.0174 10.228H64.3214C65.1614 10.228 65.7494 10.012 66.0854 9.58C66.4454 9.148 66.6254 8.488 66.6254 7.6V4.9C66.6254 4.108 66.4574 3.532 66.1214 3.172C65.8094 2.812 65.3174 2.632 64.6454 2.632H62.0174V10.228ZM78.6132 22.396C77.7972 22.396 77.0292 22.264 76.3092 22C75.5892 21.76 75.0012 21.268 74.5452 20.524C74.1132 19.756 73.8972 18.616 73.8972 17.104V5.224C73.8972 3.928 74.1372 2.944 74.6172 2.272C75.0972 1.576 75.7692 1.108 76.6332 0.868C77.4972 0.603999 78.4932 0.471998 79.6212 0.471998C80.7492 0.471998 81.7452 0.603999 82.6092 0.868C83.4732 1.132 84.1452 1.612 84.6252 2.308C85.1292 2.98 85.3812 3.952 85.3812 5.224V8.104H82.0332V5.08C82.0332 4.36 81.9252 3.82 81.7092 3.46C81.5172 3.1 81.2412 2.86 80.8812 2.74C80.5452 2.62 80.1372 2.56 79.6572 2.56C79.2252 2.56 78.8292 2.62 78.4692 2.74C78.1092 2.86 77.8212 3.1 77.6052 3.46C77.4132 3.82 77.3172 4.36 77.3172 5.08V17.86C77.3172 18.58 77.4132 19.12 77.6052 19.48C77.8212 19.84 78.1092 20.08 78.4692 20.2C78.8292 20.32 79.2252 20.38 79.6572 20.38C80.3532 20.38 80.9172 20.176 81.3492 19.768C81.8052 19.336 82.0332 18.7 82.0332 17.86V13.54H79.9092V11.56H85.3812V22H82.7892L82.6092 20.2C82.5612 20.296 82.5012 20.404 82.4292 20.524C82.3572 20.62 82.2972 20.704 82.2492 20.776C81.9612 21.208 81.5292 21.592 80.9532 21.928C80.4012 22.24 79.6212 22.396 78.6132 22.396ZM91.9112 22V12.856L87.9512 0.723999H91.3712L93.6032 7.996L93.7832 9.112L93.9992 7.996L96.3392 0.723999H99.5432L95.3672 13.036V22H91.9112ZM102.449 22V0.723999H106.697L110.261 15.844L113.861 0.723999H118.073V22H115.013V5.584L111.449 22H109.073L105.509 5.584V22H102.449Z" fill="white"/>
</g></symbol></svg>