<svg xmlns="http://www.w3.org/2000/svg" xmlns:xlink="http://www.w3.org/1999/xlink"><symbol id="icon-facebook" viewBox="0 0 11 20"><path d="M7.31 11.5h2.61l1.05-4H7.3v-2c0-1.03 0-2 2.09-2h1.57V.14A30.7 30.7 0 0 0 7.98 0C5.15 0 3.13 1.66 3.13 4.7v2.8H0v4h3.13V20h4.18v-8.5Z" fill="#F9FBFD"/></symbol><symbol id="icon-instagram" viewBox="0 0 21 20"><path d="M10.74 0c2.64 0 2.97.01 4.01.06 1.04.05 1.75.22 2.37.47a4.92 4.92 0 0 1 2.85 2.93c.24.63.4 1.35.45 2.42.05 1.06.06 1.4.06 4.12s0 3.06-.06 4.12a7.56 7.56 0 0 1-.45 2.43 4.9 4.9 0 0 1-1.12 1.77c-.49.51-1.08.9-1.73 1.16-.62.24-1.33.41-2.37.46-1.04.05-1.37.06-4.01.06-2.65 0-2.98-.01-4.02-.06a7.05 7.05 0 0 1-2.37-.46 4.92 4.92 0 0 1-2.85-2.93 7.53 7.53 0 0 1-.45-2.43C1 13.06.99 12.72.99 10s0-3.06.06-4.12c.05-1.07.2-1.8.45-2.43a4.9 4.9 0 0 1 1.12-1.77c.5-.51 1.08-.9 1.73-1.16A7.02 7.02 0 0 1 6.72.06C7.76.01 8.09 0 10.74 0Zm0 5c-1.3 0-2.54.53-3.45 1.46a5.07 5.07 0 0 0 0 7.08 4.81 4.81 0 0 0 6.9 0 5.07 5.07 0 0 0 0-7.08A4.81 4.81 0 0 0 10.73 5Zm6.33-.25c0-.33-.13-.65-.36-.88a1.2 1.2 0 0 0-1.72 0 1.27 1.27 0 0 0 0 1.76 1.2 1.2 0 0 0 1.72 0c.23-.23.36-.55.36-.88ZM10.74 7c.77 0 1.51.32 2.06.88a3.04 3.04 0 0 1 0 4.24 2.89 2.89 0 0 1-4.13 0 3.04 3.04 0 0 1 0-4.24C9.22 7.32 9.96 7 10.74 7Z" fill="#F9FBFD"/></symbol><symbol id="icon-twitter" viewBox="0 0 20 17"><path d="M20 2.43c-.73.33-1.5.55-2.3.64A4.1 4.1 0 0 0 19.46.81c-.78.47-1.64.8-2.54 1a3.97 3.97 0 0 0-4.8-.82c-.78.42-1.4 1.1-1.77 1.92a4.2 4.2 0 0 0-.24 2.63 11.14 11.14 0 0 1-8.25-4.28A4.17 4.17 0 0 0 3.1 6.73a3.91 3.91 0 0 1-1.81-.51v.05c0 .95.32 1.86.9 2.6.59.73 1.4 1.23 2.3 1.42-.58.16-1.2.19-1.8.07a4.1 4.1 0 0 0 1.42 2.04c.67.5 1.48.8 2.32.8A7.96 7.96 0 0 1 .5 14.9a11.11 11.11 0 0 0 6.13 1.85c7.35 0 11.38-6.25 11.38-11.67 0-.17 0-.35-.02-.53a8.24 8.24 0 0 0 2-2.12Z" fill="#F9FBFD"/></symbol></svg>