<svg xmlns="http://www.w3.org/2000/svg" xmlns:xlink="http://www.w3.org/1999/xlink"><symbol id="icon-close-modal"><g fill="none"><path fill="#fff" fill-rule="evenodd" d="M.18 1.03a.6.6 0 0 1 .85-.85L10 9.15 18.97.18a.6.6 0 0 1 .85.85L10.85 10l8.97 8.97a.6.6 0 1 1-.85.85L10 10.85l-8.97 8.97a.6.6 0 1 1-.85-.85L9.15 10 .18 1.03Z" clip-rule="evenodd"/></g></symbol><symbol id="icon-close" viewBox="0 0 20 20"><g fill="none"><path d="M.293 18.291a1 1 0 101.414 1.414L10 11.413l8.292 8.292a1 1 0 101.414-1.414l-8.292-8.292 8.292-8.292A1 1 0 1018.291.293L9.999 8.585 1.707.293A1 1 0 10.293 1.707L8.585 10 .293 18.291z"/></g></symbol><symbol id="sprite">
  <symbol viewBox="0 0 21px 20px" id="icon-email">
    <path d="M18.06 0H2.95C1.6 0 .5 1.44.5 3.21V16.8C.5 18.56 1.6 20 2.95 20h15.1c1.35 0 2.45-1.44 2.45-3.21V3.22C20.5 1.45 19.4 0 18.06 0Zm1.33 16.79c0 .96-.6 1.74-1.33 1.74H2.95c-.74 0-1.33-.78-1.33-1.74V3.22c0-.96.6-1.75 1.33-1.75h15.1c.74 0 1.33.79 1.33 1.75v13.57Z"/>
    <path d="m13.11 9.83 4.9-5.76a.9.9 0 0 0 .04-1.04c-.21-.3-.56-.33-.8-.06l-6.74 7.96-1.32-1.54v-.02a.95.95 0 0 0-.1-.1l-5.35-6.3c-.23-.27-.58-.25-.79.06A.9.9 0 0 0 3 4.07l4.94 5.81-4.92 6.06a.9.9 0 0 0-.03 1.04c.11.15.26.24.41.24a.5.5 0 0 0 .38-.2l5-6.15 1.36 1.6c.11.12.24.18.37.18.14 0 .27-.07.38-.2l1.4-1.63 4.97 6.2c.1.14.24.2.38.2a.5.5 0 0 0 .4-.22.9.9 0 0 0-.01-1.04L13.1 9.83Z"/>
  </symbol>
  <symbol viewBox="0 0 21px 20px" id="icon-tel">
    <path d="M16.31 12.39c-.4-.43-.9-.66-1.42-.66-.52 0-1.02.23-1.45.66L12.1 13.7l-.32-.16a5.4 5.4 0 0 1-.42-.23 14.51 14.51 0 0 1-3.48-3.16 8.55 8.55 0 0 1-1.14-1.8c.35-.32.67-.65.98-.96l.36-.36c.88-.89.88-2.04 0-2.92L6.92 2.96l-.4-.4c-.25-.26-.51-.53-.79-.78a2 2 0 0 0-1.41-.62c-.52 0-1.02.21-1.44.62L1.42 3.24C.9 3.77.6 4.43.52 5.2c-.1 1.23.26 2.38.54 3.13.68 1.84 1.7 3.55 3.23 5.38a19.89 19.89 0 0 0 6.63 5.18A10.33 10.33 0 0 0 14.9 20c.98 0 1.8-.35 2.44-1.05l.02-.02c.22-.26.47-.5.74-.76l.55-.55c.42-.43.64-.94.64-1.46s-.23-1.02-.65-1.44l-2.33-2.33Zm1.52 4.44-.52.52c-.27.26-.55.54-.81.84-.43.46-.93.67-1.6.67h-.19a9.18 9.18 0 0 1-3.3-.99c-2.39-1.15-4.49-2.8-6.23-4.88a17.13 17.13 0 0 1-3.05-5.06 6.02 6.02 0 0 1-.47-2.64c.04-.5.23-.9.58-1.25L3.68 2.6c.21-.2.43-.3.65-.3a.9.9 0 0 1 .61.3h.02l.76.76.4.41 1.15 1.15c.45.45.45.86 0 1.31l-.36.36c-.36.37-.7.7-1.06 1.03l-.02.02c-.37.37-.3.72-.22.96l.01.04c.3.73.72 1.41 1.37 2.23a15.5 15.5 0 0 0 3.75 3.41c.18.11.35.2.52.28.16.08.3.15.42.23.02 0 .04.02.05.03.15.07.28.1.42.1a.9.9 0 0 0 .64-.29l1.45-1.44c.14-.15.37-.32.64-.32.26 0 .48.17.6.3l.01.02 2.33 2.32c.44.43.44.88 0 1.32ZM11.3 4.76a5.38 5.38 0 0 1 4.43 4.42c.06.28.3.47.57.47h.1a.57.57 0 0 0 .47-.66 6.5 6.5 0 0 0-5.36-5.36.57.57 0 0 0-.66.47c-.06.3.15.6.46.66Z"/>
    <path d="M20.5 8.82a10.7 10.7 0 0 0-3.02-5.8c-1.6-1.6-3.6-2.64-5.82-3.01a.57.57 0 1 0-.18 1.12 9.6 9.6 0 0 1 7.89 7.88c.04.28.28.47.56.47h.1c.3-.05.52-.35.46-.66Z"/>
  </symbol>
  <symbol viewBox="0 0 35px 35px" id="icon-stopwatch">
    <path d="m3.85 11.66-1.8-1.47a1.8 1.8 0 0 1 0-2.9 2.9 2.9 0 0 1 3.54 0L7.5 8.86c2-1.14 4.28-1.93 6.67-2.3V4.5H12.5c-.46 0-.83-.3-.83-.68V2.05C11.67.92 12.79 0 14.17 0h6.66c1.38 0 2.5.92 2.5 2.05v1.78c0 .38-.37.68-.83.68h-1.67v2.04a19.7 19.7 0 0 1 6.67 2.31L29.4 7.3a2.9 2.9 0 0 1 3.54 0c.97.8.97 2.1 0 2.9l-1.8 1.47A12.84 12.84 0 0 1 35 20.64C35 28.56 27.15 35 17.5 35S0 28.56 0 20.64c0-3.27 1.36-6.44 3.85-8.98Zm.56-3.4a.97.97 0 0 0-1.18 0 .6.6 0 0 0 0 .96l1.72 1.42c.4-.33.8-.64 1.22-.94L4.41 8.26Zm17.26-6.2c0-.39-.38-.7-.84-.7h-6.66c-.46 0-.84.31-.84.7v1.08h8.34V2.05ZM15.83 4.5v1.84c1.1-.08 2.23-.08 3.34 0V4.51h-3.34Zm15.94 3.75a.97.97 0 0 0-1.18 0L28.83 9.7c.42.3.83.6 1.22.94l1.72-1.42a.6.6 0 0 0 0-.96ZM17.5 33.63c8.73 0 15.83-5.82 15.83-12.99 0-3.15-1.4-6.2-3.93-8.57a15.2 15.2 0 0 0-2.32-1.77 17.8 17.8 0 0 0-9.58-2.64 17.8 17.8 0 0 0-9.58 2.64 15.2 15.2 0 0 0-2.32 1.77 11.73 11.73 0 0 0-3.93 8.57c0 7.17 7.1 13 15.83 13Z"/>
    <path d="M17.5 22.7c-1.38 0-2.5-.92-2.5-2.06 0-.89.7-1.65 1.67-1.93v-4.9c0-.38.37-.69.83-.69.46 0 .83.31.83.69v4.9C19.3 19 20 19.75 20 20.64c0 1.14-1.12 2.06-2.5 2.06Zm0-2.74c-.46 0-.83.3-.83.68 0 .38.37.69.83.69.46 0 .83-.3.83-.69 0-.37-.37-.68-.83-.68Z"/>
    <path d="M8.62 13.43a.6.6 0 0 1 .04-.03l.05-.04a13.34 13.34 0 0 1 5.25-2.55c.45-.1.9.1 1.04.46.13.36-.12.74-.56.85-1.46.35-2.82.96-3.98 1.78l.56.46a.6.6 0 0 1 0 .97.93.93 0 0 1-.6.2.93.93 0 0 1-.58-.2l-.56-.46a8.06 8.06 0 0 0-2.58 5.1h.8c.46 0 .83.3.83.67 0 .38-.37.69-.83.69h-.8a8.06 8.06 0 0 0 2.58 5.1l.56-.47a.97.97 0 0 1 1.18 0 .6.6 0 0 1 0 .97l-.56.46a12.07 12.07 0 0 0 6.2 2.12v-.66c0-.38.38-.69.84-.69.46 0 .83.31.83.69v.65c2.3-.14 4.46-.87 6.21-2.11l-.56-.46a.6.6 0 0 1 0-.97.97.97 0 0 1 1.18 0l.56.46a8.06 8.06 0 0 0 2.58-5.1h-.8c-.46 0-.83-.3-.83-.68 0-.37.37-.68.83-.68h.8a8.06 8.06 0 0 0-2.58-5.1l-.56.47a.93.93 0 0 1-.59.2.93.93 0 0 1-.59-.2.6.6 0 0 1 0-.97l.56-.46a11.75 11.75 0 0 0-3.98-1.78c-.44-.1-.69-.49-.56-.85.13-.36.6-.57 1.04-.46a13.34 13.34 0 0 1 5.3 2.59l.04.03A9.35 9.35 0 0 1 30 20.64a9.35 9.35 0 0 1-3.66 7.25l-.05.04a13.92 13.92 0 0 1-8.79 2.97c-3.31 0-6.43-1.06-8.8-2.97l-.04-.04-.04-.03A9.35 9.35 0 0 1 5 20.64a9.35 9.35 0 0 1 3.62-7.2Z"/>
    <path d="M17.5 11.76c-.46 0-.83-.3-.83-.69 0-.37.37-.68.83-.68.46 0 .83.3.83.68 0 .38-.37.69-.83.69Z"/>
  </symbol>
  <symbol viewBox="0 0 35px 35px" id="icon-hired">
    <path d="M31.26 27.9c.38-.53.6-1.16.6-1.85v-4.1c0-.38-.3-.69-.68-.69h-3.06a2.56 2.56 0 0 0-2.56 2.56v2.23c0 .69.22 1.32.6 1.84a4.4 4.4 0 0 0-1.34.45 5.82 5.82 0 0 0-4.3-2.56h-.01a4.02 4.02 0 0 0 1.03-2.7V17.5c0-.38-.31-.68-.69-.68H16.7a3.24 3.24 0 0 0-3.24 3.23v3.03c0 1.04.4 1.98 1.03 2.7h-.02a5.82 5.82 0 0 0-4.3 2.56 4.4 4.4 0 0 0-1.33-.45c.38-.52.6-1.15.6-1.84v-4.1c0-.38-.3-.69-.68-.69H5.7a2.56 2.56 0 0 0-2.56 2.56v2.23c0 .69.22 1.32.6 1.84A4.46 4.46 0 0 0 0 32.3v2.03c0 .37.3.68.68.68h33.64c.37 0 .68-.3.68-.68v-2.03a4.46 4.46 0 0 0-3.74-4.4ZM4.51 23.81c0-.66.53-1.2 1.19-1.2h2.37v.84c0 .4-.33.74-.74.74H4.51v-.38Zm0 1.75h2.82c.26 0 .51-.05.74-.14v.62a1.78 1.78 0 0 1-3.56 0v-.48Zm2.22 3.63-.44.44-.44-.44h.88Zm2.47 2.36v2.07H1.37V32.3a3.1 3.1 0 0 1 2.59-3.05L5.8 31.1a.68.68 0 0 0 .96 0l1.85-1.85c.33.05.64.16.94.31-.24.63-.36 1.3-.36 2.01Zm8.3-5.8a2.67 2.67 0 0 1-2.67-2.68v-.9h4.09c.45 0 .88-.12 1.25-.32v1.22c0 1.47-1.2 2.67-2.67 2.67Zm1.2 1.36-1.2 1.19-1.2-1.2h2.4Zm-3.87-7.07c0-1.03.84-1.87 1.87-1.87h3.47v1.38c0 .7-.56 1.25-1.25 1.25h-4.09v-.76Zm9.6 13.58H10.57v-1.36h4.45a.68.68 0 1 0 0-1.37h-4.4a4.45 4.45 0 0 1 3.8-3.74l2.6 2.6a.68.68 0 0 0 .96 0l2.6-2.6a4.45 4.45 0 0 1 3.85 4.4v2.07Zm2.5-9.8c0-.67.53-1.2 1.2-1.2h2.36v.83c0 .4-.33.74-.74.74h-2.82v-.38Zm0 1.74h2.82c.26 0 .51-.05.74-.14v.62a1.78 1.78 0 0 1-3.56 0v-.48Zm2.22 3.63-.44.44-.44-.44h.88Zm-3.35 4.43v-2.07c0-.7-.12-1.38-.36-2 .3-.16.61-.27.94-.32l1.85 1.85a.68.68 0 0 0 .96 0l1.85-1.85a3.1 3.1 0 0 1 2.6 3.05v1.34H25.8ZM20.87 4.47a.68.68 0 0 0-.97 0l-3.35 3.35-1.45-1.45a.68.68 0 1 0-.97.97l1.93 1.93a.68.68 0 0 0 .97 0l3.84-3.84a.68.68 0 0 0 0-.96Z"/>
    <path d="M20.3.6a.68.68 0 0 0-.56 1.24 5.51 5.51 0 1 1-4.5.01.68.68 0 1 0-.56-1.24 6.88 6.88 0 0 0 2.82 13.13A6.88 6.88 0 0 0 20.3.59Z"/>
    <path d="M17.52 0h-.02a.68.68 0 0 0 0 1.37h.02a.68.68 0 0 0 0-1.37ZM17.98 31.1a.69.69 0 0 0-.96 0 .69.69 0 0 0 0 .97.69.69 0 0 0 .96 0 .69.69 0 0 0 0-.97Z"/>
  </symbol>
  <symbol viewBox="0 0 35px 35px" id="icon-detective">
    <path d="M17.5 11.02c-.38 0-.68.36-.68.8 0 .44.3.8.68.8.38 0 .68-.36.68-.8 0-.44-.3-.8-.68-.8Z"/>
    <path d="M32.95 15.81h-2.66C28.89 11.13 26.85 2.92 23.17.6c-1.85-1.16-3.59-.35-4.24 1.3-.28.7-.84 1.06-1.43 1.06-.6 0-1.15-.37-1.43-1.06-.63-1.6-2.33-2.48-4.1-1.47C8.21 2.56 6.11 11.1 4.7 15.8H2.05C.92 15.81 0 16.9 0 18.21c0 1.32.92 2.4 2.05 2.4h30.9c1.13 0 2.05-1.07 2.05-2.4 0-1.32-.92-2.4-2.05-2.4ZM7.1 12.61h7.66c.37 0 .68-.35.68-.8 0-.43-.3-.8-.68-.8H7.59c2.06-6.65 3.99-8.58 4.97-9.14 1.07-.61 1.96-.1 2.27.7.5 1.26 1.54 2 2.67 2s2.17-.74 2.67-2c.32-.82 1.21-1.28 2.35-.56.99.62 2.9 2.62 4.89 9h-7.18c-.37 0-.68.37-.68.8 0 .45.3.8.68.8h7.66l.95 3.2H6.16l.95-3.2Zm25.84 6.4H2.05c-.38 0-.68-.36-.68-.8 0-.44.3-.8.68-.8h30.9c.38 0 .68.36.68.8 0 .44-.3.8-.68.8ZM16.13 23.8H5.2c-.38 0-.69.37-.69.8v3.2c0 3.97 2.76 7.2 6.15 7.2 2.57 0 4.85-1.85 5.75-4.63a2.28 2.28 0 0 1 2.18 0c.9 2.78 3.18 4.63 5.75 4.63 3.39 0 6.15-3.23 6.15-7.2v-3.2c0-.43-.3-.8-.69-.8H18.87c-.38 0-.69.37-.69.8v.8h-1.36v-.8c0-.43-.31-.8-.69-.8Zm-5.47 9.6c-2.63 0-4.78-2.5-4.78-5.6v-2.4h9.57v2.4c0 3.1-2.14 5.6-4.79 5.6Zm8.9-8h9.56v2.4c0 3.1-2.15 5.6-4.78 5.6-2.66 0-4.79-2.5-4.79-5.6v-2.4ZM18.17 27v.8c0 .26.02.52.04.77-.48-.1-.96-.1-1.44 0 .02-.25.04-.5.04-.76V27h1.36Z"/>
    <path d="M10.66 30.2c-1.13 0-2.05-1.07-2.05-2.4 0-.44-.3-.8-.68-.8-.38 0-.68.36-.68.8 0 2.2 1.53 4 3.41 4 .38 0 .69-.36.69-.8 0-.44-.3-.8-.69-.8ZM24.34 31.8c1.88 0 3.41-1.8 3.41-4 0-.44-.3-.8-.68-.8-.38 0-.68.36-.68.8 0 1.33-.92 2.4-2.05 2.4-.38 0-.69.36-.69.8 0 .44.3.8.69.8Z"/>
  </symbol>
  <symbol viewBox="0 0 35px 35px" id="icon-tag">
    <path d="M11.07 8.58a.69.69 0 0 0-.97 0 .69.69 0 0 0 0 .97.69.69 0 0 0 .97 0 .69.69 0 0 0 0-.97Z"/>
    <path d="M34.8 2.86 33.95 2l.85-.84a.68.68 0 0 0-.97-.97l-.84.84-.83-.83a.68.68 0 0 0-.49-.2H20.1a3.4 3.4 0 0 0-2.42 1l-5.77 5.77a.68.68 0 0 0 .96.97l5.78-5.78c.39-.39.9-.6 1.45-.6H31.4l.63.64-2.53 2.54a2.8 2.8 0 1 0 .96.97L33 2.98l.64.64V14.9c0 .55-.22 1.06-.6 1.45L16.33 33.03a2.04 2.04 0 0 1-2.9 0L1.97 21.56a2.04 2.04 0 0 1 0-2.9l7.37-7.37a.68.68 0 0 0-.97-.97L1 17.69a3.4 3.4 0 0 0 0 4.84L12.47 34a3.41 3.41 0 0 0 4.84 0L34 17.32c.65-.65 1-1.5 1-2.42L35 3.34a.68.68 0 0 0-.2-.48Zm-5.74 5.1a1.42 1.42 0 0 1-2.03 0 1.43 1.43 0 0 1 1.43-2.38l-.8.79a.68.68 0 0 0 .97.96l.8-.78c.13.48.01 1.03-.37 1.41Z"/>
    <path d="M29.2 13.76 21.23 5.8a2.71 2.71 0 0 0-3.82 0L4.8 18.4a2.69 2.69 0 0 0 0 3.83l7.97 7.97a2.69 2.69 0 0 0 3.82 0L29.2 17.6a2.69 2.69 0 0 0 0-3.84Zm-.97 2.87-12.6 12.6a1.33 1.33 0 0 1-1.9 0l-7.96-7.96a1.33 1.33 0 0 1 0-1.9l12.6-12.6a1.34 1.34 0 0 1 1.9 0l7.96 7.96a1.33 1.33 0 0 1 0 1.9Z"/>
    <path d="M22.29 13.68a.68.68 0 0 0-.97-.97l-.39.4a2.63 2.63 0 0 0-3.25.28c-.5.5-.75 1.18-.72 1.9a2.88 2.88 0 0 0 .85 1.9c.55.55.62 1.38.14 1.85-.47.48-1.3.42-1.86-.13-.55-.55-.6-1.39-.13-1.86a.68.68 0 0 0-.97-.97c-.85.85-.94 2.2-.29 3.25l-.47.47a.68.68 0 0 0 .97.97l.47-.47c.46.29.97.43 1.48.43.65 0 1.29-.24 1.77-.72 1-1 .94-2.7-.14-3.79a1.51 1.51 0 0 1-.45-1c-.02-.33.1-.64.31-.86.48-.47 1.31-.41 1.86.14s.61 1.38.14 1.86a.68.68 0 0 0 .97.96c.85-.85.94-2.2.29-3.25l.39-.4ZM15.37 25.01l-3.5-3.51a.68.68 0 0 0-.98.97l3.51 3.5a.68.68 0 0 0 .97 0 .68.68 0 0 0 0-.96ZM9.99 19.63a.69.69 0 0 0-.97 0 .69.69 0 0 0 0 .96.69.69 0 0 0 .97 0 .69.69 0 0 0 0-.96Z"/>
  </symbol>
  <symbol viewBox="0 0 30px 30px" id="icon-stopwatch-mobile">
    <path d="M3.3 10 1.76 8.73a1.55 1.55 0 0 1 0-2.48c.84-.69 2.2-.69 3.03 0L6.43 7.6a16.9 16.9 0 0 1 5.71-1.99V3.87h-1.43c-.39 0-.71-.27-.71-.59V1.76C10 .79 10.96 0 12.14 0h5.72C19.04 0 20 .79 20 1.76v1.52c0 .32-.32.59-.71.59h-1.43V5.6c2.04.33 4 1 5.7 1.99l1.65-1.35c.83-.69 2.2-.69 3.03 0 .83.68.83 1.8 0 2.48L26.7 10a11 11 0 0 1 3.3 7.7C30 24.48 23.27 30 15 30S0 24.48 0 17.7A11 11 0 0 1 3.3 10Zm.48-2.92a.83.83 0 0 0-1 0 .52.52 0 0 0 0 .83l1.47 1.2c.33-.27.68-.54 1.04-.8L3.8 7.09Zm14.8-5.32c0-.33-.33-.59-.72-.59h-5.72c-.4 0-.71.26-.71.59v.94h7.14v-.94Zm-5 2.1v1.59c.94-.08 1.9-.08 2.85 0V3.87h-2.86Zm13.65 3.22a.83.83 0 0 0-1.01 0L24.7 8.32c.36.25.71.52 1.04.8l1.48-1.21a.52.52 0 0 0 0-.83ZM15 28.83c7.48 0 13.57-5 13.57-11.13 0-2.71-1.2-5.32-3.37-7.35-.6-.56-1.27-1.07-2-1.52A15.25 15.25 0 0 0 15 6.56c-.68 0-1.37.04-2.04.13A15.25 15.25 0 0 0 6.8 8.83c-.72.45-1.39.96-1.99 1.52a10.06 10.06 0 0 0-3.37 7.35c0 6.13 6.09 11.13 13.57 11.13Z"/>
    <path d="M15 19.45c-1.18 0-2.14-.79-2.14-1.75 0-.77.6-1.42 1.43-1.66v-4.2c0-.33.32-.59.71-.59.4 0 .71.26.71.59v4.2c.84.24 1.43.9 1.43 1.66 0 .96-.96 1.75-2.14 1.75Zm0-2.34c-.4 0-.71.26-.71.59 0 .32.32.58.71.58.4 0 .71-.26.71-.58 0-.33-.32-.6-.71-.6Z"/>
    <path d="M7.39 11.51a.5.5 0 0 1 .08-.06 11.44 11.44 0 0 1 4.5-2.19c.38-.09.77.09.89.4.1.31-.1.64-.49.73-1.25.3-2.41.82-3.4 1.52l.47.4c.28.23.28.6 0 .83a.8.8 0 0 1-.5.17.8.8 0 0 1-.5-.17l-.49-.4a6.91 6.91 0 0 0-2.2 4.37h.68c.4 0 .71.26.71.59 0 .32-.32.58-.71.58h-.69a6.91 6.91 0 0 0 2.21 4.37l.48-.4a.83.83 0 0 1 1.01 0c.28.23.28.6 0 .83l-.48.4a10.35 10.35 0 0 0 5.33 1.81v-.56c0-.33.32-.59.71-.59.4 0 .71.26.71.59v.56c1.98-.12 3.83-.75 5.33-1.81l-.48-.4a.51.51 0 0 1 0-.83.83.83 0 0 1 1 0l.49.4a6.91 6.91 0 0 0 2.2-4.37h-.68c-.4 0-.71-.26-.71-.58 0-.33.32-.6.71-.6h.69a6.91 6.91 0 0 0-2.21-4.36l-.48.4a.8.8 0 0 1-.51.17.8.8 0 0 1-.5-.17.52.52 0 0 1 0-.83l.48-.4c-1-.7-2.16-1.22-3.41-1.52-.38-.1-.6-.42-.49-.73.11-.31.51-.49.89-.4a11.44 11.44 0 0 1 4.54 2.22l.04.03c2 1.66 3.1 3.86 3.1 6.19 0 2.33-1.1 4.52-3.1 6.18l-.04.03-.03.03A11.93 11.93 0 0 1 15 26.48c-2.84 0-5.51-.9-7.54-2.54l-.03-.03-.04-.03a8.01 8.01 0 0 1-3.1-6.18c0-2.33 1.1-4.53 3.1-6.19Z"/>
    <path d="M15 10.08c-.4 0-.71-.26-.71-.59 0-.32.32-.58.71-.58.4 0 .71.26.71.58 0 .33-.32.59-.71.59Z"/>
  </symbol>
  <symbol viewBox="0 0 30px 30px" id="icon-hired-mobile">
    <path d="M26.8 23.9c.32-.44.5-.98.5-1.57V18.8a.59.59 0 0 0-.58-.59H24.1a2.2 2.2 0 0 0-2.2 2.2v1.9c0 .6.2 1.14.52 1.59-.4.06-.79.2-1.14.38a4.99 4.99 0 0 0-3.69-2.2h-.01c.54-.61.88-1.42.88-2.3V15a.59.59 0 0 0-.59-.59h-3.56a2.78 2.78 0 0 0-2.77 2.78v2.6c0 .88.34 1.69.88 2.3h-.01a4.98 4.98 0 0 0-3.69 2.2 3.77 3.77 0 0 0-1.14-.38c.32-.45.51-1 .51-1.58V18.8a.59.59 0 0 0-.59-.59H4.9a2.2 2.2 0 0 0-2.2 2.2v1.9c0 .6.2 1.14.51 1.59A3.83 3.83 0 0 0 0 27.68v1.73c0 .33.26.59.59.59H29.4c.33 0 .59-.26.59-.59v-1.73c0-1.9-1.39-3.48-3.2-3.77ZM3.86 20.43c0-.57.46-1.03 1.03-1.03h2.03v.72c0 .35-.29.63-.64.63H3.86v-.32Zm0 1.5h2.42c.23 0 .44-.05.64-.12v.53a1.53 1.53 0 0 1-3.06 0v-.42Zm1.9 3.1-.37.39-.38-.38h.76Zm2.12 2.03v1.78h-6.7v-1.15c0-1.32.95-2.4 2.21-2.62l1.59 1.59a.59.59 0 0 0 .82 0l1.6-1.59c.27.05.54.14.8.27-.2.54-.32 1.12-.32 1.72ZM15 22.07a2.29 2.29 0 0 1-2.29-2.28V19h3.5c.4 0 .76-.1 1.08-.27v1.05A2.29 2.29 0 0 1 15 22.07Zm1.02 1.17L15 24.27l-1.02-1.03h2.04Zm-3.3-6.05c0-.89.71-1.6 1.6-1.6h2.97v1.18c0 .59-.48 1.07-1.08 1.07h-3.5v-.65Zm8.22 11.64H9.06v-1.17h3.81a.59.59 0 1 0 0-1.18H9.1a3.82 3.82 0 0 1 3.26-3.2l2.23 2.23a.58.58 0 0 0 .82 0l2.23-2.23a3.82 3.82 0 0 1 3.3 3.77v1.78Zm2.14-8.41c0-.57.46-1.03 1.02-1.03h2.04v.72c0 .35-.29.63-.64.63h-2.42v-.32Zm0 1.5h2.42c.23 0 .44-.05.64-.12v.53a1.53 1.53 0 0 1-3.06 0v-.42Zm1.9 3.1-.37.39-.38-.38H25Zm-2.86 3.8v-1.77c0-.6-.11-1.18-.31-1.72.25-.13.52-.22.8-.27l1.59 1.59a.59.59 0 0 0 .82 0l1.59-1.59c1.26.21 2.22 1.3 2.22 2.62v1.15h-6.71ZM17.89 3.83a.59.59 0 0 0-.83 0L14.18 6.7l-1.24-1.24a.59.59 0 1 0-.83.83l1.66 1.66a.59.59 0 0 0 .83 0l3.29-3.3a.59.59 0 0 0 0-.82Z"/>
    <path d="M17.4.5a.59.59 0 0 0-.48 1.08 4.72 4.72 0 1 1-3.86 0 .59.59 0 1 0-.48-1.06A5.9 5.9 0 0 0 15 11.77 5.9 5.9 0 0 0 17.4.51Z"/>
    <path d="M15.02 0H15a.59.59 0 0 0 0 1.17h.02a.59.59 0 0 0 0-1.17ZM15.41 26.66a.59.59 0 0 0-.82 0 .59.59 0 0 0 0 .82.6.6 0 0 0 .82 0 .59.59 0 0 0 0-.82Z"/>
  </symbol>
  <symbol viewBox="0 0 30px 30px" id="icon-detective-mobile">
    <path d="M15 9.44c-.32 0-.59.31-.59.69 0 .38.27.68.59.68.32 0 .59-.3.59-.68 0-.38-.27-.69-.59-.69Z"/>
    <path d="M28.24 13.55h-2.28c-1.2-4-2.94-11.05-6.1-13.04-1.58-1-3.08-.3-3.64 1.11-.24.6-.71.92-1.22.92s-.99-.32-1.22-.92c-.54-1.36-2-2.12-3.53-1.25-3.2 1.82-5 9.14-6.21 13.18H1.76c-.97 0-1.76.92-1.76 2.06 0 1.13.79 2.06 1.76 2.06h26.48c.97 0 1.76-.92 1.76-2.06 0-1.13-.79-2.06-1.76-2.06ZM6.1 10.81h6.56c.32 0 .58-.3.58-.68 0-.38-.26-.69-.58-.69H6.5c1.76-5.7 3.41-7.36 4.26-7.84.92-.52 1.67-.08 1.95.6.42 1.08 1.31 1.71 2.28 1.71.97 0 1.86-.63 2.28-1.7.29-.71 1.05-1.1 2.02-.5.85.54 2.5 2.26 4.2 7.73h-6.16c-.32 0-.58.31-.58.69 0 .38.26.68.58.68h6.56l.82 2.74H5.28l.82-2.74Zm22.14 5.49H1.76c-.33 0-.59-.31-.59-.69 0-.38.26-.68.59-.68h26.48c.33 0 .59.3.59.68 0 .38-.26.69-.59.69ZM13.83 20.4H4.45c-.32 0-.58.31-.58.7v2.73c0 3.4 2.36 6.17 5.27 6.17 2.2 0 4.15-1.58 4.93-3.97a1.95 1.95 0 0 1 1.86 0c.78 2.39 2.73 3.97 4.93 3.97 2.9 0 5.27-2.77 5.27-6.17V21.1c0-.38-.26-.68-.58-.68h-9.38c-.32 0-.58.3-.58.68v.69H14.4v-.69c0-.38-.26-.68-.58-.68Zm-4.69 8.23c-2.26 0-4.1-2.15-4.1-4.8v-2.05h8.2v2.05c0 2.65-1.83 4.8-4.1 4.8Zm7.62-6.85h8.2v2.05c0 2.65-1.84 4.8-4.1 4.8-2.28 0-4.1-2.15-4.1-4.8v-2.05Zm-1.17 1.37v.68c0 .22 0 .44.03.66-.41-.09-.83-.09-1.24 0l.03-.66v-.68h1.18Z"/>
    <path d="M9.14 25.89c-.97 0-1.76-.92-1.76-2.06 0-.38-.26-.68-.58-.68-.33 0-.59.3-.59.68 0 1.9 1.32 3.43 2.93 3.43.32 0 .59-.3.59-.69 0-.37-.27-.68-.59-.68ZM20.86 27.26c1.61 0 2.93-1.54 2.93-3.43 0-.38-.26-.68-.59-.68-.32 0-.58.3-.58.68 0 1.14-.8 2.06-1.76 2.06-.32 0-.59.3-.59.68 0 .38.27.69.59.69Z"/>
  </symbol>
  <symbol viewBox="0 0 30px 30px" id="icon-tag-mobile">
    <path d="M9.49 7.36a.59.59 0 0 0-.83 0 .6.6 0 0 0 0 .83.59.59 0 0 0 .83 0 .6.6 0 0 0 0-.83Z"/>
    <path d="m29.83 2.45-.73-.73.73-.72A.59.59 0 0 0 29 .17l-.72.73-.72-.72a.59.59 0 0 0-.41-.17h-9.92c-.78 0-1.52.3-2.07.85L10.2 5.81a.59.59 0 0 0 .83.83l4.94-4.95c.34-.33.78-.51 1.25-.51h9.67l.55.54-2.18 2.18a2.4 2.4 0 1 0 .83.83l2.18-2.18.55.56v9.66c0 .47-.2.91-.52 1.24L14 28.31a1.75 1.75 0 0 1-2.49 0l-9.83-9.83a1.75 1.75 0 0 1 0-2.49L8 9.67a.59.59 0 0 0-.83-.83L.86 15.16a2.91 2.91 0 0 0 0 4.15l9.83 9.83a2.92 2.92 0 0 0 4.15 0l14.3-14.3c.55-.55.85-1.29.85-2.07l.01-9.9c0-.16-.06-.31-.17-.42ZM24.9 6.83a1.22 1.22 0 0 1-1.74 0 1.23 1.23 0 0 1 1.22-2.05l-.68.68a.59.59 0 0 0 .83.83l.68-.68c.12.42.02.89-.31 1.22Z"/>
    <path d="M25.03 11.8 18.2 4.97c-.9-.9-2.37-.9-3.28 0l-10.8 10.8a2.3 2.3 0 0 0 0 3.29l6.83 6.83a2.3 2.3 0 0 0 3.28 0l10.8-10.81a2.3 2.3 0 0 0 0-3.28Zm-.83 2.45-10.8 10.8a1.14 1.14 0 0 1-1.63 0l-6.82-6.82a1.14 1.14 0 0 1 0-1.62L15.75 5.8a1.14 1.14 0 0 1 1.63 0l6.82 6.83a1.14 1.14 0 0 1 0 1.62Z"/>
    <path d="M19.11 11.72a.59.59 0 0 0-.83-.83l-.34.34a2.26 2.26 0 0 0-2.78.25c-.43.43-.65 1-.62 1.63a2.47 2.47 0 0 0 .73 1.62c.47.47.53 1.19.12 1.6-.4.4-1.12.35-1.6-.12-.46-.48-.52-1.19-.1-1.6a.59.59 0 0 0-.84-.83c-.73.74-.8 1.9-.25 2.8l-.4.4a.59.59 0 1 0 .83.82l.4-.4c.4.24.84.37 1.27.37.56 0 1.1-.2 1.52-.62.86-.86.81-2.32-.12-3.25a1.3 1.3 0 0 1-.39-.85.97.97 0 0 1 .27-.74c.41-.4 1.13-.35 1.6.12.47.47.52 1.18.11 1.59a.59.59 0 0 0 .83.83c.73-.73.8-1.89.25-2.79l.34-.34ZM13.18 21.44l-3.01-3.01a.59.59 0 0 0-.83.83l3.01 3a.58.58 0 0 0 .83 0 .59.59 0 0 0 0-.82ZM8.56 16.82a.59.59 0 0 0-.83 0 .6.6 0 0 0 0 .83.59.59 0 0 0 .83 0 .59.59 0 0 0 0-.83Z"/>
  </symbol>
  <symbol viewBox="0 0 5px 10px" id="icon-arrow">
    <path stroke="#fff" stroke-linejoin="round" d="M.48 8.81 4.28 5 .49 1.2"/>
  </symbol>
  <symbol viewBox="0 0 30px 30px" id="icon-classmates">
    <path d="M15.17 12.64a2.03 2.03 0 0 0 .02-4.05 2.03 2.03 0 0 0-.02 4.05Z"/>
    <path d="M15 0a15 15 0 1 0 0 30 15 15 0 0 0 0-30Zm.21 5.68a4.93 4.93 0 1 1-.04 9.86 4.93 4.93 0 0 1 .04-9.86Zm5.51 11.57-.02.1a1.4 1.4 0 0 1-.64 1.01 9.66 9.66 0 0 1-2.79 1.18c-.08.02-.08.02-.02.09l1.18 1.18 1.5 1.5c.7.7.51 1.88-.39 2.31-.15.09-.32.1-.49.15h-.28c-.02 0-.04 0-.04-.02a1.58 1.58 0 0 1-.88-.45l-2.6-2.6c-.06-.06-.06-.06-.12 0l-2.62 2.62c-.15.15-.3.26-.49.34-.13.07-.28.09-.4.11h-.28l-.11-.02c-.58-.1-.97-.43-1.14-.99a1.37 1.37 0 0 1 .37-1.45l1.07-1.07 1.58-1.59c.07-.06.07-.06-.02-.09l-.08-.02a9.26 9.26 0 0 1-2.68-1.13c-.5-.32-.73-.8-.67-1.37a1.44 1.44 0 0 1 2.21-1.08 6.1 6.1 0 0 0 5.25.62c.52-.17.97-.4 1.44-.66a1.45 1.45 0 0 1 2.16 1.12v.21Z"/>
  </symbol>
  <symbol viewBox="0 0 30px 30px" id="icon-vk">
    <path d="M21.62 17.45c-1.24-1.18-1.33-1.18-.27-2.54 1.33-1.73 3.09-3.91 1.5-3.91h-2.9c-.54 0-.63.36-.8.82-.7 1.73-2.12 4-2.65 3.63-.53-.36-.27-1.72-.27-3.9a.72.72 0 0 0-.17-.73c-.18-.18-.44-.37-.7-.37-.45-.09-.89-.18-1.33-.18-1.68 0-2.82.73-2.2.82 1.14.18 1.05 2.73.79 3.82-.44 1.9-2.2-1.46-3-3.18a.87.87 0 0 0-.88-.73h-2.3c-.35 0-.62.1-.62.36 0 .46 2.2 4.91 4.24 7.19 2.03 2.18 4.06 2 5.47 2 .18 0 .35-.1.44-.19a.7.7 0 0 0 .18-.45c0-1.46.53-2.18 1.5-1.18 1.06 1.09 1.32 1.82 2.64 1.82h2.39c.61 0 .79-.19.79-.46.09-.64-.97-1.82-1.85-2.64ZM15.35 0C23.55.18 30.1 7 30 15.27A14.9 14.9 0 0 1 14.9 30 14.98 14.98 0 0 1 0 15 15.19 15.19 0 0 1 15.35 0Z"/>
  </symbol>
  <symbol viewBox="0 0 30px 30px" id="icon-pinterest">
    <path d="M15 0a15 15 0 1 1 0 30 15 15 0 0 1 0-30Z"/>
    <path fill="#041827" d="M15 5a10 10 0 1 0 .01 20.01A10 10 0 0 0 15 5Zm0 .87a9.12 9.12 0 1 1-2.65 17.87c.37-.63.85-1.52 1.04-2.26l.59-2.22c.3.58 1.2 1.07 2.14 1.07 2.82 0 4.85-2.6 4.85-5.81 0-3.1-2.52-5.4-5.76-5.4-4.04 0-6.18 2.7-6.18 5.66 0 1.37.73 3.07 1.9 3.62.18.08.27.04.31-.13l.26-1.06a.28.28 0 0 0-.06-.27 3.64 3.64 0 0 1-.7-2.13 4.05 4.05 0 0 1 4.22-4.06c2.3 0 3.9 1.57 3.9 3.8 0 2.54-1.27 4.29-2.93 4.29-.92 0-1.6-.76-1.39-1.7.27-1.1.78-2.3.78-3.1 0-.72-.39-1.32-1.19-1.32-.93 0-1.69.97-1.69 2.27 0 .83.28 1.39.28 1.39l-1.1 4.64a8.32 8.32 0 0 0-.05 2.44A9.12 9.12 0 0 1 15 5.87Z"/>
  </symbol>
</symbol></svg>