<svg xmlns="http://www.w3.org/2000/svg" width="55" height="55" fill="none"><path fill="#00B2FF" d="M33.92 14.67c1.19 0 2.2.77 2.58 1.83H46a2.75 2.75 0 1 1 0 1.83h-9.5a2.75 2.75 0 1 1-2.58-3.66Zm14.66 3.66a.92.92 0 1 0 0-1.83.92.92 0 0 0 0 1.83Zm-14.66 0a.92.92 0 1 0 0-1.83.92.92 0 0 0 0 1.83Z"/><path fill="#00B2FF" d="M26.58 20.34v-5.67c0-.25.1-.48.27-.65l3.67-3.67c.17-.17.4-.27.65-.27h2.92a2.75 2.75 0 1 1 0 1.84h-2.54l-3.13 3.13v5.29a2.75 2.75 0 1 1-1.84 0Zm10.09-8.42a.92.92 0 1 0 0-1.84.92.92 0 0 0 0 1.84ZM27.5 23.83a.92.92 0 1 0 0-1.83.92.92 0 0 0 0 1.83ZM10.08 23.83c.43 0 .82.1 1.18.28l1.57-1.57v-8.79c0-.24.1-.48.27-.65l9.18-9.17a2.75 2.75 0 1 1 2.47 1.57c-.42 0-.82-.1-1.18-.28l-8.9 8.9v8.8c0 .24-.1.47-.27.64l-1.84 1.85a2.75 2.75 0 1 1-2.47-1.57ZM24.75 3.67a.92.92 0 1 0 0-1.84.92.92 0 0 0 0 1.84ZM10.08 27.5a.92.92 0 1 0 0-1.84.92.92 0 0 0 0 1.84ZM1.83 13V9.17c0-.25.1-.48.27-.65L8.52 2.1c.17-.17.4-.27.65-.27h4.75a2.75 2.75 0 1 1 0 1.84H9.55L3.67 9.55V13a2.75 2.75 0 1 1-1.84 0ZM16.5 3.67a.92.92 0 1 0 0-1.84.92.92 0 0 0 0 1.84ZM2.75 16.5a.92.92 0 1 0 0-1.84.92.92 0 0 0 0 1.84ZM14.67 49.67V36.5a2.75 2.75 0 1 1 3.5-3.5h9.5a2.75 2.75 0 0 1 2.58-1.83c1.2 0 2.2.77 2.58 1.83h5.3l3.4-3.4A2.75 2.75 0 1 1 44 31.16c-.42 0-.82-.1-1.18-.28l-3.67 3.67a.91.91 0 0 1-.65.27h-5.67a2.75 2.75 0 0 1-2.58 1.84c-1.2 0-2.2-.77-2.58-1.84h-9.5a2.75 2.75 0 0 1-1.67 1.67v13.17a2.75 2.75 0 1 1-1.83 0ZM44 29.33a.92.92 0 1 0 0-1.83.92.92 0 0 0 0 1.83Zm-13.75 5.5a.92.92 0 1 0 0-1.83.92.92 0 0 0 0 1.83ZM15.58 53.17a.92.92 0 1 0 0-1.84.92.92 0 0 0 0 1.84Zm0-18.34a.92.92 0 1 0 0-1.83.92.92 0 0 0 0 1.83Z"/><path fill="#00B2FF" d="M19.25 18.5v-2.92c0-.24.1-.47.27-.64l11-11.01A2.75 2.75 0 0 1 33 0c1.2 0 2.21.77 2.6 1.83h3.83c.5 0 .91.41.91.92v2.37l3.4 3.4A2.75 2.75 0 1 1 42.17 11c0-.41.11-.81.28-1.17l-3.67-3.67a.91.91 0 0 1-.27-.65V3.67h-2.92a2.75 2.75 0 0 1-3.76 1.55L21.08 15.96v2.54a2.75 2.75 0 1 1-1.83 0Zm25.67-6.58a.92.92 0 1 0 0-1.84.92.92 0 0 0 0 1.84ZM33 3.67a.92.92 0 1 0 0-1.84.92.92 0 0 0 0 1.84ZM20.17 22a.92.92 0 1 0 0-1.84.92.92 0 0 0 0 1.84Z"/><path fill="#00B2FF" d="M22 25.67c1.2 0 2.2.77 2.58 1.83h10.8l5.22-5.23c.17-.17.4-.27.65-.27h9.7l2.22-2.21v-7.5l-7.08-7.07a2.75 2.75 0 1 1 1.57-2.47c0 .42-.1.82-.27 1.18l7.34 7.34c.17.17.27.4.27.65v8.25c0 .24-.1.47-.27.64l-2.75 2.75a.91.91 0 0 1-.65.27h-9.7l-5.23 5.23a.91.91 0 0 1-.65.27H24.58A2.75 2.75 0 1 1 22 25.67ZM44.92 1.83a.92.92 0 1 0 0 1.84.92.92 0 0 0 0-1.84ZM22 29.33a.92.92 0 1 0 0-1.83.92.92 0 0 0 0 1.83ZM2.75 22c.42 0 .82.1 1.18.28l3.4-3.41v-5.29a2.75 2.75 0 1 1 1.84 0v5.67c0 .24-.1.48-.27.65l-3.68 3.67a2.7 2.7 0 0 1-1.55 3.76v.7l7.06 7.07c.17.17.27.4.27.65v1.08a2.75 2.75 0 0 1 1.83 2.59c0 1.19-.77 2.2-1.83 2.58v2.17a2.75 2.75 0 1 1-1.83 0V42a2.75 2.75 0 0 1-1.84-2.58c0-1.2.77-2.2 1.84-2.59v-.7L2.1 29.06a.91.91 0 0 1-.27-.64v-1.09A2.75 2.75 0 0 1 2.75 22Zm5.5-10.08a.92.92 0 1 0 0-1.84.92.92 0 0 0 0 1.84Zm1.83 35.75a.92.92 0 1 0 0-1.84.92.92 0 0 0 0 1.84Zm0-7.34a.92.92 0 1 0 0-1.83.92.92 0 0 0 0 1.83ZM2.75 25.67a.92.92 0 1 0 0-1.84.92.92 0 0 0 0 1.84Z"/></svg>