<svg width="30" height="30" viewBox="0 0 30 30" xmlns="http://www.w3.org/2000/svg">
<path d="M15 9.44336C14.6766 9.44336 14.4141 9.7501 14.4141 10.1286C14.4141 10.5068 14.6766 10.8138 15 10.8138C15.3234 10.8138 15.5859 10.5068 15.5859 10.1286C15.5859 9.7501 15.3234 9.44336 15 9.44336Z"/>
<path d="M28.2422 13.5548H25.9623C24.7604 9.54141 23.0166 2.50427 19.8576 0.512584C18.2776 -0.482321 16.7841 0.212534 16.2225 1.62419C15.9835 2.22429 15.5063 2.53987 15 2.53987C14.4868 2.53987 14.0135 2.21733 13.7775 1.62473C13.2358 0.261248 11.778 -0.49731 10.2534 0.368046C7.04384 2.19083 5.24895 9.51116 4.0377 13.5548H1.75781C0.786667 13.5548 0 14.4744 0 15.6104C0 16.7437 0.788498 17.6661 1.75781 17.6661H28.2422C29.2133 17.6661 30 16.7461 30 15.6104C30 14.4769 29.2115 13.5548 28.2422 13.5548ZM6.09604 10.8139H12.6562C12.9799 10.8139 13.2422 10.5069 13.2422 10.1287C13.2422 9.75019 12.9799 9.44344 12.6562 9.44344H6.50574C8.27202 3.73766 9.92203 2.07975 10.7652 1.6009C11.6851 1.07896 12.4422 1.51579 12.7151 2.20261C13.1449 3.28237 14.0341 3.9103 15 3.9103C15.9682 3.9103 16.8562 3.27996 17.2849 2.20261C17.5658 1.49625 18.3268 1.10519 19.3016 1.71894C20.1487 2.2532 21.7937 3.96625 23.494 9.44344H17.3438C17.0201 9.44344 16.7578 9.75019 16.7578 10.1287C16.7578 10.5071 17.0201 10.8139 17.3438 10.8139H23.9042C24.2004 11.8128 24.508 12.8436 24.7208 13.5548H5.27939C5.49156 12.8454 5.79849 11.8171 6.09604 10.8139ZM28.2422 16.2956H1.75781C1.43463 16.2956 1.17188 15.9881 1.17188 15.6104C1.17188 15.2319 1.43417 14.9252 1.75781 14.9252H28.2422C28.5654 14.9252 28.8281 15.2325 28.8281 15.6104C28.8281 15.9886 28.5656 16.2956 28.2422 16.2956Z"/>
<path d="M13.8281 20.4069H4.45312C4.12949 20.4069 3.86719 20.7136 3.86719 21.0921V23.833C3.86719 27.2334 6.23291 29.9999 9.14062 29.9999C11.3438 29.9999 13.2939 28.4151 14.0696 26.0276C14.6587 25.7133 15.3413 25.7133 15.9304 26.0276C16.7061 28.4151 18.6562 29.9997 20.8594 29.9997C23.7671 29.9997 26.1328 27.2334 26.1328 23.8327V21.0918C26.1328 20.7134 25.8705 20.4066 25.5469 20.4066H16.1719C15.8482 20.4066 15.5859 20.7134 15.5859 21.0918V21.7771H14.4141V21.0918C14.4141 20.7136 14.1518 20.4069 13.8281 20.4069ZM9.14062 28.6295C6.87904 28.6295 5.03906 26.4778 5.03906 23.833V21.7773H13.2422V23.833C13.2422 26.4847 11.412 28.6295 9.14062 28.6295ZM16.7578 21.7773H24.9609V23.833C24.9609 26.4778 23.121 28.6295 20.8594 28.6295C18.5822 28.6295 16.7578 26.4783 16.7578 23.833V21.7773ZM15.5859 23.1478V23.833C15.5859 24.0519 15.5967 24.2701 15.6161 24.4866C15.209 24.3996 14.791 24.3996 14.3838 24.4866C14.4033 24.2701 14.4141 24.0519 14.4141 23.833V23.1478H15.5859Z"/>
<path d="M9.14062 25.8886C8.17131 25.8886 7.38281 24.9662 7.38281 23.8329C7.38281 23.4544 7.12051 23.1477 6.79688 23.1477C6.47324 23.1477 6.21094 23.4544 6.21094 23.8329C6.21094 25.7218 7.52518 27.259 9.14062 27.259C9.46426 27.259 9.72656 26.952 9.72656 26.5738C9.72656 26.1953 9.46426 25.8886 9.14062 25.8886Z" />
<path d="M20.8594 27.259C22.4748 27.259 23.7891 25.7218 23.7891 23.8329C23.7891 23.4544 23.5268 23.1477 23.2031 23.1477C22.8795 23.1477 22.6172 23.4544 22.6172 23.8329C22.6172 24.9662 21.8287 25.8886 20.8594 25.8886C20.5357 25.8886 20.2734 26.1953 20.2734 26.5738C20.2734 26.952 20.5357 27.259 20.8594 27.259Z"/>
</svg>
