<svg width="30" height="30" viewBox="0 0 30 30"  xmlns="http://www.w3.org/2000/svg">
<path d="M26.7976 23.9084C27.1191 23.464 27.3094 22.9187 27.3094 22.3295V18.8086C27.3094 18.485 27.047 18.2227 26.7234 18.2227H24.1048C22.8942 18.2227 21.9094 19.2075 21.9094 20.418V22.3295C21.9094 22.9183 22.0994 23.4632 22.4205 23.9075C22.02 23.9725 21.6346 24.1008 21.2752 24.2886C20.4611 23.0739 19.1273 22.2361 17.5946 22.0948C17.5887 22.0931 17.5826 22.0918 17.5765 22.0904C18.1249 21.478 18.4592 20.6701 18.4592 19.7854V15C18.4592 14.6764 18.1968 14.4141 17.8733 14.4141H14.3142C12.7849 14.4141 11.5408 15.6582 11.5408 17.1874V19.7853C11.5408 20.6701 11.8751 21.4779 12.4235 22.0903C12.4174 22.0918 12.4113 22.0931 12.4054 22.0947C10.8725 22.236 9.53865 23.0739 8.72461 24.2889C8.36508 24.1011 7.97965 23.9726 7.57928 23.9077C7.90049 23.4634 8.09062 22.9184 8.09062 22.3295V18.8086C8.09062 18.485 7.82824 18.2227 7.50469 18.2227H4.88602C3.67547 18.2227 2.69062 19.2075 2.69062 20.418V22.3295C2.69062 22.9187 2.88088 23.464 3.20244 23.9084C1.38879 24.2048 0 25.7821 0 27.6782V29.4141C0 29.7377 0.262383 30 0.585938 30H29.4141C29.7376 30 30 29.7377 30 29.4141V27.6782C30 25.7821 28.6112 24.2048 26.7976 23.9084ZM3.8625 20.418C3.8625 19.8537 4.32164 19.3945 4.88602 19.3945H6.91875V20.1081C6.91875 20.4581 6.6341 20.7427 6.28424 20.7427H3.8625V20.418ZM3.8625 21.9145H6.28424C6.50748 21.9145 6.72123 21.8736 6.91875 21.7992V22.3295C6.91875 23.1721 6.23326 23.8576 5.39062 23.8576C4.54799 23.8576 3.8625 23.1721 3.8625 22.3295V21.9145ZM5.76838 25.0295L5.39062 25.4072L5.01287 25.0295H5.76838ZM7.88391 27.0548V28.8281H1.17188V27.6782C1.17188 26.364 2.13416 25.2708 3.391 25.0649L4.97631 26.6502C5.08623 26.7601 5.23523 26.8218 5.39062 26.8218C5.54602 26.8218 5.69502 26.7601 5.80494 26.6502L7.39072 25.0644C7.6708 25.1099 7.94016 25.2002 8.19117 25.3323C7.99266 25.8694 7.88391 26.4496 7.88391 27.0548ZM15.0001 22.0727C13.7388 22.0727 12.7127 21.0466 12.7127 19.7854V19.0109H16.2145C16.6028 19.0109 16.9685 18.9117 17.2874 18.7375V19.7854C17.2874 21.0466 16.2613 22.0727 15.0001 22.0727ZM16.0214 23.2445L15 24.2659L13.9786 23.2445H16.0214ZM12.7126 17.1874H12.7127C12.7127 16.3044 13.4311 15.5859 14.3142 15.5859H17.2873V16.7663C17.2873 17.3578 16.806 17.8391 16.2145 17.8391H12.7126V17.1874ZM20.9442 28.8281H19.8047H10.1953H9.05584V27.6562H12.8711C13.1947 27.6562 13.4571 27.3939 13.4571 27.0703C13.4571 26.7467 13.1947 26.4844 12.8711 26.4844H9.09867C9.3498 24.8191 10.6828 23.5045 12.3564 23.2796L14.5857 25.5088C14.7001 25.6233 14.8501 25.6805 15 25.6805C15.1499 25.6805 15.2999 25.6233 15.4143 25.5088L17.6436 23.2796C19.5043 23.5297 20.9442 25.1268 20.9442 27.0548V28.8281ZM23.0813 20.418C23.0813 19.8537 23.5404 19.3945 24.1048 19.3945H26.1375V20.1081C26.1375 20.4581 25.8529 20.7427 25.503 20.7427H23.0813V20.418ZM23.0813 21.9145H25.503C25.7262 21.9145 25.94 21.8736 26.1375 21.7992V22.3295C26.1375 23.1721 25.452 23.8576 24.6094 23.8576C23.7667 23.8576 23.0813 23.1721 23.0813 22.3295V21.9145ZM24.9871 25.0295L24.6094 25.4072L24.2316 25.0295H24.9871ZM22.116 28.8281V27.0548C22.116 26.4496 22.0073 25.8693 21.8087 25.3322C22.0596 25.2 22.3289 25.1098 22.609 25.0642L24.195 26.6502C24.3049 26.7601 24.4539 26.8218 24.6093 26.8218C24.7647 26.8218 24.9137 26.7601 25.0236 26.6502L26.6089 25.0649C27.8658 25.2708 28.8281 26.364 28.8281 27.6782V28.8281H22.116Z"/>
<path d="M17.888 3.82847C17.6591 3.59966 17.2882 3.59966 17.0593 3.82847L14.1841 6.70372L12.9412 5.46077C12.7123 5.2319 12.3414 5.2319 12.1125 5.46071C11.8837 5.68952 11.8837 6.06054 12.1125 6.2894L13.7698 7.94667C13.8797 8.05653 14.0287 8.11829 14.1841 8.11829C14.3395 8.11829 14.4885 8.05653 14.5984 7.94667L17.888 4.6571C18.1168 4.42829 18.1168 4.05728 17.888 3.82847Z" />
<path d="M17.3955 0.508091C17.1 0.376314 16.7535 0.509029 16.6217 0.804576C16.4898 1.10012 16.6226 1.44659 16.9182 1.57836C18.6173 2.33616 19.7153 4.02758 19.7153 5.88747C19.7153 8.48762 17.5998 10.603 14.9997 10.603C12.3995 10.603 10.2841 8.48762 10.2841 5.88747C10.2841 4.03719 11.3741 2.34928 13.0611 1.58739C13.356 1.4542 13.4871 1.1071 13.3538 0.812193C13.2207 0.517232 12.8734 0.386158 12.5787 0.519341C10.473 1.47044 9.1123 3.57752 9.1123 5.88741C9.11225 9.13379 11.7534 11.7749 14.9997 11.7749C18.246 11.7749 20.8871 9.13379 20.8871 5.88747C20.8871 3.56557 19.5166 1.45403 17.3955 0.508091Z" />
<path d="M15.021 0H15C14.6764 0 14.4141 0.262324 14.4141 0.585938C14.4141 0.909551 14.6764 1.17188 15 1.17188H15.0155C15.0164 1.17188 15.0173 1.17188 15.0183 1.17188C15.3406 1.17188 15.6026 0.911367 15.6042 0.588691C15.6057 0.265078 15.3446 0.00152344 15.021 0Z" />
<path d="M15.4142 26.6561C15.3053 26.5471 15.1541 26.4844 15 26.4844C14.8459 26.4844 14.6947 26.5471 14.5857 26.6561C14.4768 26.765 14.4141 26.9162 14.4141 27.0703C14.4141 27.2244 14.4767 27.3756 14.5857 27.4846C14.6948 27.5936 14.8459 27.6562 15 27.6562C15.1541 27.6562 15.3053 27.5936 15.4142 27.4846C15.5232 27.3756 15.5859 27.2244 15.5859 27.0703C15.5859 26.9162 15.5232 26.765 15.4142 26.6561Z"/>
</svg>
