<svg width="20" height="17" viewBox="0 0 20 17" fill="none" xmlns="http://www.w3.org/2000/svg"><path d="M20 2.43c-.73.33-1.5.55-2.3.64A4.1 4.1 0 0 0 19.46.81c-.78.47-1.64.8-2.54 1a3.97 3.97 0 0 0-4.8-.82c-.78.42-1.4 1.1-1.77 1.92a4.2 4.2 0 0 0-.24 2.63 11.14 11.14 0 0 1-8.25-4.28A4.17 4.17 0 0 0 3.1 6.73a3.91 3.91 0 0 1-1.81-.51v.05c0 .95.32 1.86.9 2.6.59.73 1.4 1.23 2.3 1.42-.58.16-1.2.19-1.8.07a4.1 4.1 0 0 0 1.42 2.04c.67.5 1.48.8 2.32.8A7.96 7.96 0 0 1 .5 14.9a11.11 11.11 0 0 0 6.13 1.85c7.35 0 11.38-6.25 11.38-11.67 0-.17 0-.35-.02-.53a8.24 8.24 0 0 0 2-2.12Z" fill="#F9FBFD"/></svg>