<svg width="215" height="55" viewBox="0 0 215 55" fill="none" xmlns="http://www.w3.org/2000/svg">
<path d="M78.96 23.32c0-.31-.03-.6-.09-.86-.05-.26-.17-.5-.36-.72a3.24 3.24 0 0 0-.8-.66 9.21 9.21 0 0 0-1.34-.68 31.8 31.8 0 0 1-1.91-.88 9 9 0 0 1-1.68-1.1c-.5-.42-.89-.9-1.18-1.47a4.42 4.42 0 0 1-.43-2 4.44 4.44 0 0 1 1.57-3.6c.51-.44 1.1-.78 1.78-1.01a6.96 6.96 0 0 1 2.28-.36c1.14 0 2.12.24 2.95.71a4.95 4.95 0 0 1 1.94 1.94c.47.82.7 1.77.7 2.83h-3.56c0-.5-.08-.94-.22-1.33-.14-.39-.37-.7-.68-.91-.3-.22-.7-.33-1.2-.33-.45 0-.83.1-1.13.28-.29.18-.51.43-.66.74-.13.31-.2.66-.2 1.05 0 .3.07.56.2.8.15.22.35.43.6.62.25.18.55.35.9.52.34.17.73.34 1.14.5.8.32 1.52.67 2.14 1.05.62.38 1.13.8 1.55 1.27.41.47.73 1 .94 1.58a5.87 5.87 0 0 1-.08 4.03c-.25.6-.62 1.12-1.1 1.56-.5.43-1.09.76-1.78 1a7.8 7.8 0 0 1-4.63.01 5 5 0 0 1-3.25-2.88 6.63 6.63 0 0 1-.47-2.62h3.58c0 .53.05 1 .16 1.38.1.37.27.67.49.9.22.22.49.39.8.5.33.1.7.16 1.11.16.48 0 .85-.1 1.13-.27.28-.18.48-.42.6-.72.13-.3.19-.64.19-1.03Zm9.25-5.8V28h-3.43V14.8h3.23l.2 2.73Zm-.49 3.42-.94.03c-.01-.93.07-1.78.25-2.56.18-.79.45-1.47.8-2.04.37-.58.83-1.03 1.38-1.35a3.83 3.83 0 0 1 3.28-.2c.4.17.76.44 1.06.81.3.37.53.85.7 1.44.16.6.24 1.3.24 2.12V28h-3.42v-8.4c0-.58-.06-1.03-.17-1.34a1.18 1.18 0 0 0-.49-.66c-.21-.13-.47-.2-.78-.2-.33 0-.61.1-.86.27-.24.18-.44.43-.6.76-.14.32-.25.7-.34 1.12-.07.43-.1.9-.1 1.4Zm6.44-.34-1.24.16c-.01-.87.07-1.68.24-2.43.17-.75.43-1.41.79-1.98.36-.57.8-1 1.34-1.33a3.7 3.7 0 0 1 1.9-.47c.53 0 1.02.09 1.46.27.44.18.81.46 1.12.86.32.4.56.91.72 1.55.17.65.26 1.43.26 2.35V28h-3.43v-8.41c0-.6-.06-1.05-.17-1.37-.12-.32-.28-.53-.49-.64a1.58 1.58 0 0 0-.76-.18c-.29 0-.55.09-.77.25-.2.16-.39.39-.53.68a3.7 3.7 0 0 0-.33 1.02c-.08.38-.11.8-.11 1.25Zm14.99 4.36v-6.1c0-.4-.05-.72-.15-.96a.94.94 0 0 0-.41-.5 1.2 1.2 0 0 0-.66-.18c-.3 0-.54.06-.74.18-.19.13-.34.3-.44.53-.08.23-.13.5-.13.82h-3.43a3.99 3.99 0 0 1 1.3-2.96c.43-.39.94-.7 1.53-.91.6-.22 1.26-.33 2-.33.88 0 1.67.15 2.35.45.68.3 1.22.76 1.62 1.4.4.65.6 1.48.6 2.5v5.89c0 .74.04 1.34.11 1.8.08.47.2.87.35 1.2V28h-3.44a5.69 5.69 0 0 1-.35-1.37c-.08-.55-.11-1.1-.11-1.67Zm.41-5.03.02 2.05h-1.26c-.33 0-.61.05-.86.16a1.85 1.85 0 0 0-.96 1.11 2.88 2.88 0 0 0 .02 1.61 1.04 1.04 0 0 0 1.04.67c.38 0 .7-.07.98-.23.27-.15.48-.34.6-.56.15-.22.2-.42.14-.61l.78 1.33a5.96 5.96 0 0 1-1.02 1.84c-.25.28-.57.5-.94.69a3.93 3.93 0 0 1-3.25-.23 3.62 3.62 0 0 1-1.4-1.37 4.9 4.9 0 0 1-.18-3.9c.23-.54.55-1 .98-1.37.43-.39.98-.68 1.64-.88a7.9 7.9 0 0 1 2.32-.3h1.35Zm8.97-2.2V28h-3.41V14.8h3.22l.2 2.93Zm3.12-3.04-.05 3.41a2.35 2.35 0 0 0-2.1.09c-.27.1-.5.28-.67.52-.17.23-.3.51-.4.85-.08.35-.14.73-.15 1.16l-.65-.24c0-.86.07-1.65.2-2.37.14-.72.34-1.35.6-1.88.28-.53.6-.95.97-1.24.38-.3.82-.44 1.3-.44.16 0 .33.01.5.05.2.02.34.05.45.1Zm8.12.1v2.58h-6.74v-2.58h6.74Zm-5.2-3.26h3.41v12.44c0 .37.04.65.11.84.08.2.19.34.33.42.16.07.36.1.61.1.17 0 .33 0 .48-.02.15-.02.26-.04.33-.07v2.67a4.75 4.75 0 0 1-1.9.33c-.69 0-1.28-.13-1.79-.39-.5-.26-.88-.67-1.16-1.24a5.28 5.28 0 0 1-.41-2.27v-12.8ZM142.25 28h-3.14l.03-2.95h3.11a3.7 3.7 0 0 0 2.01-.47c.49-.3.82-.8 1.02-1.46.2-.67.3-1.55.3-2.63v-2.77c0-.82-.05-1.52-.16-2.09a3.42 3.42 0 0 0-.53-1.39 2.23 2.23 0 0 0-1.01-.8 4.22 4.22 0 0 0-1.58-.25h-3.25v-2.96h3.25a7.5 7.5 0 0 1 2.8.5c.83.33 1.55.82 2.16 1.46.6.64 1.06 1.42 1.39 2.36.32.93.49 2 .49 3.2v2.74c0 1.2-.17 2.27-.5 3.2a6.6 6.6 0 0 1-1.38 2.36 5.85 5.85 0 0 1-2.16 1.45c-.85.33-1.8.5-2.85.5Zm-1.06-17.77V28h-3.58V10.23h3.58Zm15.71 18.01c-.9 0-1.7-.13-2.4-.41a4.75 4.75 0 0 1-2.86-3.11 8.02 8.02 0 0 1-.38-2.57v-1.08c0-1.08.12-2.02.37-2.82.24-.82.59-1.5 1.03-2.05.45-.56 1-.97 1.65-1.24.66-.27 1.4-.41 2.24-.41.83 0 1.55.14 2.18.41.63.27 1.16.68 1.57 1.22.42.54.73 1.2.95 2 .2.8.31 1.73.31 2.79v1.56h-8.85v-2.4h5.5v-.3c0-.55-.06-1-.17-1.35-.12-.37-.3-.64-.54-.82a1.62 1.62 0 0 0-.98-.27c-.34 0-.63.07-.86.21-.24.14-.43.35-.57.65-.14.29-.24.67-.3 1.14-.07.47-.1 1.03-.1 1.68v1.08c0 .61.05 1.13.16 1.54.1.4.26.74.46 1 .21.25.47.44.77.55a3.98 3.98 0 0 0 2.67-.16c.5-.22.9-.51 1.25-.89l1.37 2.08a5.34 5.34 0 0 1-2.47 1.68c-.58.2-1.24.3-2 .3Zm10.36-2.88 2.13-10.57h3.56L169.32 28h-2.14l.07-2.64ZM166 14.8l2.16 10.59.03 2.62h-2.15l-3.62-13.2H166Zm12.18 0V28h-3.43V14.8h3.43Zm-3.59-3.42c0-.52.17-.96.5-1.3.34-.35.8-.53 1.37-.53.57 0 1.03.18 1.36.53.34.34.5.78.5 1.3s-.17.96-.5 1.31c-.34.34-.79.51-1.35.51-.58 0-1.04-.17-1.38-.51-.33-.35-.5-.79-.5-1.3Zm11.07 14.03c.32 0 .6-.07.82-.2.24-.13.42-.34.54-.63.12-.3.18-.67.2-1.14h3.2c0 1-.2 1.86-.63 2.58a4.34 4.34 0 0 1-1.69 1.66 5.82 5.82 0 0 1-4.7.15c-.66-.29-1.2-.7-1.63-1.25a5.73 5.73 0 0 1-.97-1.99c-.2-.79-.31-1.7-.31-2.7v-.97c0-1 .1-1.9.31-2.69.22-.79.54-1.45.97-2 .43-.54.97-.96 1.62-1.24a5.81 5.81 0 0 1 2.32-.43c.95 0 1.78.2 2.48.6.7.39 1.24.96 1.63 1.73.4.76.6 1.7.6 2.83h-3.2c-.02-.5-.08-.92-.2-1.26-.1-.34-.26-.6-.5-.78a1.3 1.3 0 0 0-.87-.28c-.38 0-.7.08-.93.25-.23.15-.4.38-.52.68-.12.3-.2.66-.23 1.1-.05.44-.07.93-.07 1.49v.96c0 .6.02 1.11.05 1.55.04.43.12.8.24 1.1.12.3.3.51.52.66.23.15.55.22.95.22Zm12.05 2.84c-.9 0-1.7-.13-2.4-.41a4.76 4.76 0 0 1-2.86-3.11 8 8 0 0 1-.38-2.57v-1.08c0-1.08.12-2.02.37-2.82.24-.82.59-1.5 1.03-2.05.45-.56 1-.97 1.65-1.24.66-.27 1.4-.41 2.24-.41.83 0 1.55.14 2.18.41.64.27 1.16.68 1.58 1.22.41.54.72 1.2.94 2 .2.8.31 1.73.31 2.79v1.56h-8.85v-2.4h5.5v-.3c0-.55-.06-1-.18-1.35-.1-.37-.29-.64-.53-.82a1.62 1.62 0 0 0-.98-.27c-.34 0-.63.07-.87.21-.23.14-.42.35-.56.65-.14.29-.24.67-.3 1.14-.07.47-.1 1.03-.1 1.68v1.08c0 .61.05 1.13.16 1.54.1.4.26.74.46 1 .22.25.47.44.77.55a3.98 3.98 0 0 0 2.67-.16c.5-.22.9-.51 1.25-.89l1.37 2.08a5.32 5.32 0 0 1-2.47 1.68c-.58.2-1.24.3-2 .3Z" fill="#F2F5F7"/>
<path d="m72.57 45.3 1.72-5.64h1.51l-2.54 7.3-.23.52c-.1.18-.22.35-.37.52-.15.17-.33.3-.56.4-.22.1-.49.16-.8.16a5.79 5.79 0 0 1-.69-.1v-1.08a5.13 5.13 0 0 0 .27.02c.24 0 .43-.03.6-.09a.81.81 0 0 0 .37-.27c.1-.12.19-.29.26-.5l.46-1.23Zm-.98-5.64 1.51 4.75.25 1.48-.98.26-2.3-6.49h1.52Zm8.79 4.63 1.88-4.63h1.23L80.86 46h-.96l-2.63-6.34h1.23l1.88 4.63Zm-2.25-4.63V46h-1.4v-6.34h1.4Zm4.5 6.34v-6.34h1.4V46h-1.4Zm7.32-3.7v1.12h-3.28v-1.11h3.28Zm-2.87-2.64V46h-1.41v-6.34h1.41Zm3.9 0V46h-1.42v-6.34h1.41Zm2.55 2.02h1.86c.55 0 1.02.09 1.4.27a2 2 0 0 1 1.18 1.88c0 .31-.06.6-.17.86-.12.27-.28.5-.5.69-.23.2-.5.35-.82.46-.31.1-.68.16-1.09.16h-2.8v-6.34H94v5.22h1.38c.29 0 .51-.05.68-.15.17-.1.29-.22.36-.38a1.15 1.15 0 0 0 0-1 .9.9 0 0 0-.36-.4 1.3 1.3 0 0 0-.68-.15h-1.86v-1.12Zm6.93-2.02V46h-1.4v-6.34h1.4Zm4.47 6.46c-.47 0-.9-.08-1.27-.23a2.81 2.81 0 0 1-1.57-1.63 3.42 3.42 0 0 1-.2-1.21v-.24c0-.5.06-.94.2-1.35.15-.4.35-.74.61-1.03.26-.29.56-.5.91-.66.36-.15.74-.23 1.15-.23.45 0 .85.08 1.19.23.34.15.62.37.84.65.23.27.4.6.5.97.12.38.17.8.17 1.26v.6h-4.9v-1.01h3.51v-.11c0-.26-.06-.5-.15-.72-.1-.22-.23-.4-.42-.54-.19-.13-.44-.2-.75-.2a1.24 1.24 0 0 0-1.08.58c-.12.19-.21.41-.28.68-.06.26-.1.55-.1.88v.24c0 .27.05.53.12.77.08.23.2.44.34.62.15.17.33.31.54.41a1.96 1.96 0 0 0 2.32-.64l.74.72a2.66 2.66 0 0 1-1.34 1.01 3.2 3.2 0 0 1-1.08.18Zm9.57-6.46V46h-1.42v-6.34h1.42Zm2.08 0v1.11h-5.55v-1.11h5.55Zm3.3 6.46c-.47 0-.9-.08-1.27-.23a2.81 2.81 0 0 1-1.56-1.63 3.42 3.42 0 0 1-.22-1.21v-.24c0-.5.08-.94.22-1.35.14-.4.35-.74.6-1.03.26-.29.57-.5.92-.66.35-.15.73-.23 1.14-.23.45 0 .85.08 1.19.23.34.15.62.37.84.65.23.27.4.6.5.97.12.38.18.8.18 1.26v.6h-4.9v-1.01h3.5v-.11c0-.26-.05-.5-.15-.72-.09-.22-.23-.4-.42-.54-.18-.13-.43-.2-.75-.2a1.24 1.24 0 0 0-1.08.58c-.11.19-.2.41-.27.68-.07.26-.1.55-.1.88v.24c0 .27.04.53.11.77.08.23.2.44.34.62.15.17.33.31.54.41a1.96 1.96 0 0 0 2.32-.64l.75.72a2.66 2.66 0 0 1-1.34 1.01 3.2 3.2 0 0 1-1.09.18Zm4.72-6.46 1.2 2.1 1.23-2.1h1.56l-1.92 3.11 2 3.23h-1.56l-1.29-2.2-1.29 2.2h-1.56l2-3.23-1.92-3.11h1.55Zm9.28 2.65v1.11h-3.28v-1.11h3.28Zm-2.87-2.65V46h-1.4v-6.34h1.4Zm3.9 0V46h-1.42v-6.34h1.41Zm1.23 3.24v-.13c0-.46.07-.89.2-1.28s.32-.73.57-1.02c.26-.3.57-.52.93-.68.37-.16.78-.25 1.24-.25.47 0 .88.09 1.24.25.37.16.68.39.94.68.25.29.44.63.58 1.02.13.4.2.82.2 1.28v.13c0 .46-.07.88-.2 1.27a2.7 2.7 0 0 1-2.74 1.95 3.1 3.1 0 0 1-1.25-.24c-.37-.17-.68-.4-.93-.68-.25-.3-.45-.64-.58-1.03-.13-.39-.2-.81-.2-1.27Zm1.41-.13v.13c0 .29.03.56.1.8.05.26.14.49.27.68.12.19.28.34.48.45.2.1.42.16.7.16a1.35 1.35 0 0 0 1.15-.61c.13-.2.22-.42.28-.67.06-.25.1-.52.1-.81v-.13c0-.29-.04-.55-.1-.8a2.03 2.03 0 0 0-.28-.68 1.35 1.35 0 0 0-1.17-.62c-.26 0-.5.05-.69.17-.2.1-.35.26-.47.45-.13.2-.22.42-.28.68-.06.25-.09.51-.09.8Zm9.83-3.11v1.13h-3.09v-1.13h3.1Zm1.11 0V46h-1.41v-6.34h1.41Zm-4.55 0h1.4l-.17 3.13c-.02.47-.07.88-.14 1.24a4.1 4.1 0 0 1-.27.9c-.11.25-.25.46-.42.61-.16.16-.35.27-.57.35a2.3 2.3 0 0 1-.74.11h-.44v-1.16l.22-.02a.87.87 0 0 0 .37-.1c.1-.08.2-.17.27-.29.08-.12.14-.28.2-.47a12.96 12.96 0 0 0 .19-1.6l.1-2.7Zm5.78 3.24v-.13c0-.46.07-.89.2-1.28.14-.39.33-.73.58-1.02.25-.3.56-.52.92-.68.37-.16.78-.25 1.24-.25.47 0 .88.09 1.25.25.36.16.67.39.93.68.25.29.44.63.58 1.02.13.4.2.82.2 1.28v.13c0 .46-.07.88-.2 1.27a2.7 2.7 0 0 1-2.74 1.95 3.1 3.1 0 0 1-1.25-.24c-.37-.17-.67-.4-.93-.68-.25-.3-.44-.64-.58-1.03-.13-.39-.2-.81-.2-1.27Zm1.41-.13v.13c0 .29.03.56.1.8.05.26.14.49.27.68.12.19.28.34.48.45.2.1.43.16.7.16a1.34 1.34 0 0 0 1.16-.61c.12-.2.21-.42.27-.67.06-.25.1-.52.1-.81v-.13c0-.29-.04-.55-.1-.8a2.03 2.03 0 0 0-.28-.68 1.35 1.35 0 0 0-1.17-.62c-.26 0-.5.05-.69.17-.19.1-.35.26-.47.45-.13.2-.22.42-.28.68-.06.25-.09.51-.09.8Zm9.89-3.11v1.13h-2.77V46h-1.4v-6.34h4.17Zm2.28 4.28 2.49-4.28h1.41V46h-1.41v-4.28l-2.5 4.28h-1.4v-6.34h1.4v4.28Zm6.85 0 2.5-4.28h1.4V46h-1.4v-4.28l-2.5 4.28h-1.4v-6.34h1.4v4.28Z" fill="#fff" fill-opacity=".7"/>
<path d="M33.92 14.67c1.19 0 2.2.77 2.58 1.83H46a2.75 2.75 0 1 1 0 1.83h-9.5a2.75 2.75 0 1 1-2.58-3.66Zm14.66 3.66a.92.92 0 1 0 0-1.83.92.92 0 0 0 0 1.83Zm-14.66 0a.92.92 0 1 0 0-1.83.92.92 0 0 0 0 1.83Z" fill="#00B2FF"/><path d="M26.58 20.34v-5.67c0-.25.1-.48.27-.65l3.67-3.67c.17-.17.4-.27.65-.27h2.92a2.75 2.75 0 1 1 0 1.84h-2.54l-3.13 3.13v5.29a2.75 2.75 0 1 1-1.84 0Zm10.09-8.42a.92.92 0 1 0 0-1.84.92.92 0 0 0 0 1.84ZM27.5 23.83a.92.92 0 1 0 0-1.83.92.92 0 0 0 0 1.83ZM10.08 23.83c.43 0 .82.1 1.18.28l1.57-1.57v-8.79c0-.24.1-.48.27-.65l9.18-9.17a2.75 2.75 0 1 1 2.47 1.57c-.42 0-.82-.1-1.18-.28l-8.9 8.9v8.8c0 .24-.1.47-.27.64l-1.84 1.85a2.75 2.75 0 1 1-2.47-1.57ZM24.75 3.67a.92.92 0 1 0 0-1.84.92.92 0 0 0 0 1.84ZM10.08 27.5a.92.92 0 1 0 0-1.84.92.92 0 0 0 0 1.84ZM1.83 13V9.17c0-.25.1-.48.27-.65L8.52 2.1c.17-.17.4-.27.65-.27h4.75a2.75 2.75 0 1 1 0 1.84H9.55L3.67 9.55V13a2.75 2.75 0 1 1-1.84 0ZM16.5 3.67a.92.92 0 1 0 0-1.84.92.92 0 0 0 0 1.84ZM2.75 16.5a.92.92 0 1 0 0-1.84.92.92 0 0 0 0 1.84ZM14.67 49.67V36.5a2.75 2.75 0 1 1 3.5-3.5h9.5a2.75 2.75 0 0 1 2.58-1.83c1.2 0 2.2.77 2.58 1.83h5.3l3.4-3.4A2.75 2.75 0 1 1 44 31.16c-.42 0-.82-.1-1.18-.28l-3.67 3.67a.91.91 0 0 1-.65.27h-5.67a2.75 2.75 0 0 1-2.58 1.84c-1.2 0-2.2-.77-2.58-1.84h-9.5a2.75 2.75 0 0 1-1.67 1.67v13.17a2.75 2.75 0 1 1-1.83 0ZM44 29.33a.92.92 0 1 0 0-1.83.92.92 0 0 0 0 1.83Zm-13.75 5.5a.92.92 0 1 0 0-1.83.92.92 0 0 0 0 1.83ZM15.58 53.17a.92.92 0 1 0 0-1.84.92.92 0 0 0 0 1.84Zm0-18.34a.92.92 0 1 0 0-1.83.92.92 0 0 0 0 1.83Z" fill="#00B2FF"/><path d="M19.25 18.5v-2.92c0-.24.1-.47.27-.64l11-11.01A2.75 2.75 0 0 1 33 0c1.2 0 2.21.77 2.6 1.83h3.83c.5 0 .91.41.91.92v2.37l3.4 3.4A2.75 2.75 0 1 1 42.17 11c0-.41.11-.81.28-1.17l-3.67-3.67a.91.91 0 0 1-.27-.65V3.67h-2.92a2.75 2.75 0 0 1-3.76 1.55L21.08 15.96v2.54a2.75 2.75 0 1 1-1.83 0Zm25.67-6.58a.92.92 0 1 0 0-1.84.92.92 0 0 0 0 1.84ZM33 3.67a.92.92 0 1 0 0-1.84.92.92 0 0 0 0 1.84ZM20.17 22a.92.92 0 1 0 0-1.84.92.92 0 0 0 0 1.84Z" fill="#00B2FF"/><path d="M22 25.67c1.2 0 2.2.77 2.58 1.83h10.8l5.22-5.23c.17-.17.4-.27.65-.27h9.7l2.22-2.21v-7.5l-7.08-7.07a2.75 2.75 0 1 1 1.57-2.47c0 .42-.1.82-.27 1.18l7.34 7.34c.17.17.27.4.27.65v8.25c0 .24-.1.47-.27.64l-2.75 2.75a.91.91 0 0 1-.65.27h-9.7l-5.23 5.23a.91.91 0 0 1-.65.27H24.58A2.75 2.75 0 1 1 22 25.67ZM44.92 1.83a.92.92 0 1 0 0 1.84.92.92 0 0 0 0-1.84ZM22 29.33a.92.92 0 1 0 0-1.83.92.92 0 0 0 0 1.83ZM2.75 22c.42 0 .82.1 1.18.28l3.4-3.41v-5.29a2.75 2.75 0 1 1 1.84 0v5.67c0 .24-.1.48-.27.65l-3.68 3.67a2.7 2.7 0 0 1-1.55 3.76v.7l7.06 7.07c.17.17.27.4.27.65v1.08a2.75 2.75 0 0 1 1.83 2.59c0 1.19-.77 2.2-1.83 2.58v2.17a2.75 2.75 0 1 1-1.83 0V42a2.75 2.75 0 0 1-1.84-2.58c0-1.2.77-2.2 1.84-2.59v-.7L2.1 29.06a.91.91 0 0 1-.27-.64v-1.09A2.75 2.75 0 0 1 2.75 22Zm5.5-10.08a.92.92 0 1 0 0-1.84.92.92 0 0 0 0 1.84Zm1.83 35.75a.92.92 0 1 0 0-1.84.92.92 0 0 0 0 1.84Zm0-7.34a.92.92 0 1 0 0-1.83.92.92 0 0 0 0 1.83ZM2.75 25.67a.92.92 0 1 0 0-1.84.92.92 0 0 0 0 1.84Z" fill="#00B2FF"/></svg>
