<svg width="30" height="30" viewBox="0 0 30 30" xmlns="http://www.w3.org/2000/svg"><path d="M15.17 12.64a2.03 2.03 0 0 0 .02-4.05 2.03 2.03 0 0 0-.02 4.05Z"/><path d="M15 0a15 15 0 1 0 0 30 15 15 0 0 0 0-30Zm.21 5.68a4.93 4.93 0 1 1-.04 9.86 4.93 4.93 0 0 1 .04-9.86Zm5.51 11.57-.02.1a1.4 1.4 0 0 1-.64 1.01 9.66 9.66 0 0 1-2.79 1.18c-.08.02-.08.02-.02.09l1.18 1.18 1.5 1.5c.7.7.51 1.88-.39 2.31-.15.09-.32.1-.49.15h-.28c-.02 0-.04 0-.04-.02a1.58 1.58 0 0 1-.88-.45l-2.6-2.6c-.06-.06-.06-.06-.12 0l-2.62 2.62c-.15.15-.3.26-.49.34-.13.07-.28.09-.4.11h-.28l-.11-.02c-.58-.1-.97-.43-1.14-.99a1.37 1.37 0 0 1 .37-1.45l1.07-1.07 1.58-1.59c.07-.06.07-.06-.02-.09l-.08-.02a9.26 9.26 0 0 1-2.68-1.13c-.5-.32-.73-.8-.67-1.37a1.44 1.44 0 0 1 2.21-1.08 6.1 6.1 0 0 0 5.25.62c.52-.17.97-.4 1.44-.66a1.45 1.45 0 0 1 2.16 1.12v.21Z"/></svg>
