<svg width="15" height="15" viewBox="0 0 15 15" fill="none" xmlns="http://www.w3.org/2000/svg">
<path d="M8.85101 0.555664C8.40563 0.555664 7.9877 0.781596 7.71963 1.10741C7.45156 1.43323 7.30381 1.8304 7.19616 2.24897C7.02518 2.92201 6.97241 3.66877 6.95975 4.34181C5.70806 4.42505 4.57457 4.79606 3.63316 5.36921C3.2511 5.04815 2.79095 4.86978 2.3498 4.87454C1.84743 4.87929 1.3704 5.09571 1.01579 5.54044C0.338225 6.38947 0.416324 7.77836 1.20154 8.60361C1.15299 8.85808 1.1171 9.11969 1.1171 9.38367C1.1171 12.1805 3.9751 14.4446 7.50011 14.4446C11.0251 14.4446 13.8831 12.1781 13.8831 9.38367C13.8831 9.11969 13.8472 8.85808 13.7987 8.60361C14.5839 7.77836 14.662 6.38947 13.9844 5.54044C13.6298 5.09571 13.1528 4.87929 12.6504 4.87454C12.2093 4.86978 11.7491 5.04815 11.3671 5.36921C10.4299 4.79843 9.30272 4.42743 8.05736 4.34181C8.07424 3.72109 8.11857 3.07659 8.2431 2.59143C8.3212 2.28702 8.41408 2.06584 8.51328 1.94455C8.61249 1.82326 8.68426 1.77332 8.85101 1.77332C9.21195 1.77332 9.25839 1.88985 9.4758 2.17286C9.58556 2.31556 9.71221 2.49393 9.91484 2.66754C10.1175 2.84115 10.4172 2.99098 10.7423 2.99098V1.77332C10.6515 1.77332 10.6346 1.77094 10.5734 1.71624C10.5122 1.66154 10.4278 1.5355 10.3032 1.37378C10.0542 1.04796 9.57079 0.555664 8.85101 0.555664ZM12.3634 0.669819C11.5233 0.669819 10.8436 1.43561 10.8436 2.38215C10.8436 3.32869 11.5233 4.09448 12.3634 4.09448C13.2034 4.09448 13.8831 3.32869 13.8831 2.38215C13.8831 1.43561 13.2034 0.669819 12.3634 0.669819ZM12.3634 1.27865C12.9037 1.27865 13.3428 1.77332 13.3428 2.38215C13.3428 2.99098 12.9037 3.48565 12.3634 3.48565C11.823 3.48565 11.3839 2.99098 11.3839 2.38215C11.3839 1.77332 11.823 1.27865 12.3634 1.27865ZM7.50011 5.29311C10.4911 5.29311 13.0219 7.16953 13.0219 9.38367C13.0219 11.6002 10.4911 13.4742 7.50011 13.4742C4.50913 13.4742 1.9783 11.6002 1.9783 9.38367C1.9783 7.16953 4.50913 5.29311 7.50011 5.29311ZM2.36669 5.84486C2.51655 5.84724 2.67275 5.88529 2.82262 5.95901C2.28015 6.42277 1.84955 6.95549 1.55615 7.55719C1.35351 7.0863 1.40839 6.49887 1.65746 6.18732C1.83899 5.95901 2.09017 5.84248 2.36669 5.84486ZM12.6335 5.84486C12.91 5.84248 13.1612 5.95901 13.3428 6.18732C13.5918 6.49887 13.6467 7.0863 13.4441 7.55719C13.1507 6.95549 12.7201 6.42277 12.1776 5.95901C12.3275 5.88529 12.4837 5.84724 12.6335 5.84486ZM5.33867 7.36693C4.79831 7.36693 4.35927 7.8616 4.35927 8.47043C4.35927 9.07926 4.79831 9.57393 5.33867 9.57393C5.87903 9.57393 6.31807 9.07926 6.31807 8.47043C6.31807 7.8616 5.87903 7.36693 5.33867 7.36693ZM9.66155 7.36693C9.12119 7.36693 8.68215 7.8616 8.68215 8.47043C8.68215 9.07926 9.12119 9.57393 9.66155 9.57393C10.2019 9.57393 10.641 9.07926 10.641 8.47043C10.641 7.8616 10.2019 7.36693 9.66155 7.36693ZM4.81519 11.115C5.15925 11.9165 6.22309 12.6942 7.50011 12.6942C8.77713 12.6942 9.85785 11.9165 10.2019 11.115C9.57712 11.5693 8.59138 11.8761 7.50011 11.8761C6.40883 11.8761 5.43999 11.5693 4.81519 11.115Z" fill="#030A1A"/>
</svg>
