<svg width="30" height="30" viewBox="0 0 30 30" xmlns="http://www.w3.org/2000/svg">
<path d="M9.48652 7.35921C9.37754 7.2502 9.22637 7.1875 9.07227 7.1875C8.91816 7.1875 8.76699 7.2502 8.65801 7.35921C8.54908 7.46821 8.48633 7.6194 8.48633 7.77353C8.48633 7.92765 8.54902 8.07885 8.65801 8.18785C8.76699 8.29691 8.91816 8.35955 9.07227 8.35955C9.22637 8.35955 9.37754 8.29685 9.48652 8.18785C9.59545 8.07885 9.6582 7.92765 9.6582 7.77353C9.6582 7.6194 9.59551 7.46821 9.48652 7.35921Z"/>
<path d="M29.8286 2.45028L29.1041 1.72484L29.8284 1.00045C30.0572 0.771606 30.0572 0.400534 29.8284 0.171632C29.5995 -0.0572108 29.2286 -0.0572108 28.9997 0.171632L28.2758 0.89555L27.562 0.180716C27.4521 0.0707773 27.3032 0.00889294 27.1478 0.00883434L17.2305 0.0033257C17.23 0.0033257 17.2294 0.0033257 17.2289 0.0033257C16.4458 0.0033257 15.7096 0.308294 15.1558 0.862147L10.207 5.81172C9.97816 6.04056 9.97816 6.41164 10.207 6.64054C10.4358 6.86938 10.8067 6.86938 11.0357 6.64054L15.9845 1.69096C16.317 1.35845 16.7588 1.17544 17.2289 1.17544C17.2293 1.17544 17.2296 1.17544 17.2299 1.17544L26.9044 1.18083L27.4473 1.72443L25.2732 3.89882C24.3513 3.34654 23.1359 3.46697 22.3423 4.26057C21.889 4.71404 21.6393 5.31688 21.6393 5.95811C21.6393 6.59934 21.889 7.20219 22.3423 7.65565C22.8103 8.12365 23.425 8.35765 24.0397 8.35765C24.6543 8.35765 25.269 8.12365 25.737 7.65565C26.5293 6.86317 26.6505 5.64998 26.1012 4.72839L28.2755 2.55371L28.8281 3.10698L28.8227 12.7698C28.8224 13.2395 28.6393 13.6812 28.3072 14.0134L14.0089 28.3137C13.6765 28.6462 13.2346 28.8292 12.7645 28.8292C12.2945 28.8292 11.8525 28.6462 11.5201 28.3137L1.68738 18.4794C1.35492 18.147 1.17188 17.7049 1.17188 17.2348C1.17188 16.7647 1.35492 16.3227 1.68738 15.9902L8.00344 9.67322C8.23225 9.44438 8.23225 9.07331 8.00344 8.84441C7.77457 8.61556 7.40367 8.61556 7.17475 8.84441L0.858691 15.1614C0.30498 15.7152 0 16.4516 0 17.2348C0 18.0181 0.30498 18.7545 0.858691 19.3083L10.6914 29.1425C11.263 29.7141 12.0137 30 12.7645 30C13.5154 30 14.2661 29.7141 14.8376 29.1425L29.1358 14.8421C29.6891 14.2888 29.994 13.5529 29.9945 12.7703L30 2.86471C30.0001 2.7093 29.9384 2.56022 29.8286 2.45028ZM24.9083 6.82678C24.6762 7.05884 24.3677 7.18666 24.0397 7.18666C23.7115 7.18666 23.403 7.05884 23.171 6.82678C22.692 6.34776 22.692 5.56829 23.171 5.08927C23.4105 4.8497 23.725 4.72998 24.0397 4.72998C24.1581 4.72998 24.2766 4.74703 24.3911 4.78102L23.7148 5.45741C23.486 5.68625 23.486 6.05732 23.7148 6.28623C23.8292 6.40068 23.9791 6.45787 24.1291 6.45787C24.279 6.45787 24.429 6.40068 24.5434 6.28623L25.2178 5.61171C25.3396 6.0289 25.2366 6.49843 24.9083 6.82678Z" />
<path d="M25.0324 11.7988L18.2039 4.96926C17.2994 4.06455 15.8274 4.06467 14.923 4.96926L4.11707 15.7769C3.67885 16.2151 3.4375 16.7978 3.4375 17.4176C3.4375 18.0373 3.67879 18.6201 4.11701 19.0583L10.9455 25.8877C11.3837 26.326 11.9663 26.5674 12.586 26.5674C13.2057 26.5674 13.7883 26.3261 14.2264 25.8878L25.0324 15.0802C25.4706 14.6419 25.7119 14.0593 25.7119 13.4395C25.7119 12.8197 25.4706 12.237 25.0324 11.7988ZM24.2037 14.2514L13.3978 25.0591C13.181 25.2759 12.8927 25.3954 12.586 25.3954C12.2794 25.3954 11.9911 25.2759 11.7743 25.059L4.9457 18.2296C4.72885 18.0127 4.60943 17.7243 4.60943 17.4176C4.60938 17.1109 4.72885 16.8225 4.9457 16.6057L15.7517 5.79807C15.9755 5.57421 16.2695 5.46228 16.5635 5.46228C16.8575 5.46228 17.1515 5.57427 17.3753 5.79807L24.2037 12.6276C24.4206 12.8444 24.54 13.1328 24.54 13.4395C24.54 13.7462 24.4206 14.0346 24.2037 14.2514Z" />
<path d="M19.1097 11.7231C19.3385 11.4943 19.3385 11.1232 19.1097 10.8943C18.8808 10.6654 18.5099 10.6654 18.281 10.8943L17.9436 11.2317C17.0428 10.6752 15.8868 10.7499 15.1561 11.4806C14.7301 11.9067 14.5121 12.4853 14.5423 13.1099C14.5716 13.713 14.8313 14.2888 15.2735 14.7311C15.2735 14.7311 15.2736 14.7311 15.2736 14.7312C15.7448 15.2028 15.7975 15.9172 15.3908 16.3239C14.984 16.7307 14.2695 16.678 13.7981 16.2066C13.3266 15.735 13.274 15.0204 13.6807 14.6136C13.9095 14.3848 13.9095 14.0137 13.6807 13.7848C13.4518 13.556 13.0809 13.556 12.852 13.7848C12.1214 14.5156 12.0467 15.6717 12.6032 16.5728L12.2029 16.9731C11.974 17.2019 11.974 17.573 12.2029 17.8019C12.3176 17.9165 12.4675 17.9737 12.6175 17.9737C12.7675 17.9737 12.9173 17.9164 13.0318 17.802L13.4323 17.4014C13.826 17.6445 14.2681 17.7677 14.7024 17.7677C15.2619 17.7677 15.8082 17.5641 16.2196 17.1528C17.083 16.2891 17.0305 14.8314 16.1027 13.9028C16.1025 13.9027 16.1024 13.9025 16.1022 13.9023C15.8663 13.6664 15.728 13.3649 15.7129 13.0531C15.6989 12.7629 15.7954 12.4988 15.9848 12.3094C16.3915 11.9027 17.1059 11.9553 17.5774 12.4266C17.5774 12.4267 17.5774 12.4267 17.5775 12.4268C17.5775 12.4269 17.5776 12.4269 17.5776 12.4269C18.0489 12.8984 18.1015 13.6129 17.6948 14.0197C17.466 14.2485 17.466 14.6196 17.6948 14.8485C17.8092 14.9629 17.9592 15.0201 18.1091 15.0201C18.259 15.0201 18.409 14.9629 18.5234 14.8485C19.2541 14.1177 19.3288 12.9616 18.7723 12.0605L19.1097 11.7231Z" />
<path d="M13.1797 21.4383L10.1702 18.4284C9.94141 18.1997 9.57051 18.1996 9.34153 18.4284C9.11272 18.6572 9.11272 19.0283 9.34153 19.2572L12.351 22.2671C12.4655 22.3815 12.6154 22.4388 12.7653 22.4388C12.9153 22.4388 13.0652 22.3815 13.1797 22.2671C13.4085 22.0383 13.4085 21.6672 13.1797 21.4383Z" />
<path d="M8.55873 16.8221C8.4498 16.7132 8.29916 16.6504 8.14453 16.6504C7.99043 16.6504 7.83984 16.7131 7.73027 16.8221C7.62129 16.9311 7.55859 17.0823 7.55859 17.237C7.55859 17.3911 7.62123 17.5423 7.73027 17.6513C7.83926 17.7603 7.99043 17.823 8.14453 17.823C8.29922 17.823 8.4498 17.7603 8.55873 17.6513C8.6683 17.5417 8.731 17.3911 8.731 17.237C8.731 17.0823 8.6683 16.9317 8.55873 16.8221Z"/>
</svg>
