<svg xmlns="http://www.w3.org/2000/svg" width="30" height="30" fill="none"><path fill="#00B2FF" d="M15 9.44c-.32 0-.59.31-.59.69 0 .38.27.68.59.68.32 0 .59-.3.59-.68 0-.38-.27-.69-.59-.69Z"/><path fill="#00B2FF" d="M28.24 13.55h-2.28c-1.2-4-2.94-11.05-6.1-13.04-1.58-1-3.08-.3-3.64 1.11-.24.6-.71.92-1.22.92s-.99-.32-1.22-.92c-.54-1.36-2-2.12-3.53-1.25-3.2 1.82-5 9.14-6.21 13.18H1.76c-.97 0-1.76.92-1.76 2.06 0 1.13.79 2.06 1.76 2.06h26.48c.97 0 1.76-.92 1.76-2.06 0-1.13-.79-2.06-1.76-2.06ZM6.1 10.81h6.56c.32 0 .58-.3.58-.68 0-.38-.26-.69-.58-.69H6.5c1.76-5.7 3.41-7.36 4.26-7.84.92-.52 1.67-.08 1.95.6.42 1.08 1.31 1.71 2.28 1.71.97 0 1.86-.63 2.28-1.7.29-.71 1.05-1.1 2.02-.5.85.54 2.5 2.26 4.2 7.73h-6.16c-.32 0-.58.31-.58.69 0 .38.26.68.58.68h6.56l.82 2.74H5.28l.82-2.74Zm22.14 5.49H1.76c-.33 0-.59-.31-.59-.69 0-.38.26-.68.59-.68h26.48c.33 0 .59.3.59.68 0 .38-.26.69-.59.69ZM13.83 20.4H4.45c-.32 0-.58.31-.58.7v2.73c0 3.4 2.36 6.17 5.27 6.17 2.2 0 4.15-1.58 4.93-3.97a1.95 1.95 0 0 1 1.86 0c.78 2.39 2.73 3.97 4.93 3.97 2.9 0 5.27-2.77 5.27-6.17V21.1c0-.38-.26-.68-.58-.68h-9.38c-.32 0-.58.3-.58.68v.69H14.4v-.69c0-.38-.26-.68-.58-.68Zm-4.69 8.23c-2.26 0-4.1-2.15-4.1-4.8v-2.05h8.2v2.05c0 2.65-1.83 4.8-4.1 4.8Zm7.62-6.85h8.2v2.05c0 2.65-1.84 4.8-4.1 4.8-2.28 0-4.1-2.15-4.1-4.8v-2.05Zm-1.17 1.37v.68c0 .22 0 .44.03.66-.41-.09-.83-.09-1.24 0l.03-.66v-.68h1.18Z"/><path fill="#00B2FF" d="M9.14 25.89c-.97 0-1.76-.92-1.76-2.06 0-.38-.26-.68-.58-.68-.33 0-.59.3-.59.68 0 1.9 1.32 3.43 2.93 3.43.32 0 .59-.3.59-.69 0-.37-.27-.68-.59-.68ZM20.86 27.26c1.61 0 2.93-1.54 2.93-3.43 0-.38-.26-.68-.59-.68-.32 0-.58.3-.58.68 0 1.14-.8 2.06-1.76 2.06-.32 0-.59.3-.59.68 0 .38.27.69.59.69Z"/></svg>