<svg xmlns="http://www.w3.org/2000/svg" width="30" height="30" fill="none"><path fill="#00B2FF" d="M26.8 23.9c.32-.44.5-.98.5-1.57V18.8a.59.59 0 0 0-.58-.59H24.1a2.2 2.2 0 0 0-2.2 2.2v1.9c0 .6.2 1.14.52 1.59-.4.06-.79.2-1.14.38a4.99 4.99 0 0 0-3.69-2.2h-.01c.54-.61.88-1.42.88-2.3V15a.59.59 0 0 0-.59-.59h-3.56a2.78 2.78 0 0 0-2.77 2.78v2.6c0 .88.34 1.69.88 2.3h-.01a4.98 4.98 0 0 0-3.69 2.2 3.77 3.77 0 0 0-1.14-.38c.32-.45.51-1 .51-1.58V18.8a.59.59 0 0 0-.59-.59H4.9a2.2 2.2 0 0 0-2.2 2.2v1.9c0 .6.2 1.14.51 1.59A3.83 3.83 0 0 0 0 27.68v1.73c0 .33.26.59.59.59H29.4c.33 0 .59-.26.59-.59v-1.73c0-1.9-1.39-3.48-3.2-3.77ZM3.86 20.43c0-.57.46-1.03 1.03-1.03h2.03v.72c0 .35-.29.63-.64.63H3.86v-.32Zm0 1.5h2.42c.23 0 .44-.05.64-.12v.53a1.53 1.53 0 0 1-3.06 0v-.42Zm1.9 3.1-.37.39-.38-.38h.76Zm2.12 2.03v1.78h-6.7v-1.15c0-1.32.95-2.4 2.21-2.62l1.59 1.59a.59.59 0 0 0 .82 0l1.6-1.59c.27.05.54.14.8.27-.2.54-.32 1.12-.32 1.72ZM15 22.07a2.29 2.29 0 0 1-2.29-2.28V19h3.5c.4 0 .76-.1 1.08-.27v1.05A2.29 2.29 0 0 1 15 22.07Zm1.02 1.17L15 24.27l-1.02-1.03h2.04Zm-3.3-6.05c0-.89.71-1.6 1.6-1.6h2.97v1.18c0 .59-.48 1.07-1.08 1.07h-3.5v-.65Zm8.22 11.64H9.06v-1.17h3.81a.59.59 0 1 0 0-1.18H9.1a3.82 3.82 0 0 1 3.26-3.2l2.23 2.23a.58.58 0 0 0 .82 0l2.23-2.23a3.82 3.82 0 0 1 3.3 3.77v1.78Zm2.14-8.41c0-.57.46-1.03 1.02-1.03h2.04v.72c0 .35-.29.63-.64.63h-2.42v-.32Zm0 1.5h2.42c.23 0 .44-.05.64-.12v.53a1.53 1.53 0 0 1-3.06 0v-.42Zm1.9 3.1-.37.39-.38-.38H25Zm-2.86 3.8v-1.77c0-.6-.11-1.18-.31-1.72.25-.13.52-.22.8-.27l1.59 1.59a.59.59 0 0 0 .82 0l1.59-1.59c1.26.21 2.22 1.3 2.22 2.62v1.15h-6.71ZM17.89 3.83a.59.59 0 0 0-.83 0L14.18 6.7l-1.24-1.24a.59.59 0 1 0-.83.83l1.66 1.66a.59.59 0 0 0 .83 0l3.29-3.3a.59.59 0 0 0 0-.82Z"/><path fill="#00B2FF" d="M17.4.5a.59.59 0 0 0-.48 1.08 4.72 4.72 0 1 1-3.86 0 .59.59 0 1 0-.48-1.06A5.9 5.9 0 0 0 15 11.77 5.9 5.9 0 0 0 17.4.51Z"/><path fill="#00B2FF" d="M15.02 0H15a.59.59 0 0 0 0 1.17h.02a.59.59 0 0 0 0-1.17ZM15.41 26.66a.59.59 0 0 0-.82 0 .59.59 0 0 0 0 .82.6.6 0 0 0 .82 0 .59.59 0 0 0 0-.82Z"/></svg>