<svg xmlns="http://www.w3.org/2000/svg" width="35" height="35" fill="none"><path fill="#00B2FF" d="M31.26 27.9c.38-.53.6-1.16.6-1.85v-4.1c0-.38-.3-.69-.68-.69h-3.06a2.56 2.56 0 0 0-2.56 2.56v2.23c0 .69.22 1.32.6 1.84a4.4 4.4 0 0 0-1.34.45 5.82 5.82 0 0 0-4.3-2.56h-.01a4.02 4.02 0 0 0 1.03-2.7V17.5c0-.38-.31-.68-.69-.68H16.7a3.24 3.24 0 0 0-3.24 3.23v3.03c0 1.04.4 1.98 1.03 2.7h-.02a5.82 5.82 0 0 0-4.3 2.56 4.4 4.4 0 0 0-1.33-.45c.38-.52.6-1.15.6-1.84v-4.1c0-.38-.3-.69-.68-.69H5.7a2.56 2.56 0 0 0-2.56 2.56v2.23c0 .69.22 1.32.6 1.84A4.46 4.46 0 0 0 0 32.3v2.03c0 .37.3.68.68.68h33.64c.37 0 .68-.3.68-.68v-2.03a4.46 4.46 0 0 0-3.74-4.4ZM4.51 23.81c0-.66.53-1.2 1.19-1.2h2.37v.84c0 .4-.33.74-.74.74H4.51v-.38Zm0 1.75h2.82c.26 0 .51-.05.74-.14v.62a1.78 1.78 0 0 1-3.56 0v-.48Zm2.22 3.63-.44.44-.44-.44h.88Zm2.47 2.36v2.07H1.37V32.3a3.1 3.1 0 0 1 2.59-3.05L5.8 31.1a.68.68 0 0 0 .96 0l1.85-1.85c.33.05.64.16.94.31-.24.63-.36 1.3-.36 2.01Zm8.3-5.8a2.67 2.67 0 0 1-2.67-2.68v-.9h4.09c.45 0 .88-.12 1.25-.32v1.22c0 1.47-1.2 2.67-2.67 2.67Zm1.2 1.36-1.2 1.19-1.2-1.2h2.4Zm-3.87-7.07c0-1.03.84-1.87 1.87-1.87h3.47v1.38c0 .7-.56 1.25-1.25 1.25h-4.09v-.76Zm9.6 13.58H10.57v-1.36h4.45a.68.68 0 1 0 0-1.37h-4.4a4.45 4.45 0 0 1 3.8-3.74l2.6 2.6a.68.68 0 0 0 .96 0l2.6-2.6a4.45 4.45 0 0 1 3.85 4.4v2.07Zm2.5-9.8c0-.67.53-1.2 1.2-1.2h2.36v.83c0 .4-.33.74-.74.74h-2.82v-.38Zm0 1.74h2.82c.26 0 .51-.05.74-.14v.62a1.78 1.78 0 0 1-3.56 0v-.48Zm2.22 3.63-.44.44-.44-.44h.88Zm-3.35 4.43v-2.07c0-.7-.12-1.38-.36-2 .3-.16.61-.27.94-.32l1.85 1.85a.68.68 0 0 0 .96 0l1.85-1.85a3.1 3.1 0 0 1 2.6 3.05v1.34H25.8ZM20.87 4.47a.68.68 0 0 0-.97 0l-3.35 3.35-1.45-1.45a.68.68 0 1 0-.97.97l1.93 1.93a.68.68 0 0 0 .97 0l3.84-3.84a.68.68 0 0 0 0-.96Z"/><path fill="#00B2FF" d="M20.3.6a.68.68 0 0 0-.56 1.24 5.51 5.51 0 1 1-4.5.01.68.68 0 1 0-.56-1.24 6.88 6.88 0 0 0 2.82 13.13A6.88 6.88 0 0 0 20.3.59Z"/><path fill="#00B2FF" d="M17.52 0h-.02a.68.68 0 0 0 0 1.37h.02a.68.68 0 0 0 0-1.37ZM17.98 31.1a.69.69 0 0 0-.96 0 .69.69 0 0 0 0 .97.69.69 0 0 0 .96 0 .69.69 0 0 0 0-.97Z"/></svg>