<svg width="120" height="23" viewBox="0 0 120 23" fill="none" xmlns="http://www.w3.org/2000/svg">
<path d="M5.78473 22.8115C4.58873 22.8115 3.55139 22.623 2.67269 22.2459C1.794 21.8689 1.12277 21.2027 0.65902 20.2475C0.219673 19.2923 0 17.9475 0 16.2131V14.9311C0.585796 14.9311 1.1838 14.9311 1.794 14.9311C2.4042 14.9311 3.0022 14.9311 3.588 14.9311V16.5148C3.588 17.5705 3.68563 18.3874 3.8809 18.9656C4.07616 19.5437 4.34465 19.9459 4.68637 20.1721C5.02808 20.3732 5.41861 20.4738 5.85796 20.4738C6.56579 20.4738 7.12718 20.235 7.54212 19.7574C7.98147 19.2546 8.20114 18.3246 8.20114 16.9672C8.20114 15.9617 8.05469 15.2077 7.76179 14.7049C7.46889 14.2022 7.00514 13.8 6.37053 13.4984C5.76032 13.1716 4.96706 12.8071 3.99073 12.4049C3.18526 12.0279 2.48963 11.588 1.90384 11.0852C1.31804 10.5825 0.878693 9.94153 0.585796 9.1623C0.292898 8.38306 0.146449 7.4153 0.146449 6.25902C0.146449 4.85137 0.317306 3.70765 0.65902 2.82787C1.02514 1.92295 1.63535 1.2694 2.48963 0.867213C3.34392 0.439892 4.4911 0.226231 5.93118 0.226231C7.7862 0.226231 9.20187 0.666121 10.1782 1.5459C11.1545 2.40055 11.6427 3.65738 11.6427 5.31639V7.91803C11.0813 7.91803 10.5077 7.91803 9.92191 7.91803C9.36053 7.91803 8.78693 7.91803 8.20114 7.91803V6.37213C8.20114 5.21585 8.01808 4.38634 7.65196 3.88361C7.31024 3.35574 6.74885 3.0918 5.96779 3.0918C5.16232 3.0918 4.57653 3.34317 4.21041 3.8459C3.86869 4.3235 3.69784 5.09016 3.69784 6.1459C3.69784 7.05082 3.86869 7.75465 4.21041 8.25738C4.55212 8.73497 4.99147 9.11202 5.52845 9.38853C6.08983 9.66503 6.66343 9.91639 7.24922 10.1426C8.34759 10.5699 9.23849 11.0098 9.92191 11.4623C10.6053 11.9148 11.1057 12.518 11.423 13.2721C11.7403 14.0262 11.899 15.0945 11.899 16.477C11.899 18.0607 11.6427 19.3175 11.1301 20.2475C10.642 21.1525 9.93412 21.806 9.00661 22.2082C8.10351 22.6104 7.02955 22.8115 5.78473 22.8115Z" fill="white"/>
<path d="M21.1908 23C20.3609 23 19.592 22.9372 18.8842 22.8115C18.1763 22.6858 17.5661 22.4344 17.0536 22.0574C16.541 21.6803 16.1383 21.1148 15.8454 20.3607C15.5525 19.6066 15.406 18.5885 15.406 17.3066V0.263936H18.9208V18.2492C18.9208 18.9279 19.0184 19.4557 19.2137 19.8328C19.4334 20.1847 19.7141 20.4235 20.0558 20.5492C20.3975 20.6749 20.7758 20.7377 21.1908 20.7377C21.6057 20.7377 21.984 20.6749 22.3257 20.5492C22.6674 20.4235 22.9359 20.1847 23.1312 19.8328C23.3509 19.4557 23.4607 18.9279 23.4607 18.2492V0.263936H26.9389V17.2689C26.9389 18.5508 26.7924 19.5814 26.4995 20.3607C26.231 21.1148 25.8405 21.6803 25.3279 22.0574C24.8154 22.4344 24.2052 22.6858 23.4973 22.8115C22.7895 22.9372 22.0206 23 21.1908 23Z" fill="white"/>
<path d="M31.2648 22.5475V0.263936H38.5873C39.9541 0.263936 41.0037 0.578143 41.7359 1.20656C42.4682 1.83497 42.8343 2.76503 42.8343 3.99672V7.95574C42.8343 8.91093 42.7123 9.80328 42.4682 10.6328C42.2485 11.4372 41.8092 12.0907 41.1501 12.5934C40.5155 13.0962 39.588 13.3475 38.3676 13.3475H34.9261V22.5475H31.2648ZM34.9261 11.3115H37.1594C37.8917 11.3115 38.4408 11.0224 38.807 10.4443C39.1731 9.84098 39.3561 8.87322 39.3561 7.54098V5.54262C39.3561 4.3612 39.1975 3.51913 38.8802 3.01639C38.5629 2.51366 38.1235 2.2623 37.5621 2.2623H34.9261V11.3115Z" fill="white"/>
<path d="M46.2987 22.5475V0.263936H56.0376V2.82787H49.96V9.57705H54.9758V12.4049H49.96V20.059H56.0376V22.5475H46.2987Z" fill="white"/>
<path d="M59.3662 22.5475V0.263936H66.835C68.2019 0.263936 69.2515 0.578143 69.9837 1.20656C70.7403 1.83497 71.1187 2.76503 71.1187 3.99672V7.54098C71.1187 8.77268 70.7892 9.77814 70.1301 10.5574C69.4711 11.3115 68.4948 11.7262 67.2012 11.8016C68.031 11.877 68.6168 12.1536 68.9585 12.6311C69.3247 13.1087 69.6542 13.8503 69.9471 14.8557L72.034 22.5475H68.1531L66.4323 15.1197C66.2615 14.4913 66.0662 13.9383 65.8465 13.4607C65.6268 12.9831 65.2729 12.7443 64.7848 12.7443H62.9908V22.5475H59.3662ZM62.9908 10.218H65.3339C66.1882 10.218 66.7862 9.9918 67.1279 9.53934C67.4941 9.08689 67.6771 8.39563 67.6771 7.46557V4.63771C67.6771 3.8082 67.5063 3.20492 67.1646 2.82787C66.8472 2.45082 66.3469 2.2623 65.6635 2.2623H62.9908V10.218Z" fill="white"/>
<path d="M79.8687 22.9623C79.0388 22.9623 78.2578 22.824 77.5255 22.5475C76.7933 22.2962 76.1953 21.7809 75.7315 21.0016C75.2922 20.1973 75.0725 19.0033 75.0725 17.4197V4.97705C75.0725 3.61967 75.3166 2.58907 75.8048 1.88525C76.2929 1.15628 76.9763 0.666121 77.855 0.414755C78.7337 0.138252 79.7467 0 80.8939 0C82.041 0 83.054 0.138252 83.9327 0.414755C84.8114 0.691258 85.4948 1.19399 85.983 1.92295C86.4955 2.62678 86.7518 3.64481 86.7518 4.97705V7.99344H83.3469V4.82623C83.3469 4.07213 83.237 3.50656 83.0174 3.12951C82.8221 2.75246 82.5414 2.50109 82.1753 2.37541C81.8336 2.24973 81.4186 2.18689 80.9305 2.18689C80.4911 2.18689 80.0884 2.24973 79.7223 2.37541C79.3561 2.50109 79.0632 2.75246 78.8436 3.12951C78.6483 3.50656 78.5507 4.07213 78.5507 4.82623V18.2115C78.5507 18.9656 78.6483 19.5311 78.8436 19.9082C79.0632 20.2852 79.3561 20.5366 79.7223 20.6623C80.0884 20.788 80.4911 20.8508 80.9305 20.8508C81.6383 20.8508 82.2119 20.6372 82.6512 20.2098C83.115 19.7574 83.3469 19.0913 83.3469 18.2115V13.6869H81.1868V11.6131H86.7518V22.5475H84.1157L83.9327 20.6623C83.8839 20.7628 83.8228 20.876 83.7496 21.0016C83.6764 21.1022 83.6154 21.1902 83.5666 21.2656C83.2737 21.718 82.8343 22.1202 82.2485 22.4721C81.6871 22.7989 80.8939 22.9623 79.8687 22.9623Z" fill="white"/>
<path d="M93.3929 22.5475V12.9705L89.3656 0.263936H92.8437L95.1137 7.88033L95.2968 9.04918L95.5164 7.88033L97.8962 0.263936H101.155L96.9077 13.159V22.5475H93.3929Z" fill="white"/>
<path d="M104.11 22.5475V0.263936H108.431L112.055 16.1L115.716 0.263936H120V22.5475H116.888V5.3541L113.263 22.5475H110.847L107.222 5.3541V22.5475H104.11Z" fill="white"/>
</svg>
