<svg xmlns="http://www.w3.org/2000/svg" width="120" height="23" fill="none"><path fill="#fff" d="M5.78 22.81c-1.2 0-2.23-.19-3.1-.56a3.95 3.95 0 0 1-2.02-2A9.9 9.9 0 0 1 0 16.2v-1.28h3.59v1.58a8 8 0 0 0 .3 2.46c.19.57.45.98.8 1.2.34.2.73.3 1.17.3.7 0 1.27-.23 1.68-.71.44-.5.66-1.44.66-2.8 0-1-.15-1.75-.44-2.26-.3-.5-.75-.9-1.39-1.2-.61-.33-1.4-.7-2.38-1.1-.8-.37-1.5-.81-2.09-1.31A4.63 4.63 0 0 1 .6 9.16a8.31 8.31 0 0 1-.44-2.9c0-1.4.17-2.55.5-3.43.38-.9.99-1.56 1.84-1.96.85-.43 2-.64 3.44-.64 1.86 0 3.27.44 4.25 1.32.97.85 1.46 2.1 1.46 3.77v2.6H8.2V6.37c0-1.15-.18-1.98-.55-2.49-.34-.52-.9-.79-1.68-.79-.8 0-1.4.25-1.76.76-.34.47-.51 1.24-.51 2.3 0 .9.17 1.6.51 2.1.34.48.78.86 1.32 1.14.56.28 1.13.53 1.72.75 1.1.43 1.99.87 2.67 1.32a3.97 3.97 0 0 1 1.5 1.81c.32.76.48 1.82.48 3.2 0 1.6-.26 2.85-.77 3.78a4.3 4.3 0 0 1-2.12 1.96c-.9.4-1.98.6-3.23.6ZM21.2 23c-.84 0-1.6-.06-2.32-.19a4.31 4.31 0 0 1-1.83-.75 3.7 3.7 0 0 1-1.2-1.7 8.64 8.64 0 0 1-.44-3.05V.26h3.51v17.99c0 .68.1 1.2.3 1.58.21.35.5.6.84.72.34.12.72.19 1.13.19.42 0 .8-.07 1.14-.2.34-.12.6-.36.8-.7.22-.38.33-.91.33-1.6V.27h3.48v17c0 1.3-.15 2.32-.44 3.1a3.48 3.48 0 0 1-1.17 1.7c-.51.37-1.12.63-1.83.75-.71.13-1.48.19-2.3.19ZM31.26 22.55V.26h7.33a4.7 4.7 0 0 1 3.15.95c.73.62 1.1 1.56 1.1 2.79v3.96c0 .95-.13 1.84-.37 2.67a3.6 3.6 0 0 1-1.32 1.96 4.4 4.4 0 0 1-2.78.76h-3.44v9.2h-3.67Zm3.67-11.24h2.23c.73 0 1.28-.29 1.65-.87.36-.6.55-1.57.55-2.9v-2c0-1.18-.16-2.02-.48-2.52-.32-.5-.76-.76-1.32-.76h-2.63v9.05ZM46.3 22.55V.26h9.74v2.57h-6.08v6.75h5.02v2.82h-5.02v7.66h6.08v2.49H46.3ZM59.37 22.55V.26h7.46a4.7 4.7 0 0 1 3.15.95c.76.62 1.14 1.56 1.14 2.79v3.54c0 1.23-.33 2.24-.99 3.02-.66.75-1.64 1.17-2.93 1.24.83.08 1.42.35 1.76.83.36.48.7 1.22.99 2.23l2.08 7.69h-3.88l-1.72-7.43a10.7 10.7 0 0 0-.58-1.66c-.22-.48-.58-.72-1.07-.72H63v9.8h-3.62Zm3.62-12.33h2.34c.86 0 1.46-.23 1.8-.68.36-.45.55-1.14.55-2.07V4.64c0-.83-.17-1.44-.52-1.81-.31-.38-.81-.57-1.5-.57H63v7.96ZM79.87 22.96c-.83 0-1.61-.14-2.34-.41a3.35 3.35 0 0 1-1.8-1.55c-.44-.8-.66-2-.66-3.58V4.98c0-1.36.25-2.4.73-3.1A3.56 3.56 0 0 1 77.86.42C78.73.14 79.75 0 80.89 0c1.15 0 2.16.14 3.04.41.88.28 1.56.78 2.05 1.51.52.7.77 1.72.77 3.06v3.01h-3.4V4.83c0-.76-.11-1.32-.33-1.7-.2-.38-.48-.63-.84-.75a3.62 3.62 0 0 0-1.25-.2c-.44 0-.84.07-1.2.2-.37.12-.67.37-.89.75-.2.38-.29.94-.29 1.7V18.2c0 .76.1 1.32.3 1.7.21.38.5.63.87.75.37.13.77.2 1.21.2.7 0 1.28-.22 1.72-.65.46-.45.7-1.12.7-2V13.7h-2.16V11.6h5.56v10.94h-2.63l-.19-1.89a5.17 5.17 0 0 1-.36.6c-.3.46-.74.86-1.32 1.21-.56.33-1.36.5-2.38.5ZM93.4 22.55v-9.58L89.36.27h3.47l2.27 7.61.19 1.17.22-1.17L97.9.26h3.25l-4.24 12.9v9.39h-3.52ZM104.11 22.55V.26h4.32l3.63 15.84L115.72.26H120v22.29h-3.11V5.35l-3.63 17.2h-2.41l-3.63-17.2v17.2h-3.11Z"/></svg>