<svg xmlns="http://www.w3.org/2000/svg" width="35" height="35" fill="none"><path fill="#00B2FF" d="M21.58 9.33c.76 0 1.4.5 1.65 1.17h6.04a1.75 1.75 0 1 1 0 1.17h-6.04a1.75 1.75 0 1 1-1.65-2.34Zm9.34 2.34a.58.58 0 1 0 0-1.17.58.58 0 0 0 0 1.17Zm-9.34 0a.58.58 0 1 0 0-1.17.58.58 0 0 0 0 1.17Z"/><path fill="#00B2FF" d="M16.92 12.94v-3.6c0-.16.06-.31.17-.42l2.33-2.33c.11-.11.26-.17.41-.17h1.86a1.75 1.75 0 1 1 0 1.16h-1.61l-2 2v3.36a1.75 1.75 0 1 1-1.16 0Zm6.41-5.36a.58.58 0 1 0 0-1.16.58.58 0 0 0 0 1.16Zm-5.83 7.59a.58.58 0 1 0 0-1.17.58.58 0 0 0 0 1.17ZM6.42 15.17c.27 0 .52.06.75.17l1-1V8.75c0-.16.06-.3.17-.41l5.84-5.84a1.75 1.75 0 1 1 1.57 1c-.27 0-.52-.07-.75-.18L9.33 9v5.6c0 .15-.06.3-.17.4L8 16.18c.11.22.18.48.18.75a1.75 1.75 0 1 1-1.75-1.75Zm9.33-12.84a.58.58 0 1 0 0-1.16.58.58 0 0 0 0 1.16ZM6.42 17.5a.58.58 0 1 0 0-1.17.58.58 0 0 0 0 1.17ZM1.17 8.27V5.83c0-.15.06-.3.17-.4l4.08-4.1c.11-.1.26-.16.41-.16h3.03a1.75 1.75 0 1 1 0 1.16H6.08L2.33 6.07v2.2a1.75 1.75 0 1 1-1.16 0Zm9.33-5.94a.58.58 0 1 0 0-1.16.58.58 0 0 0 0 1.16ZM1.75 10.5a.58.58 0 1 0 0-1.17.58.58 0 0 0 0 1.17ZM9.33 31.6v-8.37A1.75 1.75 0 1 1 11.56 21h6.05c.24-.68.88-1.17 1.64-1.17.76 0 1.4.5 1.64 1.17h3.37l2.17-2.17a1.75 1.75 0 1 1 1.57 1c-.27 0-.52-.06-.75-.17L24.91 22a.58.58 0 0 1-.41.17h-3.6a1.75 1.75 0 0 1-1.65 1.16c-.76 0-1.4-.49-1.64-1.16h-6.05c-.18.49-.57.88-1.06 1.06v8.38a1.75 1.75 0 1 1-1.17 0ZM28 18.68a.58.58 0 1 0 0-1.17.58.58 0 0 0 0 1.17Zm-8.75 3.5a.58.58 0 1 0 0-1.17.58.58 0 0 0 0 1.17ZM9.92 33.83a.58.58 0 1 0 0-1.17.58.58 0 0 0 0 1.17Zm0-11.66a.58.58 0 1 0 0-1.17.58.58 0 0 0 0 1.17Z"/><path fill="#00B2FF" d="M12.25 11.77V9.92c0-.16.06-.3.17-.42l7-7A1.75 1.75 0 0 1 21 0c.77 0 1.41.49 1.65 1.17h2.44c.33 0 .59.26.59.58v1.5l2.16 2.18c.23-.11.48-.18.75-.18A1.75 1.75 0 1 1 26.83 7c0-.27.07-.52.18-.75l-2.34-2.34a.58.58 0 0 1-.17-.41V2.33h-1.86a1.75 1.75 0 0 1-2.39 1l-6.83 6.83v1.61a1.75 1.75 0 1 1-1.17 0Zm16.33-4.19a.58.58 0 1 0 0-1.16.58.58 0 0 0 0 1.16ZM21 2.33a.58.58 0 1 0 0-1.16.58.58 0 0 0 0 1.16ZM12.83 14a.58.58 0 1 0 0-1.17.58.58 0 0 0 0 1.17Z"/><path fill="#00B2FF" d="M14 16.33c.76 0 1.4.5 1.64 1.17h6.87l3.33-3.33c.1-.1.26-.17.41-.17h6.18l1.4-1.4V7.81l-4.5-4.5c-.22.11-.48.18-.75.18a1.75 1.75 0 1 1 1.75-1.75c0 .27-.06.52-.17.75l4.67 4.67c.1.11.17.26.17.41v5.25c0 .16-.06.3-.17.42L33.08 15a.58.58 0 0 1-.41.17h-6.18l-3.33 3.33a.58.58 0 0 1-.41.17h-7.1A1.75 1.75 0 1 1 14 16.33ZM28.58 1.17a.58.58 0 1 0 0 1.16.58.58 0 0 0 0-1.16ZM14 18.67a.58.58 0 1 0 0-1.17.58.58 0 0 0 0 1.17ZM1.75 14c.27 0 .52.07.75.18L4.67 12V8.64a1.75 1.75 0 1 1 1.16 0v3.61c0 .15-.06.3-.17.41L3.32 15a1.72 1.72 0 0 1-.99 2.4v.44l4.5 4.5c.1.1.17.25.17.41v.69c.68.24 1.17.88 1.17 1.64 0 .76-.5 1.4-1.17 1.65v1.38a1.75 1.75 0 1 1-1.17 0v-1.38a1.75 1.75 0 0 1-1.16-1.65c0-.76.49-1.4 1.16-1.64v-.45l-4.5-4.5a.58.58 0 0 1-.16-.4v-.7A1.75 1.75 0 0 1 1.75 14Zm3.5-6.42a.58.58 0 1 0 0-1.16.58.58 0 0 0 0 1.16Zm1.17 22.75a.58.58 0 1 0 0-1.16.58.58 0 0 0 0 1.16Zm0-4.66a.58.58 0 1 0 0-1.17.58.58 0 0 0 0 1.17Zm-4.67-9.34a.58.58 0 1 0 0-1.16.58.58 0 0 0 0 1.16Z"/></svg>