<svg width="215" height="55" viewBox="0 0 215 55" fill="none" xmlns="http://www.w3.org/2000/svg">
<path d="M78.96 23.3247C78.96 23.0073 78.9315 22.7184 78.8745 22.458C78.8175 22.1976 78.6955 21.9575 78.5083 21.7378C78.3293 21.5181 78.0648 21.2983 77.7148 21.0786C77.373 20.8589 76.9255 20.631 76.3721 20.395C75.7129 20.1183 75.0741 19.8254 74.4556 19.5161C73.8371 19.1987 73.2796 18.8325 72.7832 18.4175C72.2868 18.0024 71.8921 17.5142 71.5991 16.9526C71.3143 16.383 71.1719 15.7157 71.1719 14.9507C71.1719 14.202 71.3062 13.5225 71.5747 12.9121C71.8514 12.3018 72.242 11.7809 72.7466 11.3496C73.2511 10.9102 73.8411 10.5724 74.5166 10.3364C75.2002 10.1004 75.9611 9.98242 76.7993 9.98242C77.9386 9.98242 78.9233 10.2184 79.7534 10.6904C80.5916 11.1624 81.2386 11.8094 81.6943 12.6313C82.1582 13.4533 82.3901 14.3973 82.3901 15.4634H78.8257C78.8257 14.9588 78.7524 14.5153 78.606 14.1328C78.4676 13.7422 78.2438 13.437 77.9346 13.2173C77.6253 12.9976 77.2266 12.8877 76.7383 12.8877C76.2826 12.8877 75.9041 12.9813 75.603 13.1685C75.3101 13.3475 75.0903 13.5957 74.9438 13.9131C74.8055 14.2223 74.7363 14.5723 74.7363 14.9629C74.7363 15.2559 74.8055 15.5203 74.9438 15.7563C75.0903 15.9842 75.2897 16.1917 75.542 16.3789C75.7943 16.5579 76.0913 16.7329 76.4331 16.9038C76.783 17.0747 77.1655 17.2415 77.5806 17.4043C78.3862 17.7217 79.0983 18.0716 79.7168 18.4541C80.3353 18.8285 80.8521 19.2516 81.2671 19.7236C81.6821 20.1875 81.9954 20.7124 82.207 21.2983C82.4186 21.8843 82.5244 22.5516 82.5244 23.3003C82.5244 24.0409 82.3942 24.7163 82.1338 25.3267C81.8815 25.9289 81.5112 26.4497 81.0229 26.8892C80.5347 27.3205 79.9447 27.6541 79.2529 27.8901C78.5693 28.1261 77.8044 28.2441 76.958 28.2441C76.1361 28.2441 75.3589 28.1302 74.6265 27.9023C73.894 27.6663 73.2471 27.3123 72.6855 26.8403C72.1322 26.3602 71.6968 25.7539 71.3794 25.0215C71.062 24.2809 70.9033 23.4061 70.9033 22.397H74.48C74.48 22.9341 74.5329 23.3939 74.6387 23.7764C74.7445 24.1507 74.9072 24.4518 75.127 24.6797C75.3467 24.8994 75.6152 25.0662 75.9326 25.1802C76.2581 25.286 76.6284 25.3389 77.0435 25.3389C77.5155 25.3389 77.8898 25.2493 78.1665 25.0703C78.4513 24.8913 78.6548 24.6512 78.7769 24.3501C78.8989 24.049 78.96 23.7072 78.96 23.3247ZM88.2129 17.5264V28H84.7827V14.792H88.0054L88.2129 17.5264ZM87.7246 20.9443L86.7847 20.9688C86.7684 20.041 86.8498 19.1865 87.0288 18.4053C87.2078 17.624 87.4764 16.9445 87.8345 16.3667C88.2007 15.7889 88.6605 15.3413 89.2139 15.0239C89.7673 14.7065 90.4142 14.5479 91.1548 14.5479C91.6349 14.5479 92.0785 14.6374 92.4854 14.8164C92.8923 14.9873 93.2463 15.2599 93.5474 15.6343C93.8485 16.0005 94.0804 16.4806 94.2432 17.0747C94.4059 17.6606 94.4873 18.3646 94.4873 19.1865V28H91.0693V19.6016C91.0693 19.0156 91.0124 18.568 90.8984 18.2588C90.7845 17.9414 90.6217 17.7217 90.4102 17.5996C90.1986 17.4694 89.9382 17.4043 89.6289 17.4043C89.3034 17.4043 89.0186 17.4938 88.7744 17.6729C88.5303 17.8519 88.3309 18.1042 88.1763 18.4297C88.0298 18.7471 87.9159 19.1214 87.8345 19.5527C87.7612 19.984 87.7246 20.4479 87.7246 20.9443ZM94.1577 20.6025L92.9248 20.7612C92.9085 19.8905 92.9858 19.0807 93.1567 18.332C93.3276 17.5752 93.5921 16.916 93.9502 16.3545C94.3083 15.7848 94.7559 15.3413 95.293 15.0239C95.8382 14.7065 96.4689 14.5479 97.1851 14.5479C97.7222 14.5479 98.2104 14.6374 98.6499 14.8164C99.0894 14.9954 99.4637 15.2843 99.7729 15.6831C100.09 16.0737 100.33 16.5905 100.493 17.2334C100.664 17.8763 100.75 18.6576 100.75 19.5771V28H97.3193V19.5894C97.3193 18.9953 97.2624 18.5396 97.1484 18.2222C97.0345 17.9048 96.8717 17.6891 96.6602 17.5752C96.4486 17.4613 96.1963 17.4043 95.9033 17.4043C95.6104 17.4043 95.354 17.4857 95.1343 17.6484C94.9227 17.8112 94.7437 18.0391 94.5972 18.332C94.4507 18.6169 94.3408 18.9546 94.2676 19.3452C94.1943 19.7277 94.1577 20.1468 94.1577 20.6025ZM109.148 24.9604V18.8569C109.148 18.4582 109.099 18.1408 109.001 17.9048C108.912 17.6688 108.774 17.4979 108.586 17.3921C108.407 17.2782 108.188 17.2212 107.927 17.2212C107.634 17.2212 107.39 17.2822 107.195 17.4043C107 17.5264 106.853 17.7013 106.755 17.9292C106.666 18.1571 106.621 18.4297 106.621 18.7471H103.191C103.191 18.1774 103.301 17.6403 103.521 17.1357C103.74 16.623 104.062 16.1755 104.485 15.793C104.916 15.4023 105.429 15.0972 106.023 14.8774C106.617 14.6577 107.284 14.5479 108.025 14.5479C108.904 14.5479 109.685 14.6984 110.369 14.9995C111.052 15.2925 111.593 15.7604 111.992 16.4033C112.391 17.0462 112.59 17.8804 112.59 18.9058V24.7896C112.59 25.5301 112.627 26.1323 112.7 26.5962C112.782 27.0601 112.9 27.4588 113.054 27.7925V28H109.612C109.457 27.6338 109.339 27.1781 109.258 26.6328C109.185 26.0794 109.148 25.522 109.148 24.9604ZM109.563 19.9312L109.575 21.9819H108.318C107.992 21.9819 107.708 22.0348 107.463 22.1406C107.227 22.2464 107.028 22.397 106.865 22.5923C106.702 22.7795 106.58 22.9992 106.499 23.2515C106.426 23.5037 106.389 23.7723 106.389 24.0571C106.389 24.3745 106.434 24.6431 106.523 24.8628C106.613 25.0825 106.747 25.2493 106.926 25.3633C107.105 25.4772 107.317 25.5342 107.561 25.5342C107.935 25.5342 108.261 25.4569 108.538 25.3022C108.814 25.1476 109.018 24.9604 109.148 24.7407C109.286 24.521 109.331 24.3175 109.282 24.1304L110.063 25.4609C109.966 25.762 109.832 26.0754 109.661 26.4009C109.498 26.7264 109.29 27.0275 109.038 27.3042C108.786 27.5809 108.472 27.8088 108.098 27.9878C107.732 28.1587 107.297 28.2441 106.792 28.2441C106.084 28.2441 105.437 28.0814 104.851 27.7559C104.265 27.4303 103.801 26.9746 103.459 26.3887C103.126 25.8027 102.959 25.1069 102.959 24.3013C102.959 23.634 103.065 23.0317 103.276 22.4946C103.496 21.9494 103.822 21.4896 104.253 21.1152C104.684 20.7327 105.229 20.4398 105.889 20.2363C106.548 20.0329 107.321 19.9312 108.208 19.9312H109.563ZM118.535 17.7339V28H115.117V14.792H118.34L118.535 17.7339ZM121.648 14.6943L121.599 18.1001C121.444 18.0675 121.257 18.0431 121.038 18.0269C120.826 18.0106 120.639 18.0024 120.476 18.0024C120.094 18.0024 119.768 18.0635 119.5 18.1855C119.231 18.2995 119.007 18.4744 118.828 18.7104C118.657 18.9383 118.527 19.2231 118.438 19.5649C118.348 19.9067 118.295 20.2933 118.279 20.7246L117.632 20.4805C117.632 19.6178 117.697 18.8285 117.827 18.1123C117.965 17.388 118.169 16.7614 118.438 16.2324C118.706 15.6953 119.028 15.2803 119.402 14.9873C119.784 14.6943 120.216 14.5479 120.696 14.5479C120.859 14.5479 121.029 14.5641 121.208 14.5967C121.396 14.6211 121.542 14.6536 121.648 14.6943ZM129.766 14.792V17.3677H123.027V14.792H129.766ZM124.578 11.5327H127.983V23.9717C127.983 24.3379 128.02 24.6187 128.093 24.814C128.167 25.0093 128.276 25.1476 128.423 25.229C128.577 25.3022 128.781 25.3389 129.033 25.3389C129.204 25.3389 129.363 25.3307 129.509 25.3145C129.656 25.29 129.766 25.2656 129.839 25.2412V27.9146C129.57 28.0203 129.285 28.1017 128.984 28.1587C128.691 28.2157 128.341 28.2441 127.935 28.2441C127.251 28.2441 126.657 28.1139 126.152 27.8535C125.656 27.5931 125.269 27.1781 124.993 26.6084C124.716 26.0306 124.578 25.2738 124.578 24.3379V11.5327ZM142.241 28H139.104L139.128 25.0459H142.241C143.104 25.0459 143.775 24.8913 144.255 24.582C144.736 24.2728 145.073 23.7845 145.269 23.1172C145.472 22.4499 145.574 21.575 145.574 20.4927V17.7217C145.574 16.8997 145.521 16.2039 145.415 15.6343C145.309 15.0565 145.13 14.5926 144.878 14.2427C144.626 13.8846 144.288 13.6201 143.865 13.4492C143.442 13.2783 142.917 13.1929 142.29 13.1929H139.043V10.2266H142.29C143.315 10.2266 144.247 10.3934 145.085 10.7271C145.924 11.0607 146.644 11.549 147.246 12.1919C147.848 12.8267 148.312 13.612 148.638 14.5479C148.963 15.4837 149.126 16.5498 149.126 17.7461V20.4927C149.126 21.6971 148.963 22.7632 148.638 23.6909C148.312 24.6187 147.848 25.404 147.246 26.0469C146.652 26.6816 145.932 27.1659 145.085 27.4995C144.239 27.8332 143.291 28 142.241 28ZM141.179 10.2266V28H137.603V10.2266H141.179ZM156.89 28.2441C155.986 28.2441 155.185 28.1058 154.485 27.8291C153.793 27.5524 153.207 27.1536 152.727 26.6328C152.247 26.1038 151.881 25.465 151.628 24.7163C151.376 23.9676 151.25 23.1131 151.25 22.1528V21.0664C151.25 19.9922 151.372 19.0522 151.616 18.2466C151.86 17.4328 152.206 16.7492 152.654 16.1958C153.101 15.6424 153.651 15.2314 154.302 14.9629C154.961 14.6862 155.706 14.5479 156.536 14.5479C157.366 14.5479 158.094 14.6862 158.721 14.9629C159.355 15.2314 159.88 15.6383 160.295 16.1836C160.71 16.7207 161.024 17.388 161.235 18.1855C161.447 18.9831 161.553 19.9108 161.553 20.9688V22.5312H152.703V20.1265H158.196V19.8213C158.196 19.2842 158.139 18.8366 158.025 18.4785C157.911 18.1123 157.732 17.8397 157.488 17.6606C157.244 17.4816 156.918 17.3921 156.511 17.3921C156.169 17.3921 155.881 17.4613 155.645 17.5996C155.409 17.738 155.221 17.9536 155.083 18.2466C154.945 18.5396 154.843 18.922 154.778 19.394C154.713 19.8579 154.68 20.4154 154.68 21.0664V22.1528C154.68 22.7632 154.733 23.2759 154.839 23.6909C154.945 24.0978 155.099 24.4315 155.303 24.6919C155.514 24.9442 155.771 25.1273 156.072 25.2412C156.373 25.347 156.723 25.3999 157.122 25.3999C157.724 25.3999 158.265 25.2941 158.745 25.0825C159.233 24.8628 159.648 24.5658 159.99 24.1914L161.357 26.2666C161.121 26.5758 160.796 26.8851 160.381 27.1943C159.966 27.5036 159.469 27.7559 158.892 27.9512C158.314 28.1465 157.646 28.2441 156.89 28.2441ZM167.253 25.3633L169.377 14.792H172.942L169.316 28H167.18L167.253 25.3633ZM165.996 14.792L168.157 25.3755L168.193 28H166.045L162.419 14.792H165.996ZM178.179 14.792V28H174.749V14.792H178.179ZM174.59 11.374C174.59 10.8451 174.757 10.4097 175.09 10.0679C175.432 9.71794 175.888 9.54297 176.458 9.54297C177.035 9.54297 177.491 9.71794 177.825 10.0679C178.158 10.4097 178.325 10.8451 178.325 11.374C178.325 11.8949 178.154 12.3302 177.812 12.6802C177.479 13.022 177.031 13.1929 176.47 13.1929C175.892 13.1929 175.432 13.022 175.09 12.6802C174.757 12.3302 174.59 11.8949 174.59 11.374ZM185.662 25.3999C185.979 25.3999 186.252 25.3348 186.479 25.2046C186.715 25.0744 186.895 24.8628 187.017 24.5698C187.139 24.2769 187.204 23.8984 187.212 23.4346H190.422C190.422 24.4274 190.211 25.286 189.788 26.0103C189.373 26.7264 188.811 27.2798 188.103 27.6704C187.403 28.0529 186.61 28.2441 185.723 28.2441C184.836 28.2441 184.062 28.1017 183.403 27.8169C182.744 27.5321 182.199 27.117 181.768 26.5718C181.344 26.0265 181.023 25.3633 180.803 24.582C180.592 23.7926 180.486 22.8893 180.486 21.8721V20.9077C180.486 19.9067 180.592 19.0116 180.803 18.2222C181.023 17.4328 181.344 16.7655 181.768 16.2202C182.199 15.675 182.74 15.2599 183.391 14.9751C184.05 14.6903 184.823 14.5479 185.71 14.5479C186.663 14.5479 187.489 14.7472 188.188 15.146C188.888 15.5366 189.434 16.1144 189.824 16.8794C190.223 17.6444 190.422 18.5884 190.422 19.7114H187.212C187.204 19.2069 187.143 18.7878 187.029 18.4541C186.923 18.1123 186.756 17.8519 186.528 17.6729C186.309 17.4857 186.016 17.3921 185.649 17.3921C185.267 17.3921 184.958 17.4735 184.722 17.6362C184.494 17.7909 184.319 18.0187 184.197 18.3198C184.083 18.6128 184.006 18.979 183.965 19.4185C183.924 19.8579 183.904 20.3543 183.904 20.9077V21.8721C183.904 22.4661 183.92 22.9829 183.953 23.4224C183.993 23.8537 184.071 24.2199 184.185 24.521C184.307 24.814 184.482 25.0337 184.709 25.1802C184.945 25.3267 185.263 25.3999 185.662 25.3999ZM197.71 28.2441C196.807 28.2441 196.005 28.1058 195.305 27.8291C194.613 27.5524 194.028 27.1536 193.547 26.6328C193.067 26.1038 192.701 25.465 192.449 24.7163C192.196 23.9676 192.07 23.1131 192.07 22.1528V21.0664C192.07 19.9922 192.192 19.0522 192.437 18.2466C192.681 17.4328 193.027 16.7492 193.474 16.1958C193.922 15.6424 194.471 15.2314 195.122 14.9629C195.781 14.6862 196.526 14.5479 197.356 14.5479C198.186 14.5479 198.914 14.6862 199.541 14.9629C200.176 15.2314 200.701 15.6383 201.116 16.1836C201.531 16.7207 201.844 17.388 202.056 18.1855C202.267 18.9831 202.373 19.9108 202.373 20.9688V22.5312H193.523V20.1265H199.016V19.8213C199.016 19.2842 198.959 18.8366 198.845 18.4785C198.731 18.1123 198.552 17.8397 198.308 17.6606C198.064 17.4816 197.738 17.3921 197.332 17.3921C196.99 17.3921 196.701 17.4613 196.465 17.5996C196.229 17.738 196.042 17.9536 195.903 18.2466C195.765 18.5396 195.663 18.922 195.598 19.394C195.533 19.8579 195.5 20.4154 195.5 21.0664V22.1528C195.5 22.7632 195.553 23.2759 195.659 23.6909C195.765 24.0978 195.92 24.4315 196.123 24.6919C196.335 24.9442 196.591 25.1273 196.892 25.2412C197.193 25.347 197.543 25.3999 197.942 25.3999C198.544 25.3999 199.085 25.2941 199.565 25.0825C200.054 24.8628 200.469 24.5658 200.811 24.1914L202.178 26.2666C201.942 26.5758 201.616 26.8851 201.201 27.1943C200.786 27.5036 200.29 27.7559 199.712 27.9512C199.134 28.1465 198.467 28.2441 197.71 28.2441Z" fill="#F2F5F7"/>
<path d="M72.5664 45.3086L74.2891 39.6602H75.8008L73.2578 46.9668C73.1992 47.123 73.123 47.293 73.0293 47.4766C72.9355 47.6602 72.8125 47.834 72.6602 47.998C72.5117 48.166 72.3262 48.3008 72.1035 48.4023C71.8809 48.5078 71.6113 48.5605 71.2949 48.5605C71.1699 48.5605 71.0488 48.5488 70.9316 48.5254C70.8184 48.5059 70.7109 48.4844 70.6094 48.4609L70.6035 47.3828C70.6426 47.3867 70.6895 47.3906 70.7441 47.3945C70.8027 47.3984 70.8496 47.4004 70.8848 47.4004C71.1191 47.4004 71.3145 47.3711 71.4707 47.3125C71.627 47.2578 71.7539 47.168 71.8516 47.043C71.9531 46.918 72.0391 46.75 72.1094 46.5391L72.5664 45.3086ZM71.5938 39.6602L73.0996 44.4062L73.3516 45.8945L72.373 46.1465L70.0703 39.6602H71.5938ZM80.377 44.2891L82.2637 39.6602H83.4883L80.8574 46H79.8965L77.2715 39.6602H78.4961L80.377 44.2891ZM78.1328 39.6602V46H76.7207V39.6602H78.1328ZM82.6211 46V39.6602H84.0391V46H82.6211ZM89.9512 42.3086V43.4219H86.6699V42.3086H89.9512ZM87.0801 39.6602V46H85.668V39.6602H87.0801ZM90.9707 39.6602V46H89.5586V39.6602H90.9707ZM93.5254 41.6758H95.3945C95.9414 41.6758 96.4062 41.7676 96.7891 41.9512C97.1719 42.1348 97.4629 42.3906 97.6621 42.7188C97.8652 43.043 97.9668 43.4141 97.9668 43.832C97.9668 44.1406 97.9102 44.4277 97.7969 44.6934C97.6836 44.9551 97.5156 45.1836 97.293 45.3789C97.0742 45.5742 96.8047 45.7266 96.4844 45.8359C96.168 45.9453 95.8047 46 95.3945 46H92.5879V39.6602H94.0059V44.8809H95.3945C95.6758 44.8809 95.9004 44.832 96.0684 44.7344C96.2363 44.6367 96.3574 44.5098 96.4316 44.3535C96.5098 44.1973 96.5488 44.0312 96.5488 43.8555C96.5488 43.6758 96.5098 43.5059 96.4316 43.3457C96.3574 43.1855 96.2363 43.0547 96.0684 42.9531C95.9004 42.8516 95.6758 42.8008 95.3945 42.8008H93.5254V41.6758ZM100.463 39.6602V46H99.0508V39.6602H100.463ZM104.928 46.1172C104.459 46.1172 104.035 46.041 103.656 45.8887C103.281 45.7324 102.961 45.5156 102.695 45.2383C102.434 44.9609 102.232 44.6348 102.092 44.2598C101.951 43.8848 101.881 43.4805 101.881 43.0469V42.8125C101.881 42.3164 101.953 41.8672 102.098 41.4648C102.242 41.0625 102.443 40.7188 102.701 40.4336C102.959 40.1445 103.264 39.9238 103.615 39.7715C103.967 39.6191 104.348 39.543 104.758 39.543C105.211 39.543 105.607 39.6191 105.947 39.7715C106.287 39.9238 106.568 40.1387 106.791 40.416C107.018 40.6895 107.186 41.0156 107.295 41.3945C107.408 41.7734 107.465 42.1914 107.465 42.6484V43.252H102.566V42.2383H106.07V42.127C106.062 41.873 106.012 41.6348 105.918 41.4121C105.828 41.1895 105.689 41.0098 105.502 40.873C105.314 40.7363 105.064 40.668 104.752 40.668C104.518 40.668 104.309 40.7188 104.125 40.8203C103.945 40.918 103.795 41.0605 103.674 41.248C103.553 41.4355 103.459 41.6621 103.393 41.9277C103.33 42.1895 103.299 42.4844 103.299 42.8125V43.0469C103.299 43.3242 103.336 43.582 103.41 43.8203C103.488 44.0547 103.602 44.2598 103.75 44.4355C103.898 44.6113 104.078 44.75 104.289 44.8516C104.5 44.9492 104.74 44.998 105.01 44.998C105.35 44.998 105.652 44.9297 105.918 44.793C106.184 44.6562 106.414 44.4629 106.609 44.2129L107.354 44.9336C107.217 45.1328 107.039 45.3242 106.82 45.5078C106.602 45.6875 106.334 45.834 106.018 45.9473C105.705 46.0605 105.342 46.1172 104.928 46.1172ZM114.496 39.6602V46H113.078V39.6602H114.496ZM116.576 39.6602V40.7734H111.033V39.6602H116.576ZM119.881 46.1172C119.412 46.1172 118.988 46.041 118.609 45.8887C118.234 45.7324 117.914 45.5156 117.648 45.2383C117.387 44.9609 117.186 44.6348 117.045 44.2598C116.904 43.8848 116.834 43.4805 116.834 43.0469V42.8125C116.834 42.3164 116.906 41.8672 117.051 41.4648C117.195 41.0625 117.396 40.7188 117.654 40.4336C117.912 40.1445 118.217 39.9238 118.568 39.7715C118.92 39.6191 119.301 39.543 119.711 39.543C120.164 39.543 120.561 39.6191 120.9 39.7715C121.24 39.9238 121.521 40.1387 121.744 40.416C121.971 40.6895 122.139 41.0156 122.248 41.3945C122.361 41.7734 122.418 42.1914 122.418 42.6484V43.252H117.52V42.2383H121.023V42.127C121.016 41.873 120.965 41.6348 120.871 41.4121C120.781 41.1895 120.643 41.0098 120.455 40.873C120.268 40.7363 120.018 40.668 119.705 40.668C119.471 40.668 119.262 40.7188 119.078 40.8203C118.898 40.918 118.748 41.0605 118.627 41.248C118.506 41.4355 118.412 41.6621 118.346 41.9277C118.283 42.1895 118.252 42.4844 118.252 42.8125V43.0469C118.252 43.3242 118.289 43.582 118.363 43.8203C118.441 44.0547 118.555 44.2598 118.703 44.4355C118.852 44.6113 119.031 44.75 119.242 44.8516C119.453 44.9492 119.693 44.998 119.963 44.998C120.303 44.998 120.605 44.9297 120.871 44.793C121.137 44.6562 121.367 44.4629 121.562 44.2129L122.307 44.9336C122.17 45.1328 121.992 45.3242 121.773 45.5078C121.555 45.6875 121.287 45.834 120.971 45.9473C120.658 46.0605 120.295 46.1172 119.881 46.1172ZM124.598 39.6602L125.805 41.7637L127.035 39.6602H128.588L126.666 42.7715L128.664 46H127.111L125.822 43.8086L124.533 46H122.975L124.967 42.7715L123.051 39.6602H124.598ZM133.885 42.3086V43.4219H130.604V42.3086H133.885ZM131.014 39.6602V46H129.602V39.6602H131.014ZM134.904 39.6602V46H133.492V39.6602H134.904ZM136.141 42.9004V42.7656C136.141 42.3086 136.207 41.8848 136.34 41.4941C136.473 41.0996 136.664 40.7578 136.914 40.4688C137.168 40.1758 137.477 39.9492 137.84 39.7891C138.207 39.625 138.621 39.543 139.082 39.543C139.547 39.543 139.961 39.625 140.324 39.7891C140.691 39.9492 141.002 40.1758 141.256 40.4688C141.51 40.7578 141.703 41.0996 141.836 41.4941C141.969 41.8848 142.035 42.3086 142.035 42.7656V42.9004C142.035 43.3574 141.969 43.7812 141.836 44.1719C141.703 44.5625 141.51 44.9043 141.256 45.1973C141.002 45.4863 140.693 45.7129 140.33 45.877C139.967 46.0371 139.555 46.1172 139.094 46.1172C138.629 46.1172 138.213 46.0371 137.846 45.877C137.482 45.7129 137.174 45.4863 136.92 45.1973C136.666 44.9043 136.473 44.5625 136.34 44.1719C136.207 43.7812 136.141 43.3574 136.141 42.9004ZM137.553 42.7656V42.9004C137.553 43.1855 137.582 43.4551 137.641 43.709C137.699 43.9629 137.791 44.1855 137.916 44.377C138.041 44.5684 138.201 44.7188 138.396 44.8281C138.592 44.9375 138.824 44.9922 139.094 44.9922C139.355 44.9922 139.582 44.9375 139.773 44.8281C139.969 44.7188 140.129 44.5684 140.254 44.377C140.379 44.1855 140.471 43.9629 140.529 43.709C140.592 43.4551 140.623 43.1855 140.623 42.9004V42.7656C140.623 42.4844 140.592 42.2188 140.529 41.9688C140.471 41.7148 140.377 41.4902 140.248 41.2949C140.123 41.0996 139.963 40.9473 139.768 40.8379C139.576 40.7246 139.348 40.668 139.082 40.668C138.816 40.668 138.586 40.7246 138.391 40.8379C138.199 40.9473 138.041 41.0996 137.916 41.2949C137.791 41.4902 137.699 41.7148 137.641 41.9688C137.582 42.2188 137.553 42.4844 137.553 42.7656ZM147.385 39.6602V40.7852H144.291V39.6602H147.385ZM148.492 39.6602V46H147.08V39.6602H148.492ZM143.945 39.6602H145.34L145.17 42.7949C145.146 43.2598 145.1 43.6699 145.029 44.0254C144.963 44.377 144.873 44.6797 144.76 44.9336C144.646 45.1836 144.508 45.3867 144.344 45.543C144.18 45.6992 143.988 45.8145 143.77 45.8887C143.551 45.9629 143.305 46 143.031 46H142.592L142.586 44.8398L142.809 44.8223C142.953 44.8105 143.078 44.7734 143.184 44.7109C143.289 44.6445 143.379 44.5508 143.453 44.4297C143.531 44.3086 143.594 44.1523 143.641 43.9609C143.691 43.7695 143.73 43.543 143.758 43.2812C143.789 43.0195 143.812 42.7148 143.828 42.3672L143.945 39.6602ZM149.723 42.9004V42.7656C149.723 42.3086 149.789 41.8848 149.922 41.4941C150.055 41.0996 150.246 40.7578 150.496 40.4688C150.75 40.1758 151.059 39.9492 151.422 39.7891C151.789 39.625 152.203 39.543 152.664 39.543C153.129 39.543 153.543 39.625 153.906 39.7891C154.273 39.9492 154.584 40.1758 154.838 40.4688C155.092 40.7578 155.285 41.0996 155.418 41.4941C155.551 41.8848 155.617 42.3086 155.617 42.7656V42.9004C155.617 43.3574 155.551 43.7812 155.418 44.1719C155.285 44.5625 155.092 44.9043 154.838 45.1973C154.584 45.4863 154.275 45.7129 153.912 45.877C153.549 46.0371 153.137 46.1172 152.676 46.1172C152.211 46.1172 151.795 46.0371 151.428 45.877C151.064 45.7129 150.756 45.4863 150.502 45.1973C150.248 44.9043 150.055 44.5625 149.922 44.1719C149.789 43.7812 149.723 43.3574 149.723 42.9004ZM151.135 42.7656V42.9004C151.135 43.1855 151.164 43.4551 151.223 43.709C151.281 43.9629 151.373 44.1855 151.498 44.377C151.623 44.5684 151.783 44.7188 151.979 44.8281C152.174 44.9375 152.406 44.9922 152.676 44.9922C152.938 44.9922 153.164 44.9375 153.355 44.8281C153.551 44.7188 153.711 44.5684 153.836 44.377C153.961 44.1855 154.053 43.9629 154.111 43.709C154.174 43.4551 154.205 43.1855 154.205 42.9004V42.7656C154.205 42.4844 154.174 42.2188 154.111 41.9688C154.053 41.7148 153.959 41.4902 153.83 41.2949C153.705 41.0996 153.545 40.9473 153.35 40.8379C153.158 40.7246 152.93 40.668 152.664 40.668C152.398 40.668 152.168 40.7246 151.973 40.8379C151.781 40.9473 151.623 41.0996 151.498 41.2949C151.373 41.4902 151.281 41.7148 151.223 41.9688C151.164 42.2188 151.135 42.4844 151.135 42.7656ZM161.02 39.6602V40.7852H158.254V46H156.842V39.6602H161.02ZM163.299 43.9375L165.789 39.6602H167.201V46H165.789V41.7168L163.299 46H161.887V39.6602H163.299V43.9375ZM170.154 43.9375L172.645 39.6602H174.057V46H172.645V41.7168L170.154 46H168.742V39.6602H170.154V43.9375Z" fill="white" fill-opacity="0.7"/>
<path d="M33.9167 14.6664C35.1102 14.6664 36.1185 15.4355 36.498 16.4997H46.002C46.3815 15.4355 47.3899 14.6664 48.5834 14.6664C50.0995 14.6664 51.3334 15.9002 51.3334 17.4164C51.3334 18.9325 50.0995 20.1663 48.5834 20.1663C47.3899 20.1663 46.3815 19.3973 46.002 18.333H36.4971C36.1176 19.3973 35.1093 20.1663 33.9158 20.1663C32.3996 20.1663 31.1658 18.9325 31.1658 17.4164C31.1658 15.9002 32.4005 14.6664 33.9167 14.6664ZM48.5834 18.333C49.0884 18.333 49.5 17.9224 49.5 17.4164C49.5 16.9104 49.0884 16.4997 48.5834 16.4997C48.0783 16.4997 47.6667 16.9104 47.6667 17.4164C47.6667 17.9224 48.0783 18.333 48.5834 18.333ZM33.9167 18.333C34.4218 18.333 34.8334 17.9224 34.8334 17.4164C34.8334 16.9104 34.4218 16.4997 33.9167 16.4997C33.4116 16.4997 33 16.9104 33 17.4164C33 17.9224 33.4116 18.333 33.9167 18.333Z" fill="#00B2FF"/>
<path d="M26.5834 20.335V14.6664C26.5834 14.4226 26.6796 14.1898 26.8519 14.0183L30.5186 10.3517C30.69 10.1794 30.9238 10.0832 31.1667 10.0832H34.0854C34.4649 9.01893 35.4732 8.24986 36.6667 8.24986C38.1829 8.24986 39.4167 9.48368 39.4167 10.9998C39.4167 12.516 38.1829 13.7498 36.6667 13.7498C35.4732 13.7498 34.4649 12.9807 34.0854 11.9165H31.5462L28.4167 15.0459V20.335C29.4809 20.7145 30.25 21.7228 30.25 22.9163C30.25 24.4324 29.0162 25.6662 27.5 25.6662C25.9839 25.6662 24.75 24.4324 24.75 22.9163C24.75 21.7228 25.5191 20.7145 26.5834 20.335ZM36.6667 11.9165C37.1718 11.9165 37.5834 11.5058 37.5834 10.9998C37.5834 10.4938 37.1718 10.0832 36.6667 10.0832C36.1616 10.0832 35.75 10.4938 35.75 10.9998C35.75 11.5058 36.1616 11.9165 36.6667 11.9165ZM27.5 23.8329C28.0051 23.8329 28.4167 23.4223 28.4167 22.9163C28.4167 22.4103 28.0051 21.9996 27.5 21.9996C26.9949 21.9996 26.5834 22.4103 26.5834 22.9163C26.5834 23.4223 26.9949 23.8329 27.5 23.8329Z" fill="#00B2FF"/>
<path d="M10.0833 23.8329C10.5068 23.8329 10.9028 23.9365 11.2613 24.1088L12.8333 22.5368V13.7498C12.8333 13.5059 12.9296 13.2731 13.1019 13.1017L22.2759 3.92785C22.1036 3.56944 22 3.17345 22 2.74995C22 1.23381 23.2338 0 24.75 0C26.2662 0 27.5 1.23381 27.5 2.74995C27.5 4.2661 26.2662 5.49991 24.75 5.49991C24.3265 5.49991 23.9305 5.39633 23.5721 5.224L14.6667 14.1293V22.9163C14.6667 23.1601 14.5704 23.3929 14.3981 23.5644L12.5574 25.405C12.7298 25.7634 12.8333 26.1594 12.8333 26.5829C12.8333 28.099 11.5995 29.3328 10.0833 29.3328C8.56718 29.3328 7.33334 28.099 7.33334 26.5829C7.33334 25.0667 8.56718 23.8329 10.0833 23.8329ZM24.75 3.66661C25.2551 3.66661 25.6667 3.25595 25.6667 2.74995C25.6667 2.24396 25.2551 1.8333 24.75 1.8333C24.2449 1.8333 23.8333 2.24396 23.8333 2.74995C23.8333 3.25595 24.2449 3.66661 24.75 3.66661ZM10.0833 27.4995C10.5884 27.4995 11 27.0889 11 26.5829C11 26.0769 10.5884 25.6662 10.0833 25.6662C9.57826 25.6662 9.16668 26.0769 9.16668 26.5829C9.16668 27.0889 9.57826 27.4995 10.0833 27.4995Z" fill="#00B2FF"/>
<path d="M1.83336 13.0018V9.16651C1.83336 8.92268 1.92961 8.68986 2.10195 8.51844L8.51861 2.10188C8.69003 1.92955 8.92378 1.8333 9.1667 1.8333H13.9187C14.2982 0.769071 15.3065 0 16.5 0C18.0162 0 19.25 1.23381 19.25 2.74995C19.25 4.2661 18.0162 5.49991 16.5 5.49991C15.3065 5.49991 14.2982 4.73084 13.9187 3.66661H9.5462L3.6667 9.54601V13.0018C4.73095 13.3813 5.50003 14.3896 5.50003 15.5831C5.50003 17.0992 4.2662 18.333 2.75003 18.333C1.23386 18.333 3.01003e-05 17.0992 3.01003e-05 15.5831C3.01003e-05 14.3896 0.769113 13.3813 1.83336 13.0018ZM16.5 3.66661C17.0051 3.66661 17.4167 3.25595 17.4167 2.74995C17.4167 2.24396 17.0051 1.8333 16.5 1.8333C15.9949 1.8333 15.5834 2.24396 15.5834 2.74995C15.5834 3.25595 15.9949 3.66661 16.5 3.66661ZM2.75003 16.4997C3.25511 16.4997 3.6667 16.0891 3.6667 15.5831C3.6667 15.0771 3.25511 14.6664 2.75003 14.6664C2.24495 14.6664 1.83336 15.0771 1.83336 15.5831C1.83336 16.0891 2.24495 16.4997 2.75003 16.4997Z" fill="#00B2FF"/>
<path d="M14.6658 49.6688V36.4974C13.6024 36.1179 12.8334 35.1096 12.8334 33.9161C12.8334 32.4 14.0672 31.1662 15.5834 31.1662C16.7769 31.1662 17.7852 31.9352 18.1647 32.9995H27.6687C28.0482 31.9352 29.0565 31.1662 30.25 31.1662C31.4435 31.1662 32.4519 31.9352 32.8314 32.9995H38.1205L41.5259 29.5941C41.3536 29.2357 41.25 28.8397 41.25 28.4162C41.25 26.9001 42.4839 25.6663 44 25.6663C45.5162 25.6663 46.75 26.9001 46.75 28.4162C46.75 29.9324 45.5162 31.1662 44 31.1662C43.5765 31.1662 43.1805 31.0626 42.8221 30.8903L39.1481 34.5642C38.9767 34.7365 38.7429 34.8328 38.5 34.8328H32.8314C32.4519 35.897 31.4435 36.6661 30.25 36.6661C29.0565 36.6661 28.0482 35.897 27.6687 34.8328H18.1638C17.8869 35.6092 17.2755 36.2206 16.4991 36.4974V49.6688C17.5634 50.0483 18.3324 51.0566 18.3324 52.2501C18.3324 53.7662 17.0986 55 15.5824 55C14.0663 55 12.8324 53.7662 12.8324 52.2501C12.8324 51.0566 13.6015 50.0483 14.6658 49.6688ZM44 29.3329C44.5051 29.3329 44.9167 28.9222 44.9167 28.4162C44.9167 27.9102 44.5051 27.4996 44 27.4996C43.4949 27.4996 43.0834 27.9102 43.0834 28.4162C43.0834 28.9222 43.4949 29.3329 44 29.3329ZM30.25 34.8328C30.7551 34.8328 31.1667 34.4221 31.1667 33.9161C31.1667 33.4101 30.7551 32.9995 30.25 32.9995C29.7449 32.9995 29.3334 33.4101 29.3334 33.9161C29.3334 34.4221 29.7449 34.8328 30.25 34.8328ZM15.5834 53.1658C16.0884 53.1658 16.5 52.7551 16.5 52.2492C16.5 51.7432 16.0884 51.3325 15.5834 51.3325C15.0783 51.3325 14.6667 51.7432 14.6667 52.2492C14.6667 52.7551 15.0783 53.1658 15.5834 53.1658ZM15.5834 34.8328C16.0884 34.8328 16.5 34.4221 16.5 33.9161C16.5 33.4101 16.0884 32.9995 15.5834 32.9995C15.0783 32.9995 14.6667 33.4101 14.6667 33.9161C14.6667 34.4221 15.0783 34.8328 15.5834 34.8328Z" fill="#00B2FF"/>
<path d="M19.25 18.5017V15.5831C19.25 15.3392 19.3463 15.1064 19.5186 14.935L30.5259 3.92785C30.3536 3.56944 30.25 3.17345 30.25 2.74995C30.25 1.23381 31.4838 0 33 0C34.1935 0 35.2018 0.76907 35.5813 1.8333H39.4167C39.9227 1.8333 40.3333 2.24305 40.3333 2.74995V5.12041L43.7388 8.52577C44.0972 8.35344 44.4932 8.24986 44.9167 8.24986C46.4328 8.24986 47.6667 9.48368 47.6667 10.9998C47.6667 12.516 46.4328 13.7498 44.9167 13.7498C43.4005 13.7498 42.1667 12.516 42.1667 10.9998C42.1667 10.5763 42.2703 10.1803 42.4426 9.82192L38.7686 6.14798C38.5963 5.97657 38.5 5.74374 38.5 5.49991V3.66661H35.5813C35.2018 4.73084 34.1935 5.49991 33 5.49991C32.5765 5.49991 32.1805 5.39633 31.8221 5.224L21.0833 15.9626V18.5017C22.1476 18.8812 22.9167 19.8895 22.9167 21.083C22.9167 22.5991 21.6828 23.8329 20.1667 23.8329C18.6505 23.8329 17.4167 22.5991 17.4167 21.083C17.4167 19.8895 18.1858 18.8812 19.25 18.5017ZM44.9167 11.9165C45.4218 11.9165 45.8333 11.5058 45.8333 10.9998C45.8333 10.4938 45.4218 10.0832 44.9167 10.0832C44.4116 10.0832 44 10.4938 44 10.9998C44 11.5058 44.4116 11.9165 44.9167 11.9165ZM33 3.66661C33.5051 3.66661 33.9167 3.25595 33.9167 2.74995C33.9167 2.24396 33.5051 1.8333 33 1.8333C32.4949 1.8333 32.0833 2.24396 32.0833 2.74995C32.0833 3.25595 32.4949 3.66661 33 3.66661ZM20.1667 21.9996C20.6718 21.9996 21.0833 21.589 21.0833 21.083C21.0833 20.577 20.6718 20.1663 20.1667 20.1663C19.6616 20.1663 19.25 20.577 19.25 21.083C19.25 21.589 19.6616 21.9996 20.1667 21.9996Z" fill="#00B2FF"/>
<path d="M22 25.6662C23.1935 25.6662 24.2018 26.4353 24.5813 27.4995H35.3705L40.6019 22.2682C40.7733 22.0959 41.0071 21.9996 41.25 21.9996H50.9538L53.1667 19.7868V12.296L46.0946 5.224C45.7362 5.39633 45.3402 5.49991 44.9167 5.49991C43.4005 5.49991 42.1667 4.2661 42.1667 2.74995C42.1667 1.23381 43.4005 0 44.9167 0C46.4328 0 47.6667 1.23381 47.6667 2.74995C47.6667 3.17345 47.5631 3.56944 47.3907 3.92785L54.7314 11.2684C54.9037 11.4398 55 11.6726 55 11.9165V20.1663C55 20.4102 54.9037 20.643 54.7314 20.8144L51.9814 23.5644C51.81 23.7367 51.5762 23.8329 51.3333 23.8329H41.6295L36.3981 29.0643C36.2267 29.2366 35.9929 29.3328 35.75 29.3328H24.5813C24.2018 30.3971 23.1935 31.1661 22 31.1661C20.4838 31.1661 19.25 29.9323 19.25 28.4162C19.25 26.9001 20.4838 25.6662 22 25.6662ZM44.9167 1.8333C44.4116 1.8333 44 2.24396 44 2.74995C44 3.25595 44.4116 3.66661 44.9167 3.66661C45.4217 3.66661 45.8333 3.25595 45.8333 2.74995C45.8333 2.24396 45.4217 1.8333 44.9167 1.8333ZM22 29.3328C22.5051 29.3328 22.9167 28.9222 22.9167 28.4162C22.9167 27.9102 22.5051 27.4995 22 27.4995C21.4949 27.4995 21.0833 27.9102 21.0833 28.4162C21.0833 28.9222 21.4949 29.3328 22 29.3328Z" fill="#00B2FF"/>
<path d="M2.75001 21.9996C3.17351 21.9996 3.56951 22.1032 3.92793 22.2755L7.33334 18.8702V13.5811C6.26909 13.2016 5.50001 12.1933 5.50001 10.9998C5.50001 9.48368 6.73384 8.24986 8.25001 8.24986C9.76618 8.24986 11 9.48368 11 10.9998C11 12.1933 10.2309 13.2016 9.16668 13.5811V19.2497C9.16668 19.4935 9.07043 19.7263 8.89809 19.8978L5.2241 23.5717C5.39643 23.9301 5.50001 24.3261 5.50001 24.7496C5.50001 25.9431 4.73093 26.9514 3.66668 27.3309V28.0367L10.7314 35.1013C10.9038 35.2727 11 35.5056 11 35.7494V36.8347C12.0643 37.2142 12.8333 38.2225 12.8333 39.416C12.8333 40.6095 12.0643 41.6178 11 41.9973V44.1688C12.0643 44.5483 12.8333 45.5567 12.8333 46.7501C12.8333 48.2663 11.5995 49.5001 10.0833 49.5001C8.56718 49.5001 7.33334 48.2663 7.33334 46.7501C7.33334 45.5567 8.10243 44.5483 9.16668 44.1688V41.9973C8.10243 41.6178 7.33334 40.6095 7.33334 39.416C7.33334 38.2225 8.10243 37.2142 9.16668 36.8347V36.1289L2.10193 29.0643C1.92959 28.8929 1.83334 28.66 1.83334 28.4162V27.3309C0.769095 26.9514 1.15633e-05 25.9431 1.15633e-05 24.7496C1.15633e-05 23.2334 1.23384 21.9996 2.75001 21.9996ZM8.25001 11.9165C8.75509 11.9165 9.16668 11.5058 9.16668 10.9998C9.16668 10.4938 8.75509 10.0832 8.25001 10.0832C7.74493 10.0832 7.33334 10.4938 7.33334 10.9998C7.33334 11.5058 7.74493 11.9165 8.25001 11.9165ZM10.0833 47.6659C10.5884 47.6659 11 47.2552 11 46.7492C11 46.2432 10.5884 45.8326 10.0833 45.8326C9.57826 45.8326 9.16668 46.2432 9.16668 46.7492C9.16668 47.2552 9.57826 47.6659 10.0833 47.6659ZM10.0833 40.3327C10.5884 40.3327 11 39.922 11 39.416C11 38.91 10.5884 38.4994 10.0833 38.4994C9.57826 38.4994 9.16668 38.91 9.16668 39.416C9.16668 39.922 9.57826 40.3327 10.0833 40.3327ZM2.75001 25.6662C3.25509 25.6662 3.66668 25.2556 3.66668 24.7496C3.66668 24.2436 3.25509 23.8329 2.75001 23.8329C2.24493 23.8329 1.83334 24.2436 1.83334 24.7496C1.83334 25.2556 2.24493 25.6662 2.75001 25.6662Z" fill="#00B2FF"/>
</svg>
