<svg width="119" height="20" viewBox="0 0 119 20" fill="none" xmlns="http://www.w3.org/2000/svg">
<path d="M9.31836 14.1377C9.31836 13.8076 9.28874 13.5072 9.22949 13.2363C9.17025 12.9655 9.04329 12.7158 8.84863 12.4873C8.66243 12.2588 8.38737 12.0303 8.02344 11.8018C7.66797 11.5732 7.20247 11.3363 6.62695 11.0908C5.94141 10.8031 5.27702 10.4984 4.63379 10.1768C3.99056 9.84668 3.41081 9.46582 2.89453 9.03418C2.37826 8.60254 1.96777 8.09473 1.66309 7.51074C1.36686 6.91829 1.21875 6.22428 1.21875 5.42871C1.21875 4.65007 1.3584 3.94336 1.6377 3.30859C1.92546 2.67383 2.33171 2.13216 2.85645 1.68359C3.38118 1.22656 3.99479 0.875326 4.69727 0.629883C5.4082 0.38444 6.19954 0.261719 7.07129 0.261719C8.25618 0.261719 9.28027 0.507161 10.1436 0.998047C11.0153 1.48893 11.6882 2.16178 12.1621 3.0166C12.6445 3.87142 12.8857 4.85319 12.8857 5.96191H9.17871C9.17871 5.43717 9.10254 4.97591 8.9502 4.57812C8.80632 4.17188 8.57357 3.85449 8.25195 3.62598C7.93034 3.39746 7.51562 3.2832 7.00781 3.2832C6.53385 3.2832 6.1403 3.38053 5.82715 3.5752C5.52246 3.76139 5.29395 4.01953 5.1416 4.34961C4.99772 4.67122 4.92578 5.03516 4.92578 5.44141C4.92578 5.74609 4.99772 6.02116 5.1416 6.2666C5.29395 6.50358 5.5013 6.7194 5.76367 6.91406C6.02604 7.10026 6.33496 7.28223 6.69043 7.45996C7.05436 7.6377 7.45215 7.8112 7.88379 7.98047C8.72168 8.31055 9.46224 8.67448 10.1055 9.07227C10.7487 9.46159 11.2861 9.90169 11.7178 10.3926C12.1494 10.875 12.4753 11.4209 12.6953 12.0303C12.9154 12.6396 13.0254 13.3337 13.0254 14.1123C13.0254 14.8825 12.89 15.585 12.6191 16.2197C12.3568 16.846 11.9717 17.3877 11.4639 17.8447C10.9561 18.2933 10.3424 18.6403 9.62305 18.8857C8.91211 19.1312 8.11654 19.2539 7.23633 19.2539C6.38151 19.2539 5.57324 19.1354 4.81152 18.8984C4.0498 18.653 3.37695 18.2848 2.79297 17.7939C2.21745 17.2946 1.76465 16.6641 1.43457 15.9023C1.10449 15.1322 0.939453 14.2223 0.939453 13.1729H4.65918C4.65918 13.7314 4.71419 14.2096 4.82422 14.6074C4.93424 14.9967 5.10352 15.3099 5.33203 15.5469C5.56055 15.7754 5.83984 15.9489 6.16992 16.0674C6.50846 16.1774 6.89355 16.2324 7.3252 16.2324C7.81608 16.2324 8.2054 16.1393 8.49316 15.9531C8.78939 15.7669 9.00098 15.5173 9.12793 15.2041C9.25488 14.891 9.31836 14.5355 9.31836 14.1377ZM23.8418 0.515625H27.5488V13.2109C27.5488 14.6328 27.2865 15.7923 26.7617 16.6895C26.2454 17.5781 25.5303 18.2298 24.6162 18.6445C23.7021 19.0508 22.6569 19.2539 21.4805 19.2539C20.2956 19.2539 19.2419 19.0508 18.3193 18.6445C17.3968 18.2298 16.6774 17.5781 16.1611 16.6895C15.6533 15.7923 15.3994 14.6328 15.3994 13.2109V0.515625H19.1064V13.2109C19.1064 14.015 19.1953 14.6328 19.373 15.0645C19.5592 15.4961 19.8258 15.7923 20.1729 15.9531C20.5283 16.1055 20.9642 16.1816 21.4805 16.1816C22.0052 16.1816 22.4368 16.1055 22.7754 15.9531C23.1224 15.7923 23.3848 15.4961 23.5625 15.0645C23.7487 14.6328 23.8418 14.015 23.8418 13.2109V0.515625ZM36.6895 12.4873H32.9062V9.40234H36.6895C37.2142 9.40234 37.6416 9.28385 37.9717 9.04688C38.3102 8.8099 38.5557 8.48405 38.708 8.06934C38.8604 7.64616 38.9365 7.1722 38.9365 6.64746C38.9365 6.11426 38.8561 5.61914 38.6953 5.16211C38.543 4.69661 38.3018 4.31999 37.9717 4.03223C37.6501 3.74447 37.2227 3.60059 36.6895 3.60059H34.0996V19H30.3926V0.515625H36.6895C37.9336 0.515625 39.0042 0.777995 39.9014 1.30273C40.7985 1.82747 41.484 2.55111 41.958 3.47363C42.4404 4.3877 42.6816 5.43717 42.6816 6.62207C42.6816 7.81543 42.4404 8.85221 41.958 9.73242C41.484 10.6042 40.7985 11.2812 39.9014 11.7637C39.0042 12.2461 37.9336 12.4873 36.6895 12.4873ZM55.7705 15.9277V19H47.7344V15.9277H55.7705ZM48.8896 0.515625V19H45.1699V0.515625H48.8896ZM54.6914 8.00586V10.9893H47.7344V8.00586H54.6914ZM55.7451 0.515625V3.60059H47.7344V0.515625H55.7451ZM57.9541 0.515625H63.8828C65.1185 0.515625 66.1722 0.727214 67.0439 1.15039C67.9157 1.57357 68.5843 2.19987 69.0498 3.0293C69.5153 3.85872 69.748 4.88281 69.748 6.10156C69.748 7.10026 69.6126 7.95508 69.3418 8.66602C69.071 9.36849 68.6859 9.95671 68.1865 10.4307C67.6872 10.8962 67.0905 11.2686 66.3965 11.5479L65.2666 12.2207H60.4551L60.4424 9.13574H63.7812C64.2891 9.13574 64.708 9.02572 65.0381 8.80566C65.3766 8.57715 65.6263 8.25977 65.7871 7.85352C65.9564 7.4388 66.041 6.95638 66.041 6.40625C66.041 5.82227 65.9648 5.32292 65.8125 4.9082C65.6686 4.48503 65.4359 4.16341 65.1143 3.94336C64.8011 3.71484 64.3906 3.60059 63.8828 3.60059H61.6738V19H57.9541V0.515625ZM66.3457 19L62.9561 10.7607L66.8535 10.748L70.3193 18.8223V19H66.3457ZM84.8936 9.28809V16.9053C84.6312 17.1846 84.2461 17.5104 83.7383 17.8828C83.2389 18.2467 82.583 18.5684 81.7705 18.8477C80.9665 19.1185 79.9847 19.2539 78.8252 19.2539C77.8011 19.2539 76.8701 19.0931 76.0322 18.7715C75.2028 18.4499 74.4876 17.9632 73.8867 17.3115C73.2943 16.6514 72.8415 15.8304 72.5283 14.8486C72.2152 13.8584 72.0586 12.6862 72.0586 11.332V8.18359C72.0586 6.84635 72.2067 5.68262 72.5029 4.69238C72.8076 3.69368 73.2477 2.86426 73.8232 2.2041C74.3988 1.54395 75.0843 1.05306 75.8799 0.731445C76.6839 0.409831 77.5895 0.249023 78.5967 0.249023C79.9847 0.249023 81.123 0.481771 82.0117 0.947266C82.9089 1.41276 83.5859 2.10254 84.043 3.0166C84.5085 3.93066 84.7878 5.05208 84.8809 6.38086H81.2881C81.2288 5.60221 81.0977 4.99284 80.8945 4.55273C80.6999 4.11263 80.4248 3.79948 80.0693 3.61328C79.7139 3.41862 79.2526 3.32129 78.6855 3.32129C78.1947 3.32129 77.7673 3.41016 77.4033 3.58789C77.0394 3.75716 76.7347 4.03646 76.4893 4.42578C76.2438 4.8151 76.0618 5.31445 75.9434 5.92383C75.8249 6.5332 75.7656 7.27799 75.7656 8.1582V11.332C75.7656 12.2038 75.8333 12.9486 75.9688 13.5664C76.1042 14.1842 76.3031 14.6878 76.5654 15.0771C76.8363 15.4665 77.1748 15.75 77.5811 15.9277C77.9958 16.097 78.4824 16.1816 79.041 16.1816C79.4896 16.1816 79.8493 16.1351 80.1201 16.042C80.391 15.9489 80.6068 15.8516 80.7676 15.75C80.9368 15.64 81.0765 15.5553 81.1865 15.4961V12.0938H78.5332V9.28809H84.8936ZM90.3145 0.515625L93.1328 8.84375L95.9258 0.515625H99.9756L94.999 12.2842V19H91.2539V12.2842L86.2773 0.515625H90.3145ZM103.01 0.515625H106.272L110.043 13.1602L113.801 0.515625H116.683L111.427 19H108.646L103.01 0.515625ZM101.689 0.515625H104.8L105.282 12.7031V19H101.689V0.515625ZM115.261 0.515625H118.384V19H114.804V12.7031L115.261 0.515625Z" fill="white"/>
</svg>
