<svg xmlns="http://www.w3.org/2000/svg" width="30" height="30" fill="none"><path fill="#F8FDFF" d="M15 0a15 15 0 1 1 0 30 15 15 0 0 1 0-30Z"/><path fill="#041827" d="M15 5a10 10 0 1 0 .01 20.01A10 10 0 0 0 15 5Zm0 .87a9.12 9.12 0 1 1-2.65 17.87c.37-.63.85-1.52 1.04-2.26l.59-2.22c.3.58 1.2 1.07 2.14 1.07 2.82 0 4.85-2.6 4.85-5.81 0-3.1-2.52-5.4-5.76-5.4-4.04 0-6.18 2.7-6.18 5.66 0 1.37.73 3.07 1.9 3.62.18.08.27.04.31-.13l.26-1.06a.28.28 0 0 0-.06-.27 3.64 3.64 0 0 1-.7-2.13 4.05 4.05 0 0 1 4.22-4.06c2.3 0 3.9 1.57 3.9 3.8 0 2.54-1.27 4.29-2.93 4.29-.92 0-1.6-.76-1.39-1.7.27-1.1.78-2.3.78-3.1 0-.72-.39-1.32-1.19-1.32-.93 0-1.69.97-1.69 2.27 0 .83.28 1.39.28 1.39l-1.1 4.64a8.32 8.32 0 0 0-.05 2.44A9.12 9.12 0 0 1 15 5.87Z"/></svg>