<svg xmlns="http://www.w3.org/2000/svg" width="30" height="30" fill="none"><path fill="#F2F5F7" d="M3.3 10 1.76 8.73a1.55 1.55 0 0 1 0-2.48c.84-.69 2.2-.69 3.03 0L6.43 7.6a16.9 16.9 0 0 1 5.71-1.99V3.87h-1.43c-.39 0-.71-.27-.71-.59V1.76C10 .79 10.96 0 12.14 0h5.72C19.04 0 20 .79 20 1.76v1.52c0 .32-.32.59-.71.59h-1.43V5.6c2.04.33 4 1 5.7 1.99l1.65-1.35c.83-.69 2.2-.69 3.03 0 .83.68.83 1.8 0 2.48L26.7 10a11 11 0 0 1 3.3 7.7C30 24.48 23.27 30 15 30S0 24.48 0 17.7A11 11 0 0 1 3.3 10Zm.48-2.92a.83.83 0 0 0-1 0 .52.52 0 0 0 0 .83l1.47 1.2c.33-.27.68-.54 1.04-.8L3.8 7.09Zm14.8-5.32c0-.33-.33-.59-.72-.59h-5.72c-.4 0-.71.26-.71.59v.94h7.14v-.94Zm-5 2.1v1.59c.94-.08 1.9-.08 2.85 0V3.87h-2.86Zm13.65 3.22a.83.83 0 0 0-1.01 0L24.7 8.32c.36.25.71.52 1.04.8l1.48-1.21a.52.52 0 0 0 0-.83ZM15 28.83c7.48 0 13.57-5 13.57-11.13 0-2.71-1.2-5.32-3.37-7.35-.6-.56-1.27-1.07-2-1.52A15.25 15.25 0 0 0 15 6.56c-.68 0-1.37.04-2.04.13A15.25 15.25 0 0 0 6.8 8.83c-.72.45-1.39.96-1.99 1.52a10.06 10.06 0 0 0-3.37 7.35c0 6.13 6.09 11.13 13.57 11.13Z"/><path fill="#F2F5F7" d="M15 19.45c-1.18 0-2.14-.79-2.14-1.75 0-.77.6-1.42 1.43-1.66v-4.2c0-.33.32-.59.71-.59.4 0 .71.26.71.59v4.2c.84.24 1.43.9 1.43 1.66 0 .96-.96 1.75-2.14 1.75Zm0-2.34c-.4 0-.71.26-.71.59 0 .32.32.58.71.58.4 0 .71-.26.71-.58 0-.33-.32-.6-.71-.6Z"/><path fill="#F2F5F7" d="M7.39 11.51a.5.5 0 0 1 .08-.06 11.44 11.44 0 0 1 4.5-2.19c.38-.09.77.09.89.4.1.31-.1.64-.49.73-1.25.3-2.41.82-3.4 1.52l.47.4c.28.23.28.6 0 .83a.8.8 0 0 1-.5.17.8.8 0 0 1-.5-.17l-.49-.4a6.91 6.91 0 0 0-2.2 4.37h.68c.4 0 .71.26.71.59 0 .32-.32.58-.71.58h-.69a6.91 6.91 0 0 0 2.21 4.37l.48-.4a.83.83 0 0 1 1.01 0c.28.23.28.6 0 .83l-.48.4a10.35 10.35 0 0 0 5.33 1.81v-.56c0-.33.32-.59.71-.59.4 0 .71.26.71.59v.56c1.98-.12 3.83-.75 5.33-1.81l-.48-.4a.51.51 0 0 1 0-.83.83.83 0 0 1 1 0l.49.4a6.91 6.91 0 0 0 2.2-4.37h-.68c-.4 0-.71-.26-.71-.58 0-.33.32-.6.71-.6h.69a6.91 6.91 0 0 0-2.21-4.36l-.48.4a.8.8 0 0 1-.51.17.8.8 0 0 1-.5-.17.52.52 0 0 1 0-.83l.48-.4c-1-.7-2.16-1.22-3.41-1.52-.38-.1-.6-.42-.49-.73.11-.31.51-.49.89-.4a11.44 11.44 0 0 1 4.54 2.22l.04.03c2 1.66 3.1 3.86 3.1 6.19 0 2.33-1.1 4.52-3.1 6.18l-.04.03-.03.03A11.93 11.93 0 0 1 15 26.48c-2.84 0-5.51-.9-7.54-2.54l-.03-.03-.04-.03a8.01 8.01 0 0 1-3.1-6.18c0-2.33 1.1-4.53 3.1-6.19Z"/><path fill="#F2F5F7" d="M15 10.08c-.4 0-.71-.26-.71-.59 0-.32.32-.58.71-.58.4 0 .71.26.71.58 0 .33-.32.59-.71.59Z"/></svg>