<svg xmlns="http://www.w3.org/2000/svg" width="30" height="30" fill="none"><path fill="#00B2FF" d="M9.49 7.36a.59.59 0 0 0-.83 0 .6.6 0 0 0 0 .83.59.59 0 0 0 .83 0 .6.6 0 0 0 0-.83Z"/><path fill="#00B2FF" d="m29.83 2.45-.73-.73.73-.72A.59.59 0 0 0 29 .17l-.72.73-.72-.72a.59.59 0 0 0-.41-.17h-9.92c-.78 0-1.52.3-2.07.85L10.2 5.81a.59.59 0 0 0 .83.83l4.94-4.95c.34-.33.78-.51 1.25-.51h9.67l.55.54-2.18 2.18a2.4 2.4 0 1 0 .83.83l2.18-2.18.55.56v9.66c0 .47-.2.91-.52 1.24L14 28.31a1.75 1.75 0 0 1-2.49 0l-9.83-9.83a1.75 1.75 0 0 1 0-2.49L8 9.67a.59.59 0 0 0-.83-.83L.86 15.16a2.91 2.91 0 0 0 0 4.15l9.83 9.83a2.92 2.92 0 0 0 4.15 0l14.3-14.3c.55-.55.85-1.29.85-2.07l.01-9.9c0-.16-.06-.31-.17-.42ZM24.9 6.83a1.22 1.22 0 0 1-1.74 0 1.23 1.23 0 0 1 1.22-2.05l-.68.68a.59.59 0 0 0 .83.83l.68-.68c.12.42.02.89-.31 1.22Z"/><path fill="#00B2FF" d="M25.03 11.8 18.2 4.97c-.9-.9-2.37-.9-3.28 0l-10.8 10.8a2.3 2.3 0 0 0 0 3.29l6.83 6.83a2.3 2.3 0 0 0 3.28 0l10.8-10.81a2.3 2.3 0 0 0 0-3.28Zm-.83 2.45-10.8 10.8a1.14 1.14 0 0 1-1.63 0l-6.82-6.82a1.14 1.14 0 0 1 0-1.62L15.75 5.8a1.14 1.14 0 0 1 1.63 0l6.82 6.83a1.14 1.14 0 0 1 0 1.62Z"/><path fill="#00B2FF" d="M19.11 11.72a.59.59 0 0 0-.83-.83l-.34.34a2.26 2.26 0 0 0-2.78.25c-.43.43-.65 1-.62 1.63a2.47 2.47 0 0 0 .73 1.62c.47.47.53 1.19.12 1.6-.4.4-1.12.35-1.6-.12-.46-.48-.52-1.19-.1-1.6a.59.59 0 0 0-.84-.83c-.73.74-.8 1.9-.25 2.8l-.4.4a.59.59 0 1 0 .83.82l.4-.4c.4.24.84.37 1.27.37.56 0 1.1-.2 1.52-.62.86-.86.81-2.32-.12-3.25a1.3 1.3 0 0 1-.39-.85.97.97 0 0 1 .27-.74c.41-.4 1.13-.35 1.6.12.47.47.52 1.18.11 1.59a.59.59 0 0 0 .83.83c.73-.73.8-1.89.25-2.79l.34-.34ZM13.18 21.44l-3.01-3.01a.59.59 0 0 0-.83.83l3.01 3a.58.58 0 0 0 .83 0 .59.59 0 0 0 0-.82ZM8.56 16.82a.59.59 0 0 0-.83 0 .6.6 0 0 0 0 .83.59.59 0 0 0 .83 0 .59.59 0 0 0 0-.83Z"/></svg>