<svg width="150" height="320" viewBox="0 0 150 320" fill="none" xmlns="http://www.w3.org/2000/svg" xmlns:xlink="http://www.w3.org/1999/xlink"><mask id="mask0_21855_489" style="mask-type:alpha" maskUnits="userSpaceOnUse" x="32" y="10" width="115" height="305"><path d="M127.224 247.293L145 247.293L145 312.752L129.818 312.752L91.5948 282.693C87.5767 279.793 84.0672 277.53 81.0664 275.902C78.0147 274.275 75.2935 273.105 72.903 272.393C70.4616 271.681 68.1729 271.325 66.0366 271.325C62.7306 271.325 59.9078 271.706 57.5681 272.469C55.1776 273.232 53.3466 274.377 52.075 275.902C50.7526 277.377 50.0914 279.208 50.0914 281.396C50.0914 284.04 50.9052 286.227 52.5328 287.957C54.1603 289.686 56.3983 290.983 59.2466 291.848C62.044 292.662 65.2229 293.068 68.7832 293.068L68.7832 314.507C62.1203 314.507 56.0168 313.159 50.4729 310.463C44.9289 307.717 40.5293 303.877 37.2741 298.943C33.9681 293.958 32.3151 287.982 32.3151 281.014C32.3151 274.199 33.5866 268.502 36.1297 263.924C38.6728 259.296 42.3095 255.812 47.0397 253.472C51.719 251.082 57.3138 249.887 63.8241 249.887C67.5371 249.887 71.1483 250.37 74.6578 251.336C78.1164 252.302 81.575 253.676 85.0336 255.456C88.4414 257.236 91.9254 259.423 95.4858 262.017C99.0461 264.611 102.734 267.536 106.548 270.791L127.224 285.287L127.224 247.293ZM79.6931 169.245L98.9953 169.245C107.337 169.245 114.508 170.033 120.51 171.61C126.512 173.186 131.445 175.399 135.311 178.247C139.125 181.096 141.948 184.478 143.779 188.394C145.61 192.311 146.526 196.634 146.526 201.364C146.526 205.128 145.941 208.663 144.771 211.969C143.601 215.275 141.821 218.276 139.431 220.971C136.989 223.616 133.912 225.905 130.199 227.838C126.435 229.72 121.985 231.169 116.848 232.186C111.66 233.204 105.709 233.712 98.9953 233.712L79.6931 233.712C71.3517 233.712 64.2056 232.924 58.2547 231.347C52.253 229.72 47.3448 227.482 43.5302 224.633C39.7155 221.785 36.9181 218.403 35.1379 214.487C33.3069 210.519 32.3914 206.171 32.3914 201.44C32.3914 197.727 32.9763 194.218 34.1461 190.912C35.2651 187.555 37.0198 184.58 39.4103 181.986C41.8009 179.341 44.878 177.077 48.6418 175.196C52.3547 173.263 56.8052 171.788 61.9931 170.771C67.1302 169.753 73.0302 169.245 79.6931 169.245ZM101.971 190.683L76.5651 190.683C72.6487 190.683 69.2155 190.861 66.2655 191.217C63.3155 191.522 60.8233 191.955 58.7888 192.514C56.7543 193.074 55.1013 193.811 53.8297 194.727C52.5582 195.642 51.6427 196.659 51.0832 197.778C50.4728 198.897 50.1677 200.143 50.1677 201.517C50.1677 203.144 50.6254 204.619 51.5409 205.942C52.4565 207.264 53.9569 208.408 56.0422 209.375C58.0767 210.341 60.7978 211.079 64.2056 211.587C67.5625 212.045 71.6823 212.274 76.5651 212.274L101.971 212.274C105.887 212.274 109.346 212.121 112.347 211.816C115.347 211.46 117.916 210.977 120.052 210.367C122.138 209.705 123.816 208.968 125.088 208.154C126.359 207.29 127.3 206.298 127.91 205.179C128.47 204.009 128.75 202.737 128.75 201.364C128.75 199.736 128.292 198.261 127.376 196.939C126.41 195.566 124.884 194.421 122.799 193.506C120.713 192.59 117.967 191.904 114.559 191.446C111.1 190.937 106.904 190.683 101.971 190.683ZM127.224 89.2132L145 89.2132L145 154.673L129.818 154.673L91.5948 124.613C87.5767 121.714 84.0672 119.451 81.0664 117.823C78.0147 116.196 75.2935 115.026 72.903 114.314C70.4616 113.602 68.1728 113.246 66.0366 113.246C62.7306 113.246 59.9078 113.627 57.5681 114.39C55.1776 115.153 53.3465 116.297 52.075 117.823C50.7526 119.298 50.0914 121.129 50.0914 123.316C50.0914 125.961 50.9052 128.148 52.5328 129.877C54.1603 131.607 56.3983 132.904 59.2466 133.768C62.044 134.582 65.2228 134.989 68.7832 134.989L68.7832 156.427C62.1203 156.427 56.0168 155.08 50.4728 152.384C44.9289 149.637 40.5293 145.797 37.2741 140.864C33.9681 135.879 32.3151 129.903 32.3151 122.935C32.3151 116.119 33.5866 110.423 36.1297 105.845C38.6728 101.217 42.3095 97.7326 47.0397 95.393C51.719 93.0024 57.3138 91.8072 63.8241 91.8072C67.5371 91.8072 71.1483 92.2904 74.6578 93.2567C78.1164 94.2231 81.575 95.5964 85.0336 97.3766C88.4414 99.1567 91.9254 101.344 95.4858 103.938C99.0461 106.532 102.734 109.456 106.548 112.711L127.224 127.207L127.224 89.2132ZM127.224 10.1735L145 10.1735L145 75.633L129.818 75.633L91.5948 45.5736C87.5767 42.6744 84.0672 40.4111 81.0664 38.7835C78.0147 37.1559 75.2935 35.9861 72.903 35.274C70.4616 34.5619 68.1728 34.2059 66.0366 34.2059C62.7306 34.2059 59.9078 34.5873 57.5681 35.3503C55.1776 36.1132 53.3465 37.2576 52.075 38.7835C50.7526 40.2585 50.0914 42.0895 50.0914 44.2766C50.0914 46.9214 50.9052 49.1085 52.5328 50.8378C54.1603 52.5671 56.3983 53.8641 59.2465 54.7287C62.044 55.5425 65.2228 55.9494 68.7832 55.9494L68.7832 77.3878C62.1203 77.3878 56.0168 76.0399 50.4728 73.3442C44.9289 70.5977 40.5293 66.7576 37.2741 61.824C33.9681 56.8395 32.3151 50.8632 32.3151 43.8951C32.3151 37.0796 33.5866 31.383 36.1297 26.8055C38.6728 22.177 42.3095 18.693 47.0396 16.3533C51.719 13.9628 57.3138 12.7675 63.8241 12.7675C67.5371 12.7675 71.1483 13.2507 74.6578 14.2171C78.1164 15.1835 81.575 16.5567 85.0336 18.3369C88.4414 20.1171 91.9254 22.3042 95.4858 24.8981C99.0461 27.4921 102.734 30.4167 106.548 33.6718L127.224 48.1675L127.224 10.1735Z" fill="#00B35D"/></mask><g mask="url(#mask0_21855_489)"><rect x="-240.682" y="-133.249" width="586.364" height="488.58" fill="url(#pattern0)"/></g><defs><pattern id="pattern0" patternContentUnits="objectBoundingBox" width="1" height="1"><use xlink:href="#image0_21855_489" transform="matrix(0.00092582 0 0 0.00111111 -0.240656 0)"/></pattern></defs></svg>